G75*
%MOIN*%
%OFA0B0*%
%FSLAX25Y25*%
%IPPOS*%
%LPD*%
%AMOC8*
5,1,8,0,0,1.08239X$1,22.5*
%
%ADD10C,0.07400*%
%ADD11OC8,0.07400*%
%ADD12C,0.06000*%
%ADD13C,0.05150*%
%ADD14C,0.06000*%
%ADD15R,0.06024X0.06024*%
%ADD16C,0.06024*%
%ADD17R,0.09843X0.09843*%
%ADD18OC8,0.07600*%
%ADD19C,0.01200*%
%ADD20C,0.03569*%
%ADD21C,0.04000*%
%ADD22C,0.04356*%
%ADD23C,0.03962*%
%ADD24C,0.02400*%
%ADD25C,0.05000*%
%ADD26C,0.03200*%
%ADD27C,0.01600*%
D10*
X0046200Y0032200D03*
X0056200Y0032200D03*
X0066200Y0032200D03*
X0076200Y0032200D03*
X0086200Y0032200D03*
X0096200Y0032200D03*
X0106200Y0032200D03*
X0116200Y0032200D03*
X0132200Y0032200D03*
X0142200Y0032200D03*
X0152200Y0032200D03*
X0162200Y0032200D03*
X0172200Y0032200D03*
X0182200Y0032200D03*
X0192200Y0032200D03*
X0202200Y0032200D03*
X0222200Y0032200D03*
X0232200Y0032200D03*
X0242200Y0032200D03*
X0252200Y0032200D03*
X0262200Y0032200D03*
X0272200Y0032200D03*
X0282200Y0032200D03*
X0292200Y0032200D03*
X0322200Y0032200D03*
X0332200Y0032200D03*
X0332200Y0202200D03*
X0322200Y0202200D03*
X0312200Y0222200D03*
X0302200Y0222200D03*
X0292200Y0222200D03*
X0282200Y0222200D03*
X0272200Y0222200D03*
X0262200Y0222200D03*
X0252200Y0222200D03*
X0242200Y0222200D03*
X0222200Y0222200D03*
X0212200Y0222200D03*
X0202200Y0222200D03*
X0192200Y0222200D03*
X0182200Y0222200D03*
X0172200Y0222200D03*
X0162200Y0222200D03*
X0152200Y0222200D03*
X0132200Y0222200D03*
X0122200Y0222200D03*
X0112200Y0222200D03*
X0102200Y0222200D03*
X0092200Y0222200D03*
X0082200Y0222200D03*
D11*
X0322200Y0192200D03*
X0322200Y0182200D03*
X0322200Y0172200D03*
X0332200Y0172200D03*
X0332200Y0182200D03*
X0332200Y0192200D03*
X0332200Y0162200D03*
X0332200Y0152200D03*
X0322200Y0152200D03*
X0322200Y0162200D03*
X0322200Y0142200D03*
X0322200Y0132200D03*
X0322200Y0122200D03*
X0332200Y0122200D03*
X0332200Y0132200D03*
X0332200Y0142200D03*
X0332200Y0112200D03*
X0332200Y0102200D03*
X0322200Y0102200D03*
X0322200Y0112200D03*
X0322200Y0092200D03*
X0322200Y0082200D03*
X0322200Y0072200D03*
X0332200Y0072200D03*
X0332200Y0082200D03*
X0332200Y0092200D03*
X0332200Y0062200D03*
X0332200Y0052200D03*
X0332200Y0042200D03*
X0322200Y0042200D03*
X0322200Y0052200D03*
X0322200Y0062200D03*
D12*
X0347200Y0114200D02*
X0347200Y0120200D01*
X0357200Y0120200D02*
X0357200Y0114200D01*
X0367200Y0114200D02*
X0367200Y0120200D01*
X0377200Y0120200D02*
X0377200Y0114200D01*
X0387200Y0114200D02*
X0387200Y0120200D01*
X0397200Y0120200D02*
X0397200Y0114200D01*
X0407200Y0114200D02*
X0407200Y0120200D01*
D13*
X0409775Y0097200D02*
X0404625Y0097200D01*
X0404625Y0087200D02*
X0409775Y0087200D01*
X0409775Y0077200D02*
X0404625Y0077200D01*
X0404625Y0067200D02*
X0409775Y0067200D01*
X0409775Y0057200D02*
X0404625Y0057200D01*
X0404625Y0047200D02*
X0409775Y0047200D01*
X0409775Y0037200D02*
X0404625Y0037200D01*
X0404625Y0027200D02*
X0409775Y0027200D01*
X0359775Y0027200D02*
X0354625Y0027200D01*
X0354625Y0037200D02*
X0359775Y0037200D01*
X0359775Y0047200D02*
X0354625Y0047200D01*
X0354625Y0057200D02*
X0359775Y0057200D01*
X0359775Y0067200D02*
X0354625Y0067200D01*
X0354625Y0077200D02*
X0359775Y0077200D01*
X0359775Y0087200D02*
X0354625Y0087200D01*
X0354625Y0097200D02*
X0359775Y0097200D01*
D14*
X0357200Y0272200D03*
X0347200Y0272200D03*
X0337200Y0272200D03*
X0327200Y0272200D03*
X0317200Y0272200D03*
X0307200Y0272200D03*
X0307200Y0282200D03*
X0307200Y0292200D03*
X0317200Y0292200D03*
X0317200Y0282200D03*
X0327200Y0282200D03*
X0327200Y0292200D03*
X0337200Y0292200D03*
X0347200Y0292200D03*
X0347200Y0282200D03*
X0337200Y0282200D03*
X0357200Y0282200D03*
X0357200Y0292200D03*
X0367200Y0292200D03*
X0367200Y0282200D03*
X0377200Y0282200D03*
X0377200Y0292200D03*
X0387200Y0292200D03*
X0387200Y0282200D03*
X0397200Y0282200D03*
X0397200Y0292200D03*
X0407200Y0292200D03*
X0407200Y0282200D03*
X0417200Y0282200D03*
X0427200Y0282200D03*
X0427200Y0292200D03*
X0417200Y0292200D03*
X0417200Y0272200D03*
X0427200Y0272200D03*
X0407200Y0272200D03*
X0397200Y0272200D03*
X0387200Y0272200D03*
X0377200Y0272200D03*
X0367200Y0272200D03*
D15*
X0282739Y0361200D03*
X0145706Y0361200D03*
X0056078Y0360950D03*
X0455639Y0361200D03*
D16*
X0467450Y0361200D03*
X0479261Y0361200D03*
X0479261Y0349389D03*
X0467450Y0349389D03*
X0455639Y0349389D03*
X0412661Y0349389D03*
X0400850Y0349389D03*
X0400850Y0361200D03*
X0412661Y0361200D03*
X0389039Y0361200D03*
X0377228Y0361200D03*
X0365417Y0361200D03*
X0353606Y0361200D03*
X0353606Y0349389D03*
X0365417Y0349389D03*
X0377228Y0349389D03*
X0389039Y0349389D03*
X0341794Y0349389D03*
X0329983Y0349389D03*
X0318172Y0349389D03*
X0306361Y0349389D03*
X0294550Y0349389D03*
X0282739Y0349389D03*
X0294550Y0361200D03*
X0306361Y0361200D03*
X0318172Y0361200D03*
X0329983Y0361200D03*
X0341794Y0361200D03*
X0240194Y0361200D03*
X0228383Y0361200D03*
X0216572Y0361200D03*
X0204761Y0361200D03*
X0192950Y0361200D03*
X0192950Y0349389D03*
X0204761Y0349389D03*
X0216572Y0349389D03*
X0228383Y0349389D03*
X0240194Y0349389D03*
X0181139Y0349389D03*
X0169328Y0349389D03*
X0157517Y0349389D03*
X0145706Y0349389D03*
X0157517Y0361200D03*
X0169328Y0361200D03*
X0181139Y0361200D03*
X0103322Y0360950D03*
X0091511Y0360950D03*
X0079700Y0360950D03*
X0067889Y0360950D03*
X0067889Y0349139D03*
X0079700Y0349139D03*
X0091511Y0349139D03*
X0103322Y0349139D03*
X0056078Y0349139D03*
D17*
X0423200Y0190200D03*
X0491200Y0190200D03*
X0491200Y0034200D03*
X0423200Y0034200D03*
D18*
X0268450Y0360450D03*
X0258450Y0360450D03*
D19*
X0261450Y0344450D02*
X0260950Y0343950D01*
X0260950Y0338950D01*
X0264700Y0335200D01*
X0264700Y0271700D01*
X0252950Y0259950D01*
X0173700Y0259950D01*
X0167200Y0253450D01*
X0167200Y0202700D01*
X0180440Y0208960D02*
X0172200Y0217200D01*
X0172200Y0222200D01*
X0174200Y0229700D02*
X0191950Y0229700D01*
X0197200Y0224450D01*
X0197200Y0201190D01*
X0201190Y0197200D01*
X0204950Y0198450D02*
X0202200Y0201200D01*
X0202200Y0222200D01*
X0207200Y0229450D02*
X0207200Y0193950D01*
X0210200Y0190950D01*
X0226450Y0190950D01*
X0230450Y0186950D01*
X0255200Y0186950D01*
X0261450Y0180700D01*
X0261450Y0168950D01*
X0271200Y0159200D01*
X0284450Y0159200D01*
X0287450Y0162700D02*
X0287950Y0162200D01*
X0287450Y0162700D02*
X0271200Y0162700D01*
X0263700Y0170200D01*
X0263700Y0181700D01*
X0256200Y0189200D01*
X0231450Y0189200D01*
X0227450Y0193200D01*
X0220200Y0193200D01*
X0217200Y0196200D01*
X0217200Y0230200D01*
X0210200Y0237200D01*
X0181200Y0237200D01*
X0179450Y0235450D01*
X0176950Y0239450D02*
X0174700Y0237200D01*
X0173450Y0237200D01*
X0176950Y0239450D02*
X0219450Y0239450D01*
X0227200Y0231700D01*
X0227200Y0196700D01*
X0232200Y0191700D01*
X0256950Y0191700D01*
X0265950Y0182700D01*
X0265950Y0171200D01*
X0270700Y0166450D01*
X0285450Y0166450D01*
X0285450Y0165950D01*
X0286950Y0170200D02*
X0272950Y0170200D01*
X0268450Y0174700D01*
X0268450Y0183700D01*
X0257950Y0194200D01*
X0232950Y0194200D01*
X0229450Y0197700D01*
X0229450Y0243950D01*
X0228200Y0245200D01*
X0176700Y0245200D01*
X0172700Y0249200D01*
X0169450Y0252700D02*
X0174450Y0257700D01*
X0253950Y0257700D01*
X0267200Y0270950D01*
X0267200Y0337950D01*
X0264700Y0340450D01*
X0276700Y0346200D02*
X0276700Y0364200D01*
X0280700Y0368200D01*
X0330450Y0368200D01*
X0336200Y0362450D01*
X0336200Y0359450D01*
X0341700Y0353950D01*
X0341700Y0349483D01*
X0341794Y0349389D01*
X0335950Y0344450D02*
X0335950Y0355233D01*
X0329983Y0361200D01*
X0324200Y0355172D02*
X0318172Y0361200D01*
X0312450Y0355111D02*
X0312450Y0340700D01*
X0332200Y0320950D01*
X0332200Y0287200D01*
X0337200Y0282200D01*
X0332200Y0277200D01*
X0332200Y0269950D01*
X0339950Y0262200D01*
X0339950Y0216700D01*
X0338200Y0214950D01*
X0315200Y0214950D01*
X0303450Y0203200D01*
X0303450Y0139950D01*
X0310950Y0132450D01*
X0310950Y0118950D01*
X0315950Y0113950D01*
X0315950Y0107200D01*
X0320950Y0102200D01*
X0322200Y0102200D01*
X0327200Y0104950D02*
X0329450Y0107200D01*
X0337200Y0107200D01*
X0347200Y0117200D01*
X0357200Y0117200D02*
X0357200Y0127200D01*
X0337200Y0147200D01*
X0318950Y0147200D01*
X0315950Y0150200D01*
X0315950Y0185950D01*
X0322200Y0192200D01*
X0319200Y0197200D02*
X0343700Y0197200D01*
X0350200Y0203700D01*
X0350200Y0213700D01*
X0372200Y0235700D01*
X0372200Y0277200D01*
X0377200Y0282200D01*
X0372200Y0287200D01*
X0372200Y0331950D01*
X0359700Y0344450D01*
X0359700Y0355106D01*
X0353606Y0361200D01*
X0347700Y0355294D02*
X0341794Y0361200D01*
X0347700Y0355294D02*
X0347700Y0344450D01*
X0362200Y0329950D01*
X0362200Y0287200D01*
X0367200Y0282200D01*
X0362200Y0277200D01*
X0362200Y0228950D01*
X0340950Y0207700D01*
X0318950Y0207700D01*
X0311200Y0199950D01*
X0311200Y0143200D01*
X0322200Y0132200D01*
X0315950Y0134700D02*
X0315950Y0127950D01*
X0321700Y0122200D01*
X0322200Y0122200D01*
X0313450Y0119950D02*
X0313450Y0133450D01*
X0305950Y0140950D01*
X0305950Y0201950D01*
X0316450Y0212450D01*
X0338950Y0212450D01*
X0342200Y0215700D01*
X0342200Y0277200D01*
X0347200Y0282200D01*
X0342200Y0287200D01*
X0342200Y0326450D01*
X0324200Y0344450D01*
X0324200Y0355172D01*
X0312450Y0355111D02*
X0306361Y0361200D01*
X0300700Y0355050D02*
X0300700Y0347200D01*
X0300950Y0347200D01*
X0322200Y0325950D01*
X0322200Y0287200D01*
X0327200Y0282200D01*
X0321950Y0276950D01*
X0321950Y0222200D01*
X0316950Y0217200D01*
X0313950Y0217200D01*
X0300950Y0204200D01*
X0300950Y0138950D01*
X0308450Y0131450D01*
X0308450Y0117950D01*
X0313700Y0112700D01*
X0313700Y0098700D01*
X0320200Y0092200D01*
X0322200Y0092200D01*
X0315450Y0084200D02*
X0312450Y0087200D01*
X0312450Y0092450D01*
X0308200Y0096700D01*
X0308200Y0110700D01*
X0302950Y0115950D01*
X0302950Y0129950D01*
X0295950Y0136950D01*
X0295950Y0218200D01*
X0297200Y0219450D01*
X0297200Y0225450D01*
X0300200Y0228450D01*
X0306950Y0228450D01*
X0309200Y0230700D01*
X0315700Y0230700D01*
X0317200Y0232200D01*
X0317200Y0259700D01*
X0309950Y0266950D01*
X0304950Y0266950D01*
X0302200Y0269700D01*
X0302200Y0274700D01*
X0307200Y0279700D01*
X0307200Y0282200D01*
X0302200Y0287200D01*
X0302200Y0295700D01*
X0309700Y0303200D01*
X0309700Y0330450D01*
X0299200Y0340950D01*
X0290700Y0340950D01*
X0283950Y0347700D01*
X0283950Y0348178D01*
X0282739Y0349389D01*
X0282700Y0349350D01*
X0279200Y0343700D02*
X0276700Y0346200D01*
X0279200Y0343700D02*
X0284450Y0343700D01*
X0295200Y0332950D01*
X0295200Y0236950D01*
X0290450Y0232200D01*
X0287700Y0232200D01*
X0285450Y0229950D01*
X0285450Y0227200D01*
X0287200Y0225450D01*
X0287200Y0218700D01*
X0293700Y0212200D01*
X0293700Y0099200D01*
X0295450Y0097450D01*
X0295450Y0095700D01*
X0285450Y0091210D02*
X0281190Y0086950D01*
X0285450Y0091210D02*
X0285450Y0111450D01*
X0279950Y0116950D01*
X0252700Y0116950D01*
X0249450Y0120200D01*
X0249450Y0169700D01*
X0247200Y0171950D01*
X0247200Y0172200D01*
X0256950Y0178700D02*
X0253200Y0182450D01*
X0228200Y0182450D01*
X0223950Y0186700D01*
X0196700Y0186700D01*
X0186200Y0197200D01*
X0186200Y0216200D01*
X0192200Y0222200D01*
X0183700Y0220700D02*
X0182200Y0222200D01*
X0183700Y0220700D02*
X0183700Y0196450D01*
X0196700Y0183450D01*
X0221700Y0183450D01*
X0225450Y0188700D02*
X0208950Y0188700D01*
X0204950Y0192700D01*
X0204950Y0198450D01*
X0225450Y0188700D02*
X0229450Y0184700D01*
X0254200Y0184700D01*
X0259200Y0179700D01*
X0259200Y0162950D01*
X0261700Y0160450D01*
X0256950Y0147200D02*
X0262200Y0141950D01*
X0280440Y0141950D01*
X0280940Y0142200D01*
X0298450Y0137950D02*
X0298450Y0205700D01*
X0307200Y0214450D01*
X0307200Y0224950D01*
X0310450Y0228200D01*
X0316950Y0228200D01*
X0319700Y0230950D01*
X0319700Y0262200D01*
X0312450Y0269450D01*
X0312450Y0277450D01*
X0317200Y0282200D01*
X0312200Y0287200D01*
X0312200Y0331700D01*
X0300450Y0343450D01*
X0291700Y0343450D01*
X0288950Y0346200D01*
X0288950Y0354989D01*
X0282739Y0361200D01*
X0294550Y0361200D02*
X0300700Y0355050D01*
X0300200Y0333200D02*
X0297450Y0330450D01*
X0297450Y0236200D01*
X0289950Y0228700D01*
X0289450Y0228700D01*
X0294950Y0228950D02*
X0295950Y0228950D01*
X0299700Y0232700D01*
X0299700Y0324950D01*
X0303450Y0328700D01*
X0335950Y0344450D02*
X0352200Y0328200D01*
X0352200Y0287200D01*
X0357200Y0282200D01*
X0352200Y0277200D01*
X0352200Y0222450D01*
X0339950Y0210200D01*
X0317700Y0210200D01*
X0308700Y0201200D01*
X0308700Y0141950D01*
X0315950Y0134700D01*
X0320700Y0142200D02*
X0313700Y0149200D01*
X0313700Y0191700D01*
X0319200Y0197200D01*
X0332200Y0182200D02*
X0338450Y0182200D01*
X0346950Y0190700D01*
X0352700Y0186200D02*
X0352700Y0212950D01*
X0382200Y0242450D01*
X0382200Y0277200D01*
X0387200Y0282200D01*
X0382200Y0287200D01*
X0382200Y0333450D01*
X0371450Y0344200D01*
X0371450Y0355167D01*
X0365417Y0361200D01*
X0377228Y0361200D02*
X0383450Y0354978D01*
X0383450Y0344450D01*
X0392200Y0335700D01*
X0392200Y0287200D01*
X0397200Y0282200D01*
X0392450Y0277450D01*
X0392450Y0249450D01*
X0355200Y0212200D01*
X0355200Y0185200D01*
X0342200Y0172200D01*
X0332200Y0172200D01*
X0327200Y0177200D02*
X0343700Y0177200D01*
X0352700Y0186200D01*
X0357450Y0184200D02*
X0357450Y0211200D01*
X0402200Y0255950D01*
X0402200Y0277200D01*
X0407200Y0282200D01*
X0402200Y0287200D01*
X0402200Y0336950D01*
X0394950Y0344200D01*
X0394950Y0355289D01*
X0389039Y0361200D01*
X0400850Y0361200D02*
X0406700Y0355350D01*
X0406700Y0344450D01*
X0412200Y0338950D01*
X0412200Y0287200D01*
X0417200Y0282200D01*
X0412200Y0277200D01*
X0412200Y0262700D01*
X0359950Y0210450D01*
X0359950Y0183450D01*
X0338700Y0162200D01*
X0332200Y0162200D01*
X0327200Y0157200D02*
X0322200Y0152200D01*
X0327200Y0157200D02*
X0337200Y0157200D01*
X0362200Y0182200D01*
X0362200Y0209450D01*
X0422200Y0269450D01*
X0422200Y0277200D01*
X0427200Y0282200D01*
X0422200Y0287200D01*
X0422200Y0351661D01*
X0412661Y0361200D01*
X0437950Y0337200D02*
X0440700Y0339950D01*
X0474950Y0339950D01*
X0479200Y0344200D01*
X0479200Y0349328D01*
X0479261Y0349389D01*
X0437950Y0337200D02*
X0437950Y0267700D01*
X0408450Y0238200D01*
X0408450Y0191700D01*
X0401700Y0184950D01*
X0381450Y0184950D01*
X0368950Y0172450D01*
X0368950Y0159450D01*
X0379700Y0148700D01*
X0381450Y0148700D01*
X0377200Y0144450D02*
X0377200Y0117200D01*
X0367200Y0117200D02*
X0367200Y0150950D01*
X0361950Y0156200D01*
X0356450Y0156200D01*
X0353950Y0159700D02*
X0362200Y0159700D01*
X0377200Y0144450D01*
X0387200Y0137950D02*
X0387200Y0117200D01*
X0392200Y0110950D02*
X0386450Y0105200D01*
X0356450Y0105200D01*
X0341950Y0090700D01*
X0341950Y0063700D01*
X0335450Y0057200D01*
X0327200Y0057200D01*
X0322200Y0052200D01*
X0322200Y0042200D02*
X0327200Y0037200D01*
X0335200Y0037200D01*
X0345200Y0027200D01*
X0357200Y0027200D01*
X0332200Y0042200D02*
X0346950Y0056950D01*
X0346950Y0081950D01*
X0352200Y0087200D01*
X0357200Y0087200D01*
X0357200Y0077200D02*
X0357200Y0067200D01*
X0344450Y0062450D02*
X0334200Y0052200D01*
X0332200Y0052200D01*
X0344450Y0062450D02*
X0344450Y0089450D01*
X0352200Y0097200D01*
X0357200Y0097200D01*
X0327200Y0104950D02*
X0327200Y0069700D01*
X0324700Y0067200D01*
X0317450Y0067200D01*
X0315200Y0064950D01*
X0315200Y0039200D01*
X0313450Y0037450D01*
X0321200Y0072200D02*
X0315450Y0077950D01*
X0315450Y0084200D01*
X0314950Y0088450D02*
X0314950Y0093700D01*
X0310950Y0097700D01*
X0310950Y0111700D01*
X0305700Y0116950D01*
X0305700Y0130700D01*
X0298450Y0137950D01*
X0313450Y0119950D02*
X0321200Y0112200D01*
X0322200Y0112200D01*
X0314950Y0088450D02*
X0321200Y0082200D01*
X0322200Y0082200D01*
X0322200Y0072200D02*
X0321200Y0072200D01*
X0392200Y0110950D02*
X0392200Y0123950D01*
X0399450Y0131200D01*
X0399450Y0153450D01*
X0387200Y0137950D02*
X0360950Y0164200D01*
X0353700Y0164200D01*
X0340450Y0167200D02*
X0357450Y0184200D01*
X0340450Y0167200D02*
X0327200Y0167200D01*
X0322200Y0162200D01*
X0322200Y0172200D02*
X0327200Y0177200D01*
X0286450Y0178200D02*
X0280950Y0178200D01*
X0260200Y0198950D01*
X0239950Y0198950D01*
X0234450Y0204450D01*
X0234450Y0245950D01*
X0226200Y0254200D01*
X0219950Y0254200D01*
X0224950Y0249450D02*
X0192200Y0249450D01*
X0187450Y0254200D01*
X0169450Y0252700D02*
X0169450Y0234450D01*
X0174200Y0229700D01*
X0184200Y0232950D02*
X0185950Y0234700D01*
X0201950Y0234700D01*
X0207200Y0229450D01*
X0227200Y0247200D02*
X0224950Y0249450D01*
X0227200Y0247200D02*
X0229700Y0247200D01*
X0231950Y0244950D01*
X0231950Y0203450D01*
X0238950Y0196450D01*
X0259200Y0196450D01*
X0270700Y0184950D01*
X0270700Y0178200D01*
X0274950Y0173950D01*
X0284700Y0173950D01*
X0286450Y0182950D02*
X0279450Y0182950D01*
X0261200Y0201200D01*
X0241200Y0201200D01*
X0236700Y0205700D01*
X0236700Y0246200D01*
X0245950Y0255450D01*
X0256950Y0255450D01*
X0260950Y0259450D01*
X0279700Y0253200D02*
X0280950Y0254450D01*
X0279700Y0253200D02*
X0279700Y0227700D01*
X0277200Y0225200D01*
X0277200Y0217200D01*
X0286450Y0207950D01*
X0286450Y0187450D01*
X0286200Y0187450D01*
X0256950Y0178700D02*
X0256950Y0147200D01*
X0232200Y0161700D02*
X0222950Y0170950D01*
X0190450Y0170950D01*
X0175700Y0185700D01*
X0146700Y0185700D01*
X0142700Y0189700D01*
X0142700Y0221950D01*
X0149450Y0228700D01*
X0149450Y0254950D01*
X0164450Y0269950D01*
X0164450Y0333700D01*
X0174950Y0344200D01*
X0174950Y0355011D01*
X0181139Y0361200D01*
X0186950Y0355200D02*
X0192950Y0361200D01*
X0186950Y0355200D02*
X0186950Y0344450D01*
X0167200Y0324700D01*
X0167200Y0268700D01*
X0152200Y0253700D01*
X0152200Y0222200D01*
X0146950Y0229700D02*
X0146950Y0255950D01*
X0161950Y0270950D01*
X0161950Y0334700D01*
X0163200Y0335950D01*
X0163200Y0355072D01*
X0169328Y0361200D01*
X0157517Y0361200D02*
X0151450Y0355133D01*
X0151450Y0344950D01*
X0139200Y0332700D01*
X0139200Y0244450D01*
X0127200Y0232450D01*
X0127200Y0219200D01*
X0137700Y0208700D01*
X0137700Y0187450D01*
X0144450Y0180700D01*
X0173450Y0180700D01*
X0199200Y0154950D01*
X0199200Y0124700D01*
X0195950Y0121950D02*
X0199450Y0118450D01*
X0199450Y0102450D01*
X0195950Y0121950D02*
X0195950Y0154950D01*
X0172450Y0178450D01*
X0143200Y0178450D01*
X0135200Y0186450D01*
X0135200Y0207700D01*
X0127450Y0215450D01*
X0120950Y0215450D01*
X0117200Y0219200D01*
X0117200Y0225700D01*
X0136950Y0245450D01*
X0136950Y0352444D01*
X0145706Y0361200D01*
X0103700Y0340700D02*
X0097700Y0346700D01*
X0097700Y0354761D01*
X0091511Y0360950D01*
X0085700Y0354950D02*
X0079700Y0360950D01*
X0085700Y0354950D02*
X0085700Y0345950D01*
X0087700Y0343950D01*
X0096950Y0343950D01*
X0101700Y0339200D01*
X0101700Y0236200D01*
X0098450Y0232950D01*
X0098450Y0232450D01*
X0094950Y0233200D02*
X0099700Y0237950D01*
X0099700Y0337950D01*
X0095950Y0341700D01*
X0086700Y0341700D01*
X0081200Y0347200D01*
X0081200Y0347639D01*
X0079700Y0349139D01*
X0067889Y0349139D02*
X0055950Y0337200D01*
X0055950Y0070450D01*
X0081450Y0044950D01*
X0088700Y0044950D01*
X0093450Y0040200D01*
X0101700Y0040200D01*
X0106200Y0035700D01*
X0106200Y0032200D01*
X0096200Y0032200D02*
X0096200Y0033200D01*
X0087200Y0042200D01*
X0079950Y0042200D01*
X0052950Y0069200D01*
X0052950Y0338450D01*
X0061950Y0347450D01*
X0061950Y0355011D01*
X0067889Y0360950D01*
X0056078Y0360950D02*
X0047200Y0352072D01*
X0047200Y0067200D01*
X0076200Y0038200D01*
X0076200Y0032200D01*
X0086200Y0032200D02*
X0049950Y0068450D01*
X0049950Y0343011D01*
X0056078Y0349139D01*
X0103700Y0340700D02*
X0103700Y0232450D01*
X0097200Y0228700D02*
X0094950Y0230950D01*
X0094950Y0233200D01*
X0097200Y0228700D02*
X0097200Y0217950D01*
X0097450Y0217700D01*
X0097450Y0217450D01*
X0097700Y0217200D01*
X0097700Y0216950D01*
X0140200Y0222950D02*
X0140200Y0188700D01*
X0145700Y0183200D01*
X0174700Y0183200D01*
X0189450Y0168450D01*
X0221700Y0168450D01*
X0229450Y0160700D01*
X0229450Y0038700D01*
X0222950Y0032200D01*
X0222200Y0032200D01*
X0232200Y0032200D02*
X0232200Y0161700D01*
X0162200Y0222200D02*
X0162200Y0260200D01*
X0169950Y0267950D01*
X0169950Y0311950D01*
X0192200Y0334200D01*
X0146950Y0229700D02*
X0140200Y0222950D01*
X0320700Y0142200D02*
X0322200Y0142200D01*
D20*
X0342200Y0132200D03*
X0357200Y0137200D03*
X0342200Y0152200D03*
X0353950Y0159700D03*
X0356450Y0156200D03*
X0353700Y0164200D03*
X0376700Y0164950D03*
X0375450Y0172710D03*
X0378200Y0188700D03*
X0372700Y0190200D03*
X0366700Y0187950D03*
X0346950Y0190700D03*
X0342950Y0202950D03*
X0346200Y0205950D03*
X0332200Y0222200D03*
X0332200Y0227200D03*
X0347200Y0232200D03*
X0357200Y0232200D03*
X0404700Y0212950D03*
X0404700Y0193950D03*
X0393950Y0193950D03*
X0391450Y0180700D03*
X0399450Y0153450D03*
X0381450Y0148700D03*
X0392200Y0137200D03*
X0402200Y0127200D03*
X0342200Y0102200D03*
X0302200Y0082200D03*
X0302200Y0077200D03*
X0302200Y0072200D03*
X0302200Y0067200D03*
X0281190Y0086950D03*
X0295450Y0095700D03*
X0253450Y0121950D03*
X0242200Y0142200D03*
X0242200Y0147200D03*
X0242200Y0152200D03*
X0242200Y0157200D03*
X0242200Y0162200D03*
X0247200Y0172200D03*
X0253450Y0176950D03*
X0261700Y0160450D03*
X0284450Y0159200D03*
X0287950Y0162200D03*
X0285450Y0165950D03*
X0286950Y0170200D03*
X0284700Y0173950D03*
X0286450Y0178200D03*
X0286450Y0182950D03*
X0286200Y0187450D03*
X0289450Y0228700D03*
X0294950Y0228950D03*
X0280950Y0254450D03*
X0260950Y0259450D03*
X0247450Y0277700D03*
X0247200Y0282450D03*
X0214700Y0282450D03*
X0214950Y0277700D03*
X0219950Y0254200D03*
X0187450Y0254200D03*
X0172700Y0249200D03*
X0173450Y0237200D03*
X0179450Y0235450D03*
X0184200Y0232950D03*
X0180440Y0208960D03*
X0167200Y0202700D03*
X0166700Y0197200D03*
X0147200Y0192200D03*
X0147200Y0172200D03*
X0142200Y0172200D03*
X0137200Y0172200D03*
X0152200Y0172200D03*
X0194200Y0176950D03*
X0201190Y0197200D03*
X0221700Y0183450D03*
X0280940Y0142200D03*
X0242200Y0102200D03*
X0242200Y0097200D03*
X0242200Y0092200D03*
X0242200Y0087200D03*
X0242200Y0082200D03*
X0242200Y0077200D03*
X0254450Y0067200D03*
X0199450Y0102450D03*
X0178950Y0095450D03*
X0174450Y0100200D03*
X0199200Y0124700D03*
X0177200Y0127200D03*
X0172200Y0127200D03*
X0167200Y0127200D03*
X0140950Y0124950D03*
X0122950Y0124700D03*
X0097200Y0117200D03*
X0097200Y0112200D03*
X0097200Y0107200D03*
X0085700Y0097950D03*
X0086700Y0075950D03*
X0086200Y0126950D03*
X0085450Y0148950D03*
X0082200Y0182200D03*
X0082200Y0187200D03*
X0082200Y0192200D03*
X0082200Y0197200D03*
X0082200Y0202200D03*
X0082200Y0207200D03*
X0097700Y0216950D03*
X0098450Y0232450D03*
X0103700Y0232450D03*
X0147200Y0209950D03*
X0149950Y0278450D03*
X0149950Y0282700D03*
X0182200Y0282200D03*
X0182200Y0277200D03*
X0192200Y0334200D03*
X0132200Y0357200D03*
X0127200Y0357200D03*
X0122200Y0357200D03*
X0117200Y0357200D03*
X0112200Y0357200D03*
X0079200Y0379700D03*
X0075450Y0338450D03*
X0070950Y0335200D03*
X0065950Y0332450D03*
X0085200Y0281700D03*
X0085200Y0277450D03*
X0117200Y0277200D03*
X0117200Y0281700D03*
X0249950Y0377450D03*
X0261450Y0344450D03*
X0264700Y0340450D03*
X0300200Y0333200D03*
X0303450Y0328700D03*
X0279950Y0282450D03*
X0279950Y0277700D03*
X0427200Y0362200D03*
X0432200Y0362200D03*
X0437200Y0362200D03*
X0442200Y0362200D03*
X0491200Y0264700D03*
X0483450Y0257950D03*
X0313450Y0037450D03*
X0182200Y0057200D03*
X0177200Y0057200D03*
X0172200Y0057200D03*
X0167200Y0057200D03*
X0162200Y0057200D03*
X0157200Y0057200D03*
D21*
X0332200Y0032200D02*
X0344950Y0019450D01*
X0484200Y0019450D01*
X0491200Y0026450D01*
X0491200Y0034200D01*
X0491200Y0117200D01*
X0491200Y0168700D01*
X0479700Y0180200D01*
X0479700Y0198200D01*
X0483450Y0201950D01*
X0483450Y0257950D01*
X0483450Y0262200D01*
X0483450Y0342200D01*
X0489200Y0347950D01*
X0489200Y0369950D01*
X0481700Y0377450D01*
X0249950Y0377450D01*
X0109950Y0377450D01*
X0103450Y0370950D01*
X0103450Y0361078D01*
X0103322Y0360950D01*
X0391200Y0099200D02*
X0397700Y0105700D01*
X0391200Y0099200D02*
X0391200Y0066700D01*
X0422950Y0105700D02*
X0477200Y0105700D01*
X0477450Y0105950D01*
X0491200Y0190200D02*
X0491200Y0264700D01*
X0491200Y0267200D01*
X0491200Y0304200D01*
X0492450Y0305450D01*
D22*
X0492450Y0305450D03*
D23*
X0517200Y0307200D03*
X0517200Y0317200D03*
X0517200Y0327200D03*
X0517200Y0297200D03*
X0517200Y0287200D03*
X0517200Y0277200D03*
X0517200Y0267200D03*
X0517200Y0257200D03*
X0517200Y0247200D03*
X0517200Y0237200D03*
X0517200Y0227200D03*
X0517200Y0217200D03*
X0517200Y0207200D03*
X0517200Y0197200D03*
X0517200Y0187200D03*
X0517200Y0177200D03*
X0517200Y0167200D03*
X0517200Y0157200D03*
X0517200Y0147200D03*
X0517200Y0137200D03*
X0517200Y0127200D03*
X0517200Y0117200D03*
X0517200Y0107200D03*
X0517200Y0097200D03*
X0517200Y0087200D03*
X0517200Y0077200D03*
X0517200Y0067200D03*
X0477450Y0105950D03*
X0422950Y0105700D03*
X0397700Y0105700D03*
X0391200Y0066700D03*
X0102200Y0210950D03*
X0017200Y0207200D03*
X0017200Y0197200D03*
X0017200Y0187200D03*
X0017200Y0177200D03*
X0017200Y0167200D03*
X0017200Y0157200D03*
X0017200Y0147200D03*
X0017200Y0137200D03*
X0017200Y0127200D03*
X0017200Y0117200D03*
X0017200Y0107200D03*
X0017200Y0097200D03*
X0017200Y0087200D03*
X0017200Y0077200D03*
X0017200Y0067200D03*
X0017200Y0217200D03*
X0017200Y0227200D03*
X0017200Y0237200D03*
X0017200Y0247200D03*
X0017200Y0257200D03*
X0017200Y0267200D03*
X0017200Y0277200D03*
X0017200Y0287200D03*
X0017200Y0297200D03*
X0017200Y0307200D03*
X0017200Y0317200D03*
X0017200Y0327200D03*
D24*
X0029261Y0017998D02*
X0028224Y0017400D01*
X0341767Y0017400D01*
X0332367Y0026800D01*
X0331126Y0026800D01*
X0329141Y0027622D01*
X0328763Y0028000D01*
X0325637Y0028000D01*
X0325259Y0027622D01*
X0323274Y0026800D01*
X0321126Y0026800D01*
X0319141Y0027622D01*
X0317622Y0029141D01*
X0317618Y0029150D01*
X0309544Y0029150D01*
X0308331Y0029652D01*
X0307402Y0030581D01*
X0303152Y0034831D01*
X0302650Y0036044D01*
X0302650Y0041083D01*
X0287402Y0056331D01*
X0286900Y0057544D01*
X0286900Y0064300D01*
X0256477Y0064300D01*
X0256424Y0064246D01*
X0255143Y0063716D01*
X0253757Y0063716D01*
X0252476Y0064246D01*
X0251496Y0065226D01*
X0250966Y0066507D01*
X0250966Y0067893D01*
X0251496Y0069174D01*
X0252476Y0070154D01*
X0253757Y0070684D01*
X0255143Y0070684D01*
X0256424Y0070154D01*
X0256477Y0070100D01*
X0286900Y0070100D01*
X0286900Y0089407D01*
X0284674Y0087182D01*
X0284674Y0086257D01*
X0284144Y0084976D01*
X0283164Y0083996D01*
X0281883Y0083466D01*
X0280497Y0083466D01*
X0279216Y0083996D01*
X0278236Y0084976D01*
X0277706Y0086257D01*
X0277706Y0087643D01*
X0278236Y0088924D01*
X0279216Y0089904D01*
X0280497Y0090434D01*
X0281422Y0090434D01*
X0283150Y0092163D01*
X0283150Y0110497D01*
X0278997Y0114650D01*
X0251747Y0114650D01*
X0250400Y0115997D01*
X0247150Y0119247D01*
X0247150Y0168716D01*
X0246507Y0168716D01*
X0245226Y0169246D01*
X0244246Y0170226D01*
X0243716Y0171507D01*
X0243716Y0172893D01*
X0244029Y0173650D01*
X0195338Y0173650D01*
X0194893Y0173466D01*
X0193507Y0173466D01*
X0193062Y0173650D01*
X0191003Y0173650D01*
X0191403Y0173250D01*
X0223903Y0173250D01*
X0225250Y0171903D01*
X0234500Y0162653D01*
X0234500Y0037092D01*
X0235259Y0036778D01*
X0236778Y0035259D01*
X0237200Y0034240D01*
X0237622Y0035259D01*
X0239141Y0036778D01*
X0241126Y0037600D01*
X0243274Y0037600D01*
X0245259Y0036778D01*
X0246778Y0035259D01*
X0247200Y0034240D01*
X0247622Y0035259D01*
X0249141Y0036778D01*
X0251126Y0037600D01*
X0253274Y0037600D01*
X0255259Y0036778D01*
X0256778Y0035259D01*
X0257200Y0034240D01*
X0257622Y0035259D01*
X0259141Y0036778D01*
X0261126Y0037600D01*
X0263274Y0037600D01*
X0265259Y0036778D01*
X0266778Y0035259D01*
X0267200Y0034240D01*
X0267622Y0035259D01*
X0269141Y0036778D01*
X0271126Y0037600D01*
X0273274Y0037600D01*
X0275259Y0036778D01*
X0276778Y0035259D01*
X0277200Y0034240D01*
X0277622Y0035259D01*
X0279141Y0036778D01*
X0281126Y0037600D01*
X0283274Y0037600D01*
X0285259Y0036778D01*
X0286778Y0035259D01*
X0287200Y0034240D01*
X0287622Y0035259D01*
X0289141Y0036778D01*
X0291126Y0037600D01*
X0293274Y0037600D01*
X0295259Y0036778D01*
X0296778Y0035259D01*
X0297600Y0033274D01*
X0297600Y0031126D01*
X0296778Y0029141D01*
X0295259Y0027622D01*
X0293274Y0026800D01*
X0291126Y0026800D01*
X0289141Y0027622D01*
X0287622Y0029141D01*
X0287200Y0030160D01*
X0286778Y0029141D01*
X0285259Y0027622D01*
X0283274Y0026800D01*
X0281126Y0026800D01*
X0279141Y0027622D01*
X0277622Y0029141D01*
X0277200Y0030160D01*
X0276778Y0029141D01*
X0275259Y0027622D01*
X0273274Y0026800D01*
X0271126Y0026800D01*
X0269141Y0027622D01*
X0267622Y0029141D01*
X0267200Y0030160D01*
X0266778Y0029141D01*
X0265259Y0027622D01*
X0263274Y0026800D01*
X0261126Y0026800D01*
X0259141Y0027622D01*
X0257622Y0029141D01*
X0257200Y0030160D01*
X0256778Y0029141D01*
X0255259Y0027622D01*
X0253274Y0026800D01*
X0251126Y0026800D01*
X0249141Y0027622D01*
X0247622Y0029141D01*
X0247200Y0030160D01*
X0246778Y0029141D01*
X0245259Y0027622D01*
X0243274Y0026800D01*
X0241126Y0026800D01*
X0239141Y0027622D01*
X0237622Y0029141D01*
X0237200Y0030160D01*
X0236778Y0029141D01*
X0235259Y0027622D01*
X0233274Y0026800D01*
X0231126Y0026800D01*
X0229141Y0027622D01*
X0227622Y0029141D01*
X0227200Y0030160D01*
X0226778Y0029141D01*
X0225259Y0027622D01*
X0223274Y0026800D01*
X0221126Y0026800D01*
X0219141Y0027622D01*
X0217622Y0029141D01*
X0216800Y0031126D01*
X0216800Y0033274D01*
X0217622Y0035259D01*
X0219141Y0036778D01*
X0221126Y0037600D01*
X0223274Y0037600D01*
X0224563Y0037066D01*
X0227150Y0039653D01*
X0227150Y0159747D01*
X0220747Y0166150D01*
X0191253Y0166150D01*
X0201500Y0155903D01*
X0201500Y0127327D01*
X0202154Y0126674D01*
X0202684Y0125393D01*
X0202684Y0124007D01*
X0202154Y0122726D01*
X0201174Y0121746D01*
X0199924Y0121229D01*
X0201750Y0119403D01*
X0201750Y0105077D01*
X0202404Y0104424D01*
X0202934Y0103143D01*
X0202934Y0101757D01*
X0202404Y0100476D01*
X0201424Y0099496D01*
X0200143Y0098966D01*
X0198757Y0098966D01*
X0197476Y0099496D01*
X0196496Y0100476D01*
X0195966Y0101757D01*
X0195966Y0103143D01*
X0196496Y0104424D01*
X0197150Y0105077D01*
X0197150Y0117497D01*
X0194997Y0119650D01*
X0193650Y0120997D01*
X0193650Y0153997D01*
X0171497Y0176150D01*
X0142247Y0176150D01*
X0134247Y0184150D01*
X0132900Y0185497D01*
X0132900Y0206747D01*
X0126497Y0213150D01*
X0119997Y0213150D01*
X0116247Y0216900D01*
X0115698Y0217449D01*
X0115292Y0217154D01*
X0114465Y0216732D01*
X0113582Y0216445D01*
X0112664Y0216300D01*
X0112200Y0216300D01*
X0112200Y0222200D01*
X0112200Y0222200D01*
X0112200Y0228100D01*
X0112664Y0228100D01*
X0113582Y0227955D01*
X0114465Y0227668D01*
X0115292Y0227246D01*
X0115409Y0227161D01*
X0134650Y0246403D01*
X0134650Y0353397D01*
X0140994Y0359741D01*
X0140994Y0364916D01*
X0141990Y0365912D01*
X0149422Y0365912D01*
X0150418Y0364916D01*
X0150418Y0357484D01*
X0149422Y0356488D01*
X0144247Y0356488D01*
X0139250Y0351491D01*
X0139250Y0336003D01*
X0149150Y0345903D01*
X0149150Y0346170D01*
X0148375Y0345394D01*
X0146643Y0344677D01*
X0144769Y0344677D01*
X0143037Y0345394D01*
X0141711Y0346720D01*
X0140994Y0348452D01*
X0140994Y0350326D01*
X0141711Y0352058D01*
X0143037Y0353383D01*
X0144769Y0354101D01*
X0146643Y0354101D01*
X0148375Y0353383D01*
X0149150Y0352608D01*
X0149150Y0356086D01*
X0152958Y0359894D01*
X0152805Y0360263D01*
X0152805Y0362137D01*
X0153522Y0363869D01*
X0154848Y0365194D01*
X0156580Y0365912D01*
X0158454Y0365912D01*
X0160186Y0365194D01*
X0161511Y0363869D01*
X0162229Y0362137D01*
X0162229Y0360263D01*
X0161511Y0358531D01*
X0160186Y0357206D01*
X0158454Y0356488D01*
X0156580Y0356488D01*
X0156211Y0356641D01*
X0153750Y0354180D01*
X0153750Y0352286D01*
X0154848Y0353383D01*
X0156580Y0354101D01*
X0158454Y0354101D01*
X0160186Y0353383D01*
X0160900Y0352669D01*
X0160900Y0356025D01*
X0164769Y0359894D01*
X0164616Y0360263D01*
X0164616Y0362137D01*
X0165333Y0363869D01*
X0166659Y0365194D01*
X0168391Y0365912D01*
X0170265Y0365912D01*
X0171997Y0365194D01*
X0173322Y0363869D01*
X0174040Y0362137D01*
X0174040Y0360263D01*
X0173322Y0358531D01*
X0171997Y0357206D01*
X0170265Y0356488D01*
X0168391Y0356488D01*
X0168022Y0356641D01*
X0165500Y0354119D01*
X0165500Y0352225D01*
X0166659Y0353383D01*
X0168391Y0354101D01*
X0170265Y0354101D01*
X0171997Y0353383D01*
X0172650Y0352730D01*
X0172650Y0355964D01*
X0176580Y0359894D01*
X0176427Y0360263D01*
X0176427Y0362137D01*
X0177144Y0363869D01*
X0178470Y0365194D01*
X0180202Y0365912D01*
X0182076Y0365912D01*
X0183808Y0365194D01*
X0185133Y0363869D01*
X0185851Y0362137D01*
X0185851Y0360263D01*
X0185133Y0358531D01*
X0183808Y0357206D01*
X0182076Y0356488D01*
X0180202Y0356488D01*
X0179833Y0356641D01*
X0177250Y0354058D01*
X0177250Y0352163D01*
X0178470Y0353383D01*
X0180202Y0354101D01*
X0182076Y0354101D01*
X0183808Y0353383D01*
X0184650Y0352541D01*
X0184650Y0356153D01*
X0185997Y0357500D01*
X0185997Y0357500D01*
X0188391Y0359894D01*
X0188238Y0360263D01*
X0188238Y0362137D01*
X0188956Y0363869D01*
X0190281Y0365194D01*
X0192013Y0365912D01*
X0193887Y0365912D01*
X0195619Y0365194D01*
X0196944Y0363869D01*
X0197662Y0362137D01*
X0197662Y0360263D01*
X0196944Y0358531D01*
X0195619Y0357206D01*
X0193887Y0356488D01*
X0192013Y0356488D01*
X0191644Y0356641D01*
X0189250Y0354247D01*
X0189250Y0352352D01*
X0190281Y0353383D01*
X0192013Y0354101D01*
X0193887Y0354101D01*
X0195619Y0353383D01*
X0196944Y0352058D01*
X0197662Y0350326D01*
X0197662Y0348452D01*
X0196944Y0346720D01*
X0195619Y0345394D01*
X0193887Y0344677D01*
X0192013Y0344677D01*
X0190281Y0345394D01*
X0189250Y0346425D01*
X0189250Y0343497D01*
X0187903Y0342150D01*
X0169500Y0323747D01*
X0169500Y0314753D01*
X0188716Y0333968D01*
X0188716Y0334893D01*
X0189246Y0336174D01*
X0190226Y0337154D01*
X0191507Y0337684D01*
X0192893Y0337684D01*
X0194174Y0337154D01*
X0195154Y0336174D01*
X0195684Y0334893D01*
X0195684Y0333507D01*
X0195154Y0332226D01*
X0194174Y0331246D01*
X0192893Y0330716D01*
X0191968Y0330716D01*
X0172250Y0310997D01*
X0172250Y0266997D01*
X0170903Y0265650D01*
X0164500Y0259247D01*
X0164500Y0227092D01*
X0164900Y0226927D01*
X0164900Y0254403D01*
X0166247Y0255750D01*
X0166247Y0255750D01*
X0171400Y0260903D01*
X0172747Y0262250D01*
X0251997Y0262250D01*
X0262400Y0272653D01*
X0262400Y0334247D01*
X0259997Y0336650D01*
X0258650Y0337997D01*
X0258650Y0342323D01*
X0258496Y0342476D01*
X0257966Y0343757D01*
X0257966Y0345143D01*
X0258496Y0346424D01*
X0259476Y0347404D01*
X0260757Y0347934D01*
X0262143Y0347934D01*
X0263424Y0347404D01*
X0264404Y0346424D01*
X0264934Y0345143D01*
X0264934Y0343934D01*
X0265393Y0343934D01*
X0266674Y0343404D01*
X0267654Y0342424D01*
X0268184Y0341143D01*
X0268184Y0340218D01*
X0269500Y0338903D01*
X0269500Y0269997D01*
X0262204Y0262702D01*
X0262924Y0262404D01*
X0263904Y0261424D01*
X0264434Y0260143D01*
X0264434Y0258757D01*
X0263904Y0257476D01*
X0262924Y0256496D01*
X0261643Y0255966D01*
X0260718Y0255966D01*
X0257903Y0253150D01*
X0246903Y0253150D01*
X0239000Y0245247D01*
X0239000Y0226637D01*
X0239141Y0226778D01*
X0241126Y0227600D01*
X0243274Y0227600D01*
X0245259Y0226778D01*
X0246778Y0225259D01*
X0247200Y0224240D01*
X0247622Y0225259D01*
X0249141Y0226778D01*
X0251126Y0227600D01*
X0253274Y0227600D01*
X0255259Y0226778D01*
X0256778Y0225259D01*
X0257200Y0224240D01*
X0257622Y0225259D01*
X0259141Y0226778D01*
X0261126Y0227600D01*
X0263274Y0227600D01*
X0265259Y0226778D01*
X0266778Y0225259D01*
X0267200Y0224240D01*
X0267622Y0225259D01*
X0269141Y0226778D01*
X0271126Y0227600D01*
X0273274Y0227600D01*
X0275259Y0226778D01*
X0275392Y0226645D01*
X0277400Y0228653D01*
X0277400Y0254153D01*
X0277466Y0254218D01*
X0277466Y0255143D01*
X0277996Y0256424D01*
X0278976Y0257404D01*
X0280257Y0257934D01*
X0281643Y0257934D01*
X0282924Y0257404D01*
X0283904Y0256424D01*
X0284434Y0255143D01*
X0284434Y0253757D01*
X0283904Y0252476D01*
X0282924Y0251496D01*
X0282000Y0251114D01*
X0282000Y0227600D01*
X0283150Y0227600D01*
X0283150Y0230903D01*
X0285400Y0233153D01*
X0286747Y0234500D01*
X0289497Y0234500D01*
X0292900Y0237903D01*
X0292900Y0331997D01*
X0283497Y0341400D01*
X0278247Y0341400D01*
X0275747Y0343900D01*
X0275747Y0343900D01*
X0274400Y0345247D01*
X0274400Y0365153D01*
X0278400Y0369153D01*
X0279747Y0370500D01*
X0331403Y0370500D01*
X0337153Y0364750D01*
X0337917Y0363986D01*
X0339125Y0365194D01*
X0340857Y0365912D01*
X0342732Y0365912D01*
X0344464Y0365194D01*
X0345789Y0363869D01*
X0346506Y0362137D01*
X0346506Y0360263D01*
X0346353Y0359894D01*
X0350000Y0356247D01*
X0350000Y0352447D01*
X0350936Y0353383D01*
X0352668Y0354101D01*
X0354543Y0354101D01*
X0356275Y0353383D01*
X0357400Y0352258D01*
X0357400Y0354153D01*
X0354912Y0356641D01*
X0354543Y0356488D01*
X0352668Y0356488D01*
X0350936Y0357206D01*
X0349611Y0358531D01*
X0348894Y0360263D01*
X0348894Y0362137D01*
X0349611Y0363869D01*
X0350936Y0365194D01*
X0352668Y0365912D01*
X0354543Y0365912D01*
X0356275Y0365194D01*
X0357600Y0363869D01*
X0358317Y0362137D01*
X0358317Y0360263D01*
X0358164Y0359894D01*
X0362000Y0356058D01*
X0362000Y0352636D01*
X0362748Y0353383D01*
X0364479Y0354101D01*
X0366354Y0354101D01*
X0368086Y0353383D01*
X0369150Y0352319D01*
X0369150Y0354214D01*
X0366723Y0356641D01*
X0366354Y0356488D01*
X0364479Y0356488D01*
X0362748Y0357206D01*
X0361422Y0358531D01*
X0360705Y0360263D01*
X0360705Y0362137D01*
X0361422Y0363869D01*
X0362748Y0365194D01*
X0364479Y0365912D01*
X0366354Y0365912D01*
X0368086Y0365194D01*
X0369411Y0363869D01*
X0370128Y0362137D01*
X0370128Y0360263D01*
X0369975Y0359894D01*
X0373750Y0356119D01*
X0373750Y0352575D01*
X0374559Y0353383D01*
X0376290Y0354101D01*
X0378165Y0354101D01*
X0379897Y0353383D01*
X0381150Y0352130D01*
X0381150Y0354025D01*
X0378534Y0356641D01*
X0378165Y0356488D01*
X0376290Y0356488D01*
X0374559Y0357206D01*
X0373233Y0358531D01*
X0372516Y0360263D01*
X0372516Y0362137D01*
X0373233Y0363869D01*
X0374559Y0365194D01*
X0376290Y0365912D01*
X0378165Y0365912D01*
X0379897Y0365194D01*
X0381222Y0363869D01*
X0381939Y0362137D01*
X0381939Y0360263D01*
X0381786Y0359894D01*
X0385750Y0355930D01*
X0385750Y0352764D01*
X0386370Y0353383D01*
X0388101Y0354101D01*
X0389976Y0354101D01*
X0391708Y0353383D01*
X0392650Y0352441D01*
X0392650Y0354336D01*
X0390345Y0356641D01*
X0389976Y0356488D01*
X0388101Y0356488D01*
X0386370Y0357206D01*
X0385044Y0358531D01*
X0384327Y0360263D01*
X0384327Y0362137D01*
X0385044Y0363869D01*
X0386370Y0365194D01*
X0388101Y0365912D01*
X0389976Y0365912D01*
X0391708Y0365194D01*
X0393033Y0363869D01*
X0393750Y0362137D01*
X0393750Y0360263D01*
X0393598Y0359894D01*
X0397250Y0356241D01*
X0397250Y0352453D01*
X0398181Y0353383D01*
X0399912Y0354101D01*
X0401787Y0354101D01*
X0403519Y0353383D01*
X0404400Y0352502D01*
X0404400Y0354397D01*
X0402156Y0356641D01*
X0401787Y0356488D01*
X0399912Y0356488D01*
X0398181Y0357206D01*
X0396855Y0358531D01*
X0396138Y0360263D01*
X0396138Y0362137D01*
X0396855Y0363869D01*
X0398181Y0365194D01*
X0399912Y0365912D01*
X0401787Y0365912D01*
X0403519Y0365194D01*
X0404844Y0363869D01*
X0405561Y0362137D01*
X0405561Y0360263D01*
X0405409Y0359894D01*
X0409000Y0356302D01*
X0409000Y0352392D01*
X0409992Y0353383D01*
X0411723Y0354101D01*
X0413598Y0354101D01*
X0415330Y0353383D01*
X0416655Y0352058D01*
X0417372Y0350326D01*
X0417372Y0348452D01*
X0416655Y0346720D01*
X0415330Y0345394D01*
X0413598Y0344677D01*
X0411723Y0344677D01*
X0409992Y0345394D01*
X0409000Y0346386D01*
X0409000Y0345403D01*
X0414500Y0339903D01*
X0414500Y0296147D01*
X0414538Y0296184D01*
X0416265Y0296900D01*
X0418135Y0296900D01*
X0419862Y0296184D01*
X0419900Y0296147D01*
X0419900Y0350708D01*
X0413967Y0356641D01*
X0413598Y0356488D01*
X0411723Y0356488D01*
X0409992Y0357206D01*
X0408666Y0358531D01*
X0407949Y0360263D01*
X0407949Y0362137D01*
X0408666Y0363869D01*
X0409992Y0365194D01*
X0411723Y0365912D01*
X0413598Y0365912D01*
X0415330Y0365194D01*
X0416655Y0363869D01*
X0417372Y0362137D01*
X0417372Y0360263D01*
X0417220Y0359894D01*
X0424500Y0352613D01*
X0424500Y0296147D01*
X0424538Y0296184D01*
X0426265Y0296900D01*
X0428135Y0296900D01*
X0429862Y0296184D01*
X0429950Y0296097D01*
X0429950Y0340447D01*
X0430331Y0341366D01*
X0445081Y0356116D01*
X0445784Y0356819D01*
X0446703Y0357200D01*
X0450657Y0357200D01*
X0450577Y0357339D01*
X0450427Y0357899D01*
X0450427Y0361200D01*
X0455639Y0361200D01*
X0460851Y0361200D01*
X0460851Y0364501D01*
X0460701Y0365061D01*
X0460411Y0365563D01*
X0460002Y0365972D01*
X0459500Y0366262D01*
X0458940Y0366412D01*
X0455639Y0366412D01*
X0455639Y0361200D01*
X0455639Y0361200D01*
X0455639Y0361200D01*
X0460851Y0361200D01*
X0460851Y0357899D01*
X0460701Y0357339D01*
X0460621Y0357200D01*
X0462636Y0357200D01*
X0463555Y0356819D01*
X0466344Y0354031D01*
X0466513Y0354101D01*
X0468387Y0354101D01*
X0470119Y0353383D01*
X0471444Y0352058D01*
X0471450Y0352045D01*
X0471450Y0356386D01*
X0471831Y0357305D01*
X0474619Y0360094D01*
X0474549Y0360263D01*
X0474549Y0362137D01*
X0475267Y0363869D01*
X0476592Y0365194D01*
X0478324Y0365912D01*
X0480198Y0365912D01*
X0481930Y0365194D01*
X0483255Y0363869D01*
X0483973Y0362137D01*
X0483973Y0360263D01*
X0483255Y0358531D01*
X0481930Y0357206D01*
X0480198Y0356488D01*
X0478324Y0356488D01*
X0478155Y0356558D01*
X0476450Y0354853D01*
X0476450Y0353241D01*
X0476592Y0353383D01*
X0478324Y0354101D01*
X0480198Y0354101D01*
X0481930Y0353383D01*
X0483255Y0352058D01*
X0483973Y0350326D01*
X0483973Y0348452D01*
X0483622Y0347604D01*
X0485500Y0349483D01*
X0485500Y0368417D01*
X0480167Y0373750D01*
X0111483Y0373750D01*
X0107150Y0369417D01*
X0107150Y0363786D01*
X0107317Y0363619D01*
X0108034Y0361887D01*
X0108034Y0360013D01*
X0107317Y0358281D01*
X0105991Y0356956D01*
X0104259Y0356238D01*
X0102385Y0356238D01*
X0100653Y0356956D01*
X0099328Y0358281D01*
X0098610Y0360013D01*
X0098610Y0361887D01*
X0099328Y0363619D01*
X0099750Y0364041D01*
X0099750Y0371686D01*
X0100313Y0373046D01*
X0106813Y0379546D01*
X0106813Y0379546D01*
X0107854Y0380587D01*
X0109214Y0381150D01*
X0482436Y0381150D01*
X0483796Y0380587D01*
X0491296Y0373087D01*
X0492337Y0372046D01*
X0492900Y0370686D01*
X0492900Y0347214D01*
X0492337Y0345854D01*
X0487150Y0340667D01*
X0487150Y0201214D01*
X0486587Y0199854D01*
X0485546Y0198813D01*
X0485546Y0198813D01*
X0483400Y0196667D01*
X0483400Y0181733D01*
X0494337Y0170796D01*
X0494900Y0169436D01*
X0494900Y0040821D01*
X0496825Y0040821D01*
X0497821Y0039825D01*
X0497821Y0028575D01*
X0496825Y0027579D01*
X0494900Y0027579D01*
X0494900Y0025714D01*
X0494337Y0024354D01*
X0487383Y0017400D01*
X0506176Y0017400D01*
X0505139Y0017998D01*
X0502998Y0020139D01*
X0501484Y0022761D01*
X0500701Y0025686D01*
X0500701Y0028714D01*
X0501484Y0031639D01*
X0502998Y0034261D01*
X0505139Y0036402D01*
X0507761Y0037916D01*
X0510686Y0038699D01*
X0513714Y0038699D01*
X0516639Y0037916D01*
X0519261Y0036402D01*
X0521402Y0034261D01*
X0521935Y0033337D01*
X0522134Y0346408D01*
X0521402Y0345139D01*
X0519261Y0342998D01*
X0516639Y0341484D01*
X0513714Y0340701D01*
X0510686Y0340701D01*
X0507761Y0341484D01*
X0505139Y0342998D01*
X0502998Y0345139D01*
X0501484Y0347761D01*
X0500701Y0350686D01*
X0500701Y0353714D01*
X0501484Y0356639D01*
X0502998Y0359261D01*
X0505139Y0361402D01*
X0507761Y0362916D01*
X0510686Y0363699D01*
X0513714Y0363699D01*
X0516639Y0362916D01*
X0519261Y0361402D01*
X0521402Y0359261D01*
X0522141Y0357979D01*
X0522168Y0399701D01*
X0477434Y0399701D01*
X0477799Y0399069D01*
X0478555Y0396245D01*
X0478555Y0393321D01*
X0477799Y0390496D01*
X0476337Y0387964D01*
X0474269Y0385896D01*
X0471737Y0384434D01*
X0468912Y0383677D01*
X0465988Y0383677D01*
X0463163Y0384434D01*
X0460631Y0385896D01*
X0458563Y0387964D01*
X0457101Y0390496D01*
X0456344Y0393321D01*
X0456344Y0396245D01*
X0457101Y0399069D01*
X0457466Y0399701D01*
X0414141Y0399701D01*
X0414505Y0399069D01*
X0415262Y0396245D01*
X0415262Y0393321D01*
X0414505Y0390496D01*
X0413043Y0387964D01*
X0410976Y0385896D01*
X0408443Y0384434D01*
X0405619Y0383677D01*
X0402695Y0383677D01*
X0399870Y0384434D01*
X0397338Y0385896D01*
X0395270Y0387964D01*
X0393808Y0390496D01*
X0393051Y0393321D01*
X0393051Y0396245D01*
X0393808Y0399069D01*
X0394173Y0399701D01*
X0301227Y0399701D01*
X0301592Y0399069D01*
X0302349Y0396245D01*
X0302349Y0393321D01*
X0301592Y0390496D01*
X0300130Y0387964D01*
X0298062Y0385896D01*
X0295530Y0384434D01*
X0292705Y0383677D01*
X0289781Y0383677D01*
X0286957Y0384434D01*
X0284424Y0385896D01*
X0282357Y0387964D01*
X0280895Y0390496D01*
X0280138Y0393321D01*
X0280138Y0396245D01*
X0280895Y0399069D01*
X0281259Y0399701D01*
X0241674Y0399701D01*
X0242039Y0399069D01*
X0242796Y0396245D01*
X0242796Y0393321D01*
X0242039Y0390496D01*
X0240577Y0387964D01*
X0238509Y0385896D01*
X0235977Y0384434D01*
X0233152Y0383677D01*
X0230228Y0383677D01*
X0227404Y0384434D01*
X0224871Y0385896D01*
X0222804Y0387964D01*
X0221341Y0390496D01*
X0220585Y0393321D01*
X0220585Y0396245D01*
X0221341Y0399069D01*
X0221706Y0399701D01*
X0164194Y0399701D01*
X0164559Y0399069D01*
X0165315Y0396245D01*
X0165315Y0393321D01*
X0164559Y0390496D01*
X0163096Y0387964D01*
X0161029Y0385896D01*
X0158496Y0384434D01*
X0155672Y0383677D01*
X0152748Y0383677D01*
X0149923Y0384434D01*
X0147391Y0385896D01*
X0145323Y0387964D01*
X0143861Y0390496D01*
X0143104Y0393321D01*
X0143104Y0396245D01*
X0143861Y0399069D01*
X0144226Y0399701D01*
X0104658Y0399701D01*
X0105167Y0398819D01*
X0105924Y0395995D01*
X0105924Y0393071D01*
X0105167Y0390246D01*
X0103705Y0387714D01*
X0101637Y0385646D01*
X0099105Y0384184D01*
X0096280Y0383427D01*
X0093356Y0383427D01*
X0090532Y0384184D01*
X0087999Y0385646D01*
X0085931Y0387714D01*
X0084469Y0390246D01*
X0083713Y0393071D01*
X0083713Y0395995D01*
X0084469Y0398819D01*
X0084978Y0399701D01*
X0074422Y0399701D01*
X0074931Y0398819D01*
X0075687Y0395995D01*
X0075687Y0393071D01*
X0074931Y0390246D01*
X0073469Y0387714D01*
X0071401Y0385646D01*
X0068868Y0384184D01*
X0066044Y0383427D01*
X0063120Y0383427D01*
X0060295Y0384184D01*
X0057763Y0385646D01*
X0055695Y0387714D01*
X0054233Y0390246D01*
X0053476Y0393071D01*
X0053476Y0395995D01*
X0054233Y0398819D01*
X0054742Y0399701D01*
X0012647Y0399701D01*
X0012621Y0358606D01*
X0012998Y0359261D01*
X0015139Y0361402D01*
X0017761Y0362916D01*
X0020686Y0363699D01*
X0023714Y0363699D01*
X0026639Y0362916D01*
X0029261Y0361402D01*
X0031402Y0359261D01*
X0032916Y0356639D01*
X0033699Y0353714D01*
X0033699Y0350686D01*
X0032916Y0347761D01*
X0031402Y0345139D01*
X0029261Y0342998D01*
X0026639Y0341484D01*
X0023714Y0340701D01*
X0020686Y0340701D01*
X0017761Y0341484D01*
X0015139Y0342998D01*
X0012998Y0345139D01*
X0012612Y0345808D01*
X0012413Y0033247D01*
X0012998Y0034261D01*
X0015139Y0036402D01*
X0017761Y0037916D01*
X0020686Y0038699D01*
X0023714Y0038699D01*
X0026639Y0037916D01*
X0029261Y0036402D01*
X0031402Y0034261D01*
X0032916Y0031639D01*
X0033699Y0028714D01*
X0033699Y0025686D01*
X0032916Y0022761D01*
X0031402Y0020139D01*
X0029261Y0017998D01*
X0030658Y0019396D02*
X0339772Y0019396D01*
X0337373Y0021794D02*
X0032357Y0021794D01*
X0033299Y0024193D02*
X0334975Y0024193D01*
X0332576Y0026591D02*
X0058030Y0026591D01*
X0058465Y0026732D02*
X0059292Y0027154D01*
X0060044Y0027700D01*
X0060700Y0028356D01*
X0061246Y0029108D01*
X0061461Y0029530D01*
X0061622Y0029141D01*
X0063141Y0027622D01*
X0065126Y0026800D01*
X0067274Y0026800D01*
X0069259Y0027622D01*
X0070778Y0029141D01*
X0071200Y0030160D01*
X0071622Y0029141D01*
X0073141Y0027622D01*
X0075126Y0026800D01*
X0077274Y0026800D01*
X0079259Y0027622D01*
X0080778Y0029141D01*
X0081200Y0030160D01*
X0081622Y0029141D01*
X0083141Y0027622D01*
X0085126Y0026800D01*
X0087274Y0026800D01*
X0089259Y0027622D01*
X0090778Y0029141D01*
X0091200Y0030160D01*
X0091622Y0029141D01*
X0093141Y0027622D01*
X0095126Y0026800D01*
X0097274Y0026800D01*
X0099259Y0027622D01*
X0100778Y0029141D01*
X0101200Y0030160D01*
X0101622Y0029141D01*
X0103141Y0027622D01*
X0105126Y0026800D01*
X0107274Y0026800D01*
X0109259Y0027622D01*
X0110778Y0029141D01*
X0111200Y0030160D01*
X0111622Y0029141D01*
X0113141Y0027622D01*
X0115126Y0026800D01*
X0117274Y0026800D01*
X0119259Y0027622D01*
X0120778Y0029141D01*
X0121600Y0031126D01*
X0121600Y0033274D01*
X0120778Y0035259D01*
X0119259Y0036778D01*
X0117274Y0037600D01*
X0115126Y0037600D01*
X0113141Y0036778D01*
X0111622Y0035259D01*
X0111200Y0034240D01*
X0110778Y0035259D01*
X0109259Y0036778D01*
X0107750Y0037403D01*
X0107153Y0038000D01*
X0104000Y0041153D01*
X0102653Y0042500D01*
X0094403Y0042500D01*
X0091000Y0045903D01*
X0089653Y0047250D01*
X0082403Y0047250D01*
X0058250Y0071403D01*
X0058250Y0094549D01*
X0079307Y0073491D01*
X0080373Y0073050D01*
X0084673Y0073050D01*
X0084726Y0072996D01*
X0086007Y0072466D01*
X0087393Y0072466D01*
X0088674Y0072996D01*
X0089654Y0073976D01*
X0090184Y0075257D01*
X0090184Y0076643D01*
X0089654Y0077924D01*
X0088674Y0078904D01*
X0087393Y0079434D01*
X0086007Y0079434D01*
X0084726Y0078904D01*
X0084673Y0078850D01*
X0082151Y0078850D01*
X0063100Y0097901D01*
X0063100Y0111199D01*
X0078807Y0095491D01*
X0079873Y0095050D01*
X0083673Y0095050D01*
X0083726Y0094996D01*
X0085007Y0094466D01*
X0086393Y0094466D01*
X0087674Y0094996D01*
X0088654Y0095976D01*
X0089184Y0097257D01*
X0089184Y0098643D01*
X0088654Y0099924D01*
X0087674Y0100904D01*
X0086393Y0101434D01*
X0085007Y0101434D01*
X0083726Y0100904D01*
X0083673Y0100850D01*
X0081651Y0100850D01*
X0067100Y0115401D01*
X0067100Y0140699D01*
X0083307Y0124491D01*
X0084031Y0124192D01*
X0084226Y0123996D01*
X0085507Y0123466D01*
X0086893Y0123466D01*
X0088174Y0123996D01*
X0089154Y0124976D01*
X0089684Y0126257D01*
X0089684Y0127643D01*
X0089154Y0128924D01*
X0088174Y0129904D01*
X0086893Y0130434D01*
X0085567Y0130434D01*
X0070850Y0145151D01*
X0070850Y0153949D01*
X0078307Y0146491D01*
X0079373Y0146050D01*
X0083423Y0146050D01*
X0083476Y0145996D01*
X0084757Y0145466D01*
X0086143Y0145466D01*
X0087424Y0145996D01*
X0088404Y0146976D01*
X0088934Y0148257D01*
X0088934Y0149643D01*
X0088404Y0150924D01*
X0087424Y0151904D01*
X0086143Y0152434D01*
X0084757Y0152434D01*
X0083476Y0151904D01*
X0083423Y0151850D01*
X0081151Y0151850D01*
X0074600Y0158401D01*
X0074600Y0325749D01*
X0077093Y0328241D01*
X0077908Y0329057D01*
X0078350Y0330123D01*
X0078350Y0336423D01*
X0078404Y0336476D01*
X0078934Y0337757D01*
X0078934Y0339143D01*
X0078404Y0340424D01*
X0077424Y0341404D01*
X0076143Y0341934D01*
X0074757Y0341934D01*
X0073476Y0341404D01*
X0072496Y0340424D01*
X0071966Y0339143D01*
X0071966Y0338551D01*
X0071643Y0338684D01*
X0070257Y0338684D01*
X0069879Y0338528D01*
X0075093Y0343741D01*
X0075908Y0344557D01*
X0076350Y0345623D01*
X0076350Y0345825D01*
X0077031Y0345144D01*
X0078763Y0344427D01*
X0080637Y0344427D01*
X0080696Y0344451D01*
X0085747Y0339400D01*
X0094997Y0339400D01*
X0097400Y0336997D01*
X0097400Y0238903D01*
X0092650Y0234153D01*
X0092650Y0229997D01*
X0093997Y0228650D01*
X0093997Y0228650D01*
X0094900Y0227747D01*
X0094900Y0226927D01*
X0093274Y0227600D01*
X0091126Y0227600D01*
X0089141Y0226778D01*
X0087622Y0225259D01*
X0087200Y0224240D01*
X0086778Y0225259D01*
X0085259Y0226778D01*
X0083274Y0227600D01*
X0081126Y0227600D01*
X0079141Y0226778D01*
X0077622Y0225259D01*
X0076800Y0223274D01*
X0076800Y0221126D01*
X0077622Y0219141D01*
X0079141Y0217622D01*
X0081126Y0216800D01*
X0083274Y0216800D01*
X0085259Y0217622D01*
X0086778Y0219141D01*
X0087200Y0220160D01*
X0087622Y0219141D01*
X0089141Y0217622D01*
X0091126Y0216800D01*
X0093274Y0216800D01*
X0094216Y0217190D01*
X0094216Y0216257D01*
X0094746Y0214976D01*
X0095726Y0213996D01*
X0097007Y0213466D01*
X0098393Y0213466D01*
X0099300Y0213841D01*
X0099300Y0213256D01*
X0099079Y0213035D01*
X0098519Y0211682D01*
X0098519Y0210218D01*
X0099079Y0208865D01*
X0100115Y0207829D01*
X0101468Y0207269D01*
X0102932Y0207269D01*
X0104285Y0207829D01*
X0105321Y0208865D01*
X0105881Y0210218D01*
X0105881Y0211682D01*
X0105321Y0213035D01*
X0105100Y0213256D01*
X0105100Y0217556D01*
X0105259Y0217622D01*
X0106778Y0219141D01*
X0106939Y0219530D01*
X0107154Y0219108D01*
X0107700Y0218356D01*
X0108356Y0217700D01*
X0109108Y0217154D01*
X0109935Y0216732D01*
X0110818Y0216445D01*
X0111736Y0216300D01*
X0112200Y0216300D01*
X0112200Y0222200D01*
X0112200Y0222200D01*
X0112200Y0228100D01*
X0111736Y0228100D01*
X0110818Y0227955D01*
X0109935Y0227668D01*
X0109108Y0227246D01*
X0108356Y0226700D01*
X0107700Y0226044D01*
X0107154Y0225292D01*
X0106939Y0224870D01*
X0106778Y0225259D01*
X0105259Y0226778D01*
X0103274Y0227600D01*
X0101126Y0227600D01*
X0099500Y0226927D01*
X0099500Y0229114D01*
X0100424Y0229496D01*
X0101075Y0230148D01*
X0101726Y0229496D01*
X0103007Y0228966D01*
X0104393Y0228966D01*
X0105674Y0229496D01*
X0106654Y0230476D01*
X0107184Y0231757D01*
X0107184Y0233143D01*
X0106654Y0234424D01*
X0106000Y0235077D01*
X0106000Y0341653D01*
X0103725Y0343927D01*
X0103732Y0343927D01*
X0104542Y0344055D01*
X0105323Y0344309D01*
X0106054Y0344681D01*
X0106717Y0345164D01*
X0107297Y0345744D01*
X0107780Y0346407D01*
X0108152Y0347138D01*
X0108406Y0347919D01*
X0108534Y0348729D01*
X0108534Y0349139D01*
X0108534Y0349549D01*
X0108406Y0350359D01*
X0108152Y0351140D01*
X0107780Y0351871D01*
X0107297Y0352534D01*
X0106717Y0353114D01*
X0106054Y0353597D01*
X0105323Y0353969D01*
X0104542Y0354222D01*
X0103732Y0354351D01*
X0103322Y0354351D01*
X0102912Y0354351D01*
X0102102Y0354222D01*
X0101321Y0353969D01*
X0100590Y0353597D01*
X0100000Y0353167D01*
X0100000Y0355714D01*
X0096070Y0359644D01*
X0096223Y0360013D01*
X0096223Y0361887D01*
X0095505Y0363619D01*
X0094180Y0364944D01*
X0092448Y0365662D01*
X0090574Y0365662D01*
X0088842Y0364944D01*
X0087517Y0363619D01*
X0086799Y0361887D01*
X0086799Y0360013D01*
X0087517Y0358281D01*
X0088842Y0356956D01*
X0090574Y0356238D01*
X0092448Y0356238D01*
X0092817Y0356391D01*
X0095400Y0353808D01*
X0095400Y0352621D01*
X0094906Y0353114D01*
X0094243Y0353597D01*
X0093512Y0353969D01*
X0092731Y0354222D01*
X0091921Y0354351D01*
X0091511Y0354351D01*
X0091101Y0354351D01*
X0090291Y0354222D01*
X0089510Y0353969D01*
X0088779Y0353597D01*
X0088116Y0353114D01*
X0088000Y0352999D01*
X0088000Y0355903D01*
X0084259Y0359644D01*
X0084412Y0360013D01*
X0084412Y0361887D01*
X0083694Y0363619D01*
X0082369Y0364944D01*
X0080637Y0365662D01*
X0078763Y0365662D01*
X0077031Y0364944D01*
X0076350Y0364263D01*
X0076350Y0372749D01*
X0079817Y0376216D01*
X0079893Y0376216D01*
X0081174Y0376746D01*
X0082154Y0377726D01*
X0082684Y0379007D01*
X0082684Y0380393D01*
X0082154Y0381674D01*
X0081174Y0382654D01*
X0079893Y0383184D01*
X0078507Y0383184D01*
X0077226Y0382654D01*
X0076246Y0381674D01*
X0075716Y0380393D01*
X0075716Y0380317D01*
X0070991Y0375593D01*
X0070550Y0374527D01*
X0070550Y0364948D01*
X0068826Y0365662D01*
X0066952Y0365662D01*
X0065220Y0364944D01*
X0063894Y0363619D01*
X0063177Y0361887D01*
X0063177Y0360013D01*
X0063330Y0359644D01*
X0059650Y0355964D01*
X0059650Y0352230D01*
X0058747Y0353133D01*
X0057015Y0353851D01*
X0055141Y0353851D01*
X0053409Y0353133D01*
X0052083Y0351808D01*
X0051366Y0350076D01*
X0051366Y0348202D01*
X0051519Y0347833D01*
X0049500Y0345814D01*
X0049500Y0351119D01*
X0054619Y0356238D01*
X0059794Y0356238D01*
X0060790Y0357234D01*
X0060790Y0364666D01*
X0059794Y0365662D01*
X0052362Y0365662D01*
X0051366Y0364666D01*
X0051366Y0359491D01*
X0044900Y0353025D01*
X0044900Y0066247D01*
X0046247Y0064900D01*
X0073900Y0037247D01*
X0073900Y0037092D01*
X0073141Y0036778D01*
X0071622Y0035259D01*
X0071200Y0034240D01*
X0070778Y0035259D01*
X0069259Y0036778D01*
X0067274Y0037600D01*
X0065126Y0037600D01*
X0063141Y0036778D01*
X0061622Y0035259D01*
X0061461Y0034870D01*
X0061246Y0035292D01*
X0060700Y0036044D01*
X0060044Y0036700D01*
X0059292Y0037246D01*
X0058465Y0037668D01*
X0057582Y0037955D01*
X0056664Y0038100D01*
X0056200Y0038100D01*
X0056200Y0032200D01*
X0056200Y0032200D01*
X0056200Y0026300D01*
X0056664Y0026300D01*
X0057582Y0026445D01*
X0058465Y0026732D01*
X0056200Y0026591D02*
X0056200Y0026591D01*
X0056200Y0026300D02*
X0056200Y0032200D01*
X0056200Y0032200D01*
X0056200Y0038100D01*
X0055736Y0038100D01*
X0054818Y0037955D01*
X0053935Y0037668D01*
X0053108Y0037246D01*
X0052356Y0036700D01*
X0051700Y0036044D01*
X0051154Y0035292D01*
X0050939Y0034870D01*
X0050778Y0035259D01*
X0049259Y0036778D01*
X0047274Y0037600D01*
X0045126Y0037600D01*
X0043141Y0036778D01*
X0041622Y0035259D01*
X0040800Y0033274D01*
X0040800Y0031126D01*
X0041622Y0029141D01*
X0043141Y0027622D01*
X0045126Y0026800D01*
X0047274Y0026800D01*
X0049259Y0027622D01*
X0050778Y0029141D01*
X0050939Y0029530D01*
X0051154Y0029108D01*
X0051700Y0028356D01*
X0052356Y0027700D01*
X0053108Y0027154D01*
X0053935Y0026732D01*
X0054818Y0026445D01*
X0055736Y0026300D01*
X0056200Y0026300D01*
X0054370Y0026591D02*
X0033699Y0026591D01*
X0033625Y0028990D02*
X0041774Y0028990D01*
X0040800Y0031388D02*
X0032983Y0031388D01*
X0031675Y0033787D02*
X0041012Y0033787D01*
X0042548Y0036185D02*
X0029477Y0036185D01*
X0024145Y0038584D02*
X0072564Y0038584D01*
X0072548Y0036185D02*
X0069852Y0036185D01*
X0070165Y0040982D02*
X0012418Y0040982D01*
X0012417Y0038584D02*
X0020255Y0038584D01*
X0014923Y0036185D02*
X0012415Y0036185D01*
X0012414Y0033787D02*
X0012725Y0033787D01*
X0012420Y0043381D02*
X0067767Y0043381D01*
X0065368Y0045779D02*
X0012421Y0045779D01*
X0012423Y0048178D02*
X0062970Y0048178D01*
X0060571Y0050576D02*
X0012424Y0050576D01*
X0012426Y0052975D02*
X0058173Y0052975D01*
X0055774Y0055373D02*
X0012427Y0055373D01*
X0012429Y0057772D02*
X0053376Y0057772D01*
X0050977Y0060170D02*
X0012431Y0060170D01*
X0012432Y0062569D02*
X0048579Y0062569D01*
X0046180Y0064967D02*
X0012434Y0064967D01*
X0012435Y0067366D02*
X0044900Y0067366D01*
X0044900Y0069764D02*
X0012437Y0069764D01*
X0012438Y0072163D02*
X0044900Y0072163D01*
X0044900Y0074561D02*
X0012440Y0074561D01*
X0012441Y0076960D02*
X0044900Y0076960D01*
X0044900Y0079358D02*
X0012443Y0079358D01*
X0012444Y0081757D02*
X0044900Y0081757D01*
X0044900Y0084155D02*
X0012446Y0084155D01*
X0012447Y0086554D02*
X0044900Y0086554D01*
X0044900Y0088952D02*
X0012449Y0088952D01*
X0012450Y0091351D02*
X0044900Y0091351D01*
X0044900Y0093749D02*
X0012452Y0093749D01*
X0012453Y0096148D02*
X0044900Y0096148D01*
X0044900Y0098546D02*
X0012455Y0098546D01*
X0012456Y0100945D02*
X0044900Y0100945D01*
X0044900Y0103343D02*
X0012458Y0103343D01*
X0012460Y0105742D02*
X0044900Y0105742D01*
X0044900Y0108140D02*
X0012461Y0108140D01*
X0012463Y0110539D02*
X0044900Y0110539D01*
X0044900Y0112937D02*
X0012464Y0112937D01*
X0012466Y0115336D02*
X0044900Y0115336D01*
X0044900Y0117734D02*
X0012467Y0117734D01*
X0012469Y0120133D02*
X0044900Y0120133D01*
X0044900Y0122532D02*
X0012470Y0122532D01*
X0012472Y0124930D02*
X0044900Y0124930D01*
X0044900Y0127329D02*
X0012473Y0127329D01*
X0012475Y0129727D02*
X0044900Y0129727D01*
X0044900Y0132126D02*
X0012476Y0132126D01*
X0012478Y0134524D02*
X0044900Y0134524D01*
X0044900Y0136923D02*
X0012479Y0136923D01*
X0012481Y0139321D02*
X0044900Y0139321D01*
X0044900Y0141720D02*
X0012482Y0141720D01*
X0012484Y0144118D02*
X0044900Y0144118D01*
X0044900Y0146517D02*
X0012485Y0146517D01*
X0012487Y0148915D02*
X0044900Y0148915D01*
X0044900Y0151314D02*
X0012489Y0151314D01*
X0012490Y0153712D02*
X0044900Y0153712D01*
X0044900Y0156111D02*
X0012492Y0156111D01*
X0012493Y0158509D02*
X0044900Y0158509D01*
X0044900Y0160908D02*
X0012495Y0160908D01*
X0012496Y0163306D02*
X0044900Y0163306D01*
X0044900Y0165705D02*
X0012498Y0165705D01*
X0012499Y0168103D02*
X0044900Y0168103D01*
X0044900Y0170502D02*
X0012501Y0170502D01*
X0012502Y0172900D02*
X0044900Y0172900D01*
X0044900Y0175299D02*
X0012504Y0175299D01*
X0012505Y0177697D02*
X0044900Y0177697D01*
X0044900Y0180096D02*
X0012507Y0180096D01*
X0012508Y0182494D02*
X0044900Y0182494D01*
X0044900Y0184893D02*
X0012510Y0184893D01*
X0012511Y0187291D02*
X0044900Y0187291D01*
X0044900Y0189690D02*
X0012513Y0189690D01*
X0012514Y0192088D02*
X0044900Y0192088D01*
X0044900Y0194487D02*
X0012516Y0194487D01*
X0012518Y0196885D02*
X0044900Y0196885D01*
X0044900Y0199284D02*
X0012519Y0199284D01*
X0012521Y0201682D02*
X0044900Y0201682D01*
X0044900Y0204081D02*
X0012522Y0204081D01*
X0012524Y0206479D02*
X0044900Y0206479D01*
X0044900Y0208878D02*
X0012525Y0208878D01*
X0012527Y0211276D02*
X0044900Y0211276D01*
X0044900Y0213675D02*
X0012528Y0213675D01*
X0012530Y0216073D02*
X0044900Y0216073D01*
X0044900Y0218472D02*
X0012531Y0218472D01*
X0012533Y0220870D02*
X0044900Y0220870D01*
X0044900Y0223269D02*
X0012534Y0223269D01*
X0012536Y0225668D02*
X0044900Y0225668D01*
X0044900Y0228066D02*
X0012537Y0228066D01*
X0012539Y0230465D02*
X0044900Y0230465D01*
X0044900Y0232863D02*
X0012540Y0232863D01*
X0012542Y0235262D02*
X0044900Y0235262D01*
X0044900Y0237660D02*
X0012544Y0237660D01*
X0012545Y0240059D02*
X0044900Y0240059D01*
X0044900Y0242457D02*
X0012547Y0242457D01*
X0012548Y0244856D02*
X0044900Y0244856D01*
X0044900Y0247254D02*
X0012550Y0247254D01*
X0012551Y0249653D02*
X0044900Y0249653D01*
X0044900Y0252051D02*
X0012553Y0252051D01*
X0012554Y0254450D02*
X0044900Y0254450D01*
X0044900Y0256848D02*
X0012556Y0256848D01*
X0012557Y0259247D02*
X0044900Y0259247D01*
X0044900Y0261645D02*
X0012559Y0261645D01*
X0012560Y0264044D02*
X0044900Y0264044D01*
X0044900Y0266442D02*
X0012562Y0266442D01*
X0012563Y0268841D02*
X0044900Y0268841D01*
X0044900Y0271239D02*
X0012565Y0271239D01*
X0012566Y0273638D02*
X0044900Y0273638D01*
X0044900Y0276036D02*
X0012568Y0276036D01*
X0012569Y0278435D02*
X0044900Y0278435D01*
X0044900Y0280833D02*
X0012571Y0280833D01*
X0012573Y0283232D02*
X0044900Y0283232D01*
X0044900Y0285630D02*
X0012574Y0285630D01*
X0012576Y0288029D02*
X0044900Y0288029D01*
X0044900Y0290427D02*
X0012577Y0290427D01*
X0012579Y0292826D02*
X0044900Y0292826D01*
X0044900Y0295224D02*
X0012580Y0295224D01*
X0012582Y0297623D02*
X0044900Y0297623D01*
X0044900Y0300021D02*
X0012583Y0300021D01*
X0012585Y0302420D02*
X0044900Y0302420D01*
X0044900Y0304818D02*
X0012586Y0304818D01*
X0012588Y0307217D02*
X0044900Y0307217D01*
X0044900Y0309615D02*
X0012589Y0309615D01*
X0012591Y0312014D02*
X0044900Y0312014D01*
X0044900Y0314412D02*
X0012592Y0314412D01*
X0012594Y0316811D02*
X0044900Y0316811D01*
X0044900Y0319209D02*
X0012595Y0319209D01*
X0012597Y0321608D02*
X0044900Y0321608D01*
X0044900Y0324006D02*
X0012598Y0324006D01*
X0012600Y0326405D02*
X0044900Y0326405D01*
X0044900Y0328803D02*
X0012602Y0328803D01*
X0012603Y0331202D02*
X0044900Y0331202D01*
X0044900Y0333601D02*
X0012605Y0333601D01*
X0012606Y0335999D02*
X0044900Y0335999D01*
X0044900Y0338398D02*
X0012608Y0338398D01*
X0012609Y0340796D02*
X0020331Y0340796D01*
X0024069Y0340796D02*
X0044900Y0340796D01*
X0044900Y0343195D02*
X0029457Y0343195D01*
X0031664Y0345593D02*
X0044900Y0345593D01*
X0044900Y0347992D02*
X0032977Y0347992D01*
X0033620Y0350390D02*
X0044900Y0350390D01*
X0044900Y0352789D02*
X0033699Y0352789D01*
X0033304Y0355187D02*
X0047062Y0355187D01*
X0049461Y0357586D02*
X0032369Y0357586D01*
X0030678Y0359984D02*
X0051366Y0359984D01*
X0051366Y0362383D02*
X0027562Y0362383D01*
X0016838Y0362383D02*
X0012623Y0362383D01*
X0012624Y0364781D02*
X0051481Y0364781D01*
X0060675Y0364781D02*
X0065057Y0364781D01*
X0063382Y0362383D02*
X0060790Y0362383D01*
X0060790Y0359984D02*
X0063189Y0359984D01*
X0061272Y0357586D02*
X0060790Y0357586D01*
X0059650Y0355187D02*
X0053568Y0355187D01*
X0053064Y0352789D02*
X0051169Y0352789D01*
X0051496Y0350390D02*
X0049500Y0350390D01*
X0049500Y0347992D02*
X0051453Y0347992D01*
X0059092Y0352789D02*
X0059650Y0352789D01*
X0073450Y0346200D02*
X0073450Y0373950D01*
X0079200Y0379700D01*
X0082684Y0379172D02*
X0106440Y0379172D01*
X0104041Y0376774D02*
X0081201Y0376774D01*
X0077976Y0374375D02*
X0101643Y0374375D01*
X0099870Y0371977D02*
X0076350Y0371977D01*
X0076350Y0369578D02*
X0099750Y0369578D01*
X0099750Y0367180D02*
X0076350Y0367180D01*
X0076350Y0364781D02*
X0076868Y0364781D01*
X0082532Y0364781D02*
X0088679Y0364781D01*
X0087004Y0362383D02*
X0084207Y0362383D01*
X0084400Y0359984D02*
X0086811Y0359984D01*
X0086317Y0357586D02*
X0088212Y0357586D01*
X0088000Y0355187D02*
X0094021Y0355187D01*
X0091511Y0354351D02*
X0091511Y0349139D01*
X0091511Y0354351D01*
X0091511Y0352789D02*
X0091511Y0352789D01*
X0091511Y0350390D02*
X0091511Y0350390D01*
X0091511Y0349139D02*
X0091511Y0349139D01*
X0095232Y0352789D02*
X0095400Y0352789D01*
X0100000Y0355187D02*
X0136440Y0355187D01*
X0134650Y0352789D02*
X0107043Y0352789D01*
X0108396Y0350390D02*
X0134650Y0350390D01*
X0134650Y0347992D02*
X0108417Y0347992D01*
X0108534Y0349139D02*
X0103322Y0349139D01*
X0103322Y0354351D01*
X0103322Y0349139D01*
X0103322Y0349139D01*
X0108534Y0349139D01*
X0107147Y0345593D02*
X0134650Y0345593D01*
X0134650Y0343195D02*
X0104458Y0343195D01*
X0106000Y0340796D02*
X0134650Y0340796D01*
X0134650Y0338398D02*
X0106000Y0338398D01*
X0106000Y0335999D02*
X0134650Y0335999D01*
X0134650Y0333601D02*
X0106000Y0333601D01*
X0106000Y0331202D02*
X0134650Y0331202D01*
X0134650Y0328803D02*
X0106000Y0328803D01*
X0106000Y0326405D02*
X0134650Y0326405D01*
X0134650Y0324006D02*
X0106000Y0324006D01*
X0106000Y0321608D02*
X0134650Y0321608D01*
X0134650Y0319209D02*
X0106000Y0319209D01*
X0106000Y0316811D02*
X0134650Y0316811D01*
X0134650Y0314412D02*
X0106000Y0314412D01*
X0106000Y0312014D02*
X0134650Y0312014D01*
X0134650Y0309615D02*
X0106000Y0309615D01*
X0106000Y0307217D02*
X0134650Y0307217D01*
X0134650Y0304818D02*
X0106000Y0304818D01*
X0106000Y0302420D02*
X0134650Y0302420D01*
X0134650Y0300021D02*
X0106000Y0300021D01*
X0106000Y0297623D02*
X0134650Y0297623D01*
X0134650Y0295224D02*
X0106000Y0295224D01*
X0106000Y0292826D02*
X0134650Y0292826D01*
X0134650Y0290427D02*
X0106000Y0290427D01*
X0106000Y0288029D02*
X0134650Y0288029D01*
X0134650Y0285630D02*
X0106000Y0285630D01*
X0106000Y0283232D02*
X0134650Y0283232D01*
X0134650Y0280833D02*
X0106000Y0280833D01*
X0106000Y0278435D02*
X0134650Y0278435D01*
X0134650Y0276036D02*
X0106000Y0276036D01*
X0106000Y0273638D02*
X0134650Y0273638D01*
X0134650Y0271239D02*
X0106000Y0271239D01*
X0106000Y0268841D02*
X0134650Y0268841D01*
X0134650Y0266442D02*
X0106000Y0266442D01*
X0106000Y0264044D02*
X0134650Y0264044D01*
X0134650Y0261645D02*
X0106000Y0261645D01*
X0106000Y0259247D02*
X0134650Y0259247D01*
X0134650Y0256848D02*
X0106000Y0256848D01*
X0106000Y0254450D02*
X0134650Y0254450D01*
X0134650Y0252051D02*
X0106000Y0252051D01*
X0106000Y0249653D02*
X0134650Y0249653D01*
X0134650Y0247254D02*
X0106000Y0247254D01*
X0106000Y0244856D02*
X0133103Y0244856D01*
X0130704Y0242457D02*
X0106000Y0242457D01*
X0106000Y0240059D02*
X0128306Y0240059D01*
X0125907Y0237660D02*
X0106000Y0237660D01*
X0106000Y0235262D02*
X0123509Y0235262D01*
X0121110Y0232863D02*
X0107184Y0232863D01*
X0106642Y0230465D02*
X0118712Y0230465D01*
X0116313Y0228066D02*
X0112879Y0228066D01*
X0112200Y0228066D02*
X0112200Y0228066D01*
X0111521Y0228066D02*
X0099500Y0228066D01*
X0094581Y0228066D02*
X0074600Y0228066D01*
X0074600Y0225668D02*
X0078031Y0225668D01*
X0076800Y0223269D02*
X0074600Y0223269D01*
X0074600Y0220870D02*
X0076906Y0220870D01*
X0078291Y0218472D02*
X0074600Y0218472D01*
X0074600Y0216073D02*
X0094292Y0216073D01*
X0096502Y0213675D02*
X0074600Y0213675D01*
X0074600Y0211276D02*
X0098519Y0211276D01*
X0098898Y0213675D02*
X0099300Y0213675D01*
X0102200Y0210950D02*
X0102200Y0222200D01*
X0106109Y0218472D02*
X0107616Y0218472D01*
X0105100Y0216073D02*
X0117074Y0216073D01*
X0119472Y0213675D02*
X0105100Y0213675D01*
X0105881Y0211276D02*
X0128371Y0211276D01*
X0130769Y0208878D02*
X0105326Y0208878D01*
X0099074Y0208878D02*
X0074600Y0208878D01*
X0074600Y0206479D02*
X0132900Y0206479D01*
X0132900Y0204081D02*
X0074600Y0204081D01*
X0074600Y0201682D02*
X0132900Y0201682D01*
X0132900Y0199284D02*
X0074600Y0199284D01*
X0074600Y0196885D02*
X0132900Y0196885D01*
X0132900Y0194487D02*
X0074600Y0194487D01*
X0074600Y0192088D02*
X0132900Y0192088D01*
X0132900Y0189690D02*
X0074600Y0189690D01*
X0074600Y0187291D02*
X0132900Y0187291D01*
X0133504Y0184893D02*
X0074600Y0184893D01*
X0074600Y0182494D02*
X0135903Y0182494D01*
X0138302Y0180096D02*
X0074600Y0180096D01*
X0074600Y0177697D02*
X0140700Y0177697D01*
X0150817Y0192500D02*
X0150684Y0192633D01*
X0150684Y0192893D01*
X0150154Y0194174D01*
X0149174Y0195154D01*
X0147893Y0195684D01*
X0146507Y0195684D01*
X0145226Y0195154D01*
X0145000Y0194927D01*
X0145000Y0220997D01*
X0146800Y0222797D01*
X0146800Y0221126D01*
X0147622Y0219141D01*
X0149141Y0217622D01*
X0151126Y0216800D01*
X0153274Y0216800D01*
X0155259Y0217622D01*
X0156778Y0219141D01*
X0157200Y0220160D01*
X0157622Y0219141D01*
X0159141Y0217622D01*
X0161126Y0216800D01*
X0163274Y0216800D01*
X0164900Y0217473D01*
X0164900Y0205327D01*
X0164246Y0204674D01*
X0163716Y0203393D01*
X0163716Y0202007D01*
X0164246Y0200726D01*
X0165226Y0199746D01*
X0166507Y0199216D01*
X0167893Y0199216D01*
X0169174Y0199746D01*
X0170154Y0200726D01*
X0170684Y0202007D01*
X0170684Y0203393D01*
X0170154Y0204674D01*
X0169500Y0205327D01*
X0169500Y0217473D01*
X0169900Y0217308D01*
X0169900Y0216247D01*
X0171247Y0214900D01*
X0176956Y0209191D01*
X0176956Y0208267D01*
X0177486Y0206986D01*
X0178466Y0206006D01*
X0179747Y0205476D01*
X0181133Y0205476D01*
X0181400Y0205586D01*
X0181400Y0195497D01*
X0182747Y0194150D01*
X0195747Y0181150D01*
X0219073Y0181150D01*
X0219726Y0180496D01*
X0220321Y0180250D01*
X0195338Y0180250D01*
X0194893Y0180434D01*
X0193507Y0180434D01*
X0193062Y0180250D01*
X0191317Y0180250D01*
X0179569Y0191998D01*
X0178356Y0192500D01*
X0150817Y0192500D01*
X0149841Y0194487D02*
X0182410Y0194487D01*
X0181400Y0196885D02*
X0145000Y0196885D01*
X0145000Y0199284D02*
X0166342Y0199284D01*
X0168058Y0199284D02*
X0181400Y0199284D01*
X0181400Y0201682D02*
X0170550Y0201682D01*
X0170399Y0204081D02*
X0181400Y0204081D01*
X0177993Y0206479D02*
X0169500Y0206479D01*
X0169500Y0208878D02*
X0176956Y0208878D01*
X0174871Y0211276D02*
X0169500Y0211276D01*
X0169500Y0213675D02*
X0172472Y0213675D01*
X0170074Y0216073D02*
X0169500Y0216073D01*
X0164900Y0216073D02*
X0145000Y0216073D01*
X0145000Y0213675D02*
X0164900Y0213675D01*
X0164900Y0211276D02*
X0145000Y0211276D01*
X0145000Y0208878D02*
X0164900Y0208878D01*
X0164900Y0206479D02*
X0145000Y0206479D01*
X0145000Y0204081D02*
X0164001Y0204081D01*
X0163850Y0201682D02*
X0145000Y0201682D01*
X0137900Y0211753D02*
X0132853Y0216800D01*
X0133274Y0216800D01*
X0135259Y0217622D01*
X0136778Y0219141D01*
X0137600Y0221126D01*
X0137600Y0223274D01*
X0136778Y0225259D01*
X0135259Y0226778D01*
X0133274Y0227600D01*
X0131126Y0227600D01*
X0129500Y0226927D01*
X0129500Y0231497D01*
X0140153Y0242150D01*
X0141500Y0243497D01*
X0141500Y0331747D01*
X0152403Y0342650D01*
X0153750Y0343997D01*
X0153750Y0346492D01*
X0154848Y0345394D01*
X0156580Y0344677D01*
X0158454Y0344677D01*
X0160186Y0345394D01*
X0160900Y0346109D01*
X0160900Y0336903D01*
X0159650Y0335653D01*
X0159650Y0271903D01*
X0144650Y0256903D01*
X0144650Y0230653D01*
X0137900Y0223903D01*
X0137900Y0211753D01*
X0137900Y0213675D02*
X0135978Y0213675D01*
X0137900Y0216073D02*
X0133579Y0216073D01*
X0136109Y0218472D02*
X0137900Y0218472D01*
X0137900Y0220870D02*
X0137494Y0220870D01*
X0137600Y0223269D02*
X0137900Y0223269D01*
X0136369Y0225668D02*
X0139665Y0225668D01*
X0142063Y0228066D02*
X0129500Y0228066D01*
X0129500Y0230465D02*
X0144462Y0230465D01*
X0144650Y0232863D02*
X0130866Y0232863D01*
X0133264Y0235262D02*
X0144650Y0235262D01*
X0144650Y0237660D02*
X0135663Y0237660D01*
X0138061Y0240059D02*
X0144650Y0240059D01*
X0144650Y0242457D02*
X0140460Y0242457D01*
X0141500Y0244856D02*
X0144650Y0244856D01*
X0144650Y0247254D02*
X0141500Y0247254D01*
X0141500Y0249653D02*
X0144650Y0249653D01*
X0144650Y0252051D02*
X0141500Y0252051D01*
X0141500Y0254450D02*
X0144650Y0254450D01*
X0144650Y0256848D02*
X0141500Y0256848D01*
X0141500Y0259247D02*
X0146994Y0259247D01*
X0149392Y0261645D02*
X0141500Y0261645D01*
X0141500Y0264044D02*
X0151791Y0264044D01*
X0154190Y0266442D02*
X0141500Y0266442D01*
X0141500Y0268841D02*
X0156588Y0268841D01*
X0158987Y0271239D02*
X0141500Y0271239D01*
X0141500Y0273638D02*
X0159650Y0273638D01*
X0159650Y0276036D02*
X0141500Y0276036D01*
X0141500Y0278435D02*
X0159650Y0278435D01*
X0159650Y0280833D02*
X0141500Y0280833D01*
X0141500Y0283232D02*
X0159650Y0283232D01*
X0159650Y0285630D02*
X0141500Y0285630D01*
X0141500Y0288029D02*
X0159650Y0288029D01*
X0159650Y0290427D02*
X0141500Y0290427D01*
X0141500Y0292826D02*
X0159650Y0292826D01*
X0159650Y0295224D02*
X0141500Y0295224D01*
X0141500Y0297623D02*
X0159650Y0297623D01*
X0159650Y0300021D02*
X0141500Y0300021D01*
X0141500Y0302420D02*
X0159650Y0302420D01*
X0159650Y0304818D02*
X0141500Y0304818D01*
X0141500Y0307217D02*
X0159650Y0307217D01*
X0159650Y0309615D02*
X0141500Y0309615D01*
X0141500Y0312014D02*
X0159650Y0312014D01*
X0159650Y0314412D02*
X0141500Y0314412D01*
X0141500Y0316811D02*
X0159650Y0316811D01*
X0159650Y0319209D02*
X0141500Y0319209D01*
X0141500Y0321608D02*
X0159650Y0321608D01*
X0159650Y0324006D02*
X0141500Y0324006D01*
X0141500Y0326405D02*
X0159650Y0326405D01*
X0159650Y0328803D02*
X0141500Y0328803D01*
X0141500Y0331202D02*
X0159650Y0331202D01*
X0159650Y0333601D02*
X0143353Y0333601D01*
X0145752Y0335999D02*
X0159996Y0335999D01*
X0160900Y0338398D02*
X0148150Y0338398D01*
X0150549Y0340796D02*
X0160900Y0340796D01*
X0160900Y0343195D02*
X0152947Y0343195D01*
X0153750Y0345593D02*
X0154649Y0345593D01*
X0148840Y0345593D02*
X0148573Y0345593D01*
X0146442Y0343195D02*
X0139250Y0343195D01*
X0139250Y0345593D02*
X0142838Y0345593D01*
X0141185Y0347992D02*
X0139250Y0347992D01*
X0139250Y0350390D02*
X0141021Y0350390D01*
X0140547Y0352789D02*
X0142442Y0352789D01*
X0142946Y0355187D02*
X0149150Y0355187D01*
X0149150Y0352789D02*
X0148970Y0352789D01*
X0153750Y0352789D02*
X0154253Y0352789D01*
X0154757Y0355187D02*
X0160900Y0355187D01*
X0160900Y0352789D02*
X0160781Y0352789D01*
X0165500Y0352789D02*
X0166064Y0352789D01*
X0166568Y0355187D02*
X0172650Y0355187D01*
X0172592Y0352789D02*
X0172650Y0352789D01*
X0177250Y0352789D02*
X0177875Y0352789D01*
X0178379Y0355187D02*
X0184650Y0355187D01*
X0184650Y0352789D02*
X0184403Y0352789D01*
X0184188Y0357586D02*
X0186083Y0357586D01*
X0185735Y0359984D02*
X0188354Y0359984D01*
X0188340Y0362383D02*
X0185749Y0362383D01*
X0184221Y0364781D02*
X0189868Y0364781D01*
X0196032Y0364781D02*
X0201679Y0364781D01*
X0202092Y0365194D02*
X0200767Y0363869D01*
X0200049Y0362137D01*
X0200049Y0360263D01*
X0200767Y0358531D01*
X0202092Y0357206D01*
X0203824Y0356488D01*
X0205698Y0356488D01*
X0207430Y0357206D01*
X0208755Y0358531D01*
X0209473Y0360263D01*
X0209473Y0362137D01*
X0208755Y0363869D01*
X0207430Y0365194D01*
X0205698Y0365912D01*
X0203824Y0365912D01*
X0202092Y0365194D01*
X0200151Y0362383D02*
X0197560Y0362383D01*
X0197546Y0359984D02*
X0200165Y0359984D01*
X0201712Y0357586D02*
X0195999Y0357586D01*
X0196214Y0352789D02*
X0201497Y0352789D01*
X0202092Y0353383D02*
X0200767Y0352058D01*
X0200049Y0350326D01*
X0200049Y0348452D01*
X0200767Y0346720D01*
X0202092Y0345394D01*
X0203824Y0344677D01*
X0205698Y0344677D01*
X0207430Y0345394D01*
X0208755Y0346720D01*
X0209473Y0348452D01*
X0209473Y0350326D01*
X0208755Y0352058D01*
X0207430Y0353383D01*
X0205698Y0354101D01*
X0203824Y0354101D01*
X0202092Y0353383D01*
X0200076Y0350390D02*
X0197635Y0350390D01*
X0197471Y0347992D02*
X0200240Y0347992D01*
X0201893Y0345593D02*
X0195818Y0345593D01*
X0190082Y0345593D02*
X0189250Y0345593D01*
X0188947Y0343195D02*
X0258199Y0343195D01*
X0258152Y0345593D02*
X0243062Y0345593D01*
X0242863Y0345394D02*
X0244189Y0346720D01*
X0244906Y0348452D01*
X0244906Y0350326D01*
X0244189Y0352058D01*
X0242863Y0353383D01*
X0241131Y0354101D01*
X0239257Y0354101D01*
X0237525Y0353383D01*
X0236200Y0352058D01*
X0235482Y0350326D01*
X0235482Y0348452D01*
X0236200Y0346720D01*
X0237525Y0345394D01*
X0239257Y0344677D01*
X0241131Y0344677D01*
X0242863Y0345394D01*
X0244715Y0347992D02*
X0274400Y0347992D01*
X0274400Y0350390D02*
X0244879Y0350390D01*
X0243458Y0352789D02*
X0274400Y0352789D01*
X0274400Y0355187D02*
X0270965Y0355187D01*
X0270728Y0354950D02*
X0273950Y0358172D01*
X0273950Y0362728D01*
X0270728Y0365950D01*
X0266172Y0365950D01*
X0263450Y0363228D01*
X0260728Y0365950D01*
X0256172Y0365950D01*
X0252950Y0362728D01*
X0252950Y0358172D01*
X0256172Y0354950D01*
X0260728Y0354950D01*
X0263450Y0357672D01*
X0266172Y0354950D01*
X0270728Y0354950D01*
X0273364Y0357586D02*
X0274400Y0357586D01*
X0274400Y0359984D02*
X0273950Y0359984D01*
X0273950Y0362383D02*
X0274400Y0362383D01*
X0274400Y0364781D02*
X0271897Y0364781D01*
X0276427Y0367180D02*
X0107150Y0367180D01*
X0107150Y0364781D02*
X0140994Y0364781D01*
X0140994Y0362383D02*
X0107829Y0362383D01*
X0108022Y0359984D02*
X0140994Y0359984D01*
X0138839Y0357586D02*
X0106621Y0357586D01*
X0103322Y0352789D02*
X0103322Y0352789D01*
X0103322Y0350390D02*
X0103322Y0350390D01*
X0103322Y0349139D02*
X0103322Y0349139D01*
X0100023Y0357586D02*
X0098128Y0357586D01*
X0098622Y0359984D02*
X0096211Y0359984D01*
X0096018Y0362383D02*
X0098815Y0362383D01*
X0099750Y0364781D02*
X0094343Y0364781D01*
X0107311Y0369578D02*
X0278826Y0369578D01*
X0265003Y0364781D02*
X0261897Y0364781D01*
X0263364Y0357586D02*
X0263536Y0357586D01*
X0265935Y0355187D02*
X0260965Y0355187D01*
X0255935Y0355187D02*
X0190190Y0355187D01*
X0189686Y0352789D02*
X0189250Y0352789D01*
X0176543Y0359984D02*
X0173924Y0359984D01*
X0173938Y0362383D02*
X0176529Y0362383D01*
X0178057Y0364781D02*
X0172410Y0364781D01*
X0166246Y0364781D02*
X0160599Y0364781D01*
X0162127Y0362383D02*
X0164718Y0362383D01*
X0164732Y0359984D02*
X0162113Y0359984D01*
X0162461Y0357586D02*
X0160566Y0357586D01*
X0152921Y0359984D02*
X0150418Y0359984D01*
X0150418Y0357586D02*
X0150650Y0357586D01*
X0150418Y0362383D02*
X0152907Y0362383D01*
X0154435Y0364781D02*
X0150418Y0364781D01*
X0160385Y0345593D02*
X0160900Y0345593D01*
X0172377Y0357586D02*
X0174272Y0357586D01*
X0186549Y0340796D02*
X0258650Y0340796D01*
X0258650Y0338398D02*
X0184150Y0338398D01*
X0181752Y0335999D02*
X0189174Y0335999D01*
X0188348Y0333601D02*
X0179353Y0333601D01*
X0176955Y0331202D02*
X0185949Y0331202D01*
X0183551Y0328803D02*
X0174556Y0328803D01*
X0172158Y0326405D02*
X0181152Y0326405D01*
X0178754Y0324006D02*
X0169759Y0324006D01*
X0169500Y0321608D02*
X0176355Y0321608D01*
X0173957Y0319209D02*
X0169500Y0319209D01*
X0169500Y0316811D02*
X0171558Y0316811D01*
X0175665Y0314412D02*
X0262400Y0314412D01*
X0262400Y0312014D02*
X0173267Y0312014D01*
X0172250Y0309615D02*
X0262400Y0309615D01*
X0262400Y0307217D02*
X0172250Y0307217D01*
X0172250Y0304818D02*
X0262400Y0304818D01*
X0262400Y0302420D02*
X0172250Y0302420D01*
X0172250Y0300021D02*
X0262400Y0300021D01*
X0262400Y0297623D02*
X0172250Y0297623D01*
X0172250Y0295224D02*
X0262400Y0295224D01*
X0262400Y0292826D02*
X0172250Y0292826D01*
X0172250Y0290427D02*
X0262400Y0290427D01*
X0262400Y0288029D02*
X0172250Y0288029D01*
X0172250Y0285630D02*
X0262400Y0285630D01*
X0262400Y0283232D02*
X0172250Y0283232D01*
X0172250Y0280833D02*
X0262400Y0280833D01*
X0262400Y0278435D02*
X0172250Y0278435D01*
X0172250Y0276036D02*
X0262400Y0276036D01*
X0262400Y0273638D02*
X0172250Y0273638D01*
X0172250Y0271239D02*
X0260987Y0271239D01*
X0258588Y0268841D02*
X0172250Y0268841D01*
X0171695Y0266442D02*
X0256190Y0266442D01*
X0253791Y0264044D02*
X0169296Y0264044D01*
X0166898Y0261645D02*
X0172142Y0261645D01*
X0169744Y0259247D02*
X0164500Y0259247D01*
X0164500Y0256848D02*
X0167345Y0256848D01*
X0164947Y0254450D02*
X0164500Y0254450D01*
X0164500Y0252051D02*
X0164900Y0252051D01*
X0164900Y0249653D02*
X0164500Y0249653D01*
X0164500Y0247254D02*
X0164900Y0247254D01*
X0164900Y0244856D02*
X0164500Y0244856D01*
X0164500Y0242457D02*
X0164900Y0242457D01*
X0164900Y0240059D02*
X0164500Y0240059D01*
X0164500Y0237660D02*
X0164900Y0237660D01*
X0164900Y0235262D02*
X0164500Y0235262D01*
X0164500Y0232863D02*
X0164900Y0232863D01*
X0164900Y0230465D02*
X0164500Y0230465D01*
X0164500Y0228066D02*
X0164900Y0228066D01*
X0158291Y0218472D02*
X0156109Y0218472D01*
X0148291Y0218472D02*
X0145000Y0218472D01*
X0145000Y0220870D02*
X0146906Y0220870D01*
X0112200Y0220870D02*
X0112200Y0220870D01*
X0112200Y0218472D02*
X0112200Y0218472D01*
X0112200Y0223269D02*
X0112200Y0223269D01*
X0112200Y0225668D02*
X0112200Y0225668D01*
X0107426Y0225668D02*
X0106369Y0225668D01*
X0092650Y0230465D02*
X0074600Y0230465D01*
X0074600Y0232863D02*
X0092650Y0232863D01*
X0093759Y0235262D02*
X0074600Y0235262D01*
X0074600Y0237660D02*
X0096157Y0237660D01*
X0097400Y0240059D02*
X0074600Y0240059D01*
X0074600Y0242457D02*
X0097400Y0242457D01*
X0097400Y0244856D02*
X0074600Y0244856D01*
X0074600Y0247254D02*
X0097400Y0247254D01*
X0097400Y0249653D02*
X0074600Y0249653D01*
X0074600Y0252051D02*
X0097400Y0252051D01*
X0097400Y0254450D02*
X0074600Y0254450D01*
X0074600Y0256848D02*
X0097400Y0256848D01*
X0097400Y0259247D02*
X0074600Y0259247D01*
X0074600Y0261645D02*
X0097400Y0261645D01*
X0097400Y0264044D02*
X0074600Y0264044D01*
X0074600Y0266442D02*
X0097400Y0266442D01*
X0097400Y0268841D02*
X0074600Y0268841D01*
X0074600Y0271239D02*
X0097400Y0271239D01*
X0097400Y0273638D02*
X0074600Y0273638D01*
X0074600Y0276036D02*
X0097400Y0276036D01*
X0097400Y0278435D02*
X0074600Y0278435D01*
X0074600Y0280833D02*
X0097400Y0280833D01*
X0097400Y0283232D02*
X0074600Y0283232D01*
X0074600Y0285630D02*
X0097400Y0285630D01*
X0097400Y0288029D02*
X0074600Y0288029D01*
X0074600Y0290427D02*
X0097400Y0290427D01*
X0097400Y0292826D02*
X0074600Y0292826D01*
X0074600Y0295224D02*
X0097400Y0295224D01*
X0097400Y0297623D02*
X0074600Y0297623D01*
X0074600Y0300021D02*
X0097400Y0300021D01*
X0097400Y0302420D02*
X0074600Y0302420D01*
X0074600Y0304818D02*
X0097400Y0304818D01*
X0097400Y0307217D02*
X0074600Y0307217D01*
X0074600Y0309615D02*
X0097400Y0309615D01*
X0097400Y0312014D02*
X0074600Y0312014D01*
X0074600Y0314412D02*
X0097400Y0314412D01*
X0097400Y0316811D02*
X0074600Y0316811D01*
X0074600Y0319209D02*
X0097400Y0319209D01*
X0097400Y0321608D02*
X0074600Y0321608D01*
X0074600Y0324006D02*
X0097400Y0324006D01*
X0097400Y0326405D02*
X0075256Y0326405D01*
X0077655Y0328803D02*
X0097400Y0328803D01*
X0097400Y0331202D02*
X0078350Y0331202D01*
X0078350Y0333601D02*
X0097400Y0333601D01*
X0097400Y0335999D02*
X0078350Y0335999D01*
X0078934Y0338398D02*
X0096000Y0338398D01*
X0084351Y0340796D02*
X0078031Y0340796D01*
X0075450Y0338450D02*
X0075450Y0330700D01*
X0071700Y0326950D01*
X0071700Y0157200D01*
X0079950Y0148950D01*
X0085450Y0148950D01*
X0088934Y0148915D02*
X0193650Y0148915D01*
X0193650Y0146517D02*
X0087944Y0146517D01*
X0088014Y0151314D02*
X0193650Y0151314D01*
X0193650Y0153712D02*
X0079289Y0153712D01*
X0076891Y0156111D02*
X0191537Y0156111D01*
X0189138Y0158509D02*
X0074600Y0158509D01*
X0074600Y0160908D02*
X0186740Y0160908D01*
X0184341Y0163306D02*
X0074600Y0163306D01*
X0074600Y0165705D02*
X0181943Y0165705D01*
X0179544Y0168103D02*
X0074600Y0168103D01*
X0074600Y0170502D02*
X0177146Y0170502D01*
X0174747Y0172900D02*
X0074600Y0172900D01*
X0074600Y0175299D02*
X0172349Y0175299D01*
X0184276Y0187291D02*
X0189606Y0187291D01*
X0192004Y0184893D02*
X0186674Y0184893D01*
X0189073Y0182494D02*
X0194403Y0182494D01*
X0187207Y0189690D02*
X0181877Y0189690D01*
X0179350Y0192088D02*
X0184809Y0192088D01*
X0191698Y0165705D02*
X0221193Y0165705D01*
X0223591Y0163306D02*
X0194096Y0163306D01*
X0196495Y0160908D02*
X0225990Y0160908D01*
X0227150Y0158509D02*
X0198893Y0158509D01*
X0201292Y0156111D02*
X0227150Y0156111D01*
X0227150Y0153712D02*
X0201500Y0153712D01*
X0201500Y0151314D02*
X0227150Y0151314D01*
X0227150Y0148915D02*
X0201500Y0148915D01*
X0201500Y0146517D02*
X0227150Y0146517D01*
X0227150Y0144118D02*
X0201500Y0144118D01*
X0201500Y0141720D02*
X0227150Y0141720D01*
X0227150Y0139321D02*
X0201500Y0139321D01*
X0201500Y0136923D02*
X0227150Y0136923D01*
X0227150Y0134524D02*
X0201500Y0134524D01*
X0201500Y0132126D02*
X0227150Y0132126D01*
X0227150Y0129727D02*
X0201500Y0129727D01*
X0201500Y0127329D02*
X0227150Y0127329D01*
X0227150Y0124930D02*
X0202684Y0124930D01*
X0201959Y0122532D02*
X0227150Y0122532D01*
X0227150Y0120133D02*
X0201020Y0120133D01*
X0201750Y0117734D02*
X0227150Y0117734D01*
X0227150Y0115336D02*
X0201750Y0115336D01*
X0201750Y0112937D02*
X0227150Y0112937D01*
X0227150Y0110539D02*
X0201750Y0110539D01*
X0201750Y0108140D02*
X0227150Y0108140D01*
X0227150Y0105742D02*
X0201750Y0105742D01*
X0202851Y0103343D02*
X0227150Y0103343D01*
X0227150Y0100945D02*
X0202598Y0100945D01*
X0196302Y0100945D02*
X0087574Y0100945D01*
X0089184Y0098546D02*
X0227150Y0098546D01*
X0227150Y0096148D02*
X0088725Y0096148D01*
X0085700Y0097950D02*
X0080450Y0097950D01*
X0064200Y0114200D01*
X0064200Y0330700D01*
X0065950Y0332450D01*
X0067950Y0328200D02*
X0070950Y0331200D01*
X0070950Y0335200D01*
X0067950Y0328200D02*
X0067950Y0143950D01*
X0084950Y0126950D01*
X0086200Y0126950D01*
X0089684Y0127329D02*
X0193650Y0127329D01*
X0193650Y0129727D02*
X0088350Y0129727D01*
X0089108Y0124930D02*
X0193650Y0124930D01*
X0193650Y0122532D02*
X0067100Y0122532D01*
X0067100Y0124930D02*
X0082869Y0124930D01*
X0080470Y0127329D02*
X0067100Y0127329D01*
X0067100Y0129727D02*
X0078072Y0129727D01*
X0075673Y0132126D02*
X0067100Y0132126D01*
X0067100Y0134524D02*
X0073275Y0134524D01*
X0070876Y0136923D02*
X0067100Y0136923D01*
X0067100Y0139321D02*
X0068478Y0139321D01*
X0071883Y0144118D02*
X0193650Y0144118D01*
X0193650Y0141720D02*
X0074282Y0141720D01*
X0076680Y0139321D02*
X0193650Y0139321D01*
X0193650Y0136923D02*
X0079079Y0136923D01*
X0081477Y0134524D02*
X0193650Y0134524D01*
X0193650Y0132126D02*
X0083876Y0132126D01*
X0078282Y0146517D02*
X0070850Y0146517D01*
X0070850Y0148915D02*
X0075884Y0148915D01*
X0073485Y0151314D02*
X0070850Y0151314D01*
X0070850Y0153712D02*
X0071087Y0153712D01*
X0067100Y0120133D02*
X0194514Y0120133D01*
X0196913Y0117734D02*
X0067100Y0117734D01*
X0067165Y0115336D02*
X0197150Y0115336D01*
X0197150Y0112937D02*
X0069564Y0112937D01*
X0071962Y0110539D02*
X0197150Y0110539D01*
X0197150Y0108140D02*
X0074361Y0108140D01*
X0076759Y0105742D02*
X0197150Y0105742D01*
X0196049Y0103343D02*
X0079158Y0103343D01*
X0081556Y0100945D02*
X0083826Y0100945D01*
X0075752Y0098546D02*
X0063100Y0098546D01*
X0063100Y0100945D02*
X0073354Y0100945D01*
X0070955Y0103343D02*
X0063100Y0103343D01*
X0063100Y0105742D02*
X0068557Y0105742D01*
X0066158Y0108140D02*
X0063100Y0108140D01*
X0063100Y0110539D02*
X0063760Y0110539D01*
X0060200Y0096700D02*
X0080950Y0075950D01*
X0086700Y0075950D01*
X0089896Y0074561D02*
X0227150Y0074561D01*
X0227150Y0072163D02*
X0058250Y0072163D01*
X0058250Y0074561D02*
X0078237Y0074561D01*
X0075839Y0076960D02*
X0058250Y0076960D01*
X0058250Y0079358D02*
X0073440Y0079358D01*
X0071042Y0081757D02*
X0058250Y0081757D01*
X0058250Y0084155D02*
X0068643Y0084155D01*
X0066245Y0086554D02*
X0058250Y0086554D01*
X0058250Y0088952D02*
X0063846Y0088952D01*
X0061448Y0091351D02*
X0058250Y0091351D01*
X0058250Y0093749D02*
X0059049Y0093749D01*
X0060200Y0096700D02*
X0060200Y0332950D01*
X0073450Y0346200D01*
X0076338Y0345593D02*
X0076582Y0345593D01*
X0074546Y0343195D02*
X0081953Y0343195D01*
X0072869Y0340796D02*
X0072147Y0340796D01*
X0070550Y0367180D02*
X0012626Y0367180D01*
X0012627Y0369578D02*
X0070550Y0369578D01*
X0070550Y0371977D02*
X0012629Y0371977D01*
X0012631Y0374375D02*
X0070550Y0374375D01*
X0072173Y0376774D02*
X0012632Y0376774D01*
X0012634Y0379172D02*
X0074571Y0379172D01*
X0076204Y0381571D02*
X0012635Y0381571D01*
X0012637Y0383969D02*
X0061097Y0383969D01*
X0057041Y0386368D02*
X0012638Y0386368D01*
X0012640Y0388766D02*
X0055088Y0388766D01*
X0053987Y0391165D02*
X0012641Y0391165D01*
X0012643Y0393563D02*
X0053476Y0393563D01*
X0053476Y0395962D02*
X0012644Y0395962D01*
X0012646Y0398360D02*
X0054110Y0398360D01*
X0068067Y0383969D02*
X0091333Y0383969D01*
X0087277Y0386368D02*
X0072123Y0386368D01*
X0074076Y0388766D02*
X0085324Y0388766D01*
X0084223Y0391165D02*
X0075177Y0391165D01*
X0075687Y0393563D02*
X0083713Y0393563D01*
X0083713Y0395962D02*
X0075687Y0395962D01*
X0075054Y0398360D02*
X0084346Y0398360D01*
X0098303Y0383969D02*
X0151658Y0383969D01*
X0156762Y0383969D02*
X0229138Y0383969D01*
X0234242Y0383969D02*
X0288691Y0383969D01*
X0293795Y0383969D02*
X0401605Y0383969D01*
X0406709Y0383969D02*
X0464898Y0383969D01*
X0470002Y0383969D02*
X0522158Y0383969D01*
X0522156Y0381571D02*
X0082196Y0381571D01*
X0102359Y0386368D02*
X0146919Y0386368D01*
X0144860Y0388766D02*
X0104312Y0388766D01*
X0105413Y0391165D02*
X0143682Y0391165D01*
X0143104Y0393563D02*
X0105924Y0393563D01*
X0105924Y0395962D02*
X0143104Y0395962D01*
X0143671Y0398360D02*
X0105290Y0398360D01*
X0109709Y0371977D02*
X0481941Y0371977D01*
X0484339Y0369578D02*
X0332324Y0369578D01*
X0334723Y0367180D02*
X0485500Y0367180D01*
X0485500Y0364781D02*
X0482343Y0364781D01*
X0483871Y0362383D02*
X0485500Y0362383D01*
X0485500Y0359984D02*
X0483857Y0359984D01*
X0482310Y0357586D02*
X0485500Y0357586D01*
X0485500Y0355187D02*
X0476784Y0355187D01*
X0472111Y0357586D02*
X0470499Y0357586D01*
X0470119Y0357206D02*
X0471444Y0358531D01*
X0472162Y0360263D01*
X0472162Y0362137D01*
X0471444Y0363869D01*
X0470119Y0365194D01*
X0468387Y0365912D01*
X0466513Y0365912D01*
X0464781Y0365194D01*
X0463456Y0363869D01*
X0462738Y0362137D01*
X0462738Y0360263D01*
X0463456Y0358531D01*
X0464781Y0357206D01*
X0466513Y0356488D01*
X0468387Y0356488D01*
X0470119Y0357206D01*
X0471450Y0355187D02*
X0465187Y0355187D01*
X0464401Y0357586D02*
X0460767Y0357586D01*
X0460851Y0359984D02*
X0462854Y0359984D01*
X0462840Y0362383D02*
X0460851Y0362383D01*
X0460776Y0364781D02*
X0464368Y0364781D01*
X0455639Y0364781D02*
X0455639Y0364781D01*
X0455639Y0366412D02*
X0455639Y0361200D01*
X0455639Y0361200D01*
X0450427Y0361200D01*
X0450427Y0364501D01*
X0450577Y0365061D01*
X0450867Y0365563D01*
X0451276Y0365972D01*
X0451778Y0366262D01*
X0452338Y0366412D01*
X0455639Y0366412D01*
X0455639Y0362383D02*
X0455639Y0362383D01*
X0450427Y0362383D02*
X0417271Y0362383D01*
X0417257Y0359984D02*
X0450427Y0359984D01*
X0450511Y0357586D02*
X0419528Y0357586D01*
X0421926Y0355187D02*
X0444152Y0355187D01*
X0441753Y0352789D02*
X0424325Y0352789D01*
X0424500Y0350390D02*
X0439355Y0350390D01*
X0436956Y0347992D02*
X0424500Y0347992D01*
X0424500Y0345593D02*
X0434558Y0345593D01*
X0432159Y0343195D02*
X0424500Y0343195D01*
X0424500Y0340796D02*
X0430094Y0340796D01*
X0429950Y0338398D02*
X0424500Y0338398D01*
X0424500Y0335999D02*
X0429950Y0335999D01*
X0429950Y0333601D02*
X0424500Y0333601D01*
X0424500Y0331202D02*
X0429950Y0331202D01*
X0429950Y0328803D02*
X0424500Y0328803D01*
X0424500Y0326405D02*
X0429950Y0326405D01*
X0429950Y0324006D02*
X0424500Y0324006D01*
X0424500Y0321608D02*
X0429950Y0321608D01*
X0429950Y0319209D02*
X0424500Y0319209D01*
X0424500Y0316811D02*
X0429950Y0316811D01*
X0429950Y0314412D02*
X0424500Y0314412D01*
X0424500Y0312014D02*
X0429950Y0312014D01*
X0429950Y0309615D02*
X0424500Y0309615D01*
X0424500Y0307217D02*
X0429950Y0307217D01*
X0429950Y0304818D02*
X0424500Y0304818D01*
X0424500Y0302420D02*
X0429950Y0302420D01*
X0429950Y0300021D02*
X0424500Y0300021D01*
X0424500Y0297623D02*
X0429950Y0297623D01*
X0419900Y0297623D02*
X0414500Y0297623D01*
X0414500Y0300021D02*
X0419900Y0300021D01*
X0419900Y0302420D02*
X0414500Y0302420D01*
X0414500Y0304818D02*
X0419900Y0304818D01*
X0419900Y0307217D02*
X0414500Y0307217D01*
X0414500Y0309615D02*
X0419900Y0309615D01*
X0419900Y0312014D02*
X0414500Y0312014D01*
X0414500Y0314412D02*
X0419900Y0314412D01*
X0419900Y0316811D02*
X0414500Y0316811D01*
X0414500Y0319209D02*
X0419900Y0319209D01*
X0419900Y0321608D02*
X0414500Y0321608D01*
X0414500Y0324006D02*
X0419900Y0324006D01*
X0419900Y0326405D02*
X0414500Y0326405D01*
X0414500Y0328803D02*
X0419900Y0328803D01*
X0419900Y0331202D02*
X0414500Y0331202D01*
X0414500Y0333601D02*
X0419900Y0333601D01*
X0419900Y0335999D02*
X0414500Y0335999D01*
X0414500Y0338398D02*
X0419900Y0338398D01*
X0419900Y0340796D02*
X0413607Y0340796D01*
X0411208Y0343195D02*
X0419900Y0343195D01*
X0419900Y0345593D02*
X0415528Y0345593D01*
X0417182Y0347992D02*
X0419900Y0347992D01*
X0419900Y0350390D02*
X0417346Y0350390D01*
X0417819Y0352789D02*
X0415924Y0352789D01*
X0415421Y0355187D02*
X0409000Y0355187D01*
X0409000Y0352789D02*
X0409397Y0352789D01*
X0409611Y0357586D02*
X0407717Y0357586D01*
X0408064Y0359984D02*
X0405446Y0359984D01*
X0405460Y0362383D02*
X0408050Y0362383D01*
X0409578Y0364781D02*
X0403932Y0364781D01*
X0397767Y0364781D02*
X0392121Y0364781D01*
X0393649Y0362383D02*
X0396239Y0362383D01*
X0396253Y0359984D02*
X0393635Y0359984D01*
X0395906Y0357586D02*
X0397800Y0357586D01*
X0397250Y0355187D02*
X0403610Y0355187D01*
X0404113Y0352789D02*
X0404400Y0352789D01*
X0397586Y0352789D02*
X0397250Y0352789D01*
X0392650Y0352789D02*
X0392302Y0352789D01*
X0391799Y0355187D02*
X0385750Y0355187D01*
X0385750Y0352789D02*
X0385775Y0352789D01*
X0381150Y0352789D02*
X0380491Y0352789D01*
X0379988Y0355187D02*
X0373750Y0355187D01*
X0373750Y0352789D02*
X0373964Y0352789D01*
X0374178Y0357586D02*
X0372284Y0357586D01*
X0372631Y0359984D02*
X0370013Y0359984D01*
X0370027Y0362383D02*
X0372617Y0362383D01*
X0374145Y0364781D02*
X0368499Y0364781D01*
X0362334Y0364781D02*
X0356688Y0364781D01*
X0358216Y0362383D02*
X0360806Y0362383D01*
X0360820Y0359984D02*
X0358202Y0359984D01*
X0360473Y0357586D02*
X0362367Y0357586D01*
X0362000Y0355187D02*
X0368177Y0355187D01*
X0368680Y0352789D02*
X0369150Y0352789D01*
X0362153Y0352789D02*
X0362000Y0352789D01*
X0357400Y0352789D02*
X0356869Y0352789D01*
X0356366Y0355187D02*
X0350000Y0355187D01*
X0350000Y0352789D02*
X0350342Y0352789D01*
X0350556Y0357586D02*
X0348662Y0357586D01*
X0349009Y0359984D02*
X0346391Y0359984D01*
X0346405Y0362383D02*
X0348995Y0362383D01*
X0350523Y0364781D02*
X0344877Y0364781D01*
X0338712Y0364781D02*
X0337122Y0364781D01*
X0300593Y0388766D02*
X0394807Y0388766D01*
X0393629Y0391165D02*
X0301771Y0391165D01*
X0302349Y0393563D02*
X0393051Y0393563D01*
X0393051Y0395962D02*
X0302349Y0395962D01*
X0301782Y0398360D02*
X0393618Y0398360D01*
X0396866Y0386368D02*
X0298534Y0386368D01*
X0283953Y0386368D02*
X0238981Y0386368D01*
X0241040Y0388766D02*
X0281893Y0388766D01*
X0280715Y0391165D02*
X0242218Y0391165D01*
X0242796Y0393563D02*
X0280138Y0393563D01*
X0280138Y0395962D02*
X0242796Y0395962D01*
X0242229Y0398360D02*
X0280705Y0398360D01*
X0244189Y0363869D02*
X0242863Y0365194D01*
X0241131Y0365912D01*
X0239257Y0365912D01*
X0237525Y0365194D01*
X0236200Y0363869D01*
X0235482Y0362137D01*
X0235482Y0360263D01*
X0236200Y0358531D01*
X0237525Y0357206D01*
X0239257Y0356488D01*
X0241131Y0356488D01*
X0242863Y0357206D01*
X0244189Y0358531D01*
X0244906Y0360263D01*
X0244906Y0362137D01*
X0244189Y0363869D01*
X0243276Y0364781D02*
X0255003Y0364781D01*
X0252950Y0362383D02*
X0244804Y0362383D01*
X0244790Y0359984D02*
X0252950Y0359984D01*
X0253536Y0357586D02*
X0243243Y0357586D01*
X0237145Y0357586D02*
X0231432Y0357586D01*
X0231052Y0357206D02*
X0232378Y0358531D01*
X0233095Y0360263D01*
X0233095Y0362137D01*
X0232378Y0363869D01*
X0231052Y0365194D01*
X0229320Y0365912D01*
X0227446Y0365912D01*
X0225714Y0365194D01*
X0224389Y0363869D01*
X0223671Y0362137D01*
X0223671Y0360263D01*
X0224389Y0358531D01*
X0225714Y0357206D01*
X0227446Y0356488D01*
X0229320Y0356488D01*
X0231052Y0357206D01*
X0232979Y0359984D02*
X0235598Y0359984D01*
X0235584Y0362383D02*
X0232993Y0362383D01*
X0231465Y0364781D02*
X0237112Y0364781D01*
X0225301Y0364781D02*
X0219654Y0364781D01*
X0219241Y0365194D02*
X0220567Y0363869D01*
X0221284Y0362137D01*
X0221284Y0360263D01*
X0220567Y0358531D01*
X0219241Y0357206D01*
X0217509Y0356488D01*
X0215635Y0356488D01*
X0213903Y0357206D01*
X0212578Y0358531D01*
X0211860Y0360263D01*
X0211860Y0362137D01*
X0212578Y0363869D01*
X0213903Y0365194D01*
X0215635Y0365912D01*
X0217509Y0365912D01*
X0219241Y0365194D01*
X0221182Y0362383D02*
X0223773Y0362383D01*
X0223787Y0359984D02*
X0221168Y0359984D01*
X0219621Y0357586D02*
X0225334Y0357586D01*
X0227446Y0354101D02*
X0225714Y0353383D01*
X0224389Y0352058D01*
X0223671Y0350326D01*
X0223671Y0348452D01*
X0224389Y0346720D01*
X0225714Y0345394D01*
X0227446Y0344677D01*
X0229320Y0344677D01*
X0231052Y0345394D01*
X0232378Y0346720D01*
X0233095Y0348452D01*
X0233095Y0350326D01*
X0232378Y0352058D01*
X0231052Y0353383D01*
X0229320Y0354101D01*
X0227446Y0354101D01*
X0225119Y0352789D02*
X0219836Y0352789D01*
X0219241Y0353383D02*
X0217509Y0354101D01*
X0215635Y0354101D01*
X0213903Y0353383D01*
X0212578Y0352058D01*
X0211860Y0350326D01*
X0211860Y0348452D01*
X0212578Y0346720D01*
X0213903Y0345394D01*
X0215635Y0344677D01*
X0217509Y0344677D01*
X0219241Y0345394D01*
X0220567Y0346720D01*
X0221284Y0348452D01*
X0221284Y0350326D01*
X0220567Y0352058D01*
X0219241Y0353383D01*
X0221257Y0350390D02*
X0223698Y0350390D01*
X0223862Y0347992D02*
X0221093Y0347992D01*
X0219440Y0345593D02*
X0225515Y0345593D01*
X0231251Y0345593D02*
X0237326Y0345593D01*
X0235673Y0347992D02*
X0232904Y0347992D01*
X0233068Y0350390D02*
X0235509Y0350390D01*
X0236930Y0352789D02*
X0231647Y0352789D01*
X0213308Y0352789D02*
X0208025Y0352789D01*
X0209446Y0350390D02*
X0211887Y0350390D01*
X0212051Y0347992D02*
X0209282Y0347992D01*
X0207629Y0345593D02*
X0213704Y0345593D01*
X0213523Y0357586D02*
X0207810Y0357586D01*
X0209357Y0359984D02*
X0211976Y0359984D01*
X0211962Y0362383D02*
X0209371Y0362383D01*
X0207843Y0364781D02*
X0213490Y0364781D01*
X0224399Y0386368D02*
X0161500Y0386368D01*
X0163560Y0388766D02*
X0222340Y0388766D01*
X0221162Y0391165D02*
X0164738Y0391165D01*
X0165315Y0393563D02*
X0220585Y0393563D01*
X0220585Y0395962D02*
X0165315Y0395962D01*
X0164748Y0398360D02*
X0221152Y0398360D01*
X0264748Y0345593D02*
X0274400Y0345593D01*
X0276453Y0343195D02*
X0266883Y0343195D01*
X0268184Y0340796D02*
X0284101Y0340796D01*
X0286500Y0338398D02*
X0269500Y0338398D01*
X0269500Y0335999D02*
X0288898Y0335999D01*
X0291297Y0333601D02*
X0269500Y0333601D01*
X0269500Y0331202D02*
X0292900Y0331202D01*
X0292900Y0328803D02*
X0269500Y0328803D01*
X0269500Y0326405D02*
X0292900Y0326405D01*
X0292900Y0324006D02*
X0269500Y0324006D01*
X0269500Y0321608D02*
X0292900Y0321608D01*
X0292900Y0319209D02*
X0269500Y0319209D01*
X0269500Y0316811D02*
X0292900Y0316811D01*
X0292900Y0314412D02*
X0269500Y0314412D01*
X0269500Y0312014D02*
X0292900Y0312014D01*
X0292900Y0309615D02*
X0269500Y0309615D01*
X0269500Y0307217D02*
X0292900Y0307217D01*
X0292900Y0304818D02*
X0269500Y0304818D01*
X0269500Y0302420D02*
X0292900Y0302420D01*
X0292900Y0300021D02*
X0269500Y0300021D01*
X0269500Y0297623D02*
X0292900Y0297623D01*
X0292900Y0295224D02*
X0269500Y0295224D01*
X0269500Y0292826D02*
X0292900Y0292826D01*
X0292900Y0290427D02*
X0269500Y0290427D01*
X0269500Y0288029D02*
X0292900Y0288029D01*
X0292900Y0285630D02*
X0269500Y0285630D01*
X0269500Y0283232D02*
X0292900Y0283232D01*
X0292900Y0280833D02*
X0269500Y0280833D01*
X0269500Y0278435D02*
X0292900Y0278435D01*
X0292900Y0276036D02*
X0269500Y0276036D01*
X0269500Y0273638D02*
X0292900Y0273638D01*
X0292900Y0271239D02*
X0269500Y0271239D01*
X0268343Y0268841D02*
X0292900Y0268841D01*
X0292900Y0266442D02*
X0265945Y0266442D01*
X0263546Y0264044D02*
X0292900Y0264044D01*
X0292900Y0261645D02*
X0263682Y0261645D01*
X0264434Y0259247D02*
X0292900Y0259247D01*
X0292900Y0256848D02*
X0283479Y0256848D01*
X0284434Y0254450D02*
X0292900Y0254450D01*
X0292900Y0252051D02*
X0283479Y0252051D01*
X0282000Y0249653D02*
X0292900Y0249653D01*
X0292900Y0247254D02*
X0282000Y0247254D01*
X0282000Y0244856D02*
X0292900Y0244856D01*
X0292900Y0242457D02*
X0282000Y0242457D01*
X0282000Y0240059D02*
X0292900Y0240059D01*
X0292657Y0237660D02*
X0282000Y0237660D01*
X0282000Y0235262D02*
X0290259Y0235262D01*
X0285110Y0232863D02*
X0282000Y0232863D01*
X0282000Y0230465D02*
X0283150Y0230465D01*
X0283150Y0228066D02*
X0282000Y0228066D01*
X0276813Y0228066D02*
X0239000Y0228066D01*
X0239000Y0230465D02*
X0277400Y0230465D01*
X0277400Y0232863D02*
X0239000Y0232863D01*
X0239000Y0235262D02*
X0277400Y0235262D01*
X0277400Y0237660D02*
X0239000Y0237660D01*
X0239000Y0240059D02*
X0277400Y0240059D01*
X0277400Y0242457D02*
X0239000Y0242457D01*
X0239000Y0244856D02*
X0277400Y0244856D01*
X0277400Y0247254D02*
X0241007Y0247254D01*
X0243405Y0249653D02*
X0277400Y0249653D01*
X0277400Y0252051D02*
X0245804Y0252051D01*
X0259202Y0254450D02*
X0277466Y0254450D01*
X0278421Y0256848D02*
X0263276Y0256848D01*
X0266369Y0225668D02*
X0268031Y0225668D01*
X0258031Y0225668D02*
X0256369Y0225668D01*
X0248031Y0225668D02*
X0246369Y0225668D01*
X0243719Y0172900D02*
X0224252Y0172900D01*
X0226651Y0170502D02*
X0244132Y0170502D01*
X0247150Y0168103D02*
X0229049Y0168103D01*
X0231448Y0165705D02*
X0247150Y0165705D01*
X0247150Y0163306D02*
X0233846Y0163306D01*
X0234500Y0160908D02*
X0247150Y0160908D01*
X0247150Y0158509D02*
X0234500Y0158509D01*
X0234500Y0156111D02*
X0247150Y0156111D01*
X0247150Y0153712D02*
X0234500Y0153712D01*
X0234500Y0151314D02*
X0247150Y0151314D01*
X0247150Y0148915D02*
X0234500Y0148915D01*
X0234500Y0146517D02*
X0247150Y0146517D01*
X0247150Y0144118D02*
X0234500Y0144118D01*
X0234500Y0141720D02*
X0247150Y0141720D01*
X0247150Y0139321D02*
X0234500Y0139321D01*
X0234500Y0136923D02*
X0247150Y0136923D01*
X0247150Y0134524D02*
X0234500Y0134524D01*
X0234500Y0132126D02*
X0247150Y0132126D01*
X0247150Y0129727D02*
X0234500Y0129727D01*
X0234500Y0127329D02*
X0247150Y0127329D01*
X0247150Y0124930D02*
X0234500Y0124930D01*
X0234500Y0122532D02*
X0247150Y0122532D01*
X0247150Y0120133D02*
X0234500Y0120133D01*
X0234500Y0117734D02*
X0248663Y0117734D01*
X0251061Y0115336D02*
X0234500Y0115336D01*
X0234500Y0112937D02*
X0280710Y0112937D01*
X0283108Y0110539D02*
X0234500Y0110539D01*
X0234500Y0108140D02*
X0283150Y0108140D01*
X0283150Y0105742D02*
X0234500Y0105742D01*
X0234500Y0103343D02*
X0283150Y0103343D01*
X0283150Y0100945D02*
X0234500Y0100945D01*
X0234500Y0098546D02*
X0283150Y0098546D01*
X0283150Y0096148D02*
X0234500Y0096148D01*
X0234500Y0093749D02*
X0283150Y0093749D01*
X0282338Y0091351D02*
X0234500Y0091351D01*
X0234500Y0088952D02*
X0278265Y0088952D01*
X0277706Y0086554D02*
X0234500Y0086554D01*
X0234500Y0084155D02*
X0279057Y0084155D01*
X0283323Y0084155D02*
X0286900Y0084155D01*
X0286900Y0081757D02*
X0234500Y0081757D01*
X0234500Y0079358D02*
X0286900Y0079358D01*
X0286900Y0076960D02*
X0234500Y0076960D01*
X0234500Y0074561D02*
X0286900Y0074561D01*
X0286900Y0072163D02*
X0234500Y0072163D01*
X0234500Y0069764D02*
X0252087Y0069764D01*
X0250966Y0067366D02*
X0234500Y0067366D01*
X0234500Y0064967D02*
X0251755Y0064967D01*
X0254450Y0067200D02*
X0290200Y0067200D01*
X0293500Y0067366D02*
X0314363Y0067366D01*
X0314247Y0067250D02*
X0312900Y0065903D01*
X0312900Y0040934D01*
X0312757Y0040934D01*
X0311476Y0040404D01*
X0310496Y0039424D01*
X0309966Y0038143D01*
X0309966Y0037351D01*
X0309250Y0038067D01*
X0309250Y0043106D01*
X0308748Y0044319D01*
X0307819Y0045248D01*
X0293500Y0059567D01*
X0293500Y0092736D01*
X0294757Y0092216D01*
X0296143Y0092216D01*
X0297424Y0092746D01*
X0298404Y0093726D01*
X0298934Y0095007D01*
X0298934Y0096393D01*
X0298404Y0097674D01*
X0297750Y0098327D01*
X0297750Y0098403D01*
X0296000Y0100153D01*
X0296000Y0133647D01*
X0300650Y0128997D01*
X0300650Y0114997D01*
X0301997Y0113650D01*
X0305900Y0109747D01*
X0305900Y0095747D01*
X0307247Y0094400D01*
X0310150Y0091497D01*
X0310150Y0086247D01*
X0311497Y0084900D01*
X0313150Y0083247D01*
X0313150Y0076997D01*
X0314497Y0075650D01*
X0316800Y0073347D01*
X0316800Y0069963D01*
X0317263Y0069500D01*
X0316497Y0069500D01*
X0315150Y0068153D01*
X0314247Y0067250D01*
X0312900Y0064967D02*
X0293500Y0064967D01*
X0293500Y0062569D02*
X0312900Y0062569D01*
X0312900Y0060170D02*
X0293500Y0060170D01*
X0295295Y0057772D02*
X0312900Y0057772D01*
X0312900Y0055373D02*
X0297694Y0055373D01*
X0300092Y0052975D02*
X0312900Y0052975D01*
X0312900Y0050576D02*
X0302491Y0050576D01*
X0304889Y0048178D02*
X0312900Y0048178D01*
X0312900Y0045779D02*
X0307288Y0045779D01*
X0309136Y0043381D02*
X0312900Y0043381D01*
X0312900Y0040982D02*
X0309250Y0040982D01*
X0309250Y0038584D02*
X0310148Y0038584D01*
X0302650Y0038584D02*
X0234500Y0038584D01*
X0234500Y0040982D02*
X0302650Y0040982D01*
X0300352Y0043381D02*
X0234500Y0043381D01*
X0234500Y0045779D02*
X0297954Y0045779D01*
X0295555Y0048178D02*
X0234500Y0048178D01*
X0234500Y0050576D02*
X0293157Y0050576D01*
X0290758Y0052975D02*
X0234500Y0052975D01*
X0234500Y0055373D02*
X0288360Y0055373D01*
X0286900Y0057772D02*
X0234500Y0057772D01*
X0234500Y0060170D02*
X0286900Y0060170D01*
X0286900Y0062569D02*
X0234500Y0062569D01*
X0227150Y0062569D02*
X0067084Y0062569D01*
X0064685Y0064967D02*
X0227150Y0064967D01*
X0227150Y0067366D02*
X0062287Y0067366D01*
X0059888Y0069764D02*
X0227150Y0069764D01*
X0227150Y0076960D02*
X0090053Y0076960D01*
X0087576Y0079358D02*
X0227150Y0079358D01*
X0227150Y0081757D02*
X0079244Y0081757D01*
X0076846Y0084155D02*
X0227150Y0084155D01*
X0227150Y0086554D02*
X0074447Y0086554D01*
X0072049Y0088952D02*
X0227150Y0088952D01*
X0227150Y0091351D02*
X0069650Y0091351D01*
X0067252Y0093749D02*
X0227150Y0093749D01*
X0227150Y0060170D02*
X0069482Y0060170D01*
X0071881Y0057772D02*
X0227150Y0057772D01*
X0227150Y0055373D02*
X0074279Y0055373D01*
X0076678Y0052975D02*
X0227150Y0052975D01*
X0227150Y0050576D02*
X0079076Y0050576D01*
X0081475Y0048178D02*
X0227150Y0048178D01*
X0227150Y0045779D02*
X0091124Y0045779D01*
X0093522Y0043381D02*
X0227150Y0043381D01*
X0227150Y0040982D02*
X0104171Y0040982D01*
X0106569Y0038584D02*
X0226081Y0038584D01*
X0218548Y0036185D02*
X0205852Y0036185D01*
X0205259Y0036778D02*
X0203274Y0037600D01*
X0201126Y0037600D01*
X0199141Y0036778D01*
X0197622Y0035259D01*
X0197200Y0034240D01*
X0196778Y0035259D01*
X0195259Y0036778D01*
X0193274Y0037600D01*
X0191126Y0037600D01*
X0189141Y0036778D01*
X0187622Y0035259D01*
X0187200Y0034240D01*
X0186778Y0035259D01*
X0185259Y0036778D01*
X0183274Y0037600D01*
X0181126Y0037600D01*
X0179141Y0036778D01*
X0177622Y0035259D01*
X0177200Y0034240D01*
X0176778Y0035259D01*
X0175259Y0036778D01*
X0173274Y0037600D01*
X0171126Y0037600D01*
X0169141Y0036778D01*
X0167622Y0035259D01*
X0167200Y0034240D01*
X0166778Y0035259D01*
X0165259Y0036778D01*
X0163274Y0037600D01*
X0161126Y0037600D01*
X0159141Y0036778D01*
X0157622Y0035259D01*
X0157200Y0034240D01*
X0156778Y0035259D01*
X0155259Y0036778D01*
X0153274Y0037600D01*
X0151126Y0037600D01*
X0149141Y0036778D01*
X0147622Y0035259D01*
X0147200Y0034240D01*
X0146778Y0035259D01*
X0145259Y0036778D01*
X0143274Y0037600D01*
X0141126Y0037600D01*
X0139141Y0036778D01*
X0137622Y0035259D01*
X0137200Y0034240D01*
X0136778Y0035259D01*
X0135259Y0036778D01*
X0133274Y0037600D01*
X0131126Y0037600D01*
X0129141Y0036778D01*
X0127622Y0035259D01*
X0126800Y0033274D01*
X0126800Y0031126D01*
X0127622Y0029141D01*
X0129141Y0027622D01*
X0131126Y0026800D01*
X0133274Y0026800D01*
X0135259Y0027622D01*
X0136778Y0029141D01*
X0137200Y0030160D01*
X0137622Y0029141D01*
X0139141Y0027622D01*
X0141126Y0026800D01*
X0143274Y0026800D01*
X0145259Y0027622D01*
X0146778Y0029141D01*
X0147200Y0030160D01*
X0147622Y0029141D01*
X0149141Y0027622D01*
X0151126Y0026800D01*
X0153274Y0026800D01*
X0155259Y0027622D01*
X0156778Y0029141D01*
X0157200Y0030160D01*
X0157622Y0029141D01*
X0159141Y0027622D01*
X0161126Y0026800D01*
X0163274Y0026800D01*
X0165259Y0027622D01*
X0166778Y0029141D01*
X0167200Y0030160D01*
X0167622Y0029141D01*
X0169141Y0027622D01*
X0171126Y0026800D01*
X0173274Y0026800D01*
X0175259Y0027622D01*
X0176778Y0029141D01*
X0177200Y0030160D01*
X0177622Y0029141D01*
X0179141Y0027622D01*
X0181126Y0026800D01*
X0183274Y0026800D01*
X0185259Y0027622D01*
X0186778Y0029141D01*
X0187200Y0030160D01*
X0187622Y0029141D01*
X0189141Y0027622D01*
X0191126Y0026800D01*
X0193274Y0026800D01*
X0195259Y0027622D01*
X0196778Y0029141D01*
X0197200Y0030160D01*
X0197622Y0029141D01*
X0199141Y0027622D01*
X0201126Y0026800D01*
X0203274Y0026800D01*
X0205259Y0027622D01*
X0206778Y0029141D01*
X0207600Y0031126D01*
X0207600Y0033274D01*
X0206778Y0035259D01*
X0205259Y0036778D01*
X0207388Y0033787D02*
X0217012Y0033787D01*
X0216800Y0031388D02*
X0207600Y0031388D01*
X0206626Y0028990D02*
X0217774Y0028990D01*
X0226626Y0028990D02*
X0227774Y0028990D01*
X0236626Y0028990D02*
X0237774Y0028990D01*
X0238548Y0036185D02*
X0235852Y0036185D01*
X0245852Y0036185D02*
X0248548Y0036185D01*
X0255852Y0036185D02*
X0258548Y0036185D01*
X0265852Y0036185D02*
X0268548Y0036185D01*
X0275852Y0036185D02*
X0278548Y0036185D01*
X0285852Y0036185D02*
X0288548Y0036185D01*
X0287774Y0028990D02*
X0286626Y0028990D01*
X0277774Y0028990D02*
X0276626Y0028990D01*
X0267774Y0028990D02*
X0266626Y0028990D01*
X0257774Y0028990D02*
X0256626Y0028990D01*
X0247774Y0028990D02*
X0246626Y0028990D01*
X0198548Y0036185D02*
X0195852Y0036185D01*
X0188548Y0036185D02*
X0185852Y0036185D01*
X0178548Y0036185D02*
X0175852Y0036185D01*
X0168548Y0036185D02*
X0165852Y0036185D01*
X0166626Y0028990D02*
X0167774Y0028990D01*
X0176626Y0028990D02*
X0177774Y0028990D01*
X0186626Y0028990D02*
X0187774Y0028990D01*
X0196626Y0028990D02*
X0197774Y0028990D01*
X0158548Y0036185D02*
X0155852Y0036185D01*
X0156626Y0028990D02*
X0157774Y0028990D01*
X0147774Y0028990D02*
X0146626Y0028990D01*
X0145852Y0036185D02*
X0148548Y0036185D01*
X0138548Y0036185D02*
X0135852Y0036185D01*
X0128548Y0036185D02*
X0119852Y0036185D01*
X0121388Y0033787D02*
X0127012Y0033787D01*
X0126800Y0031388D02*
X0121600Y0031388D01*
X0120626Y0028990D02*
X0127774Y0028990D01*
X0136626Y0028990D02*
X0137774Y0028990D01*
X0112548Y0036185D02*
X0109852Y0036185D01*
X0110626Y0028990D02*
X0111774Y0028990D01*
X0101774Y0028990D02*
X0100626Y0028990D01*
X0091774Y0028990D02*
X0090626Y0028990D01*
X0081774Y0028990D02*
X0080626Y0028990D01*
X0071774Y0028990D02*
X0070626Y0028990D01*
X0061774Y0028990D02*
X0061160Y0028990D01*
X0056200Y0028990D02*
X0056200Y0028990D01*
X0056200Y0031388D02*
X0056200Y0031388D01*
X0056200Y0033787D02*
X0056200Y0033787D01*
X0056200Y0036185D02*
X0056200Y0036185D01*
X0060559Y0036185D02*
X0062548Y0036185D01*
X0051841Y0036185D02*
X0049852Y0036185D01*
X0050626Y0028990D02*
X0051240Y0028990D01*
X0081643Y0079358D02*
X0085824Y0079358D01*
X0078151Y0096148D02*
X0064853Y0096148D01*
X0086109Y0218472D02*
X0088291Y0218472D01*
X0088031Y0225668D02*
X0086369Y0225668D01*
X0178064Y0316811D02*
X0262400Y0316811D01*
X0262400Y0319209D02*
X0180462Y0319209D01*
X0182861Y0321608D02*
X0262400Y0321608D01*
X0262400Y0324006D02*
X0185259Y0324006D01*
X0187658Y0326405D02*
X0262400Y0326405D01*
X0262400Y0328803D02*
X0190056Y0328803D01*
X0194067Y0331202D02*
X0262400Y0331202D01*
X0262400Y0333601D02*
X0195684Y0333601D01*
X0195226Y0335999D02*
X0260648Y0335999D01*
X0324250Y0268503D02*
X0324250Y0223153D01*
X0324250Y0221247D01*
X0320253Y0217250D01*
X0337247Y0217250D01*
X0337650Y0217653D01*
X0337650Y0261247D01*
X0330272Y0268625D01*
X0329862Y0268216D01*
X0328135Y0267500D01*
X0326265Y0267500D01*
X0324538Y0268216D01*
X0324250Y0268503D01*
X0324250Y0266442D02*
X0332455Y0266442D01*
X0334854Y0264044D02*
X0324250Y0264044D01*
X0324250Y0261645D02*
X0337252Y0261645D01*
X0337650Y0259247D02*
X0324250Y0259247D01*
X0324250Y0256848D02*
X0337650Y0256848D01*
X0337650Y0254450D02*
X0324250Y0254450D01*
X0324250Y0252051D02*
X0337650Y0252051D01*
X0337650Y0249653D02*
X0324250Y0249653D01*
X0324250Y0247254D02*
X0337650Y0247254D01*
X0337650Y0244856D02*
X0324250Y0244856D01*
X0324250Y0242457D02*
X0337650Y0242457D01*
X0337650Y0240059D02*
X0324250Y0240059D01*
X0324250Y0237660D02*
X0337650Y0237660D01*
X0337650Y0235262D02*
X0324250Y0235262D01*
X0324250Y0232863D02*
X0337650Y0232863D01*
X0337650Y0230465D02*
X0324250Y0230465D01*
X0324250Y0228066D02*
X0337650Y0228066D01*
X0337650Y0225668D02*
X0324250Y0225668D01*
X0324250Y0223269D02*
X0337650Y0223269D01*
X0337650Y0220870D02*
X0323873Y0220870D01*
X0321475Y0218472D02*
X0337650Y0218472D01*
X0344500Y0218472D02*
X0344969Y0218472D01*
X0344500Y0218003D02*
X0349900Y0223403D01*
X0349900Y0268253D01*
X0349862Y0268216D01*
X0348135Y0267500D01*
X0346265Y0267500D01*
X0344538Y0268216D01*
X0344500Y0268253D01*
X0344500Y0218003D01*
X0344500Y0220870D02*
X0347368Y0220870D01*
X0349766Y0223269D02*
X0344500Y0223269D01*
X0344500Y0225668D02*
X0349900Y0225668D01*
X0349900Y0228066D02*
X0344500Y0228066D01*
X0344500Y0230465D02*
X0349900Y0230465D01*
X0349900Y0232863D02*
X0344500Y0232863D01*
X0344500Y0235262D02*
X0349900Y0235262D01*
X0349900Y0237660D02*
X0344500Y0237660D01*
X0344500Y0240059D02*
X0349900Y0240059D01*
X0349900Y0242457D02*
X0344500Y0242457D01*
X0344500Y0244856D02*
X0349900Y0244856D01*
X0349900Y0247254D02*
X0344500Y0247254D01*
X0344500Y0249653D02*
X0349900Y0249653D01*
X0349900Y0252051D02*
X0344500Y0252051D01*
X0344500Y0254450D02*
X0349900Y0254450D01*
X0349900Y0256848D02*
X0344500Y0256848D01*
X0344500Y0259247D02*
X0349900Y0259247D01*
X0349900Y0261645D02*
X0344500Y0261645D01*
X0344500Y0264044D02*
X0349900Y0264044D01*
X0349900Y0266442D02*
X0344500Y0266442D01*
X0354500Y0266442D02*
X0359900Y0266442D01*
X0359862Y0268216D02*
X0359900Y0268253D01*
X0359900Y0229903D01*
X0354500Y0224503D01*
X0354500Y0268253D01*
X0354538Y0268216D01*
X0356265Y0267500D01*
X0358135Y0267500D01*
X0359862Y0268216D01*
X0359900Y0264044D02*
X0354500Y0264044D01*
X0354500Y0261645D02*
X0359900Y0261645D01*
X0359900Y0259247D02*
X0354500Y0259247D01*
X0354500Y0256848D02*
X0359900Y0256848D01*
X0359900Y0254450D02*
X0354500Y0254450D01*
X0354500Y0252051D02*
X0359900Y0252051D01*
X0359900Y0249653D02*
X0354500Y0249653D01*
X0354500Y0247254D02*
X0359900Y0247254D01*
X0359900Y0244856D02*
X0354500Y0244856D01*
X0354500Y0242457D02*
X0359900Y0242457D01*
X0359900Y0240059D02*
X0354500Y0240059D01*
X0354500Y0237660D02*
X0359900Y0237660D01*
X0359900Y0235262D02*
X0354500Y0235262D01*
X0354500Y0232863D02*
X0359900Y0232863D01*
X0359900Y0230465D02*
X0354500Y0230465D01*
X0354500Y0228066D02*
X0358063Y0228066D01*
X0355665Y0225668D02*
X0354500Y0225668D01*
X0347900Y0211397D02*
X0347900Y0204653D01*
X0342747Y0199500D01*
X0337446Y0199500D01*
X0337668Y0199935D01*
X0337955Y0200818D01*
X0338100Y0201736D01*
X0338100Y0202200D01*
X0338100Y0202664D01*
X0337955Y0203582D01*
X0337668Y0204465D01*
X0337246Y0205292D01*
X0337168Y0205400D01*
X0341903Y0205400D01*
X0347900Y0211397D01*
X0347900Y0211276D02*
X0347779Y0211276D01*
X0347900Y0208878D02*
X0345381Y0208878D01*
X0342982Y0206479D02*
X0347900Y0206479D01*
X0347328Y0204081D02*
X0337792Y0204081D01*
X0338100Y0202200D02*
X0332200Y0202200D01*
X0332200Y0202200D01*
X0338100Y0202200D01*
X0338092Y0201682D02*
X0344930Y0201682D01*
X0332200Y0202200D02*
X0326300Y0202200D01*
X0322200Y0202200D01*
X0332200Y0202200D01*
X0332200Y0202200D01*
X0322200Y0202200D02*
X0322200Y0202200D01*
X0356153Y0172900D02*
X0366650Y0172900D01*
X0366650Y0173403D02*
X0366650Y0161753D01*
X0363250Y0165153D01*
X0361903Y0166500D01*
X0356327Y0166500D01*
X0355674Y0167154D01*
X0354393Y0167684D01*
X0353007Y0167684D01*
X0351726Y0167154D01*
X0350746Y0166174D01*
X0350216Y0164893D01*
X0350216Y0163507D01*
X0350746Y0162226D01*
X0351148Y0161825D01*
X0350996Y0161674D01*
X0350466Y0160393D01*
X0350466Y0159007D01*
X0350996Y0157726D01*
X0351976Y0156746D01*
X0352966Y0156336D01*
X0352966Y0155507D01*
X0353496Y0154226D01*
X0354476Y0153246D01*
X0355757Y0152716D01*
X0357143Y0152716D01*
X0358424Y0153246D01*
X0359077Y0153900D01*
X0360997Y0153900D01*
X0364900Y0149997D01*
X0364900Y0124335D01*
X0364538Y0124184D01*
X0363216Y0122862D01*
X0362500Y0121135D01*
X0362500Y0113265D01*
X0363216Y0111538D01*
X0364538Y0110216D01*
X0366265Y0109500D01*
X0368135Y0109500D01*
X0369862Y0110216D01*
X0371184Y0111538D01*
X0371900Y0113265D01*
X0371900Y0121135D01*
X0371184Y0122862D01*
X0369862Y0124184D01*
X0369500Y0124335D01*
X0369500Y0148998D01*
X0374900Y0143508D01*
X0374900Y0124335D01*
X0374538Y0124184D01*
X0373216Y0122862D01*
X0372500Y0121135D01*
X0372500Y0113265D01*
X0373216Y0111538D01*
X0374538Y0110216D01*
X0376265Y0109500D01*
X0378135Y0109500D01*
X0379862Y0110216D01*
X0381184Y0111538D01*
X0381900Y0113265D01*
X0381900Y0121135D01*
X0381184Y0122862D01*
X0379862Y0124184D01*
X0379500Y0124335D01*
X0379500Y0142397D01*
X0384900Y0136997D01*
X0384900Y0124335D01*
X0384538Y0124184D01*
X0383216Y0122862D01*
X0382500Y0121135D01*
X0382500Y0113265D01*
X0383216Y0111538D01*
X0384538Y0110216D01*
X0386265Y0109500D01*
X0387497Y0109500D01*
X0385497Y0107500D01*
X0355497Y0107500D01*
X0340997Y0093000D01*
X0339650Y0091653D01*
X0339650Y0064653D01*
X0337600Y0062603D01*
X0337600Y0064437D01*
X0334837Y0067200D01*
X0337600Y0069963D01*
X0337600Y0074437D01*
X0334837Y0077200D01*
X0337600Y0079963D01*
X0337600Y0084437D01*
X0334837Y0087200D01*
X0337600Y0089963D01*
X0337600Y0094437D01*
X0334837Y0097200D01*
X0337600Y0099963D01*
X0337600Y0104437D01*
X0337137Y0104900D01*
X0338153Y0104900D01*
X0344003Y0110750D01*
X0344538Y0110216D01*
X0346265Y0109500D01*
X0348135Y0109500D01*
X0349862Y0110216D01*
X0351184Y0111538D01*
X0351900Y0113265D01*
X0351900Y0121135D01*
X0351184Y0122862D01*
X0349862Y0124184D01*
X0348135Y0124900D01*
X0346265Y0124900D01*
X0344538Y0124184D01*
X0343216Y0122862D01*
X0342500Y0121135D01*
X0342500Y0115753D01*
X0337600Y0110853D01*
X0337600Y0114437D01*
X0334837Y0117200D01*
X0337600Y0119963D01*
X0337600Y0124437D01*
X0334837Y0127200D01*
X0337600Y0129963D01*
X0337600Y0134437D01*
X0334837Y0137200D01*
X0337600Y0139963D01*
X0337600Y0143547D01*
X0354900Y0126247D01*
X0354900Y0124335D01*
X0354538Y0124184D01*
X0353216Y0122862D01*
X0352500Y0121135D01*
X0352500Y0113265D01*
X0353216Y0111538D01*
X0354538Y0110216D01*
X0356265Y0109500D01*
X0358135Y0109500D01*
X0359862Y0110216D01*
X0361184Y0111538D01*
X0361900Y0113265D01*
X0361900Y0121135D01*
X0361184Y0122862D01*
X0359862Y0124184D01*
X0359500Y0124335D01*
X0359500Y0128153D01*
X0339500Y0148153D01*
X0338153Y0149500D01*
X0337137Y0149500D01*
X0337600Y0149963D01*
X0337600Y0154437D01*
X0337137Y0154900D01*
X0338153Y0154900D01*
X0363153Y0179900D01*
X0364500Y0181247D01*
X0364500Y0208497D01*
X0424378Y0268375D01*
X0424538Y0268216D01*
X0426265Y0267500D01*
X0426464Y0267500D01*
X0400534Y0241569D01*
X0399831Y0240866D01*
X0399450Y0239947D01*
X0399450Y0220486D01*
X0372649Y0193684D01*
X0372007Y0193684D01*
X0370726Y0193154D01*
X0369746Y0192174D01*
X0369216Y0190893D01*
X0369216Y0189507D01*
X0369746Y0188226D01*
X0370726Y0187246D01*
X0372007Y0186716D01*
X0373393Y0186716D01*
X0374674Y0187246D01*
X0375654Y0188226D01*
X0376184Y0189507D01*
X0376184Y0190149D01*
X0402200Y0216164D01*
X0402200Y0215377D01*
X0401746Y0214924D01*
X0401216Y0213643D01*
X0401216Y0212257D01*
X0401746Y0210976D01*
X0402200Y0210523D01*
X0402200Y0196377D01*
X0401746Y0195924D01*
X0401216Y0194643D01*
X0401216Y0193257D01*
X0401746Y0191976D01*
X0402726Y0190996D01*
X0403976Y0190479D01*
X0400747Y0187250D01*
X0380497Y0187250D01*
X0379150Y0185903D01*
X0366650Y0173403D01*
X0368546Y0175299D02*
X0358551Y0175299D01*
X0360950Y0177697D02*
X0370945Y0177697D01*
X0373343Y0180096D02*
X0363348Y0180096D01*
X0364500Y0182494D02*
X0375742Y0182494D01*
X0378140Y0184893D02*
X0364500Y0184893D01*
X0364500Y0187291D02*
X0370681Y0187291D01*
X0369216Y0189690D02*
X0364500Y0189690D01*
X0364500Y0192088D02*
X0369711Y0192088D01*
X0373451Y0194487D02*
X0364500Y0194487D01*
X0364500Y0196885D02*
X0375850Y0196885D01*
X0378248Y0199284D02*
X0364500Y0199284D01*
X0364500Y0201682D02*
X0380647Y0201682D01*
X0383045Y0204081D02*
X0364500Y0204081D01*
X0364500Y0206479D02*
X0385444Y0206479D01*
X0387842Y0208878D02*
X0364881Y0208878D01*
X0367279Y0211276D02*
X0390241Y0211276D01*
X0392639Y0213675D02*
X0369678Y0213675D01*
X0372076Y0216073D02*
X0395038Y0216073D01*
X0397436Y0218472D02*
X0374475Y0218472D01*
X0376873Y0220870D02*
X0399450Y0220870D01*
X0399450Y0223269D02*
X0379272Y0223269D01*
X0381670Y0225668D02*
X0399450Y0225668D01*
X0399450Y0228066D02*
X0384069Y0228066D01*
X0386467Y0230465D02*
X0399450Y0230465D01*
X0399450Y0232863D02*
X0388866Y0232863D01*
X0391264Y0235262D02*
X0399450Y0235262D01*
X0399450Y0237660D02*
X0393663Y0237660D01*
X0396061Y0240059D02*
X0399496Y0240059D01*
X0398460Y0242457D02*
X0401422Y0242457D01*
X0400858Y0244856D02*
X0403820Y0244856D01*
X0403257Y0247254D02*
X0406219Y0247254D01*
X0405655Y0249653D02*
X0408617Y0249653D01*
X0408054Y0252051D02*
X0411016Y0252051D01*
X0410452Y0254450D02*
X0413414Y0254450D01*
X0412851Y0256848D02*
X0415813Y0256848D01*
X0415249Y0259247D02*
X0418211Y0259247D01*
X0417648Y0261645D02*
X0420610Y0261645D01*
X0420046Y0264044D02*
X0423008Y0264044D01*
X0422445Y0266442D02*
X0425407Y0266442D01*
X0432749Y0259247D02*
X0479750Y0259247D01*
X0479750Y0261464D02*
X0479750Y0341497D01*
X0475903Y0337650D01*
X0441653Y0337650D01*
X0440250Y0336247D01*
X0440250Y0266747D01*
X0438903Y0265400D01*
X0410750Y0237247D01*
X0410750Y0190747D01*
X0409403Y0189400D01*
X0402653Y0182650D01*
X0394414Y0182650D01*
X0394934Y0181393D01*
X0394934Y0181317D01*
X0409658Y0166593D01*
X0410100Y0165527D01*
X0410100Y0123947D01*
X0411184Y0122862D01*
X0411900Y0121135D01*
X0411900Y0120100D01*
X0487500Y0120100D01*
X0487500Y0167167D01*
X0477604Y0177063D01*
X0476563Y0178104D01*
X0476000Y0179464D01*
X0476000Y0198936D01*
X0476563Y0200296D01*
X0479750Y0203483D01*
X0479750Y0261464D01*
X0479750Y0261645D02*
X0435148Y0261645D01*
X0437546Y0264044D02*
X0479750Y0264044D01*
X0479750Y0266442D02*
X0439945Y0266442D01*
X0440250Y0268841D02*
X0479750Y0268841D01*
X0479750Y0271239D02*
X0440250Y0271239D01*
X0440250Y0273638D02*
X0479750Y0273638D01*
X0479750Y0276036D02*
X0440250Y0276036D01*
X0440250Y0278435D02*
X0479750Y0278435D01*
X0479750Y0280833D02*
X0440250Y0280833D01*
X0440250Y0283232D02*
X0479750Y0283232D01*
X0479750Y0285630D02*
X0440250Y0285630D01*
X0440250Y0288029D02*
X0479750Y0288029D01*
X0479750Y0290427D02*
X0440250Y0290427D01*
X0440250Y0292826D02*
X0479750Y0292826D01*
X0479750Y0295224D02*
X0440250Y0295224D01*
X0440250Y0297623D02*
X0479750Y0297623D01*
X0479750Y0300021D02*
X0440250Y0300021D01*
X0440250Y0302420D02*
X0479750Y0302420D01*
X0479750Y0304818D02*
X0440250Y0304818D01*
X0440250Y0307217D02*
X0479750Y0307217D01*
X0479750Y0309615D02*
X0440250Y0309615D01*
X0440250Y0312014D02*
X0479750Y0312014D01*
X0479750Y0314412D02*
X0440250Y0314412D01*
X0440250Y0316811D02*
X0479750Y0316811D01*
X0479750Y0319209D02*
X0440250Y0319209D01*
X0440250Y0321608D02*
X0479750Y0321608D01*
X0479750Y0324006D02*
X0440250Y0324006D01*
X0440250Y0326405D02*
X0479750Y0326405D01*
X0479750Y0328803D02*
X0440250Y0328803D01*
X0440250Y0331202D02*
X0479750Y0331202D01*
X0479750Y0333601D02*
X0440250Y0333601D01*
X0440250Y0335999D02*
X0479750Y0335999D01*
X0479750Y0338398D02*
X0476650Y0338398D01*
X0479049Y0340796D02*
X0479750Y0340796D01*
X0483782Y0347992D02*
X0484009Y0347992D01*
X0483946Y0350390D02*
X0485500Y0350390D01*
X0485500Y0352789D02*
X0482525Y0352789D01*
X0492900Y0352789D02*
X0500701Y0352789D01*
X0500780Y0350390D02*
X0492900Y0350390D01*
X0492900Y0347992D02*
X0501423Y0347992D01*
X0502736Y0345593D02*
X0492076Y0345593D01*
X0489677Y0343195D02*
X0504943Y0343195D01*
X0510331Y0340796D02*
X0487279Y0340796D01*
X0487150Y0338398D02*
X0522129Y0338398D01*
X0522130Y0340796D02*
X0514069Y0340796D01*
X0519457Y0343195D02*
X0522132Y0343195D01*
X0522134Y0345593D02*
X0521664Y0345593D01*
X0522127Y0335999D02*
X0487150Y0335999D01*
X0487150Y0333601D02*
X0522126Y0333601D01*
X0522124Y0331202D02*
X0487150Y0331202D01*
X0487150Y0328803D02*
X0522123Y0328803D01*
X0522121Y0326405D02*
X0487150Y0326405D01*
X0487150Y0324006D02*
X0522120Y0324006D01*
X0522118Y0321608D02*
X0487150Y0321608D01*
X0487150Y0319209D02*
X0522117Y0319209D01*
X0522115Y0316811D02*
X0487150Y0316811D01*
X0487150Y0314412D02*
X0522114Y0314412D01*
X0522112Y0312014D02*
X0487150Y0312014D01*
X0487150Y0309615D02*
X0522111Y0309615D01*
X0522109Y0307217D02*
X0495916Y0307217D01*
X0495738Y0307647D02*
X0494647Y0308738D01*
X0493221Y0309328D01*
X0491679Y0309328D01*
X0490253Y0308738D01*
X0489162Y0307647D01*
X0488984Y0307217D01*
X0487150Y0307217D01*
X0488063Y0306296D02*
X0487500Y0304936D01*
X0487500Y0196821D01*
X0485575Y0196821D01*
X0484579Y0195825D01*
X0484579Y0184575D01*
X0485575Y0183579D01*
X0496825Y0183579D01*
X0497821Y0184575D01*
X0497821Y0195825D01*
X0496825Y0196821D01*
X0494900Y0196821D01*
X0494900Y0302416D01*
X0495738Y0303253D01*
X0496328Y0304679D01*
X0496328Y0306221D01*
X0495738Y0307647D01*
X0496328Y0304818D02*
X0522108Y0304818D01*
X0522106Y0302420D02*
X0494904Y0302420D01*
X0494900Y0300021D02*
X0522105Y0300021D01*
X0522103Y0297623D02*
X0494900Y0297623D01*
X0494900Y0295224D02*
X0522101Y0295224D01*
X0522100Y0292826D02*
X0494900Y0292826D01*
X0494900Y0290427D02*
X0522098Y0290427D01*
X0522097Y0288029D02*
X0494900Y0288029D01*
X0494900Y0285630D02*
X0522095Y0285630D01*
X0522094Y0283232D02*
X0494900Y0283232D01*
X0494900Y0280833D02*
X0522092Y0280833D01*
X0522091Y0278435D02*
X0494900Y0278435D01*
X0494900Y0276036D02*
X0522089Y0276036D01*
X0522088Y0273638D02*
X0494900Y0273638D01*
X0494900Y0271239D02*
X0522086Y0271239D01*
X0522085Y0268841D02*
X0494900Y0268841D01*
X0494900Y0266442D02*
X0522083Y0266442D01*
X0522082Y0264044D02*
X0494900Y0264044D01*
X0494900Y0261645D02*
X0522080Y0261645D01*
X0522079Y0259247D02*
X0494900Y0259247D01*
X0494900Y0256848D02*
X0522077Y0256848D01*
X0522075Y0254450D02*
X0494900Y0254450D01*
X0494900Y0252051D02*
X0522074Y0252051D01*
X0522072Y0249653D02*
X0494900Y0249653D01*
X0494900Y0247254D02*
X0522071Y0247254D01*
X0522069Y0244856D02*
X0494900Y0244856D01*
X0494900Y0242457D02*
X0522068Y0242457D01*
X0522066Y0240059D02*
X0494900Y0240059D01*
X0494900Y0237660D02*
X0522065Y0237660D01*
X0522063Y0235262D02*
X0494900Y0235262D01*
X0494900Y0232863D02*
X0522062Y0232863D01*
X0522060Y0230465D02*
X0494900Y0230465D01*
X0494900Y0228066D02*
X0522059Y0228066D01*
X0522057Y0225668D02*
X0494900Y0225668D01*
X0494900Y0223269D02*
X0522056Y0223269D01*
X0522054Y0220870D02*
X0494900Y0220870D01*
X0494900Y0218472D02*
X0522053Y0218472D01*
X0522051Y0216073D02*
X0494900Y0216073D01*
X0494900Y0213675D02*
X0522050Y0213675D01*
X0522048Y0211276D02*
X0494900Y0211276D01*
X0494900Y0208878D02*
X0522046Y0208878D01*
X0522045Y0206479D02*
X0494900Y0206479D01*
X0494900Y0204081D02*
X0522043Y0204081D01*
X0522042Y0201682D02*
X0494900Y0201682D01*
X0494900Y0199284D02*
X0522040Y0199284D01*
X0522039Y0196885D02*
X0494900Y0196885D01*
X0497821Y0194487D02*
X0522037Y0194487D01*
X0522036Y0192088D02*
X0497821Y0192088D01*
X0497821Y0189690D02*
X0522034Y0189690D01*
X0522033Y0187291D02*
X0497821Y0187291D01*
X0497821Y0184893D02*
X0522031Y0184893D01*
X0522030Y0182494D02*
X0483400Y0182494D01*
X0483400Y0184893D02*
X0484579Y0184893D01*
X0484579Y0187291D02*
X0483400Y0187291D01*
X0483400Y0189690D02*
X0484579Y0189690D01*
X0484579Y0192088D02*
X0483400Y0192088D01*
X0483400Y0194487D02*
X0484579Y0194487D01*
X0483618Y0196885D02*
X0487500Y0196885D01*
X0487500Y0199284D02*
X0486016Y0199284D01*
X0487150Y0201682D02*
X0487500Y0201682D01*
X0487500Y0204081D02*
X0487150Y0204081D01*
X0487150Y0206479D02*
X0487500Y0206479D01*
X0487500Y0208878D02*
X0487150Y0208878D01*
X0487150Y0211276D02*
X0487500Y0211276D01*
X0487500Y0213675D02*
X0487150Y0213675D01*
X0487150Y0216073D02*
X0487500Y0216073D01*
X0487500Y0218472D02*
X0487150Y0218472D01*
X0487150Y0220870D02*
X0487500Y0220870D01*
X0487500Y0223269D02*
X0487150Y0223269D01*
X0487150Y0225668D02*
X0487500Y0225668D01*
X0487500Y0228066D02*
X0487150Y0228066D01*
X0487150Y0230465D02*
X0487500Y0230465D01*
X0487500Y0232863D02*
X0487150Y0232863D01*
X0487150Y0235262D02*
X0487500Y0235262D01*
X0487500Y0237660D02*
X0487150Y0237660D01*
X0487150Y0240059D02*
X0487500Y0240059D01*
X0487500Y0242457D02*
X0487150Y0242457D01*
X0487150Y0244856D02*
X0487500Y0244856D01*
X0487500Y0247254D02*
X0487150Y0247254D01*
X0487150Y0249653D02*
X0487500Y0249653D01*
X0487500Y0252051D02*
X0487150Y0252051D01*
X0487150Y0254450D02*
X0487500Y0254450D01*
X0487500Y0256848D02*
X0487150Y0256848D01*
X0487150Y0259247D02*
X0487500Y0259247D01*
X0487500Y0261645D02*
X0487150Y0261645D01*
X0487150Y0264044D02*
X0487500Y0264044D01*
X0487500Y0266442D02*
X0487150Y0266442D01*
X0487150Y0268841D02*
X0487500Y0268841D01*
X0487500Y0271239D02*
X0487150Y0271239D01*
X0487150Y0273638D02*
X0487500Y0273638D01*
X0487500Y0276036D02*
X0487150Y0276036D01*
X0487150Y0278435D02*
X0487500Y0278435D01*
X0487500Y0280833D02*
X0487150Y0280833D01*
X0487150Y0283232D02*
X0487500Y0283232D01*
X0487500Y0285630D02*
X0487150Y0285630D01*
X0487150Y0288029D02*
X0487500Y0288029D01*
X0487500Y0290427D02*
X0487150Y0290427D01*
X0487150Y0292826D02*
X0487500Y0292826D01*
X0487500Y0295224D02*
X0487150Y0295224D01*
X0487150Y0297623D02*
X0487500Y0297623D01*
X0487500Y0300021D02*
X0487150Y0300021D01*
X0487150Y0302420D02*
X0487500Y0302420D01*
X0487500Y0304818D02*
X0487150Y0304818D01*
X0488063Y0306296D02*
X0488984Y0307217D01*
X0492900Y0355187D02*
X0501096Y0355187D01*
X0502031Y0357586D02*
X0492900Y0357586D01*
X0492900Y0359984D02*
X0503722Y0359984D01*
X0506838Y0362383D02*
X0492900Y0362383D01*
X0492900Y0364781D02*
X0522146Y0364781D01*
X0522144Y0362383D02*
X0517562Y0362383D01*
X0520678Y0359984D02*
X0522143Y0359984D01*
X0522147Y0367180D02*
X0492900Y0367180D01*
X0492900Y0369578D02*
X0522149Y0369578D01*
X0522150Y0371977D02*
X0492365Y0371977D01*
X0490007Y0374375D02*
X0522152Y0374375D01*
X0522153Y0376774D02*
X0487609Y0376774D01*
X0485210Y0379172D02*
X0522155Y0379172D01*
X0522159Y0386368D02*
X0474741Y0386368D01*
X0476800Y0388766D02*
X0522161Y0388766D01*
X0522163Y0391165D02*
X0477978Y0391165D01*
X0478555Y0393563D02*
X0522164Y0393563D01*
X0522166Y0395962D02*
X0478555Y0395962D01*
X0477989Y0398360D02*
X0522167Y0398360D01*
X0476179Y0364781D02*
X0470532Y0364781D01*
X0472060Y0362383D02*
X0474651Y0362383D01*
X0474510Y0359984D02*
X0472046Y0359984D01*
X0471450Y0352789D02*
X0470714Y0352789D01*
X0450502Y0364781D02*
X0415743Y0364781D01*
X0409793Y0345593D02*
X0409000Y0345593D01*
X0385989Y0357586D02*
X0384095Y0357586D01*
X0384442Y0359984D02*
X0381824Y0359984D01*
X0381838Y0362383D02*
X0384428Y0362383D01*
X0385956Y0364781D02*
X0380310Y0364781D01*
X0411447Y0386368D02*
X0460159Y0386368D01*
X0458100Y0388766D02*
X0413507Y0388766D01*
X0414685Y0391165D02*
X0456922Y0391165D01*
X0456344Y0393563D02*
X0415262Y0393563D01*
X0415262Y0395962D02*
X0456344Y0395962D01*
X0456911Y0398360D02*
X0414695Y0398360D01*
X0430351Y0256848D02*
X0479750Y0256848D01*
X0479750Y0254450D02*
X0427952Y0254450D01*
X0425554Y0252051D02*
X0479750Y0252051D01*
X0479750Y0249653D02*
X0423155Y0249653D01*
X0420757Y0247254D02*
X0479750Y0247254D01*
X0479750Y0244856D02*
X0418358Y0244856D01*
X0415960Y0242457D02*
X0479750Y0242457D01*
X0479750Y0240059D02*
X0413561Y0240059D01*
X0411163Y0237660D02*
X0479750Y0237660D01*
X0479750Y0235262D02*
X0410750Y0235262D01*
X0410750Y0232863D02*
X0479750Y0232863D01*
X0479750Y0230465D02*
X0410750Y0230465D01*
X0410750Y0228066D02*
X0479750Y0228066D01*
X0479750Y0225668D02*
X0410750Y0225668D01*
X0410750Y0223269D02*
X0479750Y0223269D01*
X0479750Y0220870D02*
X0410750Y0220870D01*
X0410750Y0218472D02*
X0479750Y0218472D01*
X0479750Y0216073D02*
X0410750Y0216073D01*
X0410750Y0213675D02*
X0479750Y0213675D01*
X0479750Y0211276D02*
X0410750Y0211276D01*
X0410750Y0208878D02*
X0479750Y0208878D01*
X0479750Y0206479D02*
X0410750Y0206479D01*
X0410750Y0204081D02*
X0479750Y0204081D01*
X0477950Y0201682D02*
X0410750Y0201682D01*
X0410750Y0199284D02*
X0476144Y0199284D01*
X0476000Y0196885D02*
X0429466Y0196885D01*
X0429472Y0196882D02*
X0428970Y0197171D01*
X0428411Y0197321D01*
X0423476Y0197321D01*
X0423476Y0190476D01*
X0422924Y0190476D01*
X0422924Y0189924D01*
X0423476Y0189924D01*
X0423476Y0183079D01*
X0428411Y0183079D01*
X0428970Y0183229D01*
X0429472Y0183518D01*
X0429882Y0183928D01*
X0430171Y0184430D01*
X0430321Y0184989D01*
X0430321Y0189924D01*
X0423476Y0189924D01*
X0423476Y0190476D01*
X0430321Y0190476D01*
X0430321Y0195411D01*
X0430171Y0195970D01*
X0429882Y0196472D01*
X0429472Y0196882D01*
X0430321Y0194487D02*
X0476000Y0194487D01*
X0476000Y0192088D02*
X0430321Y0192088D01*
X0430321Y0189690D02*
X0476000Y0189690D01*
X0476000Y0187291D02*
X0430321Y0187291D01*
X0430295Y0184893D02*
X0476000Y0184893D01*
X0476000Y0182494D02*
X0394478Y0182494D01*
X0396155Y0180096D02*
X0476000Y0180096D01*
X0476970Y0177697D02*
X0398554Y0177697D01*
X0400952Y0175299D02*
X0479369Y0175299D01*
X0481767Y0172900D02*
X0403351Y0172900D01*
X0405749Y0170502D02*
X0484166Y0170502D01*
X0486564Y0168103D02*
X0408148Y0168103D01*
X0410026Y0165705D02*
X0487500Y0165705D01*
X0487500Y0163306D02*
X0410100Y0163306D01*
X0410100Y0160908D02*
X0487500Y0160908D01*
X0487500Y0158509D02*
X0410100Y0158509D01*
X0410100Y0156111D02*
X0487500Y0156111D01*
X0487500Y0153712D02*
X0410100Y0153712D01*
X0410100Y0151314D02*
X0487500Y0151314D01*
X0487500Y0148915D02*
X0410100Y0148915D01*
X0410100Y0146517D02*
X0487500Y0146517D01*
X0487500Y0144118D02*
X0410100Y0144118D01*
X0410100Y0141720D02*
X0487500Y0141720D01*
X0487500Y0139321D02*
X0410100Y0139321D01*
X0410100Y0136923D02*
X0487500Y0136923D01*
X0487500Y0134524D02*
X0410100Y0134524D01*
X0410100Y0132126D02*
X0487500Y0132126D01*
X0487500Y0129727D02*
X0410100Y0129727D01*
X0410100Y0127329D02*
X0487500Y0127329D01*
X0487500Y0124930D02*
X0410100Y0124930D01*
X0411321Y0122532D02*
X0487500Y0122532D01*
X0487500Y0120133D02*
X0411900Y0120133D01*
X0407200Y0117200D02*
X0417200Y0117200D01*
X0417200Y0092200D01*
X0412200Y0087200D01*
X0407200Y0087200D01*
X0410625Y0091475D02*
X0403775Y0091475D01*
X0402204Y0090824D01*
X0401001Y0089621D01*
X0400350Y0088050D01*
X0400350Y0086350D01*
X0401001Y0084779D01*
X0402204Y0083576D01*
X0403775Y0082925D01*
X0410625Y0082925D01*
X0412196Y0083576D01*
X0413022Y0084401D01*
X0413843Y0084741D01*
X0414658Y0085557D01*
X0419658Y0090557D01*
X0420100Y0091623D01*
X0420100Y0103317D01*
X0420854Y0102563D01*
X0422214Y0102000D01*
X0477936Y0102000D01*
X0479296Y0102563D01*
X0480587Y0103854D01*
X0481150Y0105214D01*
X0481150Y0106686D01*
X0480587Y0108046D01*
X0479546Y0109087D01*
X0478186Y0109650D01*
X0476714Y0109650D01*
X0476110Y0109400D01*
X0422214Y0109400D01*
X0420854Y0108837D01*
X0420100Y0108083D01*
X0420100Y0114300D01*
X0487500Y0114300D01*
X0487500Y0040821D01*
X0485575Y0040821D01*
X0484579Y0039825D01*
X0484579Y0028575D01*
X0485575Y0027579D01*
X0487096Y0027579D01*
X0482667Y0023150D01*
X0411168Y0023150D01*
X0412196Y0023576D01*
X0413399Y0024779D01*
X0414050Y0026350D01*
X0414050Y0028050D01*
X0413399Y0029621D01*
X0412196Y0030824D01*
X0410625Y0031475D01*
X0403775Y0031475D01*
X0402204Y0030824D01*
X0401001Y0029621D01*
X0400350Y0028050D01*
X0400350Y0026350D01*
X0401001Y0024779D01*
X0402204Y0023576D01*
X0403232Y0023150D01*
X0361168Y0023150D01*
X0362196Y0023576D01*
X0363399Y0024779D01*
X0364050Y0026350D01*
X0364050Y0028050D01*
X0363399Y0029621D01*
X0362196Y0030824D01*
X0360625Y0031475D01*
X0353775Y0031475D01*
X0352204Y0030824D01*
X0351001Y0029621D01*
X0350951Y0029500D01*
X0346153Y0029500D01*
X0337500Y0038153D01*
X0336645Y0039008D01*
X0337600Y0039963D01*
X0337600Y0044347D01*
X0349250Y0055997D01*
X0349250Y0080997D01*
X0352016Y0083764D01*
X0352204Y0083576D01*
X0353775Y0082925D01*
X0360625Y0082925D01*
X0362196Y0083576D01*
X0363399Y0084779D01*
X0364050Y0086350D01*
X0364050Y0088050D01*
X0363399Y0089621D01*
X0362196Y0090824D01*
X0360625Y0091475D01*
X0353775Y0091475D01*
X0352204Y0090824D01*
X0351001Y0089621D01*
X0350741Y0088994D01*
X0349900Y0088153D01*
X0346750Y0085003D01*
X0346750Y0088497D01*
X0352016Y0093764D01*
X0352204Y0093576D01*
X0353775Y0092925D01*
X0360625Y0092925D01*
X0362196Y0093576D01*
X0363399Y0094779D01*
X0364050Y0096350D01*
X0364050Y0098050D01*
X0363399Y0099621D01*
X0362196Y0100824D01*
X0360625Y0101475D01*
X0355977Y0101475D01*
X0357403Y0102900D01*
X0387403Y0102900D01*
X0388750Y0104247D01*
X0394348Y0109845D01*
X0394475Y0109753D01*
X0395204Y0109381D01*
X0395982Y0109128D01*
X0396218Y0109091D01*
X0395604Y0108837D01*
X0388063Y0101296D01*
X0387500Y0099936D01*
X0387500Y0065964D01*
X0388063Y0064604D01*
X0389104Y0063563D01*
X0390464Y0063000D01*
X0391936Y0063000D01*
X0393296Y0063563D01*
X0394337Y0064604D01*
X0394900Y0065964D01*
X0394900Y0097667D01*
X0400837Y0103604D01*
X0401400Y0104964D01*
X0401400Y0106436D01*
X0400837Y0107796D01*
X0399796Y0108837D01*
X0398796Y0109251D01*
X0399196Y0109381D01*
X0399925Y0109753D01*
X0400588Y0110234D01*
X0401166Y0110812D01*
X0401647Y0111475D01*
X0402019Y0112204D01*
X0402272Y0112982D01*
X0402400Y0113791D01*
X0402400Y0117200D01*
X0402400Y0120609D01*
X0402272Y0121418D01*
X0402019Y0122196D01*
X0401647Y0122925D01*
X0401166Y0123588D01*
X0400588Y0124166D01*
X0399925Y0124647D01*
X0399196Y0125019D01*
X0398418Y0125272D01*
X0397609Y0125400D01*
X0397200Y0125400D01*
X0397200Y0117200D01*
X0397200Y0117200D01*
X0402400Y0117200D01*
X0397200Y0117200D01*
X0397200Y0117200D01*
X0397200Y0125400D01*
X0396903Y0125400D01*
X0401750Y0130247D01*
X0401750Y0150823D01*
X0402404Y0151476D01*
X0402934Y0152757D01*
X0402934Y0154143D01*
X0402404Y0155424D01*
X0401424Y0156404D01*
X0400143Y0156934D01*
X0398757Y0156934D01*
X0397476Y0156404D01*
X0396496Y0155424D01*
X0395966Y0154143D01*
X0395966Y0152757D01*
X0396496Y0151476D01*
X0397150Y0150823D01*
X0397150Y0132153D01*
X0391247Y0126250D01*
X0389900Y0124903D01*
X0389900Y0124147D01*
X0389862Y0124184D01*
X0389500Y0124335D01*
X0389500Y0138903D01*
X0388153Y0140250D01*
X0382881Y0145521D01*
X0383424Y0145746D01*
X0384404Y0146726D01*
X0384934Y0148007D01*
X0384934Y0149393D01*
X0384404Y0150674D01*
X0383424Y0151654D01*
X0382143Y0152184D01*
X0380757Y0152184D01*
X0379846Y0151807D01*
X0371250Y0160403D01*
X0371250Y0171497D01*
X0371966Y0172213D01*
X0371966Y0172017D01*
X0372496Y0170736D01*
X0373476Y0169756D01*
X0374757Y0169226D01*
X0376143Y0169226D01*
X0377424Y0169756D01*
X0378404Y0170736D01*
X0378934Y0172017D01*
X0378934Y0172236D01*
X0383976Y0177800D01*
X0389423Y0177800D01*
X0389476Y0177746D01*
X0390757Y0177216D01*
X0390833Y0177216D01*
X0404300Y0163749D01*
X0404300Y0123947D01*
X0403216Y0122862D01*
X0402500Y0121135D01*
X0402500Y0113265D01*
X0403216Y0111538D01*
X0404538Y0110216D01*
X0406265Y0109500D01*
X0408135Y0109500D01*
X0409862Y0110216D01*
X0411184Y0111538D01*
X0411900Y0113265D01*
X0411900Y0114300D01*
X0414300Y0114300D01*
X0414300Y0098724D01*
X0414200Y0099033D01*
X0413859Y0099703D01*
X0413417Y0100311D01*
X0412885Y0100842D01*
X0412277Y0101284D01*
X0411608Y0101625D01*
X0410893Y0101857D01*
X0410151Y0101975D01*
X0407200Y0101975D01*
X0407200Y0097200D01*
X0407200Y0097200D01*
X0407200Y0092425D01*
X0410151Y0092425D01*
X0410893Y0092543D01*
X0411608Y0092775D01*
X0412277Y0093116D01*
X0412885Y0093558D01*
X0413417Y0094089D01*
X0413859Y0094697D01*
X0414200Y0095367D01*
X0414300Y0095676D01*
X0414300Y0093401D01*
X0411861Y0090963D01*
X0410625Y0091475D01*
X0410924Y0091351D02*
X0412250Y0091351D01*
X0413077Y0093749D02*
X0414300Y0093749D01*
X0420100Y0093749D02*
X0487500Y0093749D01*
X0487500Y0091351D02*
X0419987Y0091351D01*
X0418054Y0088952D02*
X0487500Y0088952D01*
X0487500Y0086554D02*
X0415655Y0086554D01*
X0412776Y0084155D02*
X0487500Y0084155D01*
X0487500Y0081757D02*
X0394900Y0081757D01*
X0394900Y0084155D02*
X0401624Y0084155D01*
X0400350Y0086554D02*
X0394900Y0086554D01*
X0394900Y0088952D02*
X0400724Y0088952D01*
X0403476Y0091351D02*
X0394900Y0091351D01*
X0394900Y0093749D02*
X0401323Y0093749D01*
X0401515Y0093558D02*
X0402123Y0093116D01*
X0402792Y0092775D01*
X0403507Y0092543D01*
X0404249Y0092425D01*
X0407200Y0092425D01*
X0407200Y0097200D01*
X0407200Y0097200D01*
X0407200Y0097200D01*
X0399850Y0097200D01*
X0399850Y0097576D01*
X0399968Y0098318D01*
X0400200Y0099033D01*
X0400541Y0099703D01*
X0400983Y0100311D01*
X0401515Y0100842D01*
X0402123Y0101284D01*
X0402792Y0101625D01*
X0403507Y0101857D01*
X0404249Y0101975D01*
X0407200Y0101975D01*
X0407200Y0097200D01*
X0399850Y0097200D01*
X0399850Y0096824D01*
X0399968Y0096082D01*
X0400200Y0095367D01*
X0400541Y0094697D01*
X0400983Y0094089D01*
X0401515Y0093558D01*
X0399958Y0096148D02*
X0394900Y0096148D01*
X0395779Y0098546D02*
X0400042Y0098546D01*
X0401656Y0100945D02*
X0398178Y0100945D01*
X0400576Y0103343D02*
X0414300Y0103343D01*
X0414300Y0100945D02*
X0412744Y0100945D01*
X0414300Y0105742D02*
X0401400Y0105742D01*
X0400492Y0108140D02*
X0414300Y0108140D01*
X0414300Y0110539D02*
X0410186Y0110539D01*
X0411764Y0112937D02*
X0414300Y0112937D01*
X0417200Y0117200D02*
X0491200Y0117200D01*
X0494900Y0117734D02*
X0521988Y0117734D01*
X0521987Y0115336D02*
X0494900Y0115336D01*
X0494900Y0112937D02*
X0521985Y0112937D01*
X0521984Y0110539D02*
X0494900Y0110539D01*
X0494900Y0108140D02*
X0521982Y0108140D01*
X0521981Y0105742D02*
X0494900Y0105742D01*
X0494900Y0103343D02*
X0521979Y0103343D01*
X0521978Y0100945D02*
X0494900Y0100945D01*
X0494900Y0098546D02*
X0521976Y0098546D01*
X0521975Y0096148D02*
X0494900Y0096148D01*
X0494900Y0093749D02*
X0521973Y0093749D01*
X0521972Y0091351D02*
X0494900Y0091351D01*
X0494900Y0088952D02*
X0521970Y0088952D01*
X0521969Y0086554D02*
X0494900Y0086554D01*
X0494900Y0084155D02*
X0521967Y0084155D01*
X0521966Y0081757D02*
X0494900Y0081757D01*
X0494900Y0079358D02*
X0521964Y0079358D01*
X0521963Y0076960D02*
X0494900Y0076960D01*
X0494900Y0074561D02*
X0521961Y0074561D01*
X0521959Y0072163D02*
X0494900Y0072163D01*
X0494900Y0069764D02*
X0521958Y0069764D01*
X0521956Y0067366D02*
X0494900Y0067366D01*
X0494900Y0064967D02*
X0521955Y0064967D01*
X0521953Y0062569D02*
X0494900Y0062569D01*
X0494900Y0060170D02*
X0521952Y0060170D01*
X0521950Y0057772D02*
X0494900Y0057772D01*
X0494900Y0055373D02*
X0521949Y0055373D01*
X0521947Y0052975D02*
X0494900Y0052975D01*
X0494900Y0050576D02*
X0521946Y0050576D01*
X0521944Y0048178D02*
X0494900Y0048178D01*
X0494900Y0045779D02*
X0521943Y0045779D01*
X0521941Y0043381D02*
X0494900Y0043381D01*
X0494900Y0040982D02*
X0521940Y0040982D01*
X0521938Y0038584D02*
X0514145Y0038584D01*
X0510255Y0038584D02*
X0497821Y0038584D01*
X0497821Y0036185D02*
X0504923Y0036185D01*
X0502725Y0033787D02*
X0497821Y0033787D01*
X0497821Y0031388D02*
X0501417Y0031388D01*
X0500775Y0028990D02*
X0497821Y0028990D01*
X0500701Y0026591D02*
X0494900Y0026591D01*
X0494175Y0024193D02*
X0501101Y0024193D01*
X0502043Y0021794D02*
X0491777Y0021794D01*
X0489378Y0019396D02*
X0503742Y0019396D01*
X0486108Y0026591D02*
X0414050Y0026591D01*
X0413661Y0028990D02*
X0416079Y0028990D01*
X0416079Y0028989D02*
X0416229Y0028430D01*
X0416518Y0027928D01*
X0416928Y0027518D01*
X0417430Y0027229D01*
X0417989Y0027079D01*
X0422924Y0027079D01*
X0422924Y0033924D01*
X0423476Y0033924D01*
X0423476Y0027079D01*
X0428411Y0027079D01*
X0428970Y0027229D01*
X0429472Y0027518D01*
X0429882Y0027928D01*
X0430171Y0028430D01*
X0430321Y0028989D01*
X0430321Y0033924D01*
X0423476Y0033924D01*
X0423476Y0034476D01*
X0422924Y0034476D01*
X0422924Y0033924D01*
X0416079Y0033924D01*
X0416079Y0028989D01*
X0416079Y0031388D02*
X0410834Y0031388D01*
X0410893Y0032543D02*
X0411608Y0032775D01*
X0412277Y0033116D01*
X0412885Y0033558D01*
X0413417Y0034089D01*
X0413859Y0034697D01*
X0414200Y0035367D01*
X0414432Y0036082D01*
X0414550Y0036824D01*
X0414550Y0037200D01*
X0414550Y0037576D01*
X0414432Y0038318D01*
X0414200Y0039033D01*
X0413859Y0039703D01*
X0413417Y0040311D01*
X0412885Y0040842D01*
X0412277Y0041284D01*
X0411608Y0041625D01*
X0410893Y0041857D01*
X0410151Y0041975D01*
X0407200Y0041975D01*
X0407200Y0037200D01*
X0407200Y0037200D01*
X0414550Y0037200D01*
X0407200Y0037200D01*
X0407200Y0037200D01*
X0407200Y0041975D01*
X0404249Y0041975D01*
X0403507Y0041857D01*
X0402792Y0041625D01*
X0402123Y0041284D01*
X0401515Y0040842D01*
X0400983Y0040311D01*
X0400541Y0039703D01*
X0400200Y0039033D01*
X0399968Y0038318D01*
X0399850Y0037576D01*
X0399850Y0037200D01*
X0407200Y0037200D01*
X0407200Y0032425D01*
X0410151Y0032425D01*
X0410893Y0032543D01*
X0413114Y0033787D02*
X0416079Y0033787D01*
X0416079Y0034476D02*
X0422924Y0034476D01*
X0422924Y0041321D01*
X0417989Y0041321D01*
X0417430Y0041171D01*
X0416928Y0040882D01*
X0416518Y0040472D01*
X0416229Y0039970D01*
X0416079Y0039411D01*
X0416079Y0034476D01*
X0416079Y0036185D02*
X0414448Y0036185D01*
X0414346Y0038584D02*
X0416079Y0038584D01*
X0417102Y0040982D02*
X0412693Y0040982D01*
X0411725Y0043381D02*
X0487500Y0043381D01*
X0487500Y0045779D02*
X0413813Y0045779D01*
X0414050Y0046350D02*
X0413399Y0044779D01*
X0412196Y0043576D01*
X0410625Y0042925D01*
X0403775Y0042925D01*
X0402204Y0043576D01*
X0401001Y0044779D01*
X0400350Y0046350D01*
X0400350Y0048050D01*
X0401001Y0049621D01*
X0402204Y0050824D01*
X0403775Y0051475D01*
X0410625Y0051475D01*
X0412196Y0050824D01*
X0413399Y0049621D01*
X0414050Y0048050D01*
X0414050Y0046350D01*
X0413997Y0048178D02*
X0487500Y0048178D01*
X0487500Y0050576D02*
X0412444Y0050576D01*
X0410745Y0052975D02*
X0487500Y0052975D01*
X0487500Y0055373D02*
X0413645Y0055373D01*
X0413399Y0054779D02*
X0414050Y0056350D01*
X0414050Y0058050D01*
X0413399Y0059621D01*
X0412196Y0060824D01*
X0410625Y0061475D01*
X0403775Y0061475D01*
X0402204Y0060824D01*
X0401001Y0059621D01*
X0400350Y0058050D01*
X0400350Y0056350D01*
X0401001Y0054779D01*
X0402204Y0053576D01*
X0403775Y0052925D01*
X0410625Y0052925D01*
X0412196Y0053576D01*
X0413399Y0054779D01*
X0414050Y0057772D02*
X0487500Y0057772D01*
X0487500Y0060170D02*
X0412850Y0060170D01*
X0412196Y0063576D02*
X0413399Y0064779D01*
X0414050Y0066350D01*
X0414050Y0068050D01*
X0413399Y0069621D01*
X0412196Y0070824D01*
X0410625Y0071475D01*
X0403775Y0071475D01*
X0402204Y0070824D01*
X0401001Y0069621D01*
X0400350Y0068050D01*
X0400350Y0066350D01*
X0401001Y0064779D01*
X0402204Y0063576D01*
X0403775Y0062925D01*
X0410625Y0062925D01*
X0412196Y0063576D01*
X0413477Y0064967D02*
X0487500Y0064967D01*
X0487500Y0062569D02*
X0349250Y0062569D01*
X0349250Y0064967D02*
X0350923Y0064967D01*
X0351001Y0064779D02*
X0352204Y0063576D01*
X0353775Y0062925D01*
X0360625Y0062925D01*
X0362196Y0063576D01*
X0363399Y0064779D01*
X0364050Y0066350D01*
X0364050Y0068050D01*
X0363399Y0069621D01*
X0362196Y0070824D01*
X0360625Y0071475D01*
X0359500Y0071475D01*
X0359500Y0072925D01*
X0360625Y0072925D01*
X0362196Y0073576D01*
X0363399Y0074779D01*
X0364050Y0076350D01*
X0364050Y0078050D01*
X0363399Y0079621D01*
X0362196Y0080824D01*
X0360625Y0081475D01*
X0353775Y0081475D01*
X0352204Y0080824D01*
X0351001Y0079621D01*
X0350350Y0078050D01*
X0350350Y0076350D01*
X0351001Y0074779D01*
X0352204Y0073576D01*
X0353775Y0072925D01*
X0354900Y0072925D01*
X0354900Y0071475D01*
X0353775Y0071475D01*
X0352204Y0070824D01*
X0351001Y0069621D01*
X0350350Y0068050D01*
X0350350Y0066350D01*
X0351001Y0064779D01*
X0350350Y0067366D02*
X0349250Y0067366D01*
X0349250Y0069764D02*
X0351144Y0069764D01*
X0349250Y0072163D02*
X0354900Y0072163D01*
X0351218Y0074561D02*
X0349250Y0074561D01*
X0349250Y0076960D02*
X0350350Y0076960D01*
X0350892Y0079358D02*
X0349250Y0079358D01*
X0350009Y0081757D02*
X0387500Y0081757D01*
X0387500Y0084155D02*
X0362776Y0084155D01*
X0364050Y0086554D02*
X0387500Y0086554D01*
X0387500Y0088952D02*
X0363676Y0088952D01*
X0360924Y0091351D02*
X0387500Y0091351D01*
X0387500Y0093749D02*
X0362370Y0093749D01*
X0363966Y0096148D02*
X0387500Y0096148D01*
X0387500Y0098546D02*
X0363844Y0098546D01*
X0361904Y0100945D02*
X0387918Y0100945D01*
X0387846Y0103343D02*
X0390111Y0103343D01*
X0390245Y0105742D02*
X0392509Y0105742D01*
X0392643Y0108140D02*
X0394908Y0108140D01*
X0386138Y0108140D02*
X0341393Y0108140D01*
X0338995Y0105742D02*
X0353739Y0105742D01*
X0351341Y0103343D02*
X0337600Y0103343D01*
X0337600Y0100945D02*
X0348942Y0100945D01*
X0346544Y0098546D02*
X0336183Y0098546D01*
X0335889Y0096148D02*
X0344145Y0096148D01*
X0341747Y0093749D02*
X0337600Y0093749D01*
X0337600Y0091351D02*
X0339650Y0091351D01*
X0339650Y0088952D02*
X0336589Y0088952D01*
X0335483Y0086554D02*
X0339650Y0086554D01*
X0339650Y0084155D02*
X0337600Y0084155D01*
X0337600Y0081757D02*
X0339650Y0081757D01*
X0339650Y0079358D02*
X0336995Y0079358D01*
X0335077Y0076960D02*
X0339650Y0076960D01*
X0339650Y0074561D02*
X0337475Y0074561D01*
X0337600Y0072163D02*
X0339650Y0072163D01*
X0339650Y0069764D02*
X0337401Y0069764D01*
X0339650Y0067366D02*
X0335002Y0067366D01*
X0337069Y0064967D02*
X0339650Y0064967D01*
X0349250Y0060170D02*
X0351550Y0060170D01*
X0351001Y0059621D02*
X0350350Y0058050D01*
X0350350Y0056350D01*
X0351001Y0054779D01*
X0352204Y0053576D01*
X0353775Y0052925D01*
X0360625Y0052925D01*
X0362196Y0053576D01*
X0363399Y0054779D01*
X0364050Y0056350D01*
X0364050Y0058050D01*
X0363399Y0059621D01*
X0362196Y0060824D01*
X0360625Y0061475D01*
X0353775Y0061475D01*
X0352204Y0060824D01*
X0351001Y0059621D01*
X0350350Y0057772D02*
X0349250Y0057772D01*
X0348626Y0055373D02*
X0350755Y0055373D01*
X0353655Y0052975D02*
X0346227Y0052975D01*
X0343829Y0050576D02*
X0351956Y0050576D01*
X0352204Y0050824D02*
X0351001Y0049621D01*
X0350350Y0048050D01*
X0350350Y0046350D01*
X0351001Y0044779D01*
X0352204Y0043576D01*
X0353775Y0042925D01*
X0360625Y0042925D01*
X0362196Y0043576D01*
X0363399Y0044779D01*
X0364050Y0046350D01*
X0364050Y0048050D01*
X0363399Y0049621D01*
X0362196Y0050824D01*
X0360625Y0051475D01*
X0353775Y0051475D01*
X0352204Y0050824D01*
X0350403Y0048178D02*
X0341430Y0048178D01*
X0339032Y0045779D02*
X0350587Y0045779D01*
X0352675Y0043381D02*
X0337600Y0043381D01*
X0337600Y0040982D02*
X0352586Y0040982D01*
X0352204Y0040824D02*
X0351001Y0039621D01*
X0350350Y0038050D01*
X0350350Y0036350D01*
X0351001Y0034779D01*
X0352204Y0033576D01*
X0353775Y0032925D01*
X0360625Y0032925D01*
X0362196Y0033576D01*
X0363399Y0034779D01*
X0364050Y0036350D01*
X0364050Y0038050D01*
X0363399Y0039621D01*
X0362196Y0040824D01*
X0360625Y0041475D01*
X0353775Y0041475D01*
X0352204Y0040824D01*
X0350571Y0038584D02*
X0337069Y0038584D01*
X0339468Y0036185D02*
X0350419Y0036185D01*
X0351993Y0033787D02*
X0341866Y0033787D01*
X0344265Y0031388D02*
X0353566Y0031388D01*
X0360834Y0031388D02*
X0403566Y0031388D01*
X0403507Y0032543D02*
X0404249Y0032425D01*
X0407200Y0032425D01*
X0407200Y0037200D01*
X0407200Y0037200D01*
X0407200Y0037200D01*
X0399850Y0037200D01*
X0399850Y0036824D01*
X0399968Y0036082D01*
X0400200Y0035367D01*
X0400541Y0034697D01*
X0400983Y0034089D01*
X0401515Y0033558D01*
X0402123Y0033116D01*
X0402792Y0032775D01*
X0403507Y0032543D01*
X0401286Y0033787D02*
X0362407Y0033787D01*
X0363981Y0036185D02*
X0399952Y0036185D01*
X0400054Y0038584D02*
X0363829Y0038584D01*
X0361814Y0040982D02*
X0401707Y0040982D01*
X0402675Y0043381D02*
X0361725Y0043381D01*
X0363813Y0045779D02*
X0400587Y0045779D01*
X0400403Y0048178D02*
X0363997Y0048178D01*
X0362444Y0050576D02*
X0401956Y0050576D01*
X0403655Y0052975D02*
X0360745Y0052975D01*
X0363645Y0055373D02*
X0400755Y0055373D01*
X0400350Y0057772D02*
X0364050Y0057772D01*
X0362850Y0060170D02*
X0401550Y0060170D01*
X0400923Y0064967D02*
X0394487Y0064967D01*
X0394900Y0067366D02*
X0400350Y0067366D01*
X0401144Y0069764D02*
X0394900Y0069764D01*
X0394900Y0072163D02*
X0487500Y0072163D01*
X0487500Y0074561D02*
X0413182Y0074561D01*
X0413399Y0074779D02*
X0414050Y0076350D01*
X0414050Y0078050D01*
X0413399Y0079621D01*
X0412196Y0080824D01*
X0410625Y0081475D01*
X0403775Y0081475D01*
X0402204Y0080824D01*
X0401001Y0079621D01*
X0400350Y0078050D01*
X0400350Y0076350D01*
X0401001Y0074779D01*
X0402204Y0073576D01*
X0403775Y0072925D01*
X0410625Y0072925D01*
X0412196Y0073576D01*
X0413399Y0074779D01*
X0414050Y0076960D02*
X0487500Y0076960D01*
X0487500Y0079358D02*
X0413508Y0079358D01*
X0413256Y0069764D02*
X0487500Y0069764D01*
X0487500Y0067366D02*
X0414050Y0067366D01*
X0401218Y0074561D02*
X0394900Y0074561D01*
X0394900Y0076960D02*
X0400350Y0076960D01*
X0400892Y0079358D02*
X0394900Y0079358D01*
X0387500Y0079358D02*
X0363508Y0079358D01*
X0364050Y0076960D02*
X0387500Y0076960D01*
X0387500Y0074561D02*
X0363182Y0074561D01*
X0359500Y0072163D02*
X0387500Y0072163D01*
X0387500Y0069764D02*
X0363256Y0069764D01*
X0364050Y0067366D02*
X0387500Y0067366D01*
X0387913Y0064967D02*
X0363477Y0064967D01*
X0348301Y0086554D02*
X0346750Y0086554D01*
X0347205Y0088952D02*
X0350700Y0088952D01*
X0349604Y0091351D02*
X0353476Y0091351D01*
X0352030Y0093749D02*
X0352002Y0093749D01*
X0350186Y0110539D02*
X0354214Y0110539D01*
X0352636Y0112937D02*
X0351764Y0112937D01*
X0351900Y0115336D02*
X0352500Y0115336D01*
X0352500Y0117734D02*
X0351900Y0117734D01*
X0351900Y0120133D02*
X0352500Y0120133D01*
X0353079Y0122532D02*
X0351321Y0122532D01*
X0354900Y0124930D02*
X0337107Y0124930D01*
X0337600Y0122532D02*
X0343079Y0122532D01*
X0342500Y0120133D02*
X0337600Y0120133D01*
X0335371Y0117734D02*
X0342500Y0117734D01*
X0342083Y0115336D02*
X0336701Y0115336D01*
X0337600Y0112937D02*
X0339685Y0112937D01*
X0343792Y0110539D02*
X0344214Y0110539D01*
X0360186Y0110539D02*
X0364214Y0110539D01*
X0362636Y0112937D02*
X0361764Y0112937D01*
X0361900Y0115336D02*
X0362500Y0115336D01*
X0362500Y0117734D02*
X0361900Y0117734D01*
X0361900Y0120133D02*
X0362500Y0120133D01*
X0363079Y0122532D02*
X0361321Y0122532D01*
X0359500Y0124930D02*
X0364900Y0124930D01*
X0364900Y0127329D02*
X0359500Y0127329D01*
X0357926Y0129727D02*
X0364900Y0129727D01*
X0364900Y0132126D02*
X0355527Y0132126D01*
X0353129Y0134524D02*
X0364900Y0134524D01*
X0364900Y0136923D02*
X0350730Y0136923D01*
X0348332Y0139321D02*
X0364900Y0139321D01*
X0364900Y0141720D02*
X0345933Y0141720D01*
X0343535Y0144118D02*
X0364900Y0144118D01*
X0364900Y0146517D02*
X0341136Y0146517D01*
X0338738Y0148915D02*
X0364900Y0148915D01*
X0363584Y0151314D02*
X0337600Y0151314D01*
X0337600Y0153712D02*
X0354010Y0153712D01*
X0352966Y0156111D02*
X0339363Y0156111D01*
X0341762Y0158509D02*
X0350672Y0158509D01*
X0350679Y0160908D02*
X0344160Y0160908D01*
X0346559Y0163306D02*
X0350299Y0163306D01*
X0350552Y0165705D02*
X0348957Y0165705D01*
X0351356Y0168103D02*
X0366650Y0168103D01*
X0366650Y0165705D02*
X0362698Y0165705D01*
X0365096Y0163306D02*
X0366650Y0163306D01*
X0371250Y0163306D02*
X0404300Y0163306D01*
X0404300Y0160908D02*
X0371250Y0160908D01*
X0373143Y0158509D02*
X0404300Y0158509D01*
X0404300Y0156111D02*
X0401717Y0156111D01*
X0402934Y0153712D02*
X0404300Y0153712D01*
X0404300Y0151314D02*
X0402241Y0151314D01*
X0401750Y0148915D02*
X0404300Y0148915D01*
X0404300Y0146517D02*
X0401750Y0146517D01*
X0401750Y0144118D02*
X0404300Y0144118D01*
X0404300Y0141720D02*
X0401750Y0141720D01*
X0401750Y0139321D02*
X0404300Y0139321D01*
X0404300Y0136923D02*
X0401750Y0136923D01*
X0401750Y0134524D02*
X0404300Y0134524D01*
X0404300Y0132126D02*
X0401750Y0132126D01*
X0401230Y0129727D02*
X0404300Y0129727D01*
X0404300Y0127329D02*
X0398831Y0127329D01*
X0399371Y0124930D02*
X0404300Y0124930D01*
X0403079Y0122532D02*
X0401848Y0122532D01*
X0402400Y0120133D02*
X0402500Y0120133D01*
X0402500Y0117734D02*
X0402400Y0117734D01*
X0402400Y0115336D02*
X0402500Y0115336D01*
X0402636Y0112937D02*
X0402257Y0112937D01*
X0400893Y0110539D02*
X0404214Y0110539D01*
X0407200Y0117200D02*
X0407200Y0164950D01*
X0391450Y0180700D01*
X0382690Y0180700D01*
X0375450Y0172710D01*
X0378169Y0170502D02*
X0397547Y0170502D01*
X0395149Y0172900D02*
X0379536Y0172900D01*
X0381709Y0175299D02*
X0392750Y0175299D01*
X0389594Y0177697D02*
X0383883Y0177697D01*
X0374719Y0187291D02*
X0400789Y0187291D01*
X0403187Y0189690D02*
X0376184Y0189690D01*
X0378124Y0192088D02*
X0401700Y0192088D01*
X0401216Y0194487D02*
X0380522Y0194487D01*
X0382921Y0196885D02*
X0402200Y0196885D01*
X0402200Y0199284D02*
X0385319Y0199284D01*
X0387718Y0201682D02*
X0402200Y0201682D01*
X0402200Y0204081D02*
X0390116Y0204081D01*
X0392515Y0206479D02*
X0402200Y0206479D01*
X0402200Y0208878D02*
X0394913Y0208878D01*
X0397312Y0211276D02*
X0401622Y0211276D01*
X0401229Y0213675D02*
X0399710Y0213675D01*
X0402109Y0216073D02*
X0402200Y0216073D01*
X0416928Y0196882D02*
X0417430Y0197171D01*
X0417989Y0197321D01*
X0422924Y0197321D01*
X0422924Y0190476D01*
X0416079Y0190476D01*
X0416079Y0195411D01*
X0416229Y0195970D01*
X0416518Y0196472D01*
X0416928Y0196882D01*
X0416934Y0196885D02*
X0410750Y0196885D01*
X0410750Y0194487D02*
X0416079Y0194487D01*
X0416079Y0192088D02*
X0410750Y0192088D01*
X0409693Y0189690D02*
X0416079Y0189690D01*
X0416079Y0189924D02*
X0416079Y0184989D01*
X0416229Y0184430D01*
X0416518Y0183928D01*
X0416928Y0183518D01*
X0417430Y0183229D01*
X0417989Y0183079D01*
X0422924Y0183079D01*
X0422924Y0189924D01*
X0416079Y0189924D01*
X0416079Y0187291D02*
X0407294Y0187291D01*
X0404895Y0184893D02*
X0416105Y0184893D01*
X0422924Y0184893D02*
X0423476Y0184893D01*
X0423476Y0187291D02*
X0422924Y0187291D01*
X0422924Y0189690D02*
X0423476Y0189690D01*
X0423476Y0192088D02*
X0422924Y0192088D01*
X0422924Y0194487D02*
X0423476Y0194487D01*
X0423476Y0196885D02*
X0422924Y0196885D01*
X0399946Y0168103D02*
X0371250Y0168103D01*
X0371250Y0165705D02*
X0402344Y0165705D01*
X0397183Y0156111D02*
X0375542Y0156111D01*
X0377941Y0153712D02*
X0395966Y0153712D01*
X0396659Y0151314D02*
X0383764Y0151314D01*
X0384934Y0148915D02*
X0397150Y0148915D01*
X0397150Y0146517D02*
X0384194Y0146517D01*
X0384285Y0144118D02*
X0397150Y0144118D01*
X0397150Y0141720D02*
X0386683Y0141720D01*
X0389082Y0139321D02*
X0397150Y0139321D01*
X0397150Y0136923D02*
X0389500Y0136923D01*
X0389500Y0134524D02*
X0397150Y0134524D01*
X0397123Y0132126D02*
X0389500Y0132126D01*
X0389500Y0129727D02*
X0394724Y0129727D01*
X0392326Y0127329D02*
X0389500Y0127329D01*
X0389500Y0124930D02*
X0389927Y0124930D01*
X0384900Y0124930D02*
X0379500Y0124930D01*
X0379500Y0127329D02*
X0384900Y0127329D01*
X0384900Y0129727D02*
X0379500Y0129727D01*
X0379500Y0132126D02*
X0384900Y0132126D01*
X0384900Y0134524D02*
X0379500Y0134524D01*
X0379500Y0136923D02*
X0384900Y0136923D01*
X0382576Y0139321D02*
X0379500Y0139321D01*
X0379500Y0141720D02*
X0380178Y0141720D01*
X0374900Y0141720D02*
X0369500Y0141720D01*
X0369500Y0144118D02*
X0374300Y0144118D01*
X0371941Y0146517D02*
X0369500Y0146517D01*
X0369500Y0148915D02*
X0369582Y0148915D01*
X0369500Y0139321D02*
X0374900Y0139321D01*
X0374900Y0136923D02*
X0369500Y0136923D01*
X0369500Y0134524D02*
X0374900Y0134524D01*
X0374900Y0132126D02*
X0369500Y0132126D01*
X0369500Y0129727D02*
X0374900Y0129727D01*
X0374900Y0127329D02*
X0369500Y0127329D01*
X0369500Y0124930D02*
X0374900Y0124930D01*
X0373079Y0122532D02*
X0371321Y0122532D01*
X0371900Y0120133D02*
X0372500Y0120133D01*
X0372500Y0117734D02*
X0371900Y0117734D01*
X0371900Y0115336D02*
X0372500Y0115336D01*
X0372636Y0112937D02*
X0371764Y0112937D01*
X0370186Y0110539D02*
X0374214Y0110539D01*
X0380186Y0110539D02*
X0384214Y0110539D01*
X0382636Y0112937D02*
X0381764Y0112937D01*
X0381900Y0115336D02*
X0382500Y0115336D01*
X0382500Y0117734D02*
X0381900Y0117734D01*
X0381900Y0120133D02*
X0382500Y0120133D01*
X0383079Y0122532D02*
X0381321Y0122532D01*
X0397200Y0122532D02*
X0397200Y0122532D01*
X0397200Y0124930D02*
X0397200Y0124930D01*
X0397200Y0120133D02*
X0397200Y0120133D01*
X0397200Y0117734D02*
X0397200Y0117734D01*
X0407200Y0100945D02*
X0407200Y0100945D01*
X0407200Y0098546D02*
X0407200Y0098546D01*
X0407200Y0096148D02*
X0407200Y0096148D01*
X0407200Y0093749D02*
X0407200Y0093749D01*
X0420100Y0096148D02*
X0487500Y0096148D01*
X0487500Y0098546D02*
X0420100Y0098546D01*
X0420100Y0100945D02*
X0487500Y0100945D01*
X0487500Y0103343D02*
X0480076Y0103343D01*
X0481150Y0105742D02*
X0487500Y0105742D01*
X0487500Y0108140D02*
X0480492Y0108140D01*
X0487500Y0110539D02*
X0420100Y0110539D01*
X0420100Y0112937D02*
X0487500Y0112937D01*
X0494900Y0120133D02*
X0521990Y0120133D01*
X0521992Y0122532D02*
X0494900Y0122532D01*
X0494900Y0124930D02*
X0521993Y0124930D01*
X0521995Y0127329D02*
X0494900Y0127329D01*
X0494900Y0129727D02*
X0521996Y0129727D01*
X0521998Y0132126D02*
X0494900Y0132126D01*
X0494900Y0134524D02*
X0521999Y0134524D01*
X0522001Y0136923D02*
X0494900Y0136923D01*
X0494900Y0139321D02*
X0522002Y0139321D01*
X0522004Y0141720D02*
X0494900Y0141720D01*
X0494900Y0144118D02*
X0522005Y0144118D01*
X0522007Y0146517D02*
X0494900Y0146517D01*
X0494900Y0148915D02*
X0522008Y0148915D01*
X0522010Y0151314D02*
X0494900Y0151314D01*
X0494900Y0153712D02*
X0522011Y0153712D01*
X0522013Y0156111D02*
X0494900Y0156111D01*
X0494900Y0158509D02*
X0522014Y0158509D01*
X0522016Y0160908D02*
X0494900Y0160908D01*
X0494900Y0163306D02*
X0522017Y0163306D01*
X0522019Y0165705D02*
X0494900Y0165705D01*
X0494900Y0168103D02*
X0522021Y0168103D01*
X0522022Y0170502D02*
X0494459Y0170502D01*
X0492232Y0172900D02*
X0522024Y0172900D01*
X0522025Y0175299D02*
X0489834Y0175299D01*
X0487435Y0177697D02*
X0522027Y0177697D01*
X0522028Y0180096D02*
X0485037Y0180096D01*
X0420158Y0108140D02*
X0420100Y0108140D01*
X0361185Y0153712D02*
X0358890Y0153712D01*
X0353754Y0170502D02*
X0366650Y0170502D01*
X0371250Y0170502D02*
X0372731Y0170502D01*
X0341826Y0139321D02*
X0336958Y0139321D01*
X0337600Y0141720D02*
X0339428Y0141720D01*
X0335114Y0136923D02*
X0344225Y0136923D01*
X0346623Y0134524D02*
X0337513Y0134524D01*
X0337600Y0132126D02*
X0349022Y0132126D01*
X0351420Y0129727D02*
X0337364Y0129727D01*
X0334965Y0127329D02*
X0353819Y0127329D01*
X0305108Y0110539D02*
X0296000Y0110539D01*
X0296000Y0112937D02*
X0302710Y0112937D01*
X0300650Y0115336D02*
X0296000Y0115336D01*
X0296000Y0117734D02*
X0300650Y0117734D01*
X0300650Y0120133D02*
X0296000Y0120133D01*
X0296000Y0122532D02*
X0300650Y0122532D01*
X0300650Y0124930D02*
X0296000Y0124930D01*
X0296000Y0127329D02*
X0300650Y0127329D01*
X0299920Y0129727D02*
X0296000Y0129727D01*
X0296000Y0132126D02*
X0297522Y0132126D01*
X0296000Y0108140D02*
X0305900Y0108140D01*
X0305900Y0105742D02*
X0296000Y0105742D01*
X0296000Y0103343D02*
X0305900Y0103343D01*
X0305900Y0100945D02*
X0296000Y0100945D01*
X0297606Y0098546D02*
X0305900Y0098546D01*
X0305900Y0096148D02*
X0298934Y0096148D01*
X0298413Y0093749D02*
X0307898Y0093749D01*
X0310150Y0091351D02*
X0293500Y0091351D01*
X0293500Y0088952D02*
X0310150Y0088952D01*
X0310150Y0086554D02*
X0293500Y0086554D01*
X0293500Y0084155D02*
X0312242Y0084155D01*
X0313150Y0081757D02*
X0293500Y0081757D01*
X0293500Y0079358D02*
X0313150Y0079358D01*
X0313188Y0076960D02*
X0293500Y0076960D01*
X0293500Y0074561D02*
X0315586Y0074561D01*
X0316800Y0072163D02*
X0293500Y0072163D01*
X0293500Y0069764D02*
X0316999Y0069764D01*
X0286900Y0086554D02*
X0284674Y0086554D01*
X0286445Y0088952D02*
X0286900Y0088952D01*
X0295852Y0036185D02*
X0302650Y0036185D01*
X0304196Y0033787D02*
X0297388Y0033787D01*
X0297600Y0031388D02*
X0306595Y0031388D01*
X0296626Y0028990D02*
X0317774Y0028990D01*
X0362813Y0024193D02*
X0401587Y0024193D01*
X0400350Y0026591D02*
X0364050Y0026591D01*
X0363661Y0028990D02*
X0400739Y0028990D01*
X0407200Y0033787D02*
X0407200Y0033787D01*
X0407200Y0036185D02*
X0407200Y0036185D01*
X0407200Y0038584D02*
X0407200Y0038584D01*
X0407200Y0040982D02*
X0407200Y0040982D01*
X0422924Y0040982D02*
X0423476Y0040982D01*
X0423476Y0041321D02*
X0423476Y0034476D01*
X0430321Y0034476D01*
X0430321Y0039411D01*
X0430171Y0039970D01*
X0429882Y0040472D01*
X0429472Y0040882D01*
X0428970Y0041171D01*
X0428411Y0041321D01*
X0423476Y0041321D01*
X0423476Y0038584D02*
X0422924Y0038584D01*
X0422924Y0036185D02*
X0423476Y0036185D01*
X0423476Y0033787D02*
X0422924Y0033787D01*
X0422924Y0031388D02*
X0423476Y0031388D01*
X0423476Y0028990D02*
X0422924Y0028990D01*
X0430321Y0028990D02*
X0484579Y0028990D01*
X0484579Y0031388D02*
X0430321Y0031388D01*
X0430321Y0033787D02*
X0484579Y0033787D01*
X0484579Y0036185D02*
X0430321Y0036185D01*
X0430321Y0038584D02*
X0484579Y0038584D01*
X0487500Y0040982D02*
X0429298Y0040982D01*
X0412813Y0024193D02*
X0483710Y0024193D01*
X0519477Y0036185D02*
X0521937Y0036185D01*
X0521935Y0033787D02*
X0521675Y0033787D01*
X0141645Y0338398D02*
X0139250Y0338398D01*
X0139250Y0340796D02*
X0144043Y0340796D01*
X0014943Y0343195D02*
X0012611Y0343195D01*
X0012612Y0345593D02*
X0012736Y0345593D01*
X0012621Y0359984D02*
X0013722Y0359984D01*
D25*
X0322200Y0032200D02*
X0332200Y0032200D01*
D26*
X0322200Y0032200D02*
X0321950Y0032450D01*
X0310200Y0032450D01*
X0305950Y0036700D01*
X0305950Y0042450D01*
X0290200Y0058200D01*
X0290200Y0067200D01*
X0290200Y0113950D01*
X0282200Y0121950D01*
X0253450Y0121950D01*
X0253450Y0176950D01*
X0194200Y0176950D01*
X0189950Y0176950D01*
X0177700Y0189200D01*
X0149450Y0189200D01*
X0147200Y0191450D01*
X0147200Y0192200D01*
D27*
X0372450Y0190200D02*
X0372700Y0190200D01*
X0401950Y0219450D01*
X0401950Y0239450D01*
X0432450Y0269950D01*
X0432450Y0339950D01*
X0447200Y0354700D01*
X0462139Y0354700D01*
X0467450Y0349389D01*
X0469700Y0342950D02*
X0473950Y0347200D01*
X0473950Y0355889D01*
X0479261Y0361200D01*
X0469700Y0342950D02*
X0439700Y0342950D01*
X0435200Y0338450D01*
X0435200Y0268950D01*
X0404700Y0238450D01*
X0404700Y0212950D01*
X0404700Y0193950D01*
M02*
