G75*
%MOIN*%
%OFA0B0*%
%FSLAX25Y25*%
%IPPOS*%
%LPD*%
%AMOC8*
5,1,8,0,0,1.08239X$1,22.5*
%
%ADD10C,0.00000*%
%ADD11C,0.00400*%
%ADD12C,0.01200*%
%ADD13C,0.00600*%
%ADD14C,0.01000*%
%ADD15C,0.00500*%
%ADD16R,0.00787X0.00787*%
%ADD17C,0.00800*%
%ADD18R,0.03400X0.03000*%
%ADD19C,0.02362*%
%ADD20R,0.01181X0.00591*%
%ADD21R,0.01181X0.01181*%
%ADD22C,0.00300*%
%ADD23R,0.01378X0.01969*%
%ADD24R,0.00591X0.01181*%
D10*
X0007200Y0012200D02*
X0007450Y0404901D01*
X0527371Y0404901D01*
X0527121Y0012200D01*
X0007200Y0012200D01*
X0015901Y0027200D02*
X0015903Y0027358D01*
X0015909Y0027516D01*
X0015919Y0027674D01*
X0015933Y0027832D01*
X0015951Y0027989D01*
X0015972Y0028146D01*
X0015998Y0028302D01*
X0016028Y0028458D01*
X0016061Y0028613D01*
X0016099Y0028766D01*
X0016140Y0028919D01*
X0016185Y0029071D01*
X0016234Y0029222D01*
X0016287Y0029371D01*
X0016343Y0029519D01*
X0016403Y0029665D01*
X0016467Y0029810D01*
X0016535Y0029953D01*
X0016606Y0030095D01*
X0016680Y0030235D01*
X0016758Y0030372D01*
X0016840Y0030508D01*
X0016924Y0030642D01*
X0017013Y0030773D01*
X0017104Y0030902D01*
X0017199Y0031029D01*
X0017296Y0031154D01*
X0017397Y0031276D01*
X0017501Y0031395D01*
X0017608Y0031512D01*
X0017718Y0031626D01*
X0017831Y0031737D01*
X0017946Y0031846D01*
X0018064Y0031951D01*
X0018185Y0032053D01*
X0018308Y0032153D01*
X0018434Y0032249D01*
X0018562Y0032342D01*
X0018692Y0032432D01*
X0018825Y0032518D01*
X0018960Y0032602D01*
X0019096Y0032681D01*
X0019235Y0032758D01*
X0019376Y0032830D01*
X0019518Y0032900D01*
X0019662Y0032965D01*
X0019808Y0033027D01*
X0019955Y0033085D01*
X0020104Y0033140D01*
X0020254Y0033191D01*
X0020405Y0033238D01*
X0020557Y0033281D01*
X0020710Y0033320D01*
X0020865Y0033356D01*
X0021020Y0033387D01*
X0021176Y0033415D01*
X0021332Y0033439D01*
X0021489Y0033459D01*
X0021647Y0033475D01*
X0021804Y0033487D01*
X0021963Y0033495D01*
X0022121Y0033499D01*
X0022279Y0033499D01*
X0022437Y0033495D01*
X0022596Y0033487D01*
X0022753Y0033475D01*
X0022911Y0033459D01*
X0023068Y0033439D01*
X0023224Y0033415D01*
X0023380Y0033387D01*
X0023535Y0033356D01*
X0023690Y0033320D01*
X0023843Y0033281D01*
X0023995Y0033238D01*
X0024146Y0033191D01*
X0024296Y0033140D01*
X0024445Y0033085D01*
X0024592Y0033027D01*
X0024738Y0032965D01*
X0024882Y0032900D01*
X0025024Y0032830D01*
X0025165Y0032758D01*
X0025304Y0032681D01*
X0025440Y0032602D01*
X0025575Y0032518D01*
X0025708Y0032432D01*
X0025838Y0032342D01*
X0025966Y0032249D01*
X0026092Y0032153D01*
X0026215Y0032053D01*
X0026336Y0031951D01*
X0026454Y0031846D01*
X0026569Y0031737D01*
X0026682Y0031626D01*
X0026792Y0031512D01*
X0026899Y0031395D01*
X0027003Y0031276D01*
X0027104Y0031154D01*
X0027201Y0031029D01*
X0027296Y0030902D01*
X0027387Y0030773D01*
X0027476Y0030642D01*
X0027560Y0030508D01*
X0027642Y0030372D01*
X0027720Y0030235D01*
X0027794Y0030095D01*
X0027865Y0029953D01*
X0027933Y0029810D01*
X0027997Y0029665D01*
X0028057Y0029519D01*
X0028113Y0029371D01*
X0028166Y0029222D01*
X0028215Y0029071D01*
X0028260Y0028919D01*
X0028301Y0028766D01*
X0028339Y0028613D01*
X0028372Y0028458D01*
X0028402Y0028302D01*
X0028428Y0028146D01*
X0028449Y0027989D01*
X0028467Y0027832D01*
X0028481Y0027674D01*
X0028491Y0027516D01*
X0028497Y0027358D01*
X0028499Y0027200D01*
X0028497Y0027042D01*
X0028491Y0026884D01*
X0028481Y0026726D01*
X0028467Y0026568D01*
X0028449Y0026411D01*
X0028428Y0026254D01*
X0028402Y0026098D01*
X0028372Y0025942D01*
X0028339Y0025787D01*
X0028301Y0025634D01*
X0028260Y0025481D01*
X0028215Y0025329D01*
X0028166Y0025178D01*
X0028113Y0025029D01*
X0028057Y0024881D01*
X0027997Y0024735D01*
X0027933Y0024590D01*
X0027865Y0024447D01*
X0027794Y0024305D01*
X0027720Y0024165D01*
X0027642Y0024028D01*
X0027560Y0023892D01*
X0027476Y0023758D01*
X0027387Y0023627D01*
X0027296Y0023498D01*
X0027201Y0023371D01*
X0027104Y0023246D01*
X0027003Y0023124D01*
X0026899Y0023005D01*
X0026792Y0022888D01*
X0026682Y0022774D01*
X0026569Y0022663D01*
X0026454Y0022554D01*
X0026336Y0022449D01*
X0026215Y0022347D01*
X0026092Y0022247D01*
X0025966Y0022151D01*
X0025838Y0022058D01*
X0025708Y0021968D01*
X0025575Y0021882D01*
X0025440Y0021798D01*
X0025304Y0021719D01*
X0025165Y0021642D01*
X0025024Y0021570D01*
X0024882Y0021500D01*
X0024738Y0021435D01*
X0024592Y0021373D01*
X0024445Y0021315D01*
X0024296Y0021260D01*
X0024146Y0021209D01*
X0023995Y0021162D01*
X0023843Y0021119D01*
X0023690Y0021080D01*
X0023535Y0021044D01*
X0023380Y0021013D01*
X0023224Y0020985D01*
X0023068Y0020961D01*
X0022911Y0020941D01*
X0022753Y0020925D01*
X0022596Y0020913D01*
X0022437Y0020905D01*
X0022279Y0020901D01*
X0022121Y0020901D01*
X0021963Y0020905D01*
X0021804Y0020913D01*
X0021647Y0020925D01*
X0021489Y0020941D01*
X0021332Y0020961D01*
X0021176Y0020985D01*
X0021020Y0021013D01*
X0020865Y0021044D01*
X0020710Y0021080D01*
X0020557Y0021119D01*
X0020405Y0021162D01*
X0020254Y0021209D01*
X0020104Y0021260D01*
X0019955Y0021315D01*
X0019808Y0021373D01*
X0019662Y0021435D01*
X0019518Y0021500D01*
X0019376Y0021570D01*
X0019235Y0021642D01*
X0019096Y0021719D01*
X0018960Y0021798D01*
X0018825Y0021882D01*
X0018692Y0021968D01*
X0018562Y0022058D01*
X0018434Y0022151D01*
X0018308Y0022247D01*
X0018185Y0022347D01*
X0018064Y0022449D01*
X0017946Y0022554D01*
X0017831Y0022663D01*
X0017718Y0022774D01*
X0017608Y0022888D01*
X0017501Y0023005D01*
X0017397Y0023124D01*
X0017296Y0023246D01*
X0017199Y0023371D01*
X0017104Y0023498D01*
X0017013Y0023627D01*
X0016924Y0023758D01*
X0016840Y0023892D01*
X0016758Y0024028D01*
X0016680Y0024165D01*
X0016606Y0024305D01*
X0016535Y0024447D01*
X0016467Y0024590D01*
X0016403Y0024735D01*
X0016343Y0024881D01*
X0016287Y0025029D01*
X0016234Y0025178D01*
X0016185Y0025329D01*
X0016140Y0025481D01*
X0016099Y0025634D01*
X0016061Y0025787D01*
X0016028Y0025942D01*
X0015998Y0026098D01*
X0015972Y0026254D01*
X0015951Y0026411D01*
X0015933Y0026568D01*
X0015919Y0026726D01*
X0015909Y0026884D01*
X0015903Y0027042D01*
X0015901Y0027200D01*
X0015901Y0352200D02*
X0015903Y0352358D01*
X0015909Y0352516D01*
X0015919Y0352674D01*
X0015933Y0352832D01*
X0015951Y0352989D01*
X0015972Y0353146D01*
X0015998Y0353302D01*
X0016028Y0353458D01*
X0016061Y0353613D01*
X0016099Y0353766D01*
X0016140Y0353919D01*
X0016185Y0354071D01*
X0016234Y0354222D01*
X0016287Y0354371D01*
X0016343Y0354519D01*
X0016403Y0354665D01*
X0016467Y0354810D01*
X0016535Y0354953D01*
X0016606Y0355095D01*
X0016680Y0355235D01*
X0016758Y0355372D01*
X0016840Y0355508D01*
X0016924Y0355642D01*
X0017013Y0355773D01*
X0017104Y0355902D01*
X0017199Y0356029D01*
X0017296Y0356154D01*
X0017397Y0356276D01*
X0017501Y0356395D01*
X0017608Y0356512D01*
X0017718Y0356626D01*
X0017831Y0356737D01*
X0017946Y0356846D01*
X0018064Y0356951D01*
X0018185Y0357053D01*
X0018308Y0357153D01*
X0018434Y0357249D01*
X0018562Y0357342D01*
X0018692Y0357432D01*
X0018825Y0357518D01*
X0018960Y0357602D01*
X0019096Y0357681D01*
X0019235Y0357758D01*
X0019376Y0357830D01*
X0019518Y0357900D01*
X0019662Y0357965D01*
X0019808Y0358027D01*
X0019955Y0358085D01*
X0020104Y0358140D01*
X0020254Y0358191D01*
X0020405Y0358238D01*
X0020557Y0358281D01*
X0020710Y0358320D01*
X0020865Y0358356D01*
X0021020Y0358387D01*
X0021176Y0358415D01*
X0021332Y0358439D01*
X0021489Y0358459D01*
X0021647Y0358475D01*
X0021804Y0358487D01*
X0021963Y0358495D01*
X0022121Y0358499D01*
X0022279Y0358499D01*
X0022437Y0358495D01*
X0022596Y0358487D01*
X0022753Y0358475D01*
X0022911Y0358459D01*
X0023068Y0358439D01*
X0023224Y0358415D01*
X0023380Y0358387D01*
X0023535Y0358356D01*
X0023690Y0358320D01*
X0023843Y0358281D01*
X0023995Y0358238D01*
X0024146Y0358191D01*
X0024296Y0358140D01*
X0024445Y0358085D01*
X0024592Y0358027D01*
X0024738Y0357965D01*
X0024882Y0357900D01*
X0025024Y0357830D01*
X0025165Y0357758D01*
X0025304Y0357681D01*
X0025440Y0357602D01*
X0025575Y0357518D01*
X0025708Y0357432D01*
X0025838Y0357342D01*
X0025966Y0357249D01*
X0026092Y0357153D01*
X0026215Y0357053D01*
X0026336Y0356951D01*
X0026454Y0356846D01*
X0026569Y0356737D01*
X0026682Y0356626D01*
X0026792Y0356512D01*
X0026899Y0356395D01*
X0027003Y0356276D01*
X0027104Y0356154D01*
X0027201Y0356029D01*
X0027296Y0355902D01*
X0027387Y0355773D01*
X0027476Y0355642D01*
X0027560Y0355508D01*
X0027642Y0355372D01*
X0027720Y0355235D01*
X0027794Y0355095D01*
X0027865Y0354953D01*
X0027933Y0354810D01*
X0027997Y0354665D01*
X0028057Y0354519D01*
X0028113Y0354371D01*
X0028166Y0354222D01*
X0028215Y0354071D01*
X0028260Y0353919D01*
X0028301Y0353766D01*
X0028339Y0353613D01*
X0028372Y0353458D01*
X0028402Y0353302D01*
X0028428Y0353146D01*
X0028449Y0352989D01*
X0028467Y0352832D01*
X0028481Y0352674D01*
X0028491Y0352516D01*
X0028497Y0352358D01*
X0028499Y0352200D01*
X0028497Y0352042D01*
X0028491Y0351884D01*
X0028481Y0351726D01*
X0028467Y0351568D01*
X0028449Y0351411D01*
X0028428Y0351254D01*
X0028402Y0351098D01*
X0028372Y0350942D01*
X0028339Y0350787D01*
X0028301Y0350634D01*
X0028260Y0350481D01*
X0028215Y0350329D01*
X0028166Y0350178D01*
X0028113Y0350029D01*
X0028057Y0349881D01*
X0027997Y0349735D01*
X0027933Y0349590D01*
X0027865Y0349447D01*
X0027794Y0349305D01*
X0027720Y0349165D01*
X0027642Y0349028D01*
X0027560Y0348892D01*
X0027476Y0348758D01*
X0027387Y0348627D01*
X0027296Y0348498D01*
X0027201Y0348371D01*
X0027104Y0348246D01*
X0027003Y0348124D01*
X0026899Y0348005D01*
X0026792Y0347888D01*
X0026682Y0347774D01*
X0026569Y0347663D01*
X0026454Y0347554D01*
X0026336Y0347449D01*
X0026215Y0347347D01*
X0026092Y0347247D01*
X0025966Y0347151D01*
X0025838Y0347058D01*
X0025708Y0346968D01*
X0025575Y0346882D01*
X0025440Y0346798D01*
X0025304Y0346719D01*
X0025165Y0346642D01*
X0025024Y0346570D01*
X0024882Y0346500D01*
X0024738Y0346435D01*
X0024592Y0346373D01*
X0024445Y0346315D01*
X0024296Y0346260D01*
X0024146Y0346209D01*
X0023995Y0346162D01*
X0023843Y0346119D01*
X0023690Y0346080D01*
X0023535Y0346044D01*
X0023380Y0346013D01*
X0023224Y0345985D01*
X0023068Y0345961D01*
X0022911Y0345941D01*
X0022753Y0345925D01*
X0022596Y0345913D01*
X0022437Y0345905D01*
X0022279Y0345901D01*
X0022121Y0345901D01*
X0021963Y0345905D01*
X0021804Y0345913D01*
X0021647Y0345925D01*
X0021489Y0345941D01*
X0021332Y0345961D01*
X0021176Y0345985D01*
X0021020Y0346013D01*
X0020865Y0346044D01*
X0020710Y0346080D01*
X0020557Y0346119D01*
X0020405Y0346162D01*
X0020254Y0346209D01*
X0020104Y0346260D01*
X0019955Y0346315D01*
X0019808Y0346373D01*
X0019662Y0346435D01*
X0019518Y0346500D01*
X0019376Y0346570D01*
X0019235Y0346642D01*
X0019096Y0346719D01*
X0018960Y0346798D01*
X0018825Y0346882D01*
X0018692Y0346968D01*
X0018562Y0347058D01*
X0018434Y0347151D01*
X0018308Y0347247D01*
X0018185Y0347347D01*
X0018064Y0347449D01*
X0017946Y0347554D01*
X0017831Y0347663D01*
X0017718Y0347774D01*
X0017608Y0347888D01*
X0017501Y0348005D01*
X0017397Y0348124D01*
X0017296Y0348246D01*
X0017199Y0348371D01*
X0017104Y0348498D01*
X0017013Y0348627D01*
X0016924Y0348758D01*
X0016840Y0348892D01*
X0016758Y0349028D01*
X0016680Y0349165D01*
X0016606Y0349305D01*
X0016535Y0349447D01*
X0016467Y0349590D01*
X0016403Y0349735D01*
X0016343Y0349881D01*
X0016287Y0350029D01*
X0016234Y0350178D01*
X0016185Y0350329D01*
X0016140Y0350481D01*
X0016099Y0350634D01*
X0016061Y0350787D01*
X0016028Y0350942D01*
X0015998Y0351098D01*
X0015972Y0351254D01*
X0015951Y0351411D01*
X0015933Y0351568D01*
X0015919Y0351726D01*
X0015909Y0351884D01*
X0015903Y0352042D01*
X0015901Y0352200D01*
X0058676Y0394533D02*
X0058678Y0394686D01*
X0058684Y0394840D01*
X0058694Y0394993D01*
X0058708Y0395145D01*
X0058726Y0395298D01*
X0058748Y0395449D01*
X0058773Y0395600D01*
X0058803Y0395751D01*
X0058837Y0395901D01*
X0058874Y0396049D01*
X0058915Y0396197D01*
X0058960Y0396343D01*
X0059009Y0396489D01*
X0059062Y0396633D01*
X0059118Y0396775D01*
X0059178Y0396916D01*
X0059242Y0397056D01*
X0059309Y0397194D01*
X0059380Y0397330D01*
X0059455Y0397464D01*
X0059532Y0397596D01*
X0059614Y0397726D01*
X0059698Y0397854D01*
X0059786Y0397980D01*
X0059877Y0398103D01*
X0059971Y0398224D01*
X0060069Y0398342D01*
X0060169Y0398458D01*
X0060273Y0398571D01*
X0060379Y0398682D01*
X0060488Y0398790D01*
X0060600Y0398895D01*
X0060714Y0398996D01*
X0060832Y0399095D01*
X0060951Y0399191D01*
X0061073Y0399284D01*
X0061198Y0399373D01*
X0061325Y0399460D01*
X0061454Y0399542D01*
X0061585Y0399622D01*
X0061718Y0399698D01*
X0061853Y0399771D01*
X0061990Y0399840D01*
X0062129Y0399905D01*
X0062269Y0399967D01*
X0062411Y0400025D01*
X0062554Y0400080D01*
X0062699Y0400131D01*
X0062845Y0400178D01*
X0062992Y0400221D01*
X0063140Y0400260D01*
X0063289Y0400296D01*
X0063439Y0400327D01*
X0063590Y0400355D01*
X0063741Y0400379D01*
X0063894Y0400399D01*
X0064046Y0400415D01*
X0064199Y0400427D01*
X0064352Y0400435D01*
X0064505Y0400439D01*
X0064659Y0400439D01*
X0064812Y0400435D01*
X0064965Y0400427D01*
X0065118Y0400415D01*
X0065270Y0400399D01*
X0065423Y0400379D01*
X0065574Y0400355D01*
X0065725Y0400327D01*
X0065875Y0400296D01*
X0066024Y0400260D01*
X0066172Y0400221D01*
X0066319Y0400178D01*
X0066465Y0400131D01*
X0066610Y0400080D01*
X0066753Y0400025D01*
X0066895Y0399967D01*
X0067035Y0399905D01*
X0067174Y0399840D01*
X0067311Y0399771D01*
X0067446Y0399698D01*
X0067579Y0399622D01*
X0067710Y0399542D01*
X0067839Y0399460D01*
X0067966Y0399373D01*
X0068091Y0399284D01*
X0068213Y0399191D01*
X0068332Y0399095D01*
X0068450Y0398996D01*
X0068564Y0398895D01*
X0068676Y0398790D01*
X0068785Y0398682D01*
X0068891Y0398571D01*
X0068995Y0398458D01*
X0069095Y0398342D01*
X0069193Y0398224D01*
X0069287Y0398103D01*
X0069378Y0397980D01*
X0069466Y0397854D01*
X0069550Y0397726D01*
X0069632Y0397596D01*
X0069709Y0397464D01*
X0069784Y0397330D01*
X0069855Y0397194D01*
X0069922Y0397056D01*
X0069986Y0396916D01*
X0070046Y0396775D01*
X0070102Y0396633D01*
X0070155Y0396489D01*
X0070204Y0396343D01*
X0070249Y0396197D01*
X0070290Y0396049D01*
X0070327Y0395901D01*
X0070361Y0395751D01*
X0070391Y0395600D01*
X0070416Y0395449D01*
X0070438Y0395298D01*
X0070456Y0395145D01*
X0070470Y0394993D01*
X0070480Y0394840D01*
X0070486Y0394686D01*
X0070488Y0394533D01*
X0070486Y0394380D01*
X0070480Y0394226D01*
X0070470Y0394073D01*
X0070456Y0393921D01*
X0070438Y0393768D01*
X0070416Y0393617D01*
X0070391Y0393466D01*
X0070361Y0393315D01*
X0070327Y0393165D01*
X0070290Y0393017D01*
X0070249Y0392869D01*
X0070204Y0392723D01*
X0070155Y0392577D01*
X0070102Y0392433D01*
X0070046Y0392291D01*
X0069986Y0392150D01*
X0069922Y0392010D01*
X0069855Y0391872D01*
X0069784Y0391736D01*
X0069709Y0391602D01*
X0069632Y0391470D01*
X0069550Y0391340D01*
X0069466Y0391212D01*
X0069378Y0391086D01*
X0069287Y0390963D01*
X0069193Y0390842D01*
X0069095Y0390724D01*
X0068995Y0390608D01*
X0068891Y0390495D01*
X0068785Y0390384D01*
X0068676Y0390276D01*
X0068564Y0390171D01*
X0068450Y0390070D01*
X0068332Y0389971D01*
X0068213Y0389875D01*
X0068091Y0389782D01*
X0067966Y0389693D01*
X0067839Y0389606D01*
X0067710Y0389524D01*
X0067579Y0389444D01*
X0067446Y0389368D01*
X0067311Y0389295D01*
X0067174Y0389226D01*
X0067035Y0389161D01*
X0066895Y0389099D01*
X0066753Y0389041D01*
X0066610Y0388986D01*
X0066465Y0388935D01*
X0066319Y0388888D01*
X0066172Y0388845D01*
X0066024Y0388806D01*
X0065875Y0388770D01*
X0065725Y0388739D01*
X0065574Y0388711D01*
X0065423Y0388687D01*
X0065270Y0388667D01*
X0065118Y0388651D01*
X0064965Y0388639D01*
X0064812Y0388631D01*
X0064659Y0388627D01*
X0064505Y0388627D01*
X0064352Y0388631D01*
X0064199Y0388639D01*
X0064046Y0388651D01*
X0063894Y0388667D01*
X0063741Y0388687D01*
X0063590Y0388711D01*
X0063439Y0388739D01*
X0063289Y0388770D01*
X0063140Y0388806D01*
X0062992Y0388845D01*
X0062845Y0388888D01*
X0062699Y0388935D01*
X0062554Y0388986D01*
X0062411Y0389041D01*
X0062269Y0389099D01*
X0062129Y0389161D01*
X0061990Y0389226D01*
X0061853Y0389295D01*
X0061718Y0389368D01*
X0061585Y0389444D01*
X0061454Y0389524D01*
X0061325Y0389606D01*
X0061198Y0389693D01*
X0061073Y0389782D01*
X0060951Y0389875D01*
X0060832Y0389971D01*
X0060714Y0390070D01*
X0060600Y0390171D01*
X0060488Y0390276D01*
X0060379Y0390384D01*
X0060273Y0390495D01*
X0060169Y0390608D01*
X0060069Y0390724D01*
X0059971Y0390842D01*
X0059877Y0390963D01*
X0059786Y0391086D01*
X0059698Y0391212D01*
X0059614Y0391340D01*
X0059532Y0391470D01*
X0059455Y0391602D01*
X0059380Y0391736D01*
X0059309Y0391872D01*
X0059242Y0392010D01*
X0059178Y0392150D01*
X0059118Y0392291D01*
X0059062Y0392433D01*
X0059009Y0392577D01*
X0058960Y0392723D01*
X0058915Y0392869D01*
X0058874Y0393017D01*
X0058837Y0393165D01*
X0058803Y0393315D01*
X0058773Y0393466D01*
X0058748Y0393617D01*
X0058726Y0393768D01*
X0058708Y0393921D01*
X0058694Y0394073D01*
X0058684Y0394226D01*
X0058678Y0394380D01*
X0058676Y0394533D01*
X0088912Y0394533D02*
X0088914Y0394686D01*
X0088920Y0394840D01*
X0088930Y0394993D01*
X0088944Y0395145D01*
X0088962Y0395298D01*
X0088984Y0395449D01*
X0089009Y0395600D01*
X0089039Y0395751D01*
X0089073Y0395901D01*
X0089110Y0396049D01*
X0089151Y0396197D01*
X0089196Y0396343D01*
X0089245Y0396489D01*
X0089298Y0396633D01*
X0089354Y0396775D01*
X0089414Y0396916D01*
X0089478Y0397056D01*
X0089545Y0397194D01*
X0089616Y0397330D01*
X0089691Y0397464D01*
X0089768Y0397596D01*
X0089850Y0397726D01*
X0089934Y0397854D01*
X0090022Y0397980D01*
X0090113Y0398103D01*
X0090207Y0398224D01*
X0090305Y0398342D01*
X0090405Y0398458D01*
X0090509Y0398571D01*
X0090615Y0398682D01*
X0090724Y0398790D01*
X0090836Y0398895D01*
X0090950Y0398996D01*
X0091068Y0399095D01*
X0091187Y0399191D01*
X0091309Y0399284D01*
X0091434Y0399373D01*
X0091561Y0399460D01*
X0091690Y0399542D01*
X0091821Y0399622D01*
X0091954Y0399698D01*
X0092089Y0399771D01*
X0092226Y0399840D01*
X0092365Y0399905D01*
X0092505Y0399967D01*
X0092647Y0400025D01*
X0092790Y0400080D01*
X0092935Y0400131D01*
X0093081Y0400178D01*
X0093228Y0400221D01*
X0093376Y0400260D01*
X0093525Y0400296D01*
X0093675Y0400327D01*
X0093826Y0400355D01*
X0093977Y0400379D01*
X0094130Y0400399D01*
X0094282Y0400415D01*
X0094435Y0400427D01*
X0094588Y0400435D01*
X0094741Y0400439D01*
X0094895Y0400439D01*
X0095048Y0400435D01*
X0095201Y0400427D01*
X0095354Y0400415D01*
X0095506Y0400399D01*
X0095659Y0400379D01*
X0095810Y0400355D01*
X0095961Y0400327D01*
X0096111Y0400296D01*
X0096260Y0400260D01*
X0096408Y0400221D01*
X0096555Y0400178D01*
X0096701Y0400131D01*
X0096846Y0400080D01*
X0096989Y0400025D01*
X0097131Y0399967D01*
X0097271Y0399905D01*
X0097410Y0399840D01*
X0097547Y0399771D01*
X0097682Y0399698D01*
X0097815Y0399622D01*
X0097946Y0399542D01*
X0098075Y0399460D01*
X0098202Y0399373D01*
X0098327Y0399284D01*
X0098449Y0399191D01*
X0098568Y0399095D01*
X0098686Y0398996D01*
X0098800Y0398895D01*
X0098912Y0398790D01*
X0099021Y0398682D01*
X0099127Y0398571D01*
X0099231Y0398458D01*
X0099331Y0398342D01*
X0099429Y0398224D01*
X0099523Y0398103D01*
X0099614Y0397980D01*
X0099702Y0397854D01*
X0099786Y0397726D01*
X0099868Y0397596D01*
X0099945Y0397464D01*
X0100020Y0397330D01*
X0100091Y0397194D01*
X0100158Y0397056D01*
X0100222Y0396916D01*
X0100282Y0396775D01*
X0100338Y0396633D01*
X0100391Y0396489D01*
X0100440Y0396343D01*
X0100485Y0396197D01*
X0100526Y0396049D01*
X0100563Y0395901D01*
X0100597Y0395751D01*
X0100627Y0395600D01*
X0100652Y0395449D01*
X0100674Y0395298D01*
X0100692Y0395145D01*
X0100706Y0394993D01*
X0100716Y0394840D01*
X0100722Y0394686D01*
X0100724Y0394533D01*
X0100722Y0394380D01*
X0100716Y0394226D01*
X0100706Y0394073D01*
X0100692Y0393921D01*
X0100674Y0393768D01*
X0100652Y0393617D01*
X0100627Y0393466D01*
X0100597Y0393315D01*
X0100563Y0393165D01*
X0100526Y0393017D01*
X0100485Y0392869D01*
X0100440Y0392723D01*
X0100391Y0392577D01*
X0100338Y0392433D01*
X0100282Y0392291D01*
X0100222Y0392150D01*
X0100158Y0392010D01*
X0100091Y0391872D01*
X0100020Y0391736D01*
X0099945Y0391602D01*
X0099868Y0391470D01*
X0099786Y0391340D01*
X0099702Y0391212D01*
X0099614Y0391086D01*
X0099523Y0390963D01*
X0099429Y0390842D01*
X0099331Y0390724D01*
X0099231Y0390608D01*
X0099127Y0390495D01*
X0099021Y0390384D01*
X0098912Y0390276D01*
X0098800Y0390171D01*
X0098686Y0390070D01*
X0098568Y0389971D01*
X0098449Y0389875D01*
X0098327Y0389782D01*
X0098202Y0389693D01*
X0098075Y0389606D01*
X0097946Y0389524D01*
X0097815Y0389444D01*
X0097682Y0389368D01*
X0097547Y0389295D01*
X0097410Y0389226D01*
X0097271Y0389161D01*
X0097131Y0389099D01*
X0096989Y0389041D01*
X0096846Y0388986D01*
X0096701Y0388935D01*
X0096555Y0388888D01*
X0096408Y0388845D01*
X0096260Y0388806D01*
X0096111Y0388770D01*
X0095961Y0388739D01*
X0095810Y0388711D01*
X0095659Y0388687D01*
X0095506Y0388667D01*
X0095354Y0388651D01*
X0095201Y0388639D01*
X0095048Y0388631D01*
X0094895Y0388627D01*
X0094741Y0388627D01*
X0094588Y0388631D01*
X0094435Y0388639D01*
X0094282Y0388651D01*
X0094130Y0388667D01*
X0093977Y0388687D01*
X0093826Y0388711D01*
X0093675Y0388739D01*
X0093525Y0388770D01*
X0093376Y0388806D01*
X0093228Y0388845D01*
X0093081Y0388888D01*
X0092935Y0388935D01*
X0092790Y0388986D01*
X0092647Y0389041D01*
X0092505Y0389099D01*
X0092365Y0389161D01*
X0092226Y0389226D01*
X0092089Y0389295D01*
X0091954Y0389368D01*
X0091821Y0389444D01*
X0091690Y0389524D01*
X0091561Y0389606D01*
X0091434Y0389693D01*
X0091309Y0389782D01*
X0091187Y0389875D01*
X0091068Y0389971D01*
X0090950Y0390070D01*
X0090836Y0390171D01*
X0090724Y0390276D01*
X0090615Y0390384D01*
X0090509Y0390495D01*
X0090405Y0390608D01*
X0090305Y0390724D01*
X0090207Y0390842D01*
X0090113Y0390963D01*
X0090022Y0391086D01*
X0089934Y0391212D01*
X0089850Y0391340D01*
X0089768Y0391470D01*
X0089691Y0391602D01*
X0089616Y0391736D01*
X0089545Y0391872D01*
X0089478Y0392010D01*
X0089414Y0392150D01*
X0089354Y0392291D01*
X0089298Y0392433D01*
X0089245Y0392577D01*
X0089196Y0392723D01*
X0089151Y0392869D01*
X0089110Y0393017D01*
X0089073Y0393165D01*
X0089039Y0393315D01*
X0089009Y0393466D01*
X0088984Y0393617D01*
X0088962Y0393768D01*
X0088944Y0393921D01*
X0088930Y0394073D01*
X0088920Y0394226D01*
X0088914Y0394380D01*
X0088912Y0394533D01*
X0148304Y0394783D02*
X0148306Y0394936D01*
X0148312Y0395090D01*
X0148322Y0395243D01*
X0148336Y0395395D01*
X0148354Y0395548D01*
X0148376Y0395699D01*
X0148401Y0395850D01*
X0148431Y0396001D01*
X0148465Y0396151D01*
X0148502Y0396299D01*
X0148543Y0396447D01*
X0148588Y0396593D01*
X0148637Y0396739D01*
X0148690Y0396883D01*
X0148746Y0397025D01*
X0148806Y0397166D01*
X0148870Y0397306D01*
X0148937Y0397444D01*
X0149008Y0397580D01*
X0149083Y0397714D01*
X0149160Y0397846D01*
X0149242Y0397976D01*
X0149326Y0398104D01*
X0149414Y0398230D01*
X0149505Y0398353D01*
X0149599Y0398474D01*
X0149697Y0398592D01*
X0149797Y0398708D01*
X0149901Y0398821D01*
X0150007Y0398932D01*
X0150116Y0399040D01*
X0150228Y0399145D01*
X0150342Y0399246D01*
X0150460Y0399345D01*
X0150579Y0399441D01*
X0150701Y0399534D01*
X0150826Y0399623D01*
X0150953Y0399710D01*
X0151082Y0399792D01*
X0151213Y0399872D01*
X0151346Y0399948D01*
X0151481Y0400021D01*
X0151618Y0400090D01*
X0151757Y0400155D01*
X0151897Y0400217D01*
X0152039Y0400275D01*
X0152182Y0400330D01*
X0152327Y0400381D01*
X0152473Y0400428D01*
X0152620Y0400471D01*
X0152768Y0400510D01*
X0152917Y0400546D01*
X0153067Y0400577D01*
X0153218Y0400605D01*
X0153369Y0400629D01*
X0153522Y0400649D01*
X0153674Y0400665D01*
X0153827Y0400677D01*
X0153980Y0400685D01*
X0154133Y0400689D01*
X0154287Y0400689D01*
X0154440Y0400685D01*
X0154593Y0400677D01*
X0154746Y0400665D01*
X0154898Y0400649D01*
X0155051Y0400629D01*
X0155202Y0400605D01*
X0155353Y0400577D01*
X0155503Y0400546D01*
X0155652Y0400510D01*
X0155800Y0400471D01*
X0155947Y0400428D01*
X0156093Y0400381D01*
X0156238Y0400330D01*
X0156381Y0400275D01*
X0156523Y0400217D01*
X0156663Y0400155D01*
X0156802Y0400090D01*
X0156939Y0400021D01*
X0157074Y0399948D01*
X0157207Y0399872D01*
X0157338Y0399792D01*
X0157467Y0399710D01*
X0157594Y0399623D01*
X0157719Y0399534D01*
X0157841Y0399441D01*
X0157960Y0399345D01*
X0158078Y0399246D01*
X0158192Y0399145D01*
X0158304Y0399040D01*
X0158413Y0398932D01*
X0158519Y0398821D01*
X0158623Y0398708D01*
X0158723Y0398592D01*
X0158821Y0398474D01*
X0158915Y0398353D01*
X0159006Y0398230D01*
X0159094Y0398104D01*
X0159178Y0397976D01*
X0159260Y0397846D01*
X0159337Y0397714D01*
X0159412Y0397580D01*
X0159483Y0397444D01*
X0159550Y0397306D01*
X0159614Y0397166D01*
X0159674Y0397025D01*
X0159730Y0396883D01*
X0159783Y0396739D01*
X0159832Y0396593D01*
X0159877Y0396447D01*
X0159918Y0396299D01*
X0159955Y0396151D01*
X0159989Y0396001D01*
X0160019Y0395850D01*
X0160044Y0395699D01*
X0160066Y0395548D01*
X0160084Y0395395D01*
X0160098Y0395243D01*
X0160108Y0395090D01*
X0160114Y0394936D01*
X0160116Y0394783D01*
X0160114Y0394630D01*
X0160108Y0394476D01*
X0160098Y0394323D01*
X0160084Y0394171D01*
X0160066Y0394018D01*
X0160044Y0393867D01*
X0160019Y0393716D01*
X0159989Y0393565D01*
X0159955Y0393415D01*
X0159918Y0393267D01*
X0159877Y0393119D01*
X0159832Y0392973D01*
X0159783Y0392827D01*
X0159730Y0392683D01*
X0159674Y0392541D01*
X0159614Y0392400D01*
X0159550Y0392260D01*
X0159483Y0392122D01*
X0159412Y0391986D01*
X0159337Y0391852D01*
X0159260Y0391720D01*
X0159178Y0391590D01*
X0159094Y0391462D01*
X0159006Y0391336D01*
X0158915Y0391213D01*
X0158821Y0391092D01*
X0158723Y0390974D01*
X0158623Y0390858D01*
X0158519Y0390745D01*
X0158413Y0390634D01*
X0158304Y0390526D01*
X0158192Y0390421D01*
X0158078Y0390320D01*
X0157960Y0390221D01*
X0157841Y0390125D01*
X0157719Y0390032D01*
X0157594Y0389943D01*
X0157467Y0389856D01*
X0157338Y0389774D01*
X0157207Y0389694D01*
X0157074Y0389618D01*
X0156939Y0389545D01*
X0156802Y0389476D01*
X0156663Y0389411D01*
X0156523Y0389349D01*
X0156381Y0389291D01*
X0156238Y0389236D01*
X0156093Y0389185D01*
X0155947Y0389138D01*
X0155800Y0389095D01*
X0155652Y0389056D01*
X0155503Y0389020D01*
X0155353Y0388989D01*
X0155202Y0388961D01*
X0155051Y0388937D01*
X0154898Y0388917D01*
X0154746Y0388901D01*
X0154593Y0388889D01*
X0154440Y0388881D01*
X0154287Y0388877D01*
X0154133Y0388877D01*
X0153980Y0388881D01*
X0153827Y0388889D01*
X0153674Y0388901D01*
X0153522Y0388917D01*
X0153369Y0388937D01*
X0153218Y0388961D01*
X0153067Y0388989D01*
X0152917Y0389020D01*
X0152768Y0389056D01*
X0152620Y0389095D01*
X0152473Y0389138D01*
X0152327Y0389185D01*
X0152182Y0389236D01*
X0152039Y0389291D01*
X0151897Y0389349D01*
X0151757Y0389411D01*
X0151618Y0389476D01*
X0151481Y0389545D01*
X0151346Y0389618D01*
X0151213Y0389694D01*
X0151082Y0389774D01*
X0150953Y0389856D01*
X0150826Y0389943D01*
X0150701Y0390032D01*
X0150579Y0390125D01*
X0150460Y0390221D01*
X0150342Y0390320D01*
X0150228Y0390421D01*
X0150116Y0390526D01*
X0150007Y0390634D01*
X0149901Y0390745D01*
X0149797Y0390858D01*
X0149697Y0390974D01*
X0149599Y0391092D01*
X0149505Y0391213D01*
X0149414Y0391336D01*
X0149326Y0391462D01*
X0149242Y0391590D01*
X0149160Y0391720D01*
X0149083Y0391852D01*
X0149008Y0391986D01*
X0148937Y0392122D01*
X0148870Y0392260D01*
X0148806Y0392400D01*
X0148746Y0392541D01*
X0148690Y0392683D01*
X0148637Y0392827D01*
X0148588Y0392973D01*
X0148543Y0393119D01*
X0148502Y0393267D01*
X0148465Y0393415D01*
X0148431Y0393565D01*
X0148401Y0393716D01*
X0148376Y0393867D01*
X0148354Y0394018D01*
X0148336Y0394171D01*
X0148322Y0394323D01*
X0148312Y0394476D01*
X0148306Y0394630D01*
X0148304Y0394783D01*
X0225784Y0394783D02*
X0225786Y0394936D01*
X0225792Y0395090D01*
X0225802Y0395243D01*
X0225816Y0395395D01*
X0225834Y0395548D01*
X0225856Y0395699D01*
X0225881Y0395850D01*
X0225911Y0396001D01*
X0225945Y0396151D01*
X0225982Y0396299D01*
X0226023Y0396447D01*
X0226068Y0396593D01*
X0226117Y0396739D01*
X0226170Y0396883D01*
X0226226Y0397025D01*
X0226286Y0397166D01*
X0226350Y0397306D01*
X0226417Y0397444D01*
X0226488Y0397580D01*
X0226563Y0397714D01*
X0226640Y0397846D01*
X0226722Y0397976D01*
X0226806Y0398104D01*
X0226894Y0398230D01*
X0226985Y0398353D01*
X0227079Y0398474D01*
X0227177Y0398592D01*
X0227277Y0398708D01*
X0227381Y0398821D01*
X0227487Y0398932D01*
X0227596Y0399040D01*
X0227708Y0399145D01*
X0227822Y0399246D01*
X0227940Y0399345D01*
X0228059Y0399441D01*
X0228181Y0399534D01*
X0228306Y0399623D01*
X0228433Y0399710D01*
X0228562Y0399792D01*
X0228693Y0399872D01*
X0228826Y0399948D01*
X0228961Y0400021D01*
X0229098Y0400090D01*
X0229237Y0400155D01*
X0229377Y0400217D01*
X0229519Y0400275D01*
X0229662Y0400330D01*
X0229807Y0400381D01*
X0229953Y0400428D01*
X0230100Y0400471D01*
X0230248Y0400510D01*
X0230397Y0400546D01*
X0230547Y0400577D01*
X0230698Y0400605D01*
X0230849Y0400629D01*
X0231002Y0400649D01*
X0231154Y0400665D01*
X0231307Y0400677D01*
X0231460Y0400685D01*
X0231613Y0400689D01*
X0231767Y0400689D01*
X0231920Y0400685D01*
X0232073Y0400677D01*
X0232226Y0400665D01*
X0232378Y0400649D01*
X0232531Y0400629D01*
X0232682Y0400605D01*
X0232833Y0400577D01*
X0232983Y0400546D01*
X0233132Y0400510D01*
X0233280Y0400471D01*
X0233427Y0400428D01*
X0233573Y0400381D01*
X0233718Y0400330D01*
X0233861Y0400275D01*
X0234003Y0400217D01*
X0234143Y0400155D01*
X0234282Y0400090D01*
X0234419Y0400021D01*
X0234554Y0399948D01*
X0234687Y0399872D01*
X0234818Y0399792D01*
X0234947Y0399710D01*
X0235074Y0399623D01*
X0235199Y0399534D01*
X0235321Y0399441D01*
X0235440Y0399345D01*
X0235558Y0399246D01*
X0235672Y0399145D01*
X0235784Y0399040D01*
X0235893Y0398932D01*
X0235999Y0398821D01*
X0236103Y0398708D01*
X0236203Y0398592D01*
X0236301Y0398474D01*
X0236395Y0398353D01*
X0236486Y0398230D01*
X0236574Y0398104D01*
X0236658Y0397976D01*
X0236740Y0397846D01*
X0236817Y0397714D01*
X0236892Y0397580D01*
X0236963Y0397444D01*
X0237030Y0397306D01*
X0237094Y0397166D01*
X0237154Y0397025D01*
X0237210Y0396883D01*
X0237263Y0396739D01*
X0237312Y0396593D01*
X0237357Y0396447D01*
X0237398Y0396299D01*
X0237435Y0396151D01*
X0237469Y0396001D01*
X0237499Y0395850D01*
X0237524Y0395699D01*
X0237546Y0395548D01*
X0237564Y0395395D01*
X0237578Y0395243D01*
X0237588Y0395090D01*
X0237594Y0394936D01*
X0237596Y0394783D01*
X0237594Y0394630D01*
X0237588Y0394476D01*
X0237578Y0394323D01*
X0237564Y0394171D01*
X0237546Y0394018D01*
X0237524Y0393867D01*
X0237499Y0393716D01*
X0237469Y0393565D01*
X0237435Y0393415D01*
X0237398Y0393267D01*
X0237357Y0393119D01*
X0237312Y0392973D01*
X0237263Y0392827D01*
X0237210Y0392683D01*
X0237154Y0392541D01*
X0237094Y0392400D01*
X0237030Y0392260D01*
X0236963Y0392122D01*
X0236892Y0391986D01*
X0236817Y0391852D01*
X0236740Y0391720D01*
X0236658Y0391590D01*
X0236574Y0391462D01*
X0236486Y0391336D01*
X0236395Y0391213D01*
X0236301Y0391092D01*
X0236203Y0390974D01*
X0236103Y0390858D01*
X0235999Y0390745D01*
X0235893Y0390634D01*
X0235784Y0390526D01*
X0235672Y0390421D01*
X0235558Y0390320D01*
X0235440Y0390221D01*
X0235321Y0390125D01*
X0235199Y0390032D01*
X0235074Y0389943D01*
X0234947Y0389856D01*
X0234818Y0389774D01*
X0234687Y0389694D01*
X0234554Y0389618D01*
X0234419Y0389545D01*
X0234282Y0389476D01*
X0234143Y0389411D01*
X0234003Y0389349D01*
X0233861Y0389291D01*
X0233718Y0389236D01*
X0233573Y0389185D01*
X0233427Y0389138D01*
X0233280Y0389095D01*
X0233132Y0389056D01*
X0232983Y0389020D01*
X0232833Y0388989D01*
X0232682Y0388961D01*
X0232531Y0388937D01*
X0232378Y0388917D01*
X0232226Y0388901D01*
X0232073Y0388889D01*
X0231920Y0388881D01*
X0231767Y0388877D01*
X0231613Y0388877D01*
X0231460Y0388881D01*
X0231307Y0388889D01*
X0231154Y0388901D01*
X0231002Y0388917D01*
X0230849Y0388937D01*
X0230698Y0388961D01*
X0230547Y0388989D01*
X0230397Y0389020D01*
X0230248Y0389056D01*
X0230100Y0389095D01*
X0229953Y0389138D01*
X0229807Y0389185D01*
X0229662Y0389236D01*
X0229519Y0389291D01*
X0229377Y0389349D01*
X0229237Y0389411D01*
X0229098Y0389476D01*
X0228961Y0389545D01*
X0228826Y0389618D01*
X0228693Y0389694D01*
X0228562Y0389774D01*
X0228433Y0389856D01*
X0228306Y0389943D01*
X0228181Y0390032D01*
X0228059Y0390125D01*
X0227940Y0390221D01*
X0227822Y0390320D01*
X0227708Y0390421D01*
X0227596Y0390526D01*
X0227487Y0390634D01*
X0227381Y0390745D01*
X0227277Y0390858D01*
X0227177Y0390974D01*
X0227079Y0391092D01*
X0226985Y0391213D01*
X0226894Y0391336D01*
X0226806Y0391462D01*
X0226722Y0391590D01*
X0226640Y0391720D01*
X0226563Y0391852D01*
X0226488Y0391986D01*
X0226417Y0392122D01*
X0226350Y0392260D01*
X0226286Y0392400D01*
X0226226Y0392541D01*
X0226170Y0392683D01*
X0226117Y0392827D01*
X0226068Y0392973D01*
X0226023Y0393119D01*
X0225982Y0393267D01*
X0225945Y0393415D01*
X0225911Y0393565D01*
X0225881Y0393716D01*
X0225856Y0393867D01*
X0225834Y0394018D01*
X0225816Y0394171D01*
X0225802Y0394323D01*
X0225792Y0394476D01*
X0225786Y0394630D01*
X0225784Y0394783D01*
X0285337Y0394783D02*
X0285339Y0394936D01*
X0285345Y0395090D01*
X0285355Y0395243D01*
X0285369Y0395395D01*
X0285387Y0395548D01*
X0285409Y0395699D01*
X0285434Y0395850D01*
X0285464Y0396001D01*
X0285498Y0396151D01*
X0285535Y0396299D01*
X0285576Y0396447D01*
X0285621Y0396593D01*
X0285670Y0396739D01*
X0285723Y0396883D01*
X0285779Y0397025D01*
X0285839Y0397166D01*
X0285903Y0397306D01*
X0285970Y0397444D01*
X0286041Y0397580D01*
X0286116Y0397714D01*
X0286193Y0397846D01*
X0286275Y0397976D01*
X0286359Y0398104D01*
X0286447Y0398230D01*
X0286538Y0398353D01*
X0286632Y0398474D01*
X0286730Y0398592D01*
X0286830Y0398708D01*
X0286934Y0398821D01*
X0287040Y0398932D01*
X0287149Y0399040D01*
X0287261Y0399145D01*
X0287375Y0399246D01*
X0287493Y0399345D01*
X0287612Y0399441D01*
X0287734Y0399534D01*
X0287859Y0399623D01*
X0287986Y0399710D01*
X0288115Y0399792D01*
X0288246Y0399872D01*
X0288379Y0399948D01*
X0288514Y0400021D01*
X0288651Y0400090D01*
X0288790Y0400155D01*
X0288930Y0400217D01*
X0289072Y0400275D01*
X0289215Y0400330D01*
X0289360Y0400381D01*
X0289506Y0400428D01*
X0289653Y0400471D01*
X0289801Y0400510D01*
X0289950Y0400546D01*
X0290100Y0400577D01*
X0290251Y0400605D01*
X0290402Y0400629D01*
X0290555Y0400649D01*
X0290707Y0400665D01*
X0290860Y0400677D01*
X0291013Y0400685D01*
X0291166Y0400689D01*
X0291320Y0400689D01*
X0291473Y0400685D01*
X0291626Y0400677D01*
X0291779Y0400665D01*
X0291931Y0400649D01*
X0292084Y0400629D01*
X0292235Y0400605D01*
X0292386Y0400577D01*
X0292536Y0400546D01*
X0292685Y0400510D01*
X0292833Y0400471D01*
X0292980Y0400428D01*
X0293126Y0400381D01*
X0293271Y0400330D01*
X0293414Y0400275D01*
X0293556Y0400217D01*
X0293696Y0400155D01*
X0293835Y0400090D01*
X0293972Y0400021D01*
X0294107Y0399948D01*
X0294240Y0399872D01*
X0294371Y0399792D01*
X0294500Y0399710D01*
X0294627Y0399623D01*
X0294752Y0399534D01*
X0294874Y0399441D01*
X0294993Y0399345D01*
X0295111Y0399246D01*
X0295225Y0399145D01*
X0295337Y0399040D01*
X0295446Y0398932D01*
X0295552Y0398821D01*
X0295656Y0398708D01*
X0295756Y0398592D01*
X0295854Y0398474D01*
X0295948Y0398353D01*
X0296039Y0398230D01*
X0296127Y0398104D01*
X0296211Y0397976D01*
X0296293Y0397846D01*
X0296370Y0397714D01*
X0296445Y0397580D01*
X0296516Y0397444D01*
X0296583Y0397306D01*
X0296647Y0397166D01*
X0296707Y0397025D01*
X0296763Y0396883D01*
X0296816Y0396739D01*
X0296865Y0396593D01*
X0296910Y0396447D01*
X0296951Y0396299D01*
X0296988Y0396151D01*
X0297022Y0396001D01*
X0297052Y0395850D01*
X0297077Y0395699D01*
X0297099Y0395548D01*
X0297117Y0395395D01*
X0297131Y0395243D01*
X0297141Y0395090D01*
X0297147Y0394936D01*
X0297149Y0394783D01*
X0297147Y0394630D01*
X0297141Y0394476D01*
X0297131Y0394323D01*
X0297117Y0394171D01*
X0297099Y0394018D01*
X0297077Y0393867D01*
X0297052Y0393716D01*
X0297022Y0393565D01*
X0296988Y0393415D01*
X0296951Y0393267D01*
X0296910Y0393119D01*
X0296865Y0392973D01*
X0296816Y0392827D01*
X0296763Y0392683D01*
X0296707Y0392541D01*
X0296647Y0392400D01*
X0296583Y0392260D01*
X0296516Y0392122D01*
X0296445Y0391986D01*
X0296370Y0391852D01*
X0296293Y0391720D01*
X0296211Y0391590D01*
X0296127Y0391462D01*
X0296039Y0391336D01*
X0295948Y0391213D01*
X0295854Y0391092D01*
X0295756Y0390974D01*
X0295656Y0390858D01*
X0295552Y0390745D01*
X0295446Y0390634D01*
X0295337Y0390526D01*
X0295225Y0390421D01*
X0295111Y0390320D01*
X0294993Y0390221D01*
X0294874Y0390125D01*
X0294752Y0390032D01*
X0294627Y0389943D01*
X0294500Y0389856D01*
X0294371Y0389774D01*
X0294240Y0389694D01*
X0294107Y0389618D01*
X0293972Y0389545D01*
X0293835Y0389476D01*
X0293696Y0389411D01*
X0293556Y0389349D01*
X0293414Y0389291D01*
X0293271Y0389236D01*
X0293126Y0389185D01*
X0292980Y0389138D01*
X0292833Y0389095D01*
X0292685Y0389056D01*
X0292536Y0389020D01*
X0292386Y0388989D01*
X0292235Y0388961D01*
X0292084Y0388937D01*
X0291931Y0388917D01*
X0291779Y0388901D01*
X0291626Y0388889D01*
X0291473Y0388881D01*
X0291320Y0388877D01*
X0291166Y0388877D01*
X0291013Y0388881D01*
X0290860Y0388889D01*
X0290707Y0388901D01*
X0290555Y0388917D01*
X0290402Y0388937D01*
X0290251Y0388961D01*
X0290100Y0388989D01*
X0289950Y0389020D01*
X0289801Y0389056D01*
X0289653Y0389095D01*
X0289506Y0389138D01*
X0289360Y0389185D01*
X0289215Y0389236D01*
X0289072Y0389291D01*
X0288930Y0389349D01*
X0288790Y0389411D01*
X0288651Y0389476D01*
X0288514Y0389545D01*
X0288379Y0389618D01*
X0288246Y0389694D01*
X0288115Y0389774D01*
X0287986Y0389856D01*
X0287859Y0389943D01*
X0287734Y0390032D01*
X0287612Y0390125D01*
X0287493Y0390221D01*
X0287375Y0390320D01*
X0287261Y0390421D01*
X0287149Y0390526D01*
X0287040Y0390634D01*
X0286934Y0390745D01*
X0286830Y0390858D01*
X0286730Y0390974D01*
X0286632Y0391092D01*
X0286538Y0391213D01*
X0286447Y0391336D01*
X0286359Y0391462D01*
X0286275Y0391590D01*
X0286193Y0391720D01*
X0286116Y0391852D01*
X0286041Y0391986D01*
X0285970Y0392122D01*
X0285903Y0392260D01*
X0285839Y0392400D01*
X0285779Y0392541D01*
X0285723Y0392683D01*
X0285670Y0392827D01*
X0285621Y0392973D01*
X0285576Y0393119D01*
X0285535Y0393267D01*
X0285498Y0393415D01*
X0285464Y0393565D01*
X0285434Y0393716D01*
X0285409Y0393867D01*
X0285387Y0394018D01*
X0285369Y0394171D01*
X0285355Y0394323D01*
X0285345Y0394476D01*
X0285339Y0394630D01*
X0285337Y0394783D01*
X0398251Y0394783D02*
X0398253Y0394936D01*
X0398259Y0395090D01*
X0398269Y0395243D01*
X0398283Y0395395D01*
X0398301Y0395548D01*
X0398323Y0395699D01*
X0398348Y0395850D01*
X0398378Y0396001D01*
X0398412Y0396151D01*
X0398449Y0396299D01*
X0398490Y0396447D01*
X0398535Y0396593D01*
X0398584Y0396739D01*
X0398637Y0396883D01*
X0398693Y0397025D01*
X0398753Y0397166D01*
X0398817Y0397306D01*
X0398884Y0397444D01*
X0398955Y0397580D01*
X0399030Y0397714D01*
X0399107Y0397846D01*
X0399189Y0397976D01*
X0399273Y0398104D01*
X0399361Y0398230D01*
X0399452Y0398353D01*
X0399546Y0398474D01*
X0399644Y0398592D01*
X0399744Y0398708D01*
X0399848Y0398821D01*
X0399954Y0398932D01*
X0400063Y0399040D01*
X0400175Y0399145D01*
X0400289Y0399246D01*
X0400407Y0399345D01*
X0400526Y0399441D01*
X0400648Y0399534D01*
X0400773Y0399623D01*
X0400900Y0399710D01*
X0401029Y0399792D01*
X0401160Y0399872D01*
X0401293Y0399948D01*
X0401428Y0400021D01*
X0401565Y0400090D01*
X0401704Y0400155D01*
X0401844Y0400217D01*
X0401986Y0400275D01*
X0402129Y0400330D01*
X0402274Y0400381D01*
X0402420Y0400428D01*
X0402567Y0400471D01*
X0402715Y0400510D01*
X0402864Y0400546D01*
X0403014Y0400577D01*
X0403165Y0400605D01*
X0403316Y0400629D01*
X0403469Y0400649D01*
X0403621Y0400665D01*
X0403774Y0400677D01*
X0403927Y0400685D01*
X0404080Y0400689D01*
X0404234Y0400689D01*
X0404387Y0400685D01*
X0404540Y0400677D01*
X0404693Y0400665D01*
X0404845Y0400649D01*
X0404998Y0400629D01*
X0405149Y0400605D01*
X0405300Y0400577D01*
X0405450Y0400546D01*
X0405599Y0400510D01*
X0405747Y0400471D01*
X0405894Y0400428D01*
X0406040Y0400381D01*
X0406185Y0400330D01*
X0406328Y0400275D01*
X0406470Y0400217D01*
X0406610Y0400155D01*
X0406749Y0400090D01*
X0406886Y0400021D01*
X0407021Y0399948D01*
X0407154Y0399872D01*
X0407285Y0399792D01*
X0407414Y0399710D01*
X0407541Y0399623D01*
X0407666Y0399534D01*
X0407788Y0399441D01*
X0407907Y0399345D01*
X0408025Y0399246D01*
X0408139Y0399145D01*
X0408251Y0399040D01*
X0408360Y0398932D01*
X0408466Y0398821D01*
X0408570Y0398708D01*
X0408670Y0398592D01*
X0408768Y0398474D01*
X0408862Y0398353D01*
X0408953Y0398230D01*
X0409041Y0398104D01*
X0409125Y0397976D01*
X0409207Y0397846D01*
X0409284Y0397714D01*
X0409359Y0397580D01*
X0409430Y0397444D01*
X0409497Y0397306D01*
X0409561Y0397166D01*
X0409621Y0397025D01*
X0409677Y0396883D01*
X0409730Y0396739D01*
X0409779Y0396593D01*
X0409824Y0396447D01*
X0409865Y0396299D01*
X0409902Y0396151D01*
X0409936Y0396001D01*
X0409966Y0395850D01*
X0409991Y0395699D01*
X0410013Y0395548D01*
X0410031Y0395395D01*
X0410045Y0395243D01*
X0410055Y0395090D01*
X0410061Y0394936D01*
X0410063Y0394783D01*
X0410061Y0394630D01*
X0410055Y0394476D01*
X0410045Y0394323D01*
X0410031Y0394171D01*
X0410013Y0394018D01*
X0409991Y0393867D01*
X0409966Y0393716D01*
X0409936Y0393565D01*
X0409902Y0393415D01*
X0409865Y0393267D01*
X0409824Y0393119D01*
X0409779Y0392973D01*
X0409730Y0392827D01*
X0409677Y0392683D01*
X0409621Y0392541D01*
X0409561Y0392400D01*
X0409497Y0392260D01*
X0409430Y0392122D01*
X0409359Y0391986D01*
X0409284Y0391852D01*
X0409207Y0391720D01*
X0409125Y0391590D01*
X0409041Y0391462D01*
X0408953Y0391336D01*
X0408862Y0391213D01*
X0408768Y0391092D01*
X0408670Y0390974D01*
X0408570Y0390858D01*
X0408466Y0390745D01*
X0408360Y0390634D01*
X0408251Y0390526D01*
X0408139Y0390421D01*
X0408025Y0390320D01*
X0407907Y0390221D01*
X0407788Y0390125D01*
X0407666Y0390032D01*
X0407541Y0389943D01*
X0407414Y0389856D01*
X0407285Y0389774D01*
X0407154Y0389694D01*
X0407021Y0389618D01*
X0406886Y0389545D01*
X0406749Y0389476D01*
X0406610Y0389411D01*
X0406470Y0389349D01*
X0406328Y0389291D01*
X0406185Y0389236D01*
X0406040Y0389185D01*
X0405894Y0389138D01*
X0405747Y0389095D01*
X0405599Y0389056D01*
X0405450Y0389020D01*
X0405300Y0388989D01*
X0405149Y0388961D01*
X0404998Y0388937D01*
X0404845Y0388917D01*
X0404693Y0388901D01*
X0404540Y0388889D01*
X0404387Y0388881D01*
X0404234Y0388877D01*
X0404080Y0388877D01*
X0403927Y0388881D01*
X0403774Y0388889D01*
X0403621Y0388901D01*
X0403469Y0388917D01*
X0403316Y0388937D01*
X0403165Y0388961D01*
X0403014Y0388989D01*
X0402864Y0389020D01*
X0402715Y0389056D01*
X0402567Y0389095D01*
X0402420Y0389138D01*
X0402274Y0389185D01*
X0402129Y0389236D01*
X0401986Y0389291D01*
X0401844Y0389349D01*
X0401704Y0389411D01*
X0401565Y0389476D01*
X0401428Y0389545D01*
X0401293Y0389618D01*
X0401160Y0389694D01*
X0401029Y0389774D01*
X0400900Y0389856D01*
X0400773Y0389943D01*
X0400648Y0390032D01*
X0400526Y0390125D01*
X0400407Y0390221D01*
X0400289Y0390320D01*
X0400175Y0390421D01*
X0400063Y0390526D01*
X0399954Y0390634D01*
X0399848Y0390745D01*
X0399744Y0390858D01*
X0399644Y0390974D01*
X0399546Y0391092D01*
X0399452Y0391213D01*
X0399361Y0391336D01*
X0399273Y0391462D01*
X0399189Y0391590D01*
X0399107Y0391720D01*
X0399030Y0391852D01*
X0398955Y0391986D01*
X0398884Y0392122D01*
X0398817Y0392260D01*
X0398753Y0392400D01*
X0398693Y0392541D01*
X0398637Y0392683D01*
X0398584Y0392827D01*
X0398535Y0392973D01*
X0398490Y0393119D01*
X0398449Y0393267D01*
X0398412Y0393415D01*
X0398378Y0393565D01*
X0398348Y0393716D01*
X0398323Y0393867D01*
X0398301Y0394018D01*
X0398283Y0394171D01*
X0398269Y0394323D01*
X0398259Y0394476D01*
X0398253Y0394630D01*
X0398251Y0394783D01*
X0461544Y0394783D02*
X0461546Y0394936D01*
X0461552Y0395090D01*
X0461562Y0395243D01*
X0461576Y0395395D01*
X0461594Y0395548D01*
X0461616Y0395699D01*
X0461641Y0395850D01*
X0461671Y0396001D01*
X0461705Y0396151D01*
X0461742Y0396299D01*
X0461783Y0396447D01*
X0461828Y0396593D01*
X0461877Y0396739D01*
X0461930Y0396883D01*
X0461986Y0397025D01*
X0462046Y0397166D01*
X0462110Y0397306D01*
X0462177Y0397444D01*
X0462248Y0397580D01*
X0462323Y0397714D01*
X0462400Y0397846D01*
X0462482Y0397976D01*
X0462566Y0398104D01*
X0462654Y0398230D01*
X0462745Y0398353D01*
X0462839Y0398474D01*
X0462937Y0398592D01*
X0463037Y0398708D01*
X0463141Y0398821D01*
X0463247Y0398932D01*
X0463356Y0399040D01*
X0463468Y0399145D01*
X0463582Y0399246D01*
X0463700Y0399345D01*
X0463819Y0399441D01*
X0463941Y0399534D01*
X0464066Y0399623D01*
X0464193Y0399710D01*
X0464322Y0399792D01*
X0464453Y0399872D01*
X0464586Y0399948D01*
X0464721Y0400021D01*
X0464858Y0400090D01*
X0464997Y0400155D01*
X0465137Y0400217D01*
X0465279Y0400275D01*
X0465422Y0400330D01*
X0465567Y0400381D01*
X0465713Y0400428D01*
X0465860Y0400471D01*
X0466008Y0400510D01*
X0466157Y0400546D01*
X0466307Y0400577D01*
X0466458Y0400605D01*
X0466609Y0400629D01*
X0466762Y0400649D01*
X0466914Y0400665D01*
X0467067Y0400677D01*
X0467220Y0400685D01*
X0467373Y0400689D01*
X0467527Y0400689D01*
X0467680Y0400685D01*
X0467833Y0400677D01*
X0467986Y0400665D01*
X0468138Y0400649D01*
X0468291Y0400629D01*
X0468442Y0400605D01*
X0468593Y0400577D01*
X0468743Y0400546D01*
X0468892Y0400510D01*
X0469040Y0400471D01*
X0469187Y0400428D01*
X0469333Y0400381D01*
X0469478Y0400330D01*
X0469621Y0400275D01*
X0469763Y0400217D01*
X0469903Y0400155D01*
X0470042Y0400090D01*
X0470179Y0400021D01*
X0470314Y0399948D01*
X0470447Y0399872D01*
X0470578Y0399792D01*
X0470707Y0399710D01*
X0470834Y0399623D01*
X0470959Y0399534D01*
X0471081Y0399441D01*
X0471200Y0399345D01*
X0471318Y0399246D01*
X0471432Y0399145D01*
X0471544Y0399040D01*
X0471653Y0398932D01*
X0471759Y0398821D01*
X0471863Y0398708D01*
X0471963Y0398592D01*
X0472061Y0398474D01*
X0472155Y0398353D01*
X0472246Y0398230D01*
X0472334Y0398104D01*
X0472418Y0397976D01*
X0472500Y0397846D01*
X0472577Y0397714D01*
X0472652Y0397580D01*
X0472723Y0397444D01*
X0472790Y0397306D01*
X0472854Y0397166D01*
X0472914Y0397025D01*
X0472970Y0396883D01*
X0473023Y0396739D01*
X0473072Y0396593D01*
X0473117Y0396447D01*
X0473158Y0396299D01*
X0473195Y0396151D01*
X0473229Y0396001D01*
X0473259Y0395850D01*
X0473284Y0395699D01*
X0473306Y0395548D01*
X0473324Y0395395D01*
X0473338Y0395243D01*
X0473348Y0395090D01*
X0473354Y0394936D01*
X0473356Y0394783D01*
X0473354Y0394630D01*
X0473348Y0394476D01*
X0473338Y0394323D01*
X0473324Y0394171D01*
X0473306Y0394018D01*
X0473284Y0393867D01*
X0473259Y0393716D01*
X0473229Y0393565D01*
X0473195Y0393415D01*
X0473158Y0393267D01*
X0473117Y0393119D01*
X0473072Y0392973D01*
X0473023Y0392827D01*
X0472970Y0392683D01*
X0472914Y0392541D01*
X0472854Y0392400D01*
X0472790Y0392260D01*
X0472723Y0392122D01*
X0472652Y0391986D01*
X0472577Y0391852D01*
X0472500Y0391720D01*
X0472418Y0391590D01*
X0472334Y0391462D01*
X0472246Y0391336D01*
X0472155Y0391213D01*
X0472061Y0391092D01*
X0471963Y0390974D01*
X0471863Y0390858D01*
X0471759Y0390745D01*
X0471653Y0390634D01*
X0471544Y0390526D01*
X0471432Y0390421D01*
X0471318Y0390320D01*
X0471200Y0390221D01*
X0471081Y0390125D01*
X0470959Y0390032D01*
X0470834Y0389943D01*
X0470707Y0389856D01*
X0470578Y0389774D01*
X0470447Y0389694D01*
X0470314Y0389618D01*
X0470179Y0389545D01*
X0470042Y0389476D01*
X0469903Y0389411D01*
X0469763Y0389349D01*
X0469621Y0389291D01*
X0469478Y0389236D01*
X0469333Y0389185D01*
X0469187Y0389138D01*
X0469040Y0389095D01*
X0468892Y0389056D01*
X0468743Y0389020D01*
X0468593Y0388989D01*
X0468442Y0388961D01*
X0468291Y0388937D01*
X0468138Y0388917D01*
X0467986Y0388901D01*
X0467833Y0388889D01*
X0467680Y0388881D01*
X0467527Y0388877D01*
X0467373Y0388877D01*
X0467220Y0388881D01*
X0467067Y0388889D01*
X0466914Y0388901D01*
X0466762Y0388917D01*
X0466609Y0388937D01*
X0466458Y0388961D01*
X0466307Y0388989D01*
X0466157Y0389020D01*
X0466008Y0389056D01*
X0465860Y0389095D01*
X0465713Y0389138D01*
X0465567Y0389185D01*
X0465422Y0389236D01*
X0465279Y0389291D01*
X0465137Y0389349D01*
X0464997Y0389411D01*
X0464858Y0389476D01*
X0464721Y0389545D01*
X0464586Y0389618D01*
X0464453Y0389694D01*
X0464322Y0389774D01*
X0464193Y0389856D01*
X0464066Y0389943D01*
X0463941Y0390032D01*
X0463819Y0390125D01*
X0463700Y0390221D01*
X0463582Y0390320D01*
X0463468Y0390421D01*
X0463356Y0390526D01*
X0463247Y0390634D01*
X0463141Y0390745D01*
X0463037Y0390858D01*
X0462937Y0390974D01*
X0462839Y0391092D01*
X0462745Y0391213D01*
X0462654Y0391336D01*
X0462566Y0391462D01*
X0462482Y0391590D01*
X0462400Y0391720D01*
X0462323Y0391852D01*
X0462248Y0391986D01*
X0462177Y0392122D01*
X0462110Y0392260D01*
X0462046Y0392400D01*
X0461986Y0392541D01*
X0461930Y0392683D01*
X0461877Y0392827D01*
X0461828Y0392973D01*
X0461783Y0393119D01*
X0461742Y0393267D01*
X0461705Y0393415D01*
X0461671Y0393565D01*
X0461641Y0393716D01*
X0461616Y0393867D01*
X0461594Y0394018D01*
X0461576Y0394171D01*
X0461562Y0394323D01*
X0461552Y0394476D01*
X0461546Y0394630D01*
X0461544Y0394783D01*
X0505901Y0352200D02*
X0505903Y0352358D01*
X0505909Y0352516D01*
X0505919Y0352674D01*
X0505933Y0352832D01*
X0505951Y0352989D01*
X0505972Y0353146D01*
X0505998Y0353302D01*
X0506028Y0353458D01*
X0506061Y0353613D01*
X0506099Y0353766D01*
X0506140Y0353919D01*
X0506185Y0354071D01*
X0506234Y0354222D01*
X0506287Y0354371D01*
X0506343Y0354519D01*
X0506403Y0354665D01*
X0506467Y0354810D01*
X0506535Y0354953D01*
X0506606Y0355095D01*
X0506680Y0355235D01*
X0506758Y0355372D01*
X0506840Y0355508D01*
X0506924Y0355642D01*
X0507013Y0355773D01*
X0507104Y0355902D01*
X0507199Y0356029D01*
X0507296Y0356154D01*
X0507397Y0356276D01*
X0507501Y0356395D01*
X0507608Y0356512D01*
X0507718Y0356626D01*
X0507831Y0356737D01*
X0507946Y0356846D01*
X0508064Y0356951D01*
X0508185Y0357053D01*
X0508308Y0357153D01*
X0508434Y0357249D01*
X0508562Y0357342D01*
X0508692Y0357432D01*
X0508825Y0357518D01*
X0508960Y0357602D01*
X0509096Y0357681D01*
X0509235Y0357758D01*
X0509376Y0357830D01*
X0509518Y0357900D01*
X0509662Y0357965D01*
X0509808Y0358027D01*
X0509955Y0358085D01*
X0510104Y0358140D01*
X0510254Y0358191D01*
X0510405Y0358238D01*
X0510557Y0358281D01*
X0510710Y0358320D01*
X0510865Y0358356D01*
X0511020Y0358387D01*
X0511176Y0358415D01*
X0511332Y0358439D01*
X0511489Y0358459D01*
X0511647Y0358475D01*
X0511804Y0358487D01*
X0511963Y0358495D01*
X0512121Y0358499D01*
X0512279Y0358499D01*
X0512437Y0358495D01*
X0512596Y0358487D01*
X0512753Y0358475D01*
X0512911Y0358459D01*
X0513068Y0358439D01*
X0513224Y0358415D01*
X0513380Y0358387D01*
X0513535Y0358356D01*
X0513690Y0358320D01*
X0513843Y0358281D01*
X0513995Y0358238D01*
X0514146Y0358191D01*
X0514296Y0358140D01*
X0514445Y0358085D01*
X0514592Y0358027D01*
X0514738Y0357965D01*
X0514882Y0357900D01*
X0515024Y0357830D01*
X0515165Y0357758D01*
X0515304Y0357681D01*
X0515440Y0357602D01*
X0515575Y0357518D01*
X0515708Y0357432D01*
X0515838Y0357342D01*
X0515966Y0357249D01*
X0516092Y0357153D01*
X0516215Y0357053D01*
X0516336Y0356951D01*
X0516454Y0356846D01*
X0516569Y0356737D01*
X0516682Y0356626D01*
X0516792Y0356512D01*
X0516899Y0356395D01*
X0517003Y0356276D01*
X0517104Y0356154D01*
X0517201Y0356029D01*
X0517296Y0355902D01*
X0517387Y0355773D01*
X0517476Y0355642D01*
X0517560Y0355508D01*
X0517642Y0355372D01*
X0517720Y0355235D01*
X0517794Y0355095D01*
X0517865Y0354953D01*
X0517933Y0354810D01*
X0517997Y0354665D01*
X0518057Y0354519D01*
X0518113Y0354371D01*
X0518166Y0354222D01*
X0518215Y0354071D01*
X0518260Y0353919D01*
X0518301Y0353766D01*
X0518339Y0353613D01*
X0518372Y0353458D01*
X0518402Y0353302D01*
X0518428Y0353146D01*
X0518449Y0352989D01*
X0518467Y0352832D01*
X0518481Y0352674D01*
X0518491Y0352516D01*
X0518497Y0352358D01*
X0518499Y0352200D01*
X0518497Y0352042D01*
X0518491Y0351884D01*
X0518481Y0351726D01*
X0518467Y0351568D01*
X0518449Y0351411D01*
X0518428Y0351254D01*
X0518402Y0351098D01*
X0518372Y0350942D01*
X0518339Y0350787D01*
X0518301Y0350634D01*
X0518260Y0350481D01*
X0518215Y0350329D01*
X0518166Y0350178D01*
X0518113Y0350029D01*
X0518057Y0349881D01*
X0517997Y0349735D01*
X0517933Y0349590D01*
X0517865Y0349447D01*
X0517794Y0349305D01*
X0517720Y0349165D01*
X0517642Y0349028D01*
X0517560Y0348892D01*
X0517476Y0348758D01*
X0517387Y0348627D01*
X0517296Y0348498D01*
X0517201Y0348371D01*
X0517104Y0348246D01*
X0517003Y0348124D01*
X0516899Y0348005D01*
X0516792Y0347888D01*
X0516682Y0347774D01*
X0516569Y0347663D01*
X0516454Y0347554D01*
X0516336Y0347449D01*
X0516215Y0347347D01*
X0516092Y0347247D01*
X0515966Y0347151D01*
X0515838Y0347058D01*
X0515708Y0346968D01*
X0515575Y0346882D01*
X0515440Y0346798D01*
X0515304Y0346719D01*
X0515165Y0346642D01*
X0515024Y0346570D01*
X0514882Y0346500D01*
X0514738Y0346435D01*
X0514592Y0346373D01*
X0514445Y0346315D01*
X0514296Y0346260D01*
X0514146Y0346209D01*
X0513995Y0346162D01*
X0513843Y0346119D01*
X0513690Y0346080D01*
X0513535Y0346044D01*
X0513380Y0346013D01*
X0513224Y0345985D01*
X0513068Y0345961D01*
X0512911Y0345941D01*
X0512753Y0345925D01*
X0512596Y0345913D01*
X0512437Y0345905D01*
X0512279Y0345901D01*
X0512121Y0345901D01*
X0511963Y0345905D01*
X0511804Y0345913D01*
X0511647Y0345925D01*
X0511489Y0345941D01*
X0511332Y0345961D01*
X0511176Y0345985D01*
X0511020Y0346013D01*
X0510865Y0346044D01*
X0510710Y0346080D01*
X0510557Y0346119D01*
X0510405Y0346162D01*
X0510254Y0346209D01*
X0510104Y0346260D01*
X0509955Y0346315D01*
X0509808Y0346373D01*
X0509662Y0346435D01*
X0509518Y0346500D01*
X0509376Y0346570D01*
X0509235Y0346642D01*
X0509096Y0346719D01*
X0508960Y0346798D01*
X0508825Y0346882D01*
X0508692Y0346968D01*
X0508562Y0347058D01*
X0508434Y0347151D01*
X0508308Y0347247D01*
X0508185Y0347347D01*
X0508064Y0347449D01*
X0507946Y0347554D01*
X0507831Y0347663D01*
X0507718Y0347774D01*
X0507608Y0347888D01*
X0507501Y0348005D01*
X0507397Y0348124D01*
X0507296Y0348246D01*
X0507199Y0348371D01*
X0507104Y0348498D01*
X0507013Y0348627D01*
X0506924Y0348758D01*
X0506840Y0348892D01*
X0506758Y0349028D01*
X0506680Y0349165D01*
X0506606Y0349305D01*
X0506535Y0349447D01*
X0506467Y0349590D01*
X0506403Y0349735D01*
X0506343Y0349881D01*
X0506287Y0350029D01*
X0506234Y0350178D01*
X0506185Y0350329D01*
X0506140Y0350481D01*
X0506099Y0350634D01*
X0506061Y0350787D01*
X0506028Y0350942D01*
X0505998Y0351098D01*
X0505972Y0351254D01*
X0505951Y0351411D01*
X0505933Y0351568D01*
X0505919Y0351726D01*
X0505909Y0351884D01*
X0505903Y0352042D01*
X0505901Y0352200D01*
X0505901Y0027200D02*
X0505903Y0027358D01*
X0505909Y0027516D01*
X0505919Y0027674D01*
X0505933Y0027832D01*
X0505951Y0027989D01*
X0505972Y0028146D01*
X0505998Y0028302D01*
X0506028Y0028458D01*
X0506061Y0028613D01*
X0506099Y0028766D01*
X0506140Y0028919D01*
X0506185Y0029071D01*
X0506234Y0029222D01*
X0506287Y0029371D01*
X0506343Y0029519D01*
X0506403Y0029665D01*
X0506467Y0029810D01*
X0506535Y0029953D01*
X0506606Y0030095D01*
X0506680Y0030235D01*
X0506758Y0030372D01*
X0506840Y0030508D01*
X0506924Y0030642D01*
X0507013Y0030773D01*
X0507104Y0030902D01*
X0507199Y0031029D01*
X0507296Y0031154D01*
X0507397Y0031276D01*
X0507501Y0031395D01*
X0507608Y0031512D01*
X0507718Y0031626D01*
X0507831Y0031737D01*
X0507946Y0031846D01*
X0508064Y0031951D01*
X0508185Y0032053D01*
X0508308Y0032153D01*
X0508434Y0032249D01*
X0508562Y0032342D01*
X0508692Y0032432D01*
X0508825Y0032518D01*
X0508960Y0032602D01*
X0509096Y0032681D01*
X0509235Y0032758D01*
X0509376Y0032830D01*
X0509518Y0032900D01*
X0509662Y0032965D01*
X0509808Y0033027D01*
X0509955Y0033085D01*
X0510104Y0033140D01*
X0510254Y0033191D01*
X0510405Y0033238D01*
X0510557Y0033281D01*
X0510710Y0033320D01*
X0510865Y0033356D01*
X0511020Y0033387D01*
X0511176Y0033415D01*
X0511332Y0033439D01*
X0511489Y0033459D01*
X0511647Y0033475D01*
X0511804Y0033487D01*
X0511963Y0033495D01*
X0512121Y0033499D01*
X0512279Y0033499D01*
X0512437Y0033495D01*
X0512596Y0033487D01*
X0512753Y0033475D01*
X0512911Y0033459D01*
X0513068Y0033439D01*
X0513224Y0033415D01*
X0513380Y0033387D01*
X0513535Y0033356D01*
X0513690Y0033320D01*
X0513843Y0033281D01*
X0513995Y0033238D01*
X0514146Y0033191D01*
X0514296Y0033140D01*
X0514445Y0033085D01*
X0514592Y0033027D01*
X0514738Y0032965D01*
X0514882Y0032900D01*
X0515024Y0032830D01*
X0515165Y0032758D01*
X0515304Y0032681D01*
X0515440Y0032602D01*
X0515575Y0032518D01*
X0515708Y0032432D01*
X0515838Y0032342D01*
X0515966Y0032249D01*
X0516092Y0032153D01*
X0516215Y0032053D01*
X0516336Y0031951D01*
X0516454Y0031846D01*
X0516569Y0031737D01*
X0516682Y0031626D01*
X0516792Y0031512D01*
X0516899Y0031395D01*
X0517003Y0031276D01*
X0517104Y0031154D01*
X0517201Y0031029D01*
X0517296Y0030902D01*
X0517387Y0030773D01*
X0517476Y0030642D01*
X0517560Y0030508D01*
X0517642Y0030372D01*
X0517720Y0030235D01*
X0517794Y0030095D01*
X0517865Y0029953D01*
X0517933Y0029810D01*
X0517997Y0029665D01*
X0518057Y0029519D01*
X0518113Y0029371D01*
X0518166Y0029222D01*
X0518215Y0029071D01*
X0518260Y0028919D01*
X0518301Y0028766D01*
X0518339Y0028613D01*
X0518372Y0028458D01*
X0518402Y0028302D01*
X0518428Y0028146D01*
X0518449Y0027989D01*
X0518467Y0027832D01*
X0518481Y0027674D01*
X0518491Y0027516D01*
X0518497Y0027358D01*
X0518499Y0027200D01*
X0518497Y0027042D01*
X0518491Y0026884D01*
X0518481Y0026726D01*
X0518467Y0026568D01*
X0518449Y0026411D01*
X0518428Y0026254D01*
X0518402Y0026098D01*
X0518372Y0025942D01*
X0518339Y0025787D01*
X0518301Y0025634D01*
X0518260Y0025481D01*
X0518215Y0025329D01*
X0518166Y0025178D01*
X0518113Y0025029D01*
X0518057Y0024881D01*
X0517997Y0024735D01*
X0517933Y0024590D01*
X0517865Y0024447D01*
X0517794Y0024305D01*
X0517720Y0024165D01*
X0517642Y0024028D01*
X0517560Y0023892D01*
X0517476Y0023758D01*
X0517387Y0023627D01*
X0517296Y0023498D01*
X0517201Y0023371D01*
X0517104Y0023246D01*
X0517003Y0023124D01*
X0516899Y0023005D01*
X0516792Y0022888D01*
X0516682Y0022774D01*
X0516569Y0022663D01*
X0516454Y0022554D01*
X0516336Y0022449D01*
X0516215Y0022347D01*
X0516092Y0022247D01*
X0515966Y0022151D01*
X0515838Y0022058D01*
X0515708Y0021968D01*
X0515575Y0021882D01*
X0515440Y0021798D01*
X0515304Y0021719D01*
X0515165Y0021642D01*
X0515024Y0021570D01*
X0514882Y0021500D01*
X0514738Y0021435D01*
X0514592Y0021373D01*
X0514445Y0021315D01*
X0514296Y0021260D01*
X0514146Y0021209D01*
X0513995Y0021162D01*
X0513843Y0021119D01*
X0513690Y0021080D01*
X0513535Y0021044D01*
X0513380Y0021013D01*
X0513224Y0020985D01*
X0513068Y0020961D01*
X0512911Y0020941D01*
X0512753Y0020925D01*
X0512596Y0020913D01*
X0512437Y0020905D01*
X0512279Y0020901D01*
X0512121Y0020901D01*
X0511963Y0020905D01*
X0511804Y0020913D01*
X0511647Y0020925D01*
X0511489Y0020941D01*
X0511332Y0020961D01*
X0511176Y0020985D01*
X0511020Y0021013D01*
X0510865Y0021044D01*
X0510710Y0021080D01*
X0510557Y0021119D01*
X0510405Y0021162D01*
X0510254Y0021209D01*
X0510104Y0021260D01*
X0509955Y0021315D01*
X0509808Y0021373D01*
X0509662Y0021435D01*
X0509518Y0021500D01*
X0509376Y0021570D01*
X0509235Y0021642D01*
X0509096Y0021719D01*
X0508960Y0021798D01*
X0508825Y0021882D01*
X0508692Y0021968D01*
X0508562Y0022058D01*
X0508434Y0022151D01*
X0508308Y0022247D01*
X0508185Y0022347D01*
X0508064Y0022449D01*
X0507946Y0022554D01*
X0507831Y0022663D01*
X0507718Y0022774D01*
X0507608Y0022888D01*
X0507501Y0023005D01*
X0507397Y0023124D01*
X0507296Y0023246D01*
X0507199Y0023371D01*
X0507104Y0023498D01*
X0507013Y0023627D01*
X0506924Y0023758D01*
X0506840Y0023892D01*
X0506758Y0024028D01*
X0506680Y0024165D01*
X0506606Y0024305D01*
X0506535Y0024447D01*
X0506467Y0024590D01*
X0506403Y0024735D01*
X0506343Y0024881D01*
X0506287Y0025029D01*
X0506234Y0025178D01*
X0506185Y0025329D01*
X0506140Y0025481D01*
X0506099Y0025634D01*
X0506061Y0025787D01*
X0506028Y0025942D01*
X0505998Y0026098D01*
X0505972Y0026254D01*
X0505951Y0026411D01*
X0505933Y0026568D01*
X0505919Y0026726D01*
X0505909Y0026884D01*
X0505903Y0027042D01*
X0505901Y0027200D01*
D11*
X0396495Y0030905D02*
X0387440Y0030905D01*
X0379960Y0030905D02*
X0370905Y0030905D01*
X0370905Y0049802D01*
X0377598Y0056495D01*
X0379960Y0056495D01*
X0387440Y0056495D02*
X0389802Y0056495D01*
X0396495Y0049802D01*
X0396495Y0030905D01*
X0379960Y0032085D02*
X0379677Y0032180D01*
X0379396Y0032282D01*
X0379119Y0032391D01*
X0378843Y0032506D01*
X0378571Y0032628D01*
X0378302Y0032757D01*
X0378036Y0032892D01*
X0377774Y0033034D01*
X0377515Y0033182D01*
X0377259Y0033336D01*
X0377008Y0033497D01*
X0376760Y0033664D01*
X0376517Y0033836D01*
X0376278Y0034015D01*
X0376043Y0034199D01*
X0375813Y0034389D01*
X0375588Y0034585D01*
X0375368Y0034786D01*
X0375152Y0034992D01*
X0374942Y0035204D01*
X0374737Y0035420D01*
X0374537Y0035642D01*
X0374343Y0035869D01*
X0374154Y0036100D01*
X0373971Y0036335D01*
X0373794Y0036575D01*
X0373623Y0036820D01*
X0373458Y0037068D01*
X0373299Y0037321D01*
X0373146Y0037577D01*
X0372999Y0037837D01*
X0372859Y0038100D01*
X0372725Y0038367D01*
X0372598Y0038637D01*
X0372478Y0038910D01*
X0372364Y0039185D01*
X0372257Y0039464D01*
X0372157Y0039745D01*
X0372064Y0040028D01*
X0371977Y0040314D01*
X0371898Y0040602D01*
X0371826Y0040891D01*
X0371761Y0041182D01*
X0371703Y0041475D01*
X0371652Y0041769D01*
X0371608Y0042064D01*
X0371572Y0042360D01*
X0371543Y0042657D01*
X0371521Y0042955D01*
X0371506Y0043253D01*
X0371499Y0043551D01*
X0371499Y0043849D01*
X0371506Y0044147D01*
X0371521Y0044445D01*
X0371543Y0044743D01*
X0371572Y0045040D01*
X0371608Y0045336D01*
X0371652Y0045631D01*
X0371703Y0045925D01*
X0371761Y0046218D01*
X0371826Y0046509D01*
X0371898Y0046798D01*
X0371977Y0047086D01*
X0372064Y0047372D01*
X0372157Y0047655D01*
X0372257Y0047936D01*
X0372364Y0048215D01*
X0372478Y0048490D01*
X0372598Y0048763D01*
X0372725Y0049033D01*
X0372859Y0049300D01*
X0372999Y0049563D01*
X0373146Y0049823D01*
X0373299Y0050079D01*
X0373458Y0050332D01*
X0373623Y0050580D01*
X0373794Y0050825D01*
X0373971Y0051065D01*
X0374154Y0051300D01*
X0374343Y0051531D01*
X0374537Y0051758D01*
X0374737Y0051980D01*
X0374942Y0052196D01*
X0375152Y0052408D01*
X0375368Y0052614D01*
X0375588Y0052815D01*
X0375813Y0053011D01*
X0376043Y0053201D01*
X0376278Y0053385D01*
X0376517Y0053564D01*
X0376760Y0053736D01*
X0377008Y0053903D01*
X0377259Y0054064D01*
X0377515Y0054218D01*
X0377774Y0054366D01*
X0378036Y0054508D01*
X0378302Y0054643D01*
X0378571Y0054772D01*
X0378843Y0054894D01*
X0379119Y0055009D01*
X0379396Y0055118D01*
X0379677Y0055220D01*
X0379960Y0055315D01*
X0387440Y0055315D02*
X0387723Y0055220D01*
X0388004Y0055118D01*
X0388281Y0055009D01*
X0388557Y0054894D01*
X0388829Y0054772D01*
X0389098Y0054643D01*
X0389364Y0054508D01*
X0389626Y0054366D01*
X0389885Y0054218D01*
X0390141Y0054064D01*
X0390392Y0053903D01*
X0390640Y0053736D01*
X0390883Y0053564D01*
X0391122Y0053385D01*
X0391357Y0053201D01*
X0391587Y0053011D01*
X0391812Y0052815D01*
X0392032Y0052614D01*
X0392248Y0052408D01*
X0392458Y0052196D01*
X0392663Y0051980D01*
X0392863Y0051758D01*
X0393057Y0051531D01*
X0393246Y0051300D01*
X0393429Y0051065D01*
X0393606Y0050825D01*
X0393777Y0050580D01*
X0393942Y0050332D01*
X0394101Y0050079D01*
X0394254Y0049823D01*
X0394401Y0049563D01*
X0394541Y0049300D01*
X0394675Y0049033D01*
X0394802Y0048763D01*
X0394922Y0048490D01*
X0395036Y0048215D01*
X0395143Y0047936D01*
X0395243Y0047655D01*
X0395336Y0047372D01*
X0395423Y0047086D01*
X0395502Y0046798D01*
X0395574Y0046509D01*
X0395639Y0046218D01*
X0395697Y0045925D01*
X0395748Y0045631D01*
X0395792Y0045336D01*
X0395828Y0045040D01*
X0395857Y0044743D01*
X0395879Y0044445D01*
X0395894Y0044147D01*
X0395901Y0043849D01*
X0395901Y0043551D01*
X0395894Y0043253D01*
X0395879Y0042955D01*
X0395857Y0042657D01*
X0395828Y0042360D01*
X0395792Y0042064D01*
X0395748Y0041769D01*
X0395697Y0041475D01*
X0395639Y0041182D01*
X0395574Y0040891D01*
X0395502Y0040602D01*
X0395423Y0040314D01*
X0395336Y0040028D01*
X0395243Y0039745D01*
X0395143Y0039464D01*
X0395036Y0039185D01*
X0394922Y0038910D01*
X0394802Y0038637D01*
X0394675Y0038367D01*
X0394541Y0038100D01*
X0394401Y0037837D01*
X0394254Y0037577D01*
X0394101Y0037321D01*
X0393942Y0037068D01*
X0393777Y0036820D01*
X0393606Y0036575D01*
X0393429Y0036335D01*
X0393246Y0036100D01*
X0393057Y0035869D01*
X0392863Y0035642D01*
X0392663Y0035420D01*
X0392458Y0035204D01*
X0392248Y0034992D01*
X0392032Y0034786D01*
X0391812Y0034585D01*
X0391587Y0034389D01*
X0391357Y0034199D01*
X0391122Y0034015D01*
X0390883Y0033836D01*
X0390640Y0033664D01*
X0390392Y0033497D01*
X0390141Y0033336D01*
X0389885Y0033182D01*
X0389626Y0033034D01*
X0389364Y0032892D01*
X0389098Y0032757D01*
X0388829Y0032628D01*
X0388557Y0032506D01*
X0388281Y0032391D01*
X0388004Y0032282D01*
X0387723Y0032180D01*
X0387440Y0032085D01*
X0384056Y0072650D02*
X0384823Y0073417D01*
X0384823Y0076487D01*
X0384056Y0077254D01*
X0382521Y0077254D01*
X0381754Y0076487D01*
X0381754Y0075719D01*
X0382521Y0074952D01*
X0384823Y0074952D01*
X0384056Y0072650D02*
X0382521Y0072650D01*
X0381754Y0073417D01*
X0380219Y0073417D02*
X0379452Y0072650D01*
X0377917Y0072650D01*
X0377150Y0073417D01*
X0377150Y0076487D01*
X0377917Y0077254D01*
X0379452Y0077254D01*
X0380219Y0076487D01*
X0386959Y0094900D02*
X0388494Y0094900D01*
X0389261Y0095667D01*
X0390796Y0095667D02*
X0390796Y0096435D01*
X0391563Y0097202D01*
X0393098Y0097202D01*
X0393865Y0096435D01*
X0393865Y0095667D01*
X0393098Y0094900D01*
X0391563Y0094900D01*
X0390796Y0095667D01*
X0391563Y0097202D02*
X0390796Y0097969D01*
X0390796Y0098737D01*
X0391563Y0099504D01*
X0393098Y0099504D01*
X0393865Y0098737D01*
X0393865Y0097969D01*
X0393098Y0097202D01*
X0389261Y0098737D02*
X0388494Y0099504D01*
X0386959Y0099504D01*
X0386192Y0098737D01*
X0386192Y0095667D01*
X0386959Y0094900D01*
X0374500Y0130088D02*
X0369896Y0130088D01*
X0369896Y0132390D01*
X0370663Y0133157D01*
X0372198Y0133157D01*
X0372965Y0132390D01*
X0372965Y0130088D01*
X0372965Y0131623D02*
X0374500Y0133157D01*
X0374500Y0134692D02*
X0373733Y0134692D01*
X0370663Y0137761D01*
X0369896Y0137761D01*
X0369896Y0134692D01*
X0369896Y0139296D02*
X0369896Y0142365D01*
X0370663Y0142365D01*
X0373733Y0139296D01*
X0374500Y0139296D01*
X0379146Y0140073D02*
X0379913Y0140073D01*
X0382983Y0137004D01*
X0383750Y0137004D01*
X0383750Y0135469D02*
X0382215Y0133935D01*
X0382215Y0134702D02*
X0382215Y0132400D01*
X0383750Y0132400D02*
X0379146Y0132400D01*
X0379146Y0134702D01*
X0379913Y0135469D01*
X0381448Y0135469D01*
X0382215Y0134702D01*
X0379146Y0137004D02*
X0379146Y0140073D01*
X0379913Y0141608D02*
X0379146Y0142375D01*
X0379146Y0143910D01*
X0379913Y0144677D01*
X0380681Y0144677D01*
X0381448Y0143910D01*
X0381448Y0142375D01*
X0380681Y0141608D01*
X0379913Y0141608D01*
X0381448Y0142375D02*
X0382215Y0141608D01*
X0382983Y0141608D01*
X0383750Y0142375D01*
X0383750Y0143910D01*
X0382983Y0144677D01*
X0382215Y0144677D01*
X0381448Y0143910D01*
X0396146Y0144140D02*
X0396146Y0141838D01*
X0400750Y0141838D01*
X0399215Y0141838D02*
X0399215Y0144140D01*
X0398448Y0144907D01*
X0396913Y0144907D01*
X0396146Y0144140D01*
X0396913Y0146442D02*
X0397681Y0146442D01*
X0398448Y0147209D01*
X0398448Y0148744D01*
X0399215Y0149511D01*
X0399983Y0149511D01*
X0400750Y0148744D01*
X0400750Y0147209D01*
X0399983Y0146442D01*
X0399215Y0146442D01*
X0398448Y0147209D01*
X0398448Y0148744D02*
X0397681Y0149511D01*
X0396913Y0149511D01*
X0396146Y0148744D01*
X0396146Y0147209D01*
X0396913Y0146442D01*
X0399215Y0143373D02*
X0400750Y0144907D01*
X0399983Y0151046D02*
X0400750Y0151813D01*
X0400750Y0153348D01*
X0399983Y0154115D01*
X0398448Y0154115D01*
X0397681Y0153348D01*
X0397681Y0152581D01*
X0398448Y0151046D01*
X0396146Y0151046D01*
X0396146Y0154115D01*
X0406896Y0156917D02*
X0407663Y0156150D01*
X0410733Y0156150D01*
X0411500Y0156917D01*
X0411500Y0158452D01*
X0410733Y0159219D01*
X0411500Y0160754D02*
X0408431Y0163823D01*
X0407663Y0163823D01*
X0406896Y0163056D01*
X0406896Y0161521D01*
X0407663Y0160754D01*
X0407663Y0159219D02*
X0406896Y0158452D01*
X0406896Y0156917D01*
X0411500Y0160754D02*
X0411500Y0163823D01*
X0409198Y0165358D02*
X0409198Y0168427D01*
X0406896Y0167660D02*
X0409198Y0165358D01*
X0411500Y0167660D02*
X0406896Y0167660D01*
X0396355Y0175699D02*
X0393286Y0175699D01*
X0394821Y0175699D02*
X0394821Y0180303D01*
X0393286Y0178768D01*
X0391752Y0179536D02*
X0390984Y0180303D01*
X0389450Y0180303D01*
X0388682Y0179536D01*
X0388682Y0178768D01*
X0389450Y0178001D01*
X0390984Y0178001D01*
X0391752Y0177234D01*
X0391752Y0176467D01*
X0390984Y0175699D01*
X0389450Y0175699D01*
X0388682Y0176467D01*
X0387148Y0176467D02*
X0387148Y0180303D01*
X0384078Y0180303D02*
X0384078Y0176467D01*
X0384846Y0175699D01*
X0386380Y0175699D01*
X0387148Y0176467D01*
X0390217Y0174932D02*
X0390217Y0181070D01*
X0378598Y0167254D02*
X0379365Y0166487D01*
X0376296Y0163417D01*
X0377063Y0162650D01*
X0378598Y0162650D01*
X0379365Y0163417D01*
X0379365Y0166487D01*
X0378598Y0167254D02*
X0377063Y0167254D01*
X0376296Y0166487D01*
X0376296Y0163417D01*
X0374761Y0162650D02*
X0371692Y0162650D01*
X0374761Y0165719D01*
X0374761Y0166487D01*
X0373994Y0167254D01*
X0372459Y0167254D01*
X0371692Y0166487D01*
X0370157Y0166487D02*
X0369390Y0167254D01*
X0367856Y0167254D01*
X0367088Y0166487D01*
X0367088Y0163417D01*
X0367856Y0162650D01*
X0369390Y0162650D01*
X0370157Y0163417D01*
X0357250Y0161115D02*
X0357250Y0158046D01*
X0357250Y0156511D02*
X0357250Y0153442D01*
X0357250Y0154977D02*
X0352646Y0154977D01*
X0354181Y0153442D01*
X0353413Y0151907D02*
X0352646Y0151140D01*
X0352646Y0148838D01*
X0357250Y0148838D01*
X0357250Y0151140D01*
X0356483Y0151907D01*
X0353413Y0151907D01*
X0352646Y0147304D02*
X0352646Y0144234D01*
X0357250Y0144234D01*
X0357250Y0147304D01*
X0354948Y0145769D02*
X0354948Y0144234D01*
X0357250Y0142700D02*
X0357250Y0139630D01*
X0352646Y0139630D01*
X0354181Y0158046D02*
X0352646Y0159581D01*
X0357250Y0159581D01*
X0349233Y0171400D02*
X0346163Y0171400D01*
X0345396Y0172167D01*
X0345396Y0173702D01*
X0346163Y0174469D01*
X0346163Y0176004D02*
X0345396Y0176771D01*
X0345396Y0178306D01*
X0346163Y0179073D01*
X0346931Y0179073D01*
X0350000Y0176004D01*
X0350000Y0179073D01*
X0350000Y0180608D02*
X0346931Y0183677D01*
X0346163Y0183677D01*
X0345396Y0182910D01*
X0345396Y0181375D01*
X0346163Y0180608D01*
X0350000Y0180608D02*
X0350000Y0183677D01*
X0358338Y0186917D02*
X0358338Y0189987D01*
X0359106Y0190754D01*
X0360640Y0190754D01*
X0361407Y0189987D01*
X0362942Y0189987D02*
X0363709Y0190754D01*
X0365244Y0190754D01*
X0366011Y0189987D01*
X0366011Y0189219D01*
X0362942Y0186150D01*
X0366011Y0186150D01*
X0367546Y0186150D02*
X0370615Y0186150D01*
X0369081Y0186150D02*
X0369081Y0190754D01*
X0367546Y0189219D01*
X0361407Y0186917D02*
X0360640Y0186150D01*
X0359106Y0186150D01*
X0358338Y0186917D01*
X0349233Y0174469D02*
X0350000Y0173702D01*
X0350000Y0172167D01*
X0349233Y0171400D01*
X0345500Y0204900D02*
X0340896Y0204900D01*
X0340896Y0207202D01*
X0341663Y0207969D01*
X0343198Y0207969D01*
X0343965Y0207202D01*
X0343965Y0204900D01*
X0343965Y0206435D02*
X0345500Y0207969D01*
X0344733Y0209504D02*
X0345500Y0210271D01*
X0345500Y0211806D01*
X0344733Y0212573D01*
X0341663Y0212573D01*
X0340896Y0211806D01*
X0340896Y0210271D01*
X0341663Y0209504D01*
X0342431Y0209504D01*
X0343198Y0210271D01*
X0343198Y0212573D01*
X0342431Y0214108D02*
X0340896Y0215642D01*
X0345500Y0215642D01*
X0345500Y0214108D02*
X0345500Y0217177D01*
X0345396Y0234588D02*
X0345396Y0236890D01*
X0346163Y0237657D01*
X0347698Y0237657D01*
X0348465Y0236890D01*
X0348465Y0234588D01*
X0348465Y0236123D02*
X0350000Y0237657D01*
X0350000Y0239192D02*
X0349233Y0239192D01*
X0346163Y0242261D01*
X0345396Y0242261D01*
X0345396Y0239192D01*
X0346163Y0243796D02*
X0345396Y0244563D01*
X0345396Y0246098D01*
X0346163Y0246865D01*
X0349233Y0243796D01*
X0350000Y0244563D01*
X0350000Y0246098D01*
X0349233Y0246865D01*
X0346163Y0246865D01*
X0346163Y0243796D02*
X0349233Y0243796D01*
X0355396Y0244563D02*
X0355396Y0246098D01*
X0356163Y0246865D01*
X0356931Y0246865D01*
X0357698Y0246098D01*
X0357698Y0244563D01*
X0356931Y0243796D01*
X0356163Y0243796D01*
X0355396Y0244563D01*
X0355396Y0242261D02*
X0356163Y0240727D01*
X0357698Y0239192D01*
X0357698Y0241494D01*
X0358465Y0242261D01*
X0359233Y0242261D01*
X0360000Y0241494D01*
X0360000Y0239959D01*
X0359233Y0239192D01*
X0357698Y0239192D01*
X0357698Y0237657D02*
X0358465Y0236890D01*
X0358465Y0234588D01*
X0358465Y0236123D02*
X0360000Y0237657D01*
X0357698Y0237657D02*
X0356163Y0237657D01*
X0355396Y0236890D01*
X0355396Y0234588D01*
X0360000Y0234588D01*
X0364896Y0234338D02*
X0364896Y0236640D01*
X0365663Y0237407D01*
X0367198Y0237407D01*
X0367965Y0236640D01*
X0367965Y0234338D01*
X0367965Y0235873D02*
X0369500Y0237407D01*
X0368733Y0238942D02*
X0369500Y0239709D01*
X0369500Y0241244D01*
X0368733Y0242011D01*
X0367965Y0242011D01*
X0367198Y0241244D01*
X0367198Y0238942D01*
X0368733Y0238942D01*
X0367198Y0238942D02*
X0365663Y0240477D01*
X0364896Y0242011D01*
X0367198Y0243546D02*
X0367198Y0245848D01*
X0367965Y0246615D01*
X0368733Y0246615D01*
X0369500Y0245848D01*
X0369500Y0244313D01*
X0368733Y0243546D01*
X0367198Y0243546D01*
X0365663Y0245081D01*
X0364896Y0246615D01*
X0360000Y0246098D02*
X0360000Y0244563D01*
X0359233Y0243796D01*
X0358465Y0243796D01*
X0357698Y0244563D01*
X0357698Y0246098D02*
X0358465Y0246865D01*
X0359233Y0246865D01*
X0360000Y0246098D01*
X0364896Y0234338D02*
X0369500Y0234338D01*
X0374896Y0234338D02*
X0374896Y0236640D01*
X0375663Y0237407D01*
X0377198Y0237407D01*
X0377965Y0236640D01*
X0377965Y0234338D01*
X0377965Y0235873D02*
X0379500Y0237407D01*
X0378733Y0238942D02*
X0379500Y0239709D01*
X0379500Y0241244D01*
X0378733Y0242011D01*
X0377965Y0242011D01*
X0377198Y0241244D01*
X0377198Y0238942D01*
X0378733Y0238942D01*
X0377198Y0238942D02*
X0375663Y0240477D01*
X0374896Y0242011D01*
X0377198Y0243546D02*
X0377198Y0246615D01*
X0374896Y0245848D02*
X0377198Y0243546D01*
X0379500Y0245848D02*
X0374896Y0245848D01*
X0385146Y0245848D02*
X0385146Y0244313D01*
X0385913Y0243546D01*
X0385146Y0242011D02*
X0385913Y0240477D01*
X0387448Y0238942D01*
X0387448Y0241244D01*
X0388215Y0242011D01*
X0388983Y0242011D01*
X0389750Y0241244D01*
X0389750Y0239709D01*
X0388983Y0238942D01*
X0387448Y0238942D01*
X0387448Y0237407D02*
X0388215Y0236640D01*
X0388215Y0234338D01*
X0388215Y0235873D02*
X0389750Y0237407D01*
X0387448Y0237407D02*
X0385913Y0237407D01*
X0385146Y0236640D01*
X0385146Y0234338D01*
X0389750Y0234338D01*
X0395396Y0234338D02*
X0395396Y0236640D01*
X0396163Y0237407D01*
X0397698Y0237407D01*
X0398465Y0236640D01*
X0398465Y0234338D01*
X0398465Y0235873D02*
X0400000Y0237407D01*
X0399233Y0238942D02*
X0400000Y0239709D01*
X0400000Y0241244D01*
X0399233Y0242011D01*
X0398465Y0242011D01*
X0397698Y0241244D01*
X0397698Y0238942D01*
X0399233Y0238942D01*
X0397698Y0238942D02*
X0396163Y0240477D01*
X0395396Y0242011D01*
X0396163Y0243546D02*
X0395396Y0244313D01*
X0395396Y0245848D01*
X0396163Y0246615D01*
X0399233Y0243546D01*
X0400000Y0244313D01*
X0400000Y0245848D01*
X0399233Y0246615D01*
X0396163Y0246615D01*
X0396163Y0243546D02*
X0399233Y0243546D01*
X0405146Y0244313D02*
X0405146Y0245848D01*
X0405913Y0246615D01*
X0406681Y0246615D01*
X0407448Y0245848D01*
X0407448Y0244313D01*
X0406681Y0243546D01*
X0405913Y0243546D01*
X0405146Y0244313D01*
X0405146Y0242011D02*
X0405146Y0238942D01*
X0407448Y0238942D01*
X0406681Y0240477D01*
X0406681Y0241244D01*
X0407448Y0242011D01*
X0408983Y0242011D01*
X0409750Y0241244D01*
X0409750Y0239709D01*
X0408983Y0238942D01*
X0409750Y0237407D02*
X0408215Y0235873D01*
X0408215Y0236640D02*
X0408215Y0234338D01*
X0409750Y0234338D02*
X0405146Y0234338D01*
X0405146Y0236640D01*
X0405913Y0237407D01*
X0407448Y0237407D01*
X0408215Y0236640D01*
X0415646Y0236640D02*
X0415646Y0234338D01*
X0420250Y0234338D01*
X0418715Y0234338D02*
X0418715Y0236640D01*
X0417948Y0237407D01*
X0416413Y0237407D01*
X0415646Y0236640D01*
X0415646Y0238942D02*
X0417948Y0238942D01*
X0417181Y0240477D01*
X0417181Y0241244D01*
X0417948Y0242011D01*
X0419483Y0242011D01*
X0420250Y0241244D01*
X0420250Y0239709D01*
X0419483Y0238942D01*
X0420250Y0237407D02*
X0418715Y0235873D01*
X0415646Y0238942D02*
X0415646Y0242011D01*
X0417948Y0243546D02*
X0416413Y0245081D01*
X0415646Y0246615D01*
X0417948Y0245848D02*
X0417948Y0243546D01*
X0419483Y0243546D01*
X0420250Y0244313D01*
X0420250Y0245848D01*
X0419483Y0246615D01*
X0418715Y0246615D01*
X0417948Y0245848D01*
X0425396Y0246098D02*
X0427698Y0243796D01*
X0427698Y0246865D01*
X0430000Y0246098D02*
X0425396Y0246098D01*
X0425396Y0242261D02*
X0425396Y0239192D01*
X0427698Y0239192D01*
X0426931Y0240727D01*
X0426931Y0241494D01*
X0427698Y0242261D01*
X0429233Y0242261D01*
X0430000Y0241494D01*
X0430000Y0239959D01*
X0429233Y0239192D01*
X0430000Y0237657D02*
X0428465Y0236123D01*
X0428465Y0236890D02*
X0428465Y0234588D01*
X0430000Y0234588D02*
X0425396Y0234588D01*
X0425396Y0236890D01*
X0426163Y0237657D01*
X0427698Y0237657D01*
X0428465Y0236890D01*
X0433896Y0243805D02*
X0433896Y0246407D01*
X0434763Y0247275D01*
X0436498Y0247275D01*
X0437365Y0246407D01*
X0437365Y0243805D01*
X0439100Y0243805D02*
X0433896Y0243805D01*
X0433896Y0248962D02*
X0438233Y0248962D01*
X0439100Y0249829D01*
X0439100Y0251564D01*
X0438233Y0252431D01*
X0433896Y0252431D01*
X0433896Y0254118D02*
X0439100Y0254118D01*
X0439100Y0257588D01*
X0439100Y0259274D02*
X0439100Y0262744D01*
X0436498Y0264431D02*
X0436498Y0267900D01*
X0433896Y0269587D02*
X0439100Y0269587D01*
X0439100Y0272189D01*
X0438233Y0273057D01*
X0434763Y0273057D01*
X0433896Y0272189D01*
X0433896Y0269587D01*
X0433896Y0274744D02*
X0439100Y0278213D01*
X0433896Y0278213D01*
X0433896Y0279555D02*
X0433896Y0282157D01*
X0434763Y0283025D01*
X0436498Y0283025D01*
X0437365Y0282157D01*
X0437365Y0279555D01*
X0439100Y0279555D02*
X0433896Y0279555D01*
X0433896Y0274744D02*
X0439100Y0274744D01*
X0438233Y0284712D02*
X0433896Y0284712D01*
X0433896Y0288181D02*
X0438233Y0288181D01*
X0439100Y0287314D01*
X0439100Y0285579D01*
X0438233Y0284712D01*
X0439100Y0289868D02*
X0433896Y0289868D01*
X0433896Y0295024D02*
X0439100Y0295024D01*
X0439100Y0298494D01*
X0436498Y0300181D02*
X0436498Y0303650D01*
X0438233Y0305337D02*
X0433896Y0305337D01*
X0433896Y0308807D02*
X0438233Y0308807D01*
X0439100Y0307939D01*
X0439100Y0306205D01*
X0438233Y0305337D01*
X0439100Y0310494D02*
X0433896Y0310494D01*
X0433896Y0313096D01*
X0434763Y0313963D01*
X0436498Y0313963D01*
X0437365Y0313096D01*
X0437365Y0310494D01*
X0429500Y0314588D02*
X0424896Y0314588D01*
X0424896Y0316890D01*
X0425663Y0317657D01*
X0427198Y0317657D01*
X0427965Y0316890D01*
X0427965Y0314588D01*
X0427965Y0316123D02*
X0429500Y0317657D01*
X0428733Y0319192D02*
X0429500Y0319959D01*
X0429500Y0321494D01*
X0428733Y0322261D01*
X0427198Y0322261D01*
X0426431Y0321494D01*
X0426431Y0320727D01*
X0427198Y0319192D01*
X0424896Y0319192D01*
X0424896Y0322261D01*
X0425663Y0323796D02*
X0424896Y0324563D01*
X0424896Y0326098D01*
X0425663Y0326865D01*
X0426431Y0326865D01*
X0427198Y0326098D01*
X0427965Y0326865D01*
X0428733Y0326865D01*
X0429500Y0326098D01*
X0429500Y0324563D01*
X0428733Y0323796D01*
X0427198Y0325331D02*
X0427198Y0326098D01*
X0419250Y0326348D02*
X0419250Y0324813D01*
X0418483Y0324046D01*
X0418483Y0322511D02*
X0419250Y0321744D01*
X0419250Y0320209D01*
X0418483Y0319442D01*
X0416948Y0319442D02*
X0416181Y0320977D01*
X0416181Y0321744D01*
X0416948Y0322511D01*
X0418483Y0322511D01*
X0416948Y0324046D02*
X0416181Y0325581D01*
X0416181Y0326348D01*
X0416948Y0327115D01*
X0418483Y0327115D01*
X0419250Y0326348D01*
X0416948Y0324046D02*
X0414646Y0324046D01*
X0414646Y0327115D01*
X0414646Y0322511D02*
X0414646Y0319442D01*
X0416948Y0319442D01*
X0416948Y0317907D02*
X0415413Y0317907D01*
X0414646Y0317140D01*
X0414646Y0314838D01*
X0419250Y0314838D01*
X0417715Y0314838D02*
X0417715Y0317140D01*
X0416948Y0317907D01*
X0417715Y0316373D02*
X0419250Y0317907D01*
X0409500Y0317657D02*
X0407965Y0316123D01*
X0407965Y0316890D02*
X0407965Y0314588D01*
X0409500Y0314588D02*
X0404896Y0314588D01*
X0404896Y0316890D01*
X0405663Y0317657D01*
X0407198Y0317657D01*
X0407965Y0316890D01*
X0407198Y0319192D02*
X0404896Y0319192D01*
X0404896Y0322261D01*
X0404896Y0323796D02*
X0404896Y0326865D01*
X0405663Y0326865D01*
X0408733Y0323796D01*
X0409500Y0323796D01*
X0408733Y0322261D02*
X0409500Y0321494D01*
X0409500Y0319959D01*
X0408733Y0319192D01*
X0407198Y0319192D02*
X0406431Y0320727D01*
X0406431Y0321494D01*
X0407198Y0322261D01*
X0408733Y0322261D01*
X0399500Y0321744D02*
X0399500Y0320209D01*
X0398733Y0319442D01*
X0397198Y0319442D02*
X0396431Y0320977D01*
X0396431Y0321744D01*
X0397198Y0322511D01*
X0398733Y0322511D01*
X0399500Y0321744D01*
X0398733Y0324046D02*
X0399500Y0324813D01*
X0399500Y0326348D01*
X0398733Y0327115D01*
X0395663Y0327115D01*
X0394896Y0326348D01*
X0394896Y0324813D01*
X0395663Y0324046D01*
X0396431Y0324046D01*
X0397198Y0324813D01*
X0397198Y0327115D01*
X0394896Y0322511D02*
X0394896Y0319442D01*
X0397198Y0319442D01*
X0397198Y0317907D02*
X0397965Y0317140D01*
X0397965Y0314838D01*
X0397965Y0316373D02*
X0399500Y0317907D01*
X0397198Y0317907D02*
X0395663Y0317907D01*
X0394896Y0317140D01*
X0394896Y0314838D01*
X0399500Y0314838D01*
X0390000Y0314088D02*
X0385396Y0314088D01*
X0385396Y0316390D01*
X0386163Y0317157D01*
X0387698Y0317157D01*
X0388465Y0316390D01*
X0388465Y0314088D01*
X0388465Y0315623D02*
X0390000Y0317157D01*
X0389233Y0318692D02*
X0390000Y0319459D01*
X0390000Y0320994D01*
X0389233Y0321761D01*
X0388465Y0321761D01*
X0387698Y0320994D01*
X0387698Y0318692D01*
X0389233Y0318692D01*
X0387698Y0318692D02*
X0386163Y0320227D01*
X0385396Y0321761D01*
X0386931Y0323296D02*
X0385396Y0324831D01*
X0390000Y0324831D01*
X0390000Y0326365D02*
X0390000Y0323296D01*
X0379250Y0324563D02*
X0378483Y0323796D01*
X0379250Y0324563D02*
X0379250Y0326098D01*
X0378483Y0326865D01*
X0377715Y0326865D01*
X0376948Y0326098D01*
X0376948Y0325331D01*
X0376948Y0326098D02*
X0376181Y0326865D01*
X0375413Y0326865D01*
X0374646Y0326098D01*
X0374646Y0324563D01*
X0375413Y0323796D01*
X0374646Y0322261D02*
X0375413Y0320727D01*
X0376948Y0319192D01*
X0376948Y0321494D01*
X0377715Y0322261D01*
X0378483Y0322261D01*
X0379250Y0321494D01*
X0379250Y0319959D01*
X0378483Y0319192D01*
X0376948Y0319192D01*
X0376948Y0317657D02*
X0377715Y0316890D01*
X0377715Y0314588D01*
X0377715Y0316123D02*
X0379250Y0317657D01*
X0376948Y0317657D02*
X0375413Y0317657D01*
X0374646Y0316890D01*
X0374646Y0314588D01*
X0379250Y0314588D01*
X0369500Y0314338D02*
X0364896Y0314338D01*
X0364896Y0316640D01*
X0365663Y0317407D01*
X0367198Y0317407D01*
X0367965Y0316640D01*
X0367965Y0314338D01*
X0367965Y0315873D02*
X0369500Y0317407D01*
X0368733Y0318942D02*
X0369500Y0319709D01*
X0369500Y0321244D01*
X0368733Y0322011D01*
X0367965Y0322011D01*
X0367198Y0321244D01*
X0367198Y0318942D01*
X0368733Y0318942D01*
X0367198Y0318942D02*
X0365663Y0320477D01*
X0364896Y0322011D01*
X0364896Y0323546D02*
X0367198Y0323546D01*
X0366431Y0325081D01*
X0366431Y0325848D01*
X0367198Y0326615D01*
X0368733Y0326615D01*
X0369500Y0325848D01*
X0369500Y0324313D01*
X0368733Y0323546D01*
X0364896Y0323546D02*
X0364896Y0326615D01*
X0359500Y0323796D02*
X0358733Y0323796D01*
X0355663Y0326865D01*
X0354896Y0326865D01*
X0354896Y0323796D01*
X0354896Y0322261D02*
X0355663Y0320727D01*
X0357198Y0319192D01*
X0357198Y0321494D01*
X0357965Y0322261D01*
X0358733Y0322261D01*
X0359500Y0321494D01*
X0359500Y0319959D01*
X0358733Y0319192D01*
X0357198Y0319192D01*
X0357198Y0317657D02*
X0357965Y0316890D01*
X0357965Y0314588D01*
X0357965Y0316123D02*
X0359500Y0317657D01*
X0357198Y0317657D02*
X0355663Y0317657D01*
X0354896Y0316890D01*
X0354896Y0314588D01*
X0359500Y0314588D01*
X0349750Y0314338D02*
X0345146Y0314338D01*
X0345146Y0316640D01*
X0345913Y0317407D01*
X0347448Y0317407D01*
X0348215Y0316640D01*
X0348215Y0314338D01*
X0348215Y0315873D02*
X0349750Y0317407D01*
X0348983Y0318942D02*
X0349750Y0319709D01*
X0349750Y0321244D01*
X0348983Y0322011D01*
X0348215Y0322011D01*
X0347448Y0321244D01*
X0347448Y0318942D01*
X0348983Y0318942D01*
X0347448Y0318942D02*
X0345913Y0320477D01*
X0345146Y0322011D01*
X0345913Y0323546D02*
X0346681Y0323546D01*
X0347448Y0324313D01*
X0347448Y0326615D01*
X0348983Y0326615D02*
X0345913Y0326615D01*
X0345146Y0325848D01*
X0345146Y0324313D01*
X0345913Y0323546D01*
X0348983Y0323546D02*
X0349750Y0324313D01*
X0349750Y0325848D01*
X0348983Y0326615D01*
X0339500Y0325865D02*
X0339500Y0322796D01*
X0339500Y0324331D02*
X0334896Y0324331D01*
X0336431Y0322796D01*
X0335663Y0321261D02*
X0338733Y0318192D01*
X0339500Y0318192D01*
X0339500Y0316657D02*
X0337965Y0315123D01*
X0337965Y0315890D02*
X0337965Y0313588D01*
X0339500Y0313588D02*
X0334896Y0313588D01*
X0334896Y0315890D01*
X0335663Y0316657D01*
X0337198Y0316657D01*
X0337965Y0315890D01*
X0334896Y0318192D02*
X0334896Y0321261D01*
X0335663Y0321261D01*
X0329500Y0318942D02*
X0328733Y0318942D01*
X0325663Y0322011D01*
X0324896Y0322011D01*
X0324896Y0318942D01*
X0325663Y0317407D02*
X0327198Y0317407D01*
X0327965Y0316640D01*
X0327965Y0314338D01*
X0327965Y0315873D02*
X0329500Y0317407D01*
X0329500Y0314338D02*
X0324896Y0314338D01*
X0324896Y0316640D01*
X0325663Y0317407D01*
X0319500Y0317657D02*
X0317965Y0316123D01*
X0317965Y0316890D02*
X0317965Y0314588D01*
X0319500Y0314588D02*
X0314896Y0314588D01*
X0314896Y0316890D01*
X0315663Y0317657D01*
X0317198Y0317657D01*
X0317965Y0316890D01*
X0318733Y0319192D02*
X0319500Y0319192D01*
X0318733Y0319192D02*
X0315663Y0322261D01*
X0314896Y0322261D01*
X0314896Y0319192D01*
X0314896Y0323796D02*
X0317198Y0323796D01*
X0316431Y0325331D01*
X0316431Y0326098D01*
X0317198Y0326865D01*
X0318733Y0326865D01*
X0319500Y0326098D01*
X0319500Y0324563D01*
X0318733Y0323796D01*
X0314896Y0323796D02*
X0314896Y0326865D01*
X0309500Y0327115D02*
X0309500Y0324046D01*
X0309500Y0325581D02*
X0304896Y0325581D01*
X0306431Y0324046D01*
X0307198Y0322511D02*
X0308733Y0322511D01*
X0309500Y0321744D01*
X0309500Y0320209D01*
X0308733Y0319442D01*
X0307198Y0319442D02*
X0306431Y0320977D01*
X0306431Y0321744D01*
X0307198Y0322511D01*
X0304896Y0322511D02*
X0304896Y0319442D01*
X0307198Y0319442D01*
X0307198Y0317907D02*
X0307965Y0317140D01*
X0307965Y0314838D01*
X0307965Y0316373D02*
X0309500Y0317907D01*
X0307198Y0317907D02*
X0305663Y0317907D01*
X0304896Y0317140D01*
X0304896Y0314838D01*
X0309500Y0314838D01*
X0324896Y0324313D02*
X0324896Y0325848D01*
X0325663Y0326615D01*
X0326431Y0326615D01*
X0327198Y0325848D01*
X0327965Y0326615D01*
X0328733Y0326615D01*
X0329500Y0325848D01*
X0329500Y0324313D01*
X0328733Y0323546D01*
X0327198Y0325081D02*
X0327198Y0325848D01*
X0325663Y0323546D02*
X0324896Y0324313D01*
X0271000Y0332267D02*
X0270133Y0331400D01*
X0266663Y0331400D01*
X0265796Y0332267D01*
X0265796Y0334002D01*
X0266663Y0334870D01*
X0267530Y0336556D02*
X0265796Y0338291D01*
X0267530Y0340026D01*
X0271000Y0340026D01*
X0271000Y0341713D02*
X0265796Y0341713D01*
X0271000Y0345182D01*
X0265796Y0345182D01*
X0261500Y0346182D02*
X0256296Y0346182D01*
X0256296Y0342713D02*
X0261500Y0346182D01*
X0261500Y0342713D02*
X0256296Y0342713D01*
X0258030Y0341026D02*
X0256296Y0339291D01*
X0258030Y0337556D01*
X0261500Y0337556D01*
X0260633Y0335870D02*
X0261500Y0335002D01*
X0261500Y0333267D01*
X0260633Y0332400D01*
X0257163Y0332400D01*
X0256296Y0333267D01*
X0256296Y0335002D01*
X0257163Y0335870D01*
X0258898Y0337556D02*
X0258898Y0341026D01*
X0258030Y0341026D02*
X0261500Y0341026D01*
X0268398Y0340026D02*
X0268398Y0336556D01*
X0267530Y0336556D02*
X0271000Y0336556D01*
X0270133Y0334870D02*
X0271000Y0334002D01*
X0271000Y0332267D01*
X0271000Y0352026D02*
X0265796Y0352026D01*
X0268398Y0352026D02*
X0268398Y0355495D01*
X0265796Y0355495D02*
X0271000Y0355495D01*
X0261500Y0356495D02*
X0261500Y0353026D01*
X0256296Y0353026D01*
X0270250Y0268365D02*
X0270250Y0265296D01*
X0270250Y0263761D02*
X0270250Y0260692D01*
X0270250Y0259157D02*
X0268715Y0257623D01*
X0268715Y0258390D02*
X0268715Y0256088D01*
X0268948Y0256031D02*
X0268948Y0252962D01*
X0266646Y0255264D01*
X0271250Y0255264D01*
X0270250Y0256088D02*
X0265646Y0256088D01*
X0265646Y0258390D01*
X0266413Y0259157D01*
X0267948Y0259157D01*
X0268715Y0258390D01*
X0267181Y0260692D02*
X0265646Y0262227D01*
X0270250Y0262227D01*
X0267181Y0265296D02*
X0265646Y0266831D01*
X0270250Y0266831D01*
X0262500Y0263296D02*
X0261733Y0263296D01*
X0258663Y0266365D01*
X0257896Y0266365D01*
X0257896Y0263296D01*
X0258663Y0261761D02*
X0260198Y0261761D01*
X0260965Y0260994D01*
X0260965Y0258692D01*
X0260965Y0260227D02*
X0262500Y0261761D01*
X0262500Y0258692D02*
X0257896Y0258692D01*
X0257896Y0260994D01*
X0258663Y0261761D01*
X0259163Y0250573D02*
X0258396Y0249806D01*
X0258396Y0248271D01*
X0259163Y0247504D01*
X0259931Y0247504D01*
X0260698Y0248271D01*
X0260698Y0250573D01*
X0262233Y0250573D02*
X0259163Y0250573D01*
X0262233Y0250573D02*
X0263000Y0249806D01*
X0263000Y0248271D01*
X0262233Y0247504D01*
X0263000Y0245969D02*
X0261465Y0244435D01*
X0261465Y0245202D02*
X0261465Y0242900D01*
X0263000Y0242900D02*
X0258396Y0242900D01*
X0258396Y0245202D01*
X0259163Y0245969D01*
X0260698Y0245969D01*
X0261465Y0245202D01*
X0266646Y0243754D02*
X0271250Y0243754D01*
X0271250Y0246823D01*
X0271250Y0248358D02*
X0266646Y0248358D01*
X0266646Y0250660D01*
X0267413Y0251427D01*
X0270483Y0251427D01*
X0271250Y0250660D01*
X0271250Y0248358D01*
X0268948Y0245289D02*
X0268948Y0243754D01*
X0266646Y0243754D02*
X0266646Y0246823D01*
X0271250Y0242219D02*
X0271250Y0239150D01*
X0266646Y0239150D01*
X0291146Y0240150D02*
X0291146Y0242452D01*
X0291913Y0243219D01*
X0293448Y0243219D01*
X0294215Y0242452D01*
X0294215Y0240150D01*
X0294215Y0241685D02*
X0295750Y0243219D01*
X0295750Y0244754D02*
X0295750Y0247823D01*
X0295750Y0246289D02*
X0291146Y0246289D01*
X0292681Y0244754D01*
X0291913Y0249358D02*
X0291146Y0250125D01*
X0291146Y0251660D01*
X0291913Y0252427D01*
X0292681Y0252427D01*
X0295750Y0249358D01*
X0295750Y0252427D01*
X0295250Y0256088D02*
X0290646Y0256088D01*
X0290646Y0258390D01*
X0291413Y0259157D01*
X0292948Y0259157D01*
X0293715Y0258390D01*
X0293715Y0256088D01*
X0293715Y0257623D02*
X0295250Y0259157D01*
X0295250Y0260692D02*
X0295250Y0263761D01*
X0295250Y0262227D02*
X0290646Y0262227D01*
X0292181Y0260692D01*
X0291413Y0265296D02*
X0290646Y0266063D01*
X0290646Y0267598D01*
X0291413Y0268365D01*
X0294483Y0265296D01*
X0295250Y0266063D01*
X0295250Y0267598D01*
X0294483Y0268365D01*
X0291413Y0268365D01*
X0291413Y0265296D02*
X0294483Y0265296D01*
X0305913Y0246615D02*
X0305146Y0245848D01*
X0305146Y0244313D01*
X0305913Y0243546D01*
X0305146Y0242011D02*
X0305146Y0238942D01*
X0307448Y0238942D01*
X0306681Y0240477D01*
X0306681Y0241244D01*
X0307448Y0242011D01*
X0308983Y0242011D01*
X0309750Y0241244D01*
X0309750Y0239709D01*
X0308983Y0238942D01*
X0309750Y0237407D02*
X0308215Y0235873D01*
X0308215Y0236640D02*
X0308215Y0234338D01*
X0309750Y0234338D02*
X0305146Y0234338D01*
X0305146Y0236640D01*
X0305913Y0237407D01*
X0307448Y0237407D01*
X0308215Y0236640D01*
X0315146Y0236640D02*
X0315146Y0234338D01*
X0319750Y0234338D01*
X0318215Y0234338D02*
X0318215Y0236640D01*
X0317448Y0237407D01*
X0315913Y0237407D01*
X0315146Y0236640D01*
X0315146Y0238942D02*
X0315146Y0242011D01*
X0315913Y0242011D01*
X0318983Y0238942D01*
X0319750Y0238942D01*
X0319750Y0237407D02*
X0318215Y0235873D01*
X0324896Y0236390D02*
X0324896Y0234088D01*
X0329500Y0234088D01*
X0327965Y0234088D02*
X0327965Y0236390D01*
X0327198Y0237157D01*
X0325663Y0237157D01*
X0324896Y0236390D01*
X0324896Y0238692D02*
X0324896Y0241761D01*
X0325663Y0241761D01*
X0328733Y0238692D01*
X0329500Y0238692D01*
X0329500Y0237157D02*
X0327965Y0235623D01*
X0335146Y0234588D02*
X0335146Y0236890D01*
X0335913Y0237657D01*
X0337448Y0237657D01*
X0338215Y0236890D01*
X0338215Y0234588D01*
X0338215Y0236123D02*
X0339750Y0237657D01*
X0339750Y0239192D02*
X0338983Y0239192D01*
X0335913Y0242261D01*
X0335146Y0242261D01*
X0335146Y0239192D01*
X0335913Y0243796D02*
X0335146Y0244563D01*
X0335146Y0246098D01*
X0335913Y0246865D01*
X0336681Y0246865D01*
X0339750Y0243796D01*
X0339750Y0246865D01*
X0329500Y0245598D02*
X0324896Y0245598D01*
X0327198Y0243296D01*
X0327198Y0246365D01*
X0319750Y0245848D02*
X0318983Y0246615D01*
X0318215Y0246615D01*
X0317448Y0245848D01*
X0317448Y0243546D01*
X0318983Y0243546D01*
X0319750Y0244313D01*
X0319750Y0245848D01*
X0317448Y0243546D02*
X0315913Y0245081D01*
X0315146Y0246615D01*
X0309750Y0246615D02*
X0309750Y0243546D01*
X0306681Y0246615D01*
X0305913Y0246615D01*
X0295750Y0240150D02*
X0291146Y0240150D01*
X0278427Y0212004D02*
X0275358Y0212004D01*
X0275358Y0209702D01*
X0276892Y0210469D01*
X0277660Y0210469D01*
X0278427Y0209702D01*
X0278427Y0208167D01*
X0277660Y0207400D01*
X0276125Y0207400D01*
X0275358Y0208167D01*
X0273823Y0209702D02*
X0270754Y0209702D01*
X0273056Y0212004D01*
X0273056Y0207400D01*
X0269219Y0207400D02*
X0267685Y0208935D01*
X0268452Y0208935D02*
X0266150Y0208935D01*
X0266150Y0207400D02*
X0266150Y0212004D01*
X0268452Y0212004D01*
X0269219Y0211237D01*
X0269219Y0209702D01*
X0268452Y0208935D01*
X0255865Y0210469D02*
X0252796Y0207400D01*
X0255865Y0207400D01*
X0255865Y0210469D02*
X0255865Y0211237D01*
X0255098Y0212004D01*
X0253563Y0212004D01*
X0252796Y0211237D01*
X0249727Y0212004D02*
X0249727Y0207400D01*
X0251261Y0207400D02*
X0248192Y0207400D01*
X0246657Y0208167D02*
X0245890Y0207400D01*
X0244356Y0207400D01*
X0243588Y0208167D01*
X0243588Y0211237D01*
X0244356Y0212004D01*
X0245890Y0212004D01*
X0246657Y0211237D01*
X0248192Y0210469D02*
X0249727Y0212004D01*
X0225177Y0211487D02*
X0225177Y0208417D01*
X0224410Y0207650D01*
X0222875Y0207650D01*
X0222108Y0208417D01*
X0220573Y0207650D02*
X0217504Y0207650D01*
X0220573Y0210719D01*
X0220573Y0211487D01*
X0219806Y0212254D01*
X0218271Y0212254D01*
X0217504Y0211487D01*
X0215969Y0211487D02*
X0215969Y0209952D01*
X0215202Y0209185D01*
X0212900Y0209185D01*
X0214435Y0209185D02*
X0215969Y0207650D01*
X0212900Y0207650D02*
X0212900Y0212254D01*
X0215202Y0212254D01*
X0215969Y0211487D01*
X0222108Y0211487D02*
X0222108Y0210719D01*
X0222875Y0209952D01*
X0225177Y0209952D01*
X0225177Y0211487D02*
X0224410Y0212254D01*
X0222875Y0212254D01*
X0222108Y0211487D01*
X0202365Y0209702D02*
X0199296Y0209702D01*
X0201598Y0212004D01*
X0201598Y0207400D01*
X0197761Y0207400D02*
X0194692Y0207400D01*
X0196227Y0207400D02*
X0196227Y0212004D01*
X0194692Y0210469D01*
X0193157Y0211237D02*
X0192390Y0212004D01*
X0190856Y0212004D01*
X0190088Y0211237D01*
X0190088Y0208167D01*
X0190856Y0207400D01*
X0192390Y0207400D01*
X0193157Y0208167D01*
X0184677Y0212237D02*
X0181608Y0209167D01*
X0181608Y0208400D01*
X0179306Y0208400D02*
X0179306Y0213004D01*
X0177004Y0210702D01*
X0180073Y0210702D01*
X0181608Y0213004D02*
X0184677Y0213004D01*
X0184677Y0212237D01*
X0175469Y0212237D02*
X0175469Y0210702D01*
X0174702Y0209935D01*
X0172400Y0209935D01*
X0173935Y0209935D02*
X0175469Y0208400D01*
X0172400Y0208400D02*
X0172400Y0213004D01*
X0174702Y0213004D01*
X0175469Y0212237D01*
X0161365Y0212504D02*
X0159831Y0211737D01*
X0158296Y0210202D01*
X0160598Y0210202D01*
X0161365Y0209435D01*
X0161365Y0208667D01*
X0160598Y0207900D01*
X0159063Y0207900D01*
X0158296Y0208667D01*
X0158296Y0210202D01*
X0156761Y0207900D02*
X0153692Y0207900D01*
X0155227Y0207900D02*
X0155227Y0212504D01*
X0153692Y0210969D01*
X0152157Y0211737D02*
X0151390Y0212504D01*
X0149856Y0212504D01*
X0149088Y0211737D01*
X0149088Y0208667D01*
X0149856Y0207900D01*
X0151390Y0207900D01*
X0152157Y0208667D01*
X0150890Y0186754D02*
X0148588Y0186754D01*
X0148588Y0182150D01*
X0148588Y0183685D02*
X0150890Y0183685D01*
X0151657Y0184452D01*
X0151657Y0185987D01*
X0150890Y0186754D01*
X0150123Y0183685D02*
X0151657Y0182150D01*
X0153192Y0184452D02*
X0156261Y0184452D01*
X0157796Y0185219D02*
X0158563Y0184452D01*
X0160098Y0184452D01*
X0160865Y0183685D01*
X0160865Y0182917D01*
X0160098Y0182150D01*
X0158563Y0182150D01*
X0157796Y0182917D01*
X0157796Y0183685D01*
X0158563Y0184452D01*
X0157796Y0185219D02*
X0157796Y0185987D01*
X0158563Y0186754D01*
X0160098Y0186754D01*
X0160865Y0185987D01*
X0160865Y0185219D01*
X0160098Y0184452D01*
X0155494Y0182150D02*
X0155494Y0186754D01*
X0153192Y0184452D01*
X0168088Y0183417D02*
X0168856Y0182650D01*
X0170390Y0182650D01*
X0171157Y0183417D01*
X0172692Y0182650D02*
X0175761Y0182650D01*
X0174227Y0182650D02*
X0174227Y0187254D01*
X0172692Y0185719D01*
X0171157Y0186487D02*
X0170390Y0187254D01*
X0168856Y0187254D01*
X0168088Y0186487D01*
X0168088Y0183417D01*
X0177296Y0183417D02*
X0177296Y0182650D01*
X0177296Y0183417D02*
X0180365Y0186487D01*
X0180365Y0187254D01*
X0177296Y0187254D01*
X0178819Y0179941D02*
X0181121Y0179941D01*
X0181889Y0179174D01*
X0181889Y0176104D01*
X0181121Y0175337D01*
X0178819Y0175337D01*
X0178819Y0179941D01*
X0183423Y0179174D02*
X0183423Y0178406D01*
X0184191Y0177639D01*
X0186492Y0177639D01*
X0186492Y0179174D02*
X0185725Y0179941D01*
X0184191Y0179941D01*
X0183423Y0179174D01*
X0186492Y0179174D02*
X0186492Y0176104D01*
X0185725Y0175337D01*
X0184191Y0175337D01*
X0183423Y0176104D01*
X0183557Y0169067D02*
X0183557Y0164463D01*
X0182023Y0164463D02*
X0185092Y0164463D01*
X0186627Y0165230D02*
X0189696Y0168300D01*
X0189696Y0165230D01*
X0188929Y0164463D01*
X0187394Y0164463D01*
X0186627Y0165230D01*
X0186627Y0168300D01*
X0187394Y0169067D01*
X0188929Y0169067D01*
X0189696Y0168300D01*
X0183557Y0169067D02*
X0182023Y0167532D01*
X0180488Y0168300D02*
X0179721Y0169067D01*
X0177419Y0169067D01*
X0177419Y0164463D01*
X0179721Y0164463D01*
X0180488Y0165230D01*
X0180488Y0168300D01*
X0189338Y0182150D02*
X0189338Y0186754D01*
X0191640Y0186754D01*
X0192407Y0185987D01*
X0192407Y0184452D01*
X0191640Y0183685D01*
X0189338Y0183685D01*
X0190873Y0183685D02*
X0192407Y0182150D01*
X0193942Y0184452D02*
X0197011Y0184452D01*
X0198546Y0184452D02*
X0200081Y0185987D01*
X0201615Y0186754D01*
X0200848Y0184452D02*
X0198546Y0184452D01*
X0198546Y0182917D01*
X0199313Y0182150D01*
X0200848Y0182150D01*
X0201615Y0182917D01*
X0201615Y0183685D01*
X0200848Y0184452D01*
X0196244Y0186754D02*
X0193942Y0184452D01*
X0196244Y0182150D02*
X0196244Y0186754D01*
X0209088Y0186237D02*
X0209088Y0183167D01*
X0209856Y0182400D01*
X0211390Y0182400D01*
X0212157Y0183167D01*
X0213692Y0182400D02*
X0216761Y0182400D01*
X0215227Y0182400D02*
X0215227Y0187004D01*
X0213692Y0185469D01*
X0212157Y0186237D02*
X0211390Y0187004D01*
X0209856Y0187004D01*
X0209088Y0186237D01*
X0218296Y0187004D02*
X0218296Y0184702D01*
X0219831Y0185469D01*
X0220598Y0185469D01*
X0221365Y0184702D01*
X0221365Y0183167D01*
X0220598Y0182400D01*
X0219063Y0182400D01*
X0218296Y0183167D01*
X0219650Y0179754D02*
X0221952Y0179754D01*
X0222719Y0178987D01*
X0222719Y0175917D01*
X0221952Y0175150D01*
X0219650Y0175150D01*
X0219650Y0179754D01*
X0224254Y0179754D02*
X0227323Y0179754D01*
X0227323Y0178987D01*
X0224254Y0175917D01*
X0224254Y0175150D01*
X0224644Y0170317D02*
X0223877Y0169550D01*
X0223877Y0168782D01*
X0224644Y0168015D01*
X0226179Y0168015D01*
X0226946Y0167248D01*
X0226946Y0166480D01*
X0226179Y0165713D01*
X0224644Y0165713D01*
X0223877Y0166480D01*
X0223877Y0167248D01*
X0224644Y0168015D01*
X0226179Y0168015D02*
X0226946Y0168782D01*
X0226946Y0169550D01*
X0226179Y0170317D01*
X0224644Y0170317D01*
X0222342Y0169550D02*
X0222342Y0166480D01*
X0221575Y0165713D01*
X0219273Y0165713D01*
X0219273Y0170317D01*
X0221575Y0170317D01*
X0222342Y0169550D01*
X0221365Y0187004D02*
X0218296Y0187004D01*
X0244338Y0187004D02*
X0244338Y0182400D01*
X0244338Y0183935D02*
X0246640Y0183935D01*
X0247407Y0184702D01*
X0247407Y0186237D01*
X0246640Y0187004D01*
X0244338Y0187004D01*
X0245873Y0183935D02*
X0247407Y0182400D01*
X0248942Y0184702D02*
X0252011Y0184702D01*
X0253546Y0184702D02*
X0256615Y0184702D01*
X0255848Y0182400D02*
X0255848Y0187004D01*
X0253546Y0184702D01*
X0251244Y0187004D02*
X0248942Y0184702D01*
X0251244Y0182400D02*
X0251244Y0187004D01*
X0263588Y0186237D02*
X0263588Y0183167D01*
X0264356Y0182400D01*
X0265890Y0182400D01*
X0266657Y0183167D01*
X0268192Y0182400D02*
X0271261Y0182400D01*
X0269727Y0182400D02*
X0269727Y0187004D01*
X0268192Y0185469D01*
X0266657Y0186237D02*
X0265890Y0187004D01*
X0264356Y0187004D01*
X0263588Y0186237D01*
X0272796Y0186237D02*
X0273563Y0187004D01*
X0275098Y0187004D01*
X0275865Y0186237D01*
X0275865Y0185469D01*
X0275098Y0184702D01*
X0275865Y0183935D01*
X0275865Y0183167D01*
X0275098Y0182400D01*
X0273563Y0182400D01*
X0272796Y0183167D01*
X0274331Y0184702D02*
X0275098Y0184702D01*
X0279069Y0179441D02*
X0281371Y0179441D01*
X0282139Y0178674D01*
X0282139Y0175604D01*
X0281371Y0174837D01*
X0279069Y0174837D01*
X0279069Y0179441D01*
X0283673Y0179441D02*
X0283673Y0177139D01*
X0285208Y0177906D01*
X0285975Y0177906D01*
X0286742Y0177139D01*
X0286742Y0175604D01*
X0285975Y0174837D01*
X0284441Y0174837D01*
X0283673Y0175604D01*
X0283673Y0179441D02*
X0286742Y0179441D01*
X0285946Y0169317D02*
X0284411Y0168550D01*
X0282877Y0167015D01*
X0285179Y0167015D01*
X0285946Y0166248D01*
X0285946Y0165480D01*
X0285179Y0164713D01*
X0283644Y0164713D01*
X0282877Y0165480D01*
X0282877Y0167015D01*
X0281342Y0165480D02*
X0281342Y0168550D01*
X0280575Y0169317D01*
X0278273Y0169317D01*
X0278273Y0164713D01*
X0280575Y0164713D01*
X0281342Y0165480D01*
X0280056Y0157254D02*
X0277754Y0154952D01*
X0280823Y0154952D01*
X0282358Y0155719D02*
X0283125Y0154952D01*
X0285427Y0154952D01*
X0285427Y0153417D02*
X0285427Y0156487D01*
X0284660Y0157254D01*
X0283125Y0157254D01*
X0282358Y0156487D01*
X0282358Y0155719D01*
X0282358Y0153417D02*
X0283125Y0152650D01*
X0284660Y0152650D01*
X0285427Y0153417D01*
X0280056Y0152650D02*
X0280056Y0157254D01*
X0276219Y0156487D02*
X0276219Y0154952D01*
X0275452Y0154185D01*
X0273150Y0154185D01*
X0274685Y0154185D02*
X0276219Y0152650D01*
X0273150Y0152650D02*
X0273150Y0157254D01*
X0275452Y0157254D01*
X0276219Y0156487D01*
X0261865Y0156737D02*
X0261865Y0155969D01*
X0261098Y0155202D01*
X0259563Y0155202D01*
X0258796Y0155969D01*
X0258796Y0156737D01*
X0259563Y0157504D01*
X0261098Y0157504D01*
X0261865Y0156737D01*
X0261098Y0155202D02*
X0261865Y0154435D01*
X0261865Y0153667D01*
X0261098Y0152900D01*
X0259563Y0152900D01*
X0258796Y0153667D01*
X0258796Y0154435D01*
X0259563Y0155202D01*
X0257261Y0152900D02*
X0254192Y0152900D01*
X0255727Y0152900D02*
X0255727Y0157504D01*
X0254192Y0155969D01*
X0252657Y0156737D02*
X0251890Y0157504D01*
X0250356Y0157504D01*
X0249588Y0156737D01*
X0249588Y0153667D01*
X0250356Y0152900D01*
X0251890Y0152900D01*
X0252657Y0153667D01*
X0251890Y0131504D02*
X0249588Y0131504D01*
X0249588Y0126900D01*
X0249588Y0128435D02*
X0251890Y0128435D01*
X0252657Y0129202D01*
X0252657Y0130737D01*
X0251890Y0131504D01*
X0254192Y0131504D02*
X0254192Y0129202D01*
X0255727Y0129969D01*
X0256494Y0129969D01*
X0257261Y0129202D01*
X0257261Y0127667D01*
X0256494Y0126900D01*
X0254959Y0126900D01*
X0254192Y0127667D01*
X0252657Y0126900D02*
X0251123Y0128435D01*
X0254192Y0131504D02*
X0257261Y0131504D01*
X0258796Y0130737D02*
X0259563Y0131504D01*
X0261098Y0131504D01*
X0261865Y0130737D01*
X0258796Y0127667D01*
X0259563Y0126900D01*
X0261098Y0126900D01*
X0261865Y0127667D01*
X0261865Y0130737D01*
X0258796Y0130737D02*
X0258796Y0127667D01*
X0268588Y0128167D02*
X0269356Y0127400D01*
X0270890Y0127400D01*
X0271657Y0128167D01*
X0273192Y0127400D02*
X0276261Y0127400D01*
X0274727Y0127400D02*
X0274727Y0132004D01*
X0273192Y0130469D01*
X0271657Y0131237D02*
X0270890Y0132004D01*
X0269356Y0132004D01*
X0268588Y0131237D01*
X0268588Y0128167D01*
X0277796Y0128167D02*
X0278563Y0127400D01*
X0280098Y0127400D01*
X0280865Y0128167D01*
X0280865Y0131237D01*
X0280098Y0132004D01*
X0278563Y0132004D01*
X0277796Y0131237D01*
X0277796Y0130469D01*
X0278563Y0129702D01*
X0280865Y0129702D01*
X0281621Y0124441D02*
X0279319Y0124441D01*
X0279319Y0119837D01*
X0281621Y0119837D01*
X0282389Y0120604D01*
X0282389Y0123674D01*
X0281621Y0124441D01*
X0283923Y0122906D02*
X0285458Y0124441D01*
X0285458Y0119837D01*
X0286992Y0119837D02*
X0283923Y0119837D01*
X0288527Y0119837D02*
X0291596Y0119837D01*
X0290062Y0119837D02*
X0290062Y0124441D01*
X0288527Y0122906D01*
X0289179Y0114317D02*
X0287644Y0114317D01*
X0286877Y0113550D01*
X0289179Y0114317D02*
X0289946Y0113550D01*
X0289946Y0112782D01*
X0286877Y0109713D01*
X0289946Y0109713D01*
X0285342Y0109713D02*
X0282273Y0109713D01*
X0283807Y0109713D02*
X0283807Y0114317D01*
X0282273Y0112782D01*
X0280738Y0113550D02*
X0280738Y0110480D01*
X0279971Y0109713D01*
X0277669Y0109713D01*
X0277669Y0114317D01*
X0279971Y0114317D01*
X0280738Y0113550D01*
X0281875Y0102504D02*
X0283410Y0102504D01*
X0284177Y0101737D01*
X0284177Y0100969D01*
X0283410Y0100202D01*
X0284177Y0099435D01*
X0284177Y0098667D01*
X0283410Y0097900D01*
X0281875Y0097900D01*
X0281108Y0098667D01*
X0282642Y0100202D02*
X0283410Y0100202D01*
X0281108Y0101737D02*
X0281875Y0102504D01*
X0278806Y0102504D02*
X0276504Y0100202D01*
X0279573Y0100202D01*
X0278806Y0097900D02*
X0278806Y0102504D01*
X0274969Y0101737D02*
X0274969Y0100202D01*
X0274202Y0099435D01*
X0271900Y0099435D01*
X0273435Y0099435D02*
X0274969Y0097900D01*
X0271900Y0097900D02*
X0271900Y0102504D01*
X0274202Y0102504D01*
X0274969Y0101737D01*
X0261365Y0102254D02*
X0259831Y0101487D01*
X0258296Y0099952D01*
X0260598Y0099952D01*
X0261365Y0099185D01*
X0261365Y0098417D01*
X0260598Y0097650D01*
X0259063Y0097650D01*
X0258296Y0098417D01*
X0258296Y0099952D01*
X0256761Y0101487D02*
X0255994Y0102254D01*
X0254459Y0102254D01*
X0253692Y0101487D01*
X0253692Y0098417D01*
X0254459Y0097650D01*
X0255994Y0097650D01*
X0256761Y0098417D01*
X0258244Y0076254D02*
X0255942Y0073952D01*
X0259011Y0073952D01*
X0260546Y0075487D02*
X0261313Y0076254D01*
X0262848Y0076254D01*
X0263615Y0075487D01*
X0263615Y0074719D01*
X0260546Y0071650D01*
X0263615Y0071650D01*
X0258244Y0071650D02*
X0258244Y0076254D01*
X0254407Y0075487D02*
X0254407Y0073952D01*
X0253640Y0073185D01*
X0251338Y0073185D01*
X0252873Y0073185D02*
X0254407Y0071650D01*
X0251338Y0071650D02*
X0251338Y0076254D01*
X0253640Y0076254D01*
X0254407Y0075487D01*
X0271692Y0075487D02*
X0271692Y0072417D01*
X0272459Y0071650D01*
X0273994Y0071650D01*
X0274761Y0072417D01*
X0276296Y0072417D02*
X0276296Y0071650D01*
X0276296Y0072417D02*
X0279365Y0075487D01*
X0279365Y0076254D01*
X0276296Y0076254D01*
X0274761Y0075487D02*
X0273994Y0076254D01*
X0272459Y0076254D01*
X0271692Y0075487D01*
X0280069Y0069441D02*
X0280069Y0064837D01*
X0282371Y0064837D01*
X0283139Y0065604D01*
X0283139Y0068674D01*
X0282371Y0069441D01*
X0280069Y0069441D01*
X0284673Y0067906D02*
X0286208Y0069441D01*
X0286208Y0064837D01*
X0287742Y0064837D02*
X0284673Y0064837D01*
X0284394Y0059317D02*
X0283627Y0058550D01*
X0284394Y0059317D02*
X0285929Y0059317D01*
X0286696Y0058550D01*
X0286696Y0057782D01*
X0283627Y0054713D01*
X0286696Y0054713D01*
X0282092Y0055480D02*
X0282092Y0058550D01*
X0281325Y0059317D01*
X0279023Y0059317D01*
X0279023Y0054713D01*
X0281325Y0054713D01*
X0282092Y0055480D01*
X0215365Y0083417D02*
X0215365Y0086487D01*
X0214598Y0087254D01*
X0213063Y0087254D01*
X0212296Y0086487D01*
X0212296Y0085719D01*
X0213063Y0084952D01*
X0215365Y0084952D01*
X0215365Y0083417D02*
X0214598Y0082650D01*
X0213063Y0082650D01*
X0212296Y0083417D01*
X0210761Y0083417D02*
X0210761Y0086487D01*
X0209994Y0087254D01*
X0207692Y0087254D01*
X0207692Y0082650D01*
X0209994Y0082650D01*
X0210761Y0083417D01*
X0206157Y0082650D02*
X0203088Y0082650D01*
X0203088Y0087254D01*
X0206157Y0087254D01*
X0204623Y0084952D02*
X0203088Y0084952D01*
X0201554Y0082650D02*
X0198484Y0082650D01*
X0198484Y0087254D01*
X0197177Y0086237D02*
X0197177Y0085469D01*
X0196410Y0084702D01*
X0194875Y0084702D01*
X0194108Y0085469D01*
X0194108Y0086237D01*
X0194875Y0087004D01*
X0196410Y0087004D01*
X0197177Y0086237D01*
X0196410Y0084702D02*
X0197177Y0083935D01*
X0197177Y0083167D01*
X0196410Y0082400D01*
X0194875Y0082400D01*
X0194108Y0083167D01*
X0194108Y0083935D01*
X0194875Y0084702D01*
X0192573Y0085469D02*
X0191806Y0084702D01*
X0192573Y0083935D01*
X0192573Y0083167D01*
X0191806Y0082400D01*
X0190271Y0082400D01*
X0189504Y0083167D01*
X0187969Y0082400D02*
X0186435Y0083935D01*
X0187202Y0083935D02*
X0184900Y0083935D01*
X0184900Y0082400D02*
X0184900Y0087004D01*
X0187202Y0087004D01*
X0187969Y0086237D01*
X0187969Y0084702D01*
X0187202Y0083935D01*
X0189504Y0086237D02*
X0190271Y0087004D01*
X0191806Y0087004D01*
X0192573Y0086237D01*
X0192573Y0085469D01*
X0191806Y0084702D02*
X0191039Y0084702D01*
X0189994Y0108400D02*
X0188459Y0108400D01*
X0187692Y0109167D01*
X0186157Y0108400D02*
X0184623Y0109935D01*
X0185390Y0109935D02*
X0183088Y0109935D01*
X0183088Y0108400D02*
X0183088Y0113004D01*
X0185390Y0113004D01*
X0186157Y0112237D01*
X0186157Y0110702D01*
X0185390Y0109935D01*
X0187692Y0112237D02*
X0188459Y0113004D01*
X0189994Y0113004D01*
X0190761Y0112237D01*
X0190761Y0111469D01*
X0189994Y0110702D01*
X0190761Y0109935D01*
X0190761Y0109167D01*
X0189994Y0108400D01*
X0189994Y0110702D02*
X0189227Y0110702D01*
X0192296Y0109167D02*
X0192296Y0108400D01*
X0192296Y0109167D02*
X0195365Y0112237D01*
X0195365Y0113004D01*
X0192296Y0113004D01*
X0191306Y0114650D02*
X0191306Y0119254D01*
X0189004Y0116952D01*
X0192073Y0116952D01*
X0193608Y0118487D02*
X0194375Y0119254D01*
X0195910Y0119254D01*
X0196677Y0118487D01*
X0193608Y0115417D01*
X0194375Y0114650D01*
X0195910Y0114650D01*
X0196677Y0115417D01*
X0196677Y0118487D01*
X0193608Y0118487D02*
X0193608Y0115417D01*
X0187469Y0114650D02*
X0185935Y0116185D01*
X0186702Y0116185D02*
X0184400Y0116185D01*
X0184400Y0114650D02*
X0184400Y0119254D01*
X0186702Y0119254D01*
X0187469Y0118487D01*
X0187469Y0116952D01*
X0186702Y0116185D01*
X0200088Y0116185D02*
X0202390Y0116185D01*
X0203157Y0116952D01*
X0203157Y0118487D01*
X0202390Y0119254D01*
X0200088Y0119254D01*
X0200088Y0114650D01*
X0201623Y0116185D02*
X0203157Y0114650D01*
X0203140Y0112254D02*
X0200838Y0112254D01*
X0200838Y0107650D01*
X0200838Y0109185D02*
X0203140Y0109185D01*
X0203907Y0109952D01*
X0203907Y0111487D01*
X0203140Y0112254D01*
X0205442Y0111487D02*
X0206209Y0112254D01*
X0207744Y0112254D01*
X0208511Y0111487D01*
X0208511Y0110719D01*
X0207744Y0109952D01*
X0208511Y0109185D01*
X0208511Y0108417D01*
X0207744Y0107650D01*
X0206209Y0107650D01*
X0205442Y0108417D01*
X0203907Y0107650D02*
X0202373Y0109185D01*
X0206977Y0109952D02*
X0207744Y0109952D01*
X0210046Y0109952D02*
X0210046Y0108417D01*
X0210813Y0107650D01*
X0212348Y0107650D01*
X0213115Y0108417D01*
X0213115Y0109185D01*
X0212348Y0109952D01*
X0210046Y0109952D01*
X0211581Y0111487D01*
X0213115Y0112254D01*
X0212365Y0114650D02*
X0209296Y0114650D01*
X0210831Y0114650D02*
X0210831Y0119254D01*
X0209296Y0117719D01*
X0207761Y0116952D02*
X0204692Y0116952D01*
X0206994Y0119254D01*
X0206994Y0114650D01*
X0207140Y0138650D02*
X0207907Y0139417D01*
X0207907Y0142487D01*
X0207140Y0143254D01*
X0204838Y0143254D01*
X0204838Y0138650D01*
X0207140Y0138650D01*
X0209442Y0138650D02*
X0212511Y0138650D01*
X0210977Y0138650D02*
X0210977Y0143254D01*
X0209442Y0141719D01*
X0214046Y0142487D02*
X0214813Y0143254D01*
X0216348Y0143254D01*
X0217115Y0142487D01*
X0214046Y0139417D01*
X0214813Y0138650D01*
X0216348Y0138650D01*
X0217115Y0139417D01*
X0217115Y0142487D01*
X0214046Y0142487D02*
X0214046Y0139417D01*
X0203304Y0138650D02*
X0200234Y0138650D01*
X0200234Y0143254D01*
X0203304Y0143254D01*
X0201769Y0140952D02*
X0200234Y0140952D01*
X0198700Y0138650D02*
X0195630Y0138650D01*
X0195630Y0143254D01*
X0195125Y0144254D02*
X0194358Y0143487D01*
X0194358Y0142719D01*
X0195125Y0141952D01*
X0197427Y0141952D01*
X0197427Y0140417D02*
X0197427Y0143487D01*
X0196660Y0144254D01*
X0195125Y0144254D01*
X0192823Y0143487D02*
X0192823Y0142719D01*
X0192056Y0141952D01*
X0192823Y0141185D01*
X0192823Y0140417D01*
X0192056Y0139650D01*
X0190521Y0139650D01*
X0189754Y0140417D01*
X0188219Y0139650D02*
X0186685Y0141185D01*
X0187452Y0141185D02*
X0185150Y0141185D01*
X0185150Y0139650D02*
X0185150Y0144254D01*
X0187452Y0144254D01*
X0188219Y0143487D01*
X0188219Y0141952D01*
X0187452Y0141185D01*
X0189754Y0143487D02*
X0190521Y0144254D01*
X0192056Y0144254D01*
X0192823Y0143487D01*
X0192056Y0141952D02*
X0191289Y0141952D01*
X0194358Y0140417D02*
X0195125Y0139650D01*
X0196660Y0139650D01*
X0197427Y0140417D01*
X0165799Y0122024D02*
X0165799Y0120489D01*
X0165032Y0119722D01*
X0161963Y0122791D01*
X0165032Y0122791D01*
X0165799Y0122024D01*
X0165032Y0119722D02*
X0161963Y0119722D01*
X0161195Y0120489D01*
X0161195Y0122024D01*
X0161963Y0122791D01*
X0165799Y0118187D02*
X0165799Y0115118D01*
X0165799Y0116652D02*
X0161195Y0116652D01*
X0162730Y0115118D01*
X0161963Y0113583D02*
X0161195Y0112816D01*
X0161195Y0111281D01*
X0161963Y0110514D01*
X0162730Y0110514D01*
X0163497Y0111281D01*
X0163497Y0112816D01*
X0164265Y0113583D01*
X0165032Y0113583D01*
X0165799Y0112816D01*
X0165799Y0111281D01*
X0165032Y0110514D01*
X0165032Y0108979D02*
X0161195Y0108979D01*
X0161195Y0105910D02*
X0165032Y0105910D01*
X0165799Y0106677D01*
X0165799Y0108212D01*
X0165032Y0108979D01*
X0166567Y0112048D02*
X0160428Y0112048D01*
X0137865Y0101237D02*
X0137865Y0100469D01*
X0137098Y0099702D01*
X0137865Y0098935D01*
X0137865Y0098167D01*
X0137098Y0097400D01*
X0135563Y0097400D01*
X0134796Y0098167D01*
X0133261Y0098167D02*
X0132494Y0097400D01*
X0130959Y0097400D01*
X0130192Y0098167D01*
X0128657Y0097400D02*
X0127123Y0098935D01*
X0127890Y0098935D02*
X0125588Y0098935D01*
X0125588Y0097400D02*
X0125588Y0102004D01*
X0127890Y0102004D01*
X0128657Y0101237D01*
X0128657Y0099702D01*
X0127890Y0098935D01*
X0130192Y0101237D02*
X0130959Y0102004D01*
X0132494Y0102004D01*
X0133261Y0101237D01*
X0133261Y0100469D01*
X0132494Y0099702D01*
X0133261Y0098935D01*
X0133261Y0098167D01*
X0132494Y0099702D02*
X0131727Y0099702D01*
X0134796Y0101237D02*
X0135563Y0102004D01*
X0137098Y0102004D01*
X0137865Y0101237D01*
X0137098Y0099702D02*
X0136331Y0099702D01*
X0134483Y0107692D02*
X0131413Y0107692D01*
X0130646Y0108459D01*
X0130646Y0109994D01*
X0131413Y0110761D01*
X0132948Y0112296D02*
X0132948Y0115365D01*
X0130646Y0114598D02*
X0132948Y0112296D01*
X0134483Y0110761D02*
X0135250Y0109994D01*
X0135250Y0108459D01*
X0134483Y0107692D01*
X0135250Y0114598D02*
X0130646Y0114598D01*
X0132011Y0123400D02*
X0128942Y0123400D01*
X0132011Y0126469D01*
X0132011Y0127237D01*
X0131244Y0128004D01*
X0129709Y0128004D01*
X0128942Y0127237D01*
X0127407Y0127237D02*
X0127407Y0125702D01*
X0126640Y0124935D01*
X0124338Y0124935D01*
X0125873Y0124935D02*
X0127407Y0123400D01*
X0124338Y0123400D02*
X0124338Y0128004D01*
X0126640Y0128004D01*
X0127407Y0127237D01*
X0133546Y0127237D02*
X0133546Y0126469D01*
X0134313Y0125702D01*
X0135848Y0125702D01*
X0136615Y0124935D01*
X0136615Y0124167D01*
X0135848Y0123400D01*
X0134313Y0123400D01*
X0133546Y0124167D01*
X0133546Y0124935D01*
X0134313Y0125702D01*
X0135848Y0125702D02*
X0136615Y0126469D01*
X0136615Y0127237D01*
X0135848Y0128004D01*
X0134313Y0128004D01*
X0133546Y0127237D01*
X0119115Y0125452D02*
X0116046Y0125452D01*
X0118348Y0127754D01*
X0118348Y0123150D01*
X0114511Y0123917D02*
X0113744Y0123150D01*
X0112209Y0123150D01*
X0111442Y0123917D01*
X0109907Y0123150D02*
X0108373Y0124685D01*
X0109140Y0124685D02*
X0106838Y0124685D01*
X0106838Y0123150D02*
X0106838Y0127754D01*
X0109140Y0127754D01*
X0109907Y0126987D01*
X0109907Y0125452D01*
X0109140Y0124685D01*
X0111442Y0126987D02*
X0112209Y0127754D01*
X0113744Y0127754D01*
X0114511Y0126987D01*
X0114511Y0126219D01*
X0113744Y0125452D01*
X0114511Y0124685D01*
X0114511Y0123917D01*
X0113744Y0125452D02*
X0112977Y0125452D01*
X0116163Y0116823D02*
X0116931Y0116823D01*
X0117698Y0116056D01*
X0118465Y0116823D01*
X0119233Y0116823D01*
X0120000Y0116056D01*
X0120000Y0114521D01*
X0119233Y0113754D01*
X0119233Y0112219D02*
X0120000Y0111452D01*
X0120000Y0109917D01*
X0119233Y0109150D01*
X0116163Y0109150D01*
X0115396Y0109917D01*
X0115396Y0111452D01*
X0116163Y0112219D01*
X0116163Y0113754D02*
X0115396Y0114521D01*
X0115396Y0116056D01*
X0116163Y0116823D01*
X0117698Y0116056D02*
X0117698Y0115289D01*
X0104750Y0114254D02*
X0101681Y0117323D01*
X0100913Y0117323D01*
X0100146Y0116556D01*
X0100146Y0115021D01*
X0100913Y0114254D01*
X0100913Y0112719D02*
X0100146Y0111952D01*
X0100146Y0110417D01*
X0100913Y0109650D01*
X0103983Y0109650D01*
X0104750Y0110417D01*
X0104750Y0111952D01*
X0103983Y0112719D01*
X0104750Y0114254D02*
X0104750Y0117323D01*
X0108338Y0102004D02*
X0110640Y0102004D01*
X0111407Y0101237D01*
X0111407Y0099702D01*
X0110640Y0098935D01*
X0108338Y0098935D01*
X0109873Y0098935D02*
X0111407Y0097400D01*
X0112942Y0097400D02*
X0116011Y0100469D01*
X0116011Y0101237D01*
X0115244Y0102004D01*
X0113709Y0102004D01*
X0112942Y0101237D01*
X0112942Y0097400D02*
X0116011Y0097400D01*
X0117546Y0098167D02*
X0118313Y0097400D01*
X0119848Y0097400D01*
X0120615Y0098167D01*
X0120615Y0098935D01*
X0119848Y0099702D01*
X0117546Y0099702D01*
X0117546Y0098167D01*
X0117546Y0099702D02*
X0119081Y0101237D01*
X0120615Y0102004D01*
X0108338Y0102004D02*
X0108338Y0097400D01*
X0087250Y0092348D02*
X0087250Y0090813D01*
X0086483Y0090046D01*
X0083413Y0093115D01*
X0086483Y0093115D01*
X0087250Y0092348D01*
X0086483Y0090046D02*
X0083413Y0090046D01*
X0082646Y0090813D01*
X0082646Y0092348D01*
X0083413Y0093115D01*
X0083413Y0088511D02*
X0084181Y0088511D01*
X0084948Y0087744D01*
X0085715Y0088511D01*
X0086483Y0088511D01*
X0087250Y0087744D01*
X0087250Y0086209D01*
X0086483Y0085442D01*
X0087250Y0083907D02*
X0085715Y0082373D01*
X0085715Y0083140D02*
X0085715Y0080838D01*
X0087250Y0080838D02*
X0082646Y0080838D01*
X0082646Y0083140D01*
X0083413Y0083907D01*
X0084948Y0083907D01*
X0085715Y0083140D01*
X0083413Y0085442D02*
X0082646Y0086209D01*
X0082646Y0087744D01*
X0083413Y0088511D01*
X0084948Y0087744D02*
X0084948Y0086977D01*
X0108088Y0076254D02*
X0108088Y0071650D01*
X0108088Y0073185D02*
X0110390Y0073185D01*
X0111157Y0073952D01*
X0111157Y0075487D01*
X0110390Y0076254D01*
X0108088Y0076254D01*
X0109623Y0073185D02*
X0111157Y0071650D01*
X0112692Y0071650D02*
X0115761Y0074719D01*
X0115761Y0075487D01*
X0114994Y0076254D01*
X0113459Y0076254D01*
X0112692Y0075487D01*
X0112692Y0071650D02*
X0115761Y0071650D01*
X0117296Y0072417D02*
X0118063Y0071650D01*
X0119598Y0071650D01*
X0120365Y0072417D01*
X0120365Y0073952D01*
X0119598Y0074719D01*
X0118831Y0074719D01*
X0117296Y0073952D01*
X0117296Y0076254D01*
X0120365Y0076254D01*
X0125088Y0076504D02*
X0125088Y0071900D01*
X0125088Y0073435D02*
X0127390Y0073435D01*
X0128157Y0074202D01*
X0128157Y0075737D01*
X0127390Y0076504D01*
X0125088Y0076504D01*
X0126623Y0073435D02*
X0128157Y0071900D01*
X0129692Y0072667D02*
X0130459Y0071900D01*
X0131994Y0071900D01*
X0132761Y0072667D01*
X0132761Y0073435D01*
X0131994Y0074202D01*
X0131227Y0074202D01*
X0131994Y0074202D02*
X0132761Y0074969D01*
X0132761Y0075737D01*
X0131994Y0076504D01*
X0130459Y0076504D01*
X0129692Y0075737D01*
X0134296Y0074969D02*
X0135831Y0076504D01*
X0135831Y0071900D01*
X0137365Y0071900D02*
X0134296Y0071900D01*
X0145146Y0072167D02*
X0145913Y0071400D01*
X0148983Y0071400D01*
X0149750Y0072167D01*
X0149750Y0073702D01*
X0148983Y0074469D01*
X0149750Y0076004D02*
X0149750Y0079073D01*
X0149750Y0077539D02*
X0145146Y0077539D01*
X0146681Y0076004D01*
X0145913Y0074469D02*
X0145146Y0073702D01*
X0145146Y0072167D01*
X0142478Y0047004D02*
X0144213Y0045270D01*
X0144213Y0041800D01*
X0144213Y0044402D02*
X0140744Y0044402D01*
X0140744Y0045270D02*
X0142478Y0047004D01*
X0140744Y0045270D02*
X0140744Y0041800D01*
X0139033Y0041800D02*
X0138165Y0041800D01*
X0138165Y0042667D01*
X0139033Y0042667D01*
X0139033Y0041800D01*
X0134744Y0041800D02*
X0136479Y0045270D01*
X0133009Y0045270D02*
X0134744Y0041800D01*
X0131322Y0043535D02*
X0127853Y0043535D01*
X0127853Y0044402D02*
X0128720Y0045270D01*
X0130455Y0045270D01*
X0131322Y0044402D01*
X0131322Y0043535D01*
X0130455Y0041800D02*
X0128720Y0041800D01*
X0127853Y0042667D01*
X0127853Y0044402D01*
X0126158Y0045270D02*
X0125290Y0045270D01*
X0123556Y0043535D01*
X0123597Y0044252D02*
X0121862Y0044252D01*
X0120995Y0045120D01*
X0120995Y0045987D01*
X0121862Y0046854D01*
X0123597Y0046854D01*
X0124464Y0045987D01*
X0124464Y0045120D01*
X0123597Y0044252D01*
X0124464Y0043385D01*
X0124464Y0042517D01*
X0123597Y0041650D01*
X0121862Y0041650D01*
X0120995Y0042517D01*
X0120995Y0043385D01*
X0121862Y0044252D01*
X0123556Y0045270D02*
X0123556Y0041800D01*
X0119308Y0041650D02*
X0115838Y0041650D01*
X0119308Y0045120D01*
X0119308Y0045987D01*
X0118441Y0046854D01*
X0116706Y0046854D01*
X0115838Y0045987D01*
X0114152Y0044252D02*
X0110682Y0044252D01*
X0113284Y0046854D01*
X0113284Y0041650D01*
X0108995Y0042517D02*
X0108128Y0041650D01*
X0106393Y0041650D01*
X0105526Y0042517D01*
X0108995Y0045987D01*
X0108995Y0042517D01*
X0105526Y0042517D02*
X0105526Y0045987D01*
X0106393Y0046854D01*
X0108128Y0046854D01*
X0108995Y0045987D01*
X0103839Y0045987D02*
X0102971Y0046854D01*
X0101237Y0046854D01*
X0100369Y0045987D01*
X0100369Y0045120D01*
X0101237Y0044252D01*
X0102971Y0044252D01*
X0103839Y0043385D01*
X0103839Y0042517D01*
X0102971Y0041650D01*
X0101237Y0041650D01*
X0100369Y0042517D01*
X0100369Y0043385D01*
X0101237Y0044252D01*
X0102971Y0044252D02*
X0103839Y0045120D01*
X0103839Y0045987D01*
X0098682Y0041650D02*
X0095213Y0041650D01*
X0096948Y0041650D02*
X0096948Y0046854D01*
X0095213Y0045120D01*
X0093526Y0045987D02*
X0090056Y0042517D01*
X0090924Y0041650D01*
X0092659Y0041650D01*
X0093526Y0042517D01*
X0093526Y0045987D01*
X0092659Y0046854D01*
X0090924Y0046854D01*
X0090056Y0045987D01*
X0090056Y0042517D01*
X0088370Y0041650D02*
X0084900Y0041650D01*
X0088370Y0045120D01*
X0088370Y0045987D01*
X0087502Y0046854D01*
X0085767Y0046854D01*
X0084900Y0045987D01*
X0086215Y0133900D02*
X0086215Y0136202D01*
X0085448Y0136969D01*
X0083913Y0136969D01*
X0083146Y0136202D01*
X0083146Y0133900D01*
X0087750Y0133900D01*
X0086215Y0135435D02*
X0087750Y0136969D01*
X0086983Y0138504D02*
X0087750Y0139271D01*
X0087750Y0140806D01*
X0086983Y0141573D01*
X0086215Y0141573D01*
X0085448Y0140806D01*
X0085448Y0140039D01*
X0085448Y0140806D02*
X0084681Y0141573D01*
X0083913Y0141573D01*
X0083146Y0140806D01*
X0083146Y0139271D01*
X0083913Y0138504D01*
X0083913Y0143108D02*
X0083146Y0143875D01*
X0083146Y0145410D01*
X0083913Y0146177D01*
X0084681Y0146177D01*
X0087750Y0143108D01*
X0087750Y0146177D01*
X0108588Y0148900D02*
X0108588Y0153504D01*
X0110890Y0153504D01*
X0111657Y0152737D01*
X0111657Y0151202D01*
X0110890Y0150435D01*
X0108588Y0150435D01*
X0110123Y0150435D02*
X0111657Y0148900D01*
X0113192Y0148900D02*
X0116261Y0151969D01*
X0116261Y0152737D01*
X0115494Y0153504D01*
X0113959Y0153504D01*
X0113192Y0152737D01*
X0113192Y0148900D02*
X0116261Y0148900D01*
X0117796Y0148900D02*
X0117796Y0149667D01*
X0120865Y0152737D01*
X0120865Y0153504D01*
X0117796Y0153504D01*
X0125338Y0153754D02*
X0125338Y0149150D01*
X0125338Y0150685D02*
X0127640Y0150685D01*
X0128407Y0151452D01*
X0128407Y0152987D01*
X0127640Y0153754D01*
X0125338Y0153754D01*
X0126873Y0150685D02*
X0128407Y0149150D01*
X0129942Y0149917D02*
X0130709Y0149150D01*
X0132244Y0149150D01*
X0133011Y0149917D01*
X0133011Y0150685D01*
X0132244Y0151452D01*
X0131477Y0151452D01*
X0132244Y0151452D02*
X0133011Y0152219D01*
X0133011Y0152987D01*
X0132244Y0153754D01*
X0130709Y0153754D01*
X0129942Y0152987D01*
X0134546Y0153754D02*
X0134546Y0151452D01*
X0136081Y0152219D01*
X0136848Y0152219D01*
X0137615Y0151452D01*
X0137615Y0149917D01*
X0136848Y0149150D01*
X0135313Y0149150D01*
X0134546Y0149917D01*
X0134546Y0153754D02*
X0137615Y0153754D01*
X0144896Y0154365D02*
X0144896Y0151296D01*
X0147198Y0151296D01*
X0146431Y0152831D01*
X0146431Y0153598D01*
X0147198Y0154365D01*
X0148733Y0154365D01*
X0149500Y0153598D01*
X0149500Y0152063D01*
X0148733Y0151296D01*
X0148733Y0149761D02*
X0149500Y0148994D01*
X0149500Y0147459D01*
X0148733Y0146692D01*
X0145663Y0146692D01*
X0144896Y0147459D01*
X0144896Y0148994D01*
X0145663Y0149761D01*
X0140250Y0238150D02*
X0135646Y0238150D01*
X0132500Y0239900D02*
X0127896Y0239900D01*
X0127896Y0242202D01*
X0128663Y0242969D01*
X0130198Y0242969D01*
X0130965Y0242202D01*
X0130965Y0239900D01*
X0130965Y0241435D02*
X0132500Y0242969D01*
X0132500Y0244504D02*
X0129431Y0247573D01*
X0128663Y0247573D01*
X0127896Y0246806D01*
X0127896Y0245271D01*
X0128663Y0244504D01*
X0132500Y0244504D02*
X0132500Y0247573D01*
X0132500Y0249108D02*
X0132500Y0252177D01*
X0132500Y0250642D02*
X0127896Y0250642D01*
X0129431Y0249108D01*
X0135646Y0249660D02*
X0135646Y0247358D01*
X0140250Y0247358D01*
X0140250Y0249660D01*
X0139483Y0250427D01*
X0136413Y0250427D01*
X0135646Y0249660D01*
X0136413Y0251962D02*
X0137181Y0251962D01*
X0137948Y0252729D01*
X0137948Y0254264D01*
X0138715Y0255031D01*
X0139483Y0255031D01*
X0140250Y0254264D01*
X0140250Y0252729D01*
X0139483Y0251962D01*
X0138715Y0251962D01*
X0137948Y0252729D01*
X0137948Y0254264D02*
X0137181Y0255031D01*
X0136413Y0255031D01*
X0135646Y0254264D01*
X0135646Y0252729D01*
X0136413Y0251962D01*
X0135146Y0255338D02*
X0135146Y0257640D01*
X0135913Y0258407D01*
X0137448Y0258407D01*
X0138215Y0257640D01*
X0138215Y0255338D01*
X0138215Y0256873D02*
X0139750Y0258407D01*
X0139750Y0259942D02*
X0136681Y0263011D01*
X0135913Y0263011D01*
X0135146Y0262244D01*
X0135146Y0260709D01*
X0135913Y0259942D01*
X0132500Y0259942D02*
X0132500Y0263011D01*
X0132500Y0261477D02*
X0127896Y0261477D01*
X0129431Y0259942D01*
X0130198Y0258407D02*
X0130965Y0257640D01*
X0130965Y0255338D01*
X0130965Y0256873D02*
X0132500Y0258407D01*
X0130198Y0258407D02*
X0128663Y0258407D01*
X0127896Y0257640D01*
X0127896Y0255338D01*
X0132500Y0255338D01*
X0135146Y0255338D02*
X0139750Y0255338D01*
X0139750Y0259942D02*
X0139750Y0263011D01*
X0138983Y0264546D02*
X0139750Y0265313D01*
X0139750Y0266848D01*
X0138983Y0267615D01*
X0138215Y0267615D01*
X0137448Y0266848D01*
X0137448Y0266081D01*
X0137448Y0266848D02*
X0136681Y0267615D01*
X0135913Y0267615D01*
X0135146Y0266848D01*
X0135146Y0265313D01*
X0135913Y0264546D01*
X0132500Y0265313D02*
X0132500Y0266848D01*
X0131733Y0267615D01*
X0128663Y0267615D01*
X0127896Y0266848D01*
X0127896Y0265313D01*
X0128663Y0264546D01*
X0129431Y0264546D01*
X0130198Y0265313D01*
X0130198Y0267615D01*
X0132500Y0265313D02*
X0131733Y0264546D01*
X0107500Y0263511D02*
X0107500Y0260442D01*
X0104431Y0263511D01*
X0103663Y0263511D01*
X0102896Y0262744D01*
X0102896Y0261209D01*
X0103663Y0260442D01*
X0103663Y0258907D02*
X0105198Y0258907D01*
X0105965Y0258140D01*
X0105965Y0255838D01*
X0104663Y0256031D02*
X0107733Y0252962D01*
X0108500Y0252962D01*
X0107733Y0251427D02*
X0104663Y0251427D01*
X0103896Y0250660D01*
X0103896Y0248358D01*
X0108500Y0248358D01*
X0108500Y0250660D01*
X0107733Y0251427D01*
X0103896Y0252962D02*
X0103896Y0256031D01*
X0104663Y0256031D01*
X0102896Y0255838D02*
X0102896Y0258140D01*
X0103663Y0258907D01*
X0101250Y0258907D02*
X0099715Y0257373D01*
X0099715Y0258140D02*
X0099715Y0255838D01*
X0101250Y0255838D02*
X0096646Y0255838D01*
X0096646Y0258140D01*
X0097413Y0258907D01*
X0098948Y0258907D01*
X0099715Y0258140D01*
X0098181Y0260442D02*
X0096646Y0261977D01*
X0101250Y0261977D01*
X0101250Y0263511D02*
X0101250Y0260442D01*
X0100483Y0265046D02*
X0101250Y0265813D01*
X0101250Y0267348D01*
X0100483Y0268115D01*
X0099715Y0268115D01*
X0098948Y0267348D01*
X0098948Y0265046D01*
X0100483Y0265046D01*
X0098948Y0265046D02*
X0097413Y0266581D01*
X0096646Y0268115D01*
X0102896Y0267348D02*
X0103663Y0268115D01*
X0106733Y0265046D01*
X0107500Y0265813D01*
X0107500Y0267348D01*
X0106733Y0268115D01*
X0103663Y0268115D01*
X0102896Y0267348D02*
X0102896Y0265813D01*
X0103663Y0265046D01*
X0106733Y0265046D01*
X0107500Y0258907D02*
X0105965Y0257373D01*
X0107500Y0255838D02*
X0102896Y0255838D01*
X0100483Y0252927D02*
X0101250Y0252160D01*
X0101250Y0250625D01*
X0100483Y0249858D01*
X0099715Y0249858D01*
X0098948Y0250625D01*
X0098948Y0252160D01*
X0099715Y0252927D01*
X0100483Y0252927D01*
X0098948Y0252160D02*
X0098181Y0252927D01*
X0097413Y0252927D01*
X0096646Y0252160D01*
X0096646Y0250625D01*
X0097413Y0249858D01*
X0098181Y0249858D01*
X0098948Y0250625D01*
X0101250Y0248323D02*
X0101250Y0245254D01*
X0101250Y0246789D02*
X0096646Y0246789D01*
X0098181Y0245254D01*
X0098948Y0243719D02*
X0099715Y0242952D01*
X0099715Y0240650D01*
X0099715Y0242185D02*
X0101250Y0243719D01*
X0098948Y0243719D02*
X0097413Y0243719D01*
X0096646Y0242952D01*
X0096646Y0240650D01*
X0101250Y0240650D01*
X0103896Y0239150D02*
X0108500Y0239150D01*
X0108500Y0242219D01*
X0108500Y0243754D02*
X0103896Y0243754D01*
X0103896Y0246823D01*
X0106198Y0245289D02*
X0106198Y0243754D01*
X0108500Y0243754D02*
X0108500Y0246823D01*
X0135646Y0245823D02*
X0135646Y0242754D01*
X0140250Y0242754D01*
X0140250Y0245823D01*
X0137948Y0244289D02*
X0137948Y0242754D01*
X0140250Y0241219D02*
X0140250Y0238150D01*
X0160646Y0240150D02*
X0160646Y0242452D01*
X0161413Y0243219D01*
X0162948Y0243219D01*
X0163715Y0242452D01*
X0163715Y0240150D01*
X0163715Y0241685D02*
X0165250Y0243219D01*
X0165250Y0244754D02*
X0162181Y0247823D01*
X0161413Y0247823D01*
X0160646Y0247056D01*
X0160646Y0245521D01*
X0161413Y0244754D01*
X0165250Y0244754D02*
X0165250Y0247823D01*
X0162948Y0249358D02*
X0162948Y0252427D01*
X0160646Y0251660D02*
X0162948Y0249358D01*
X0165250Y0251660D02*
X0160646Y0251660D01*
X0160396Y0255338D02*
X0160396Y0257640D01*
X0161163Y0258407D01*
X0162698Y0258407D01*
X0163465Y0257640D01*
X0163465Y0255338D01*
X0163465Y0256873D02*
X0165000Y0258407D01*
X0165000Y0259942D02*
X0161931Y0263011D01*
X0161163Y0263011D01*
X0160396Y0262244D01*
X0160396Y0260709D01*
X0161163Y0259942D01*
X0165000Y0259942D02*
X0165000Y0263011D01*
X0165000Y0264546D02*
X0161931Y0267615D01*
X0161163Y0267615D01*
X0160396Y0266848D01*
X0160396Y0265313D01*
X0161163Y0264546D01*
X0165000Y0264546D02*
X0165000Y0267615D01*
X0167896Y0264848D02*
X0167896Y0263313D01*
X0168663Y0262546D01*
X0168663Y0261011D02*
X0170198Y0261011D01*
X0170965Y0260244D01*
X0170965Y0257942D01*
X0170965Y0259477D02*
X0172500Y0261011D01*
X0171733Y0262546D02*
X0172500Y0263313D01*
X0172500Y0264848D01*
X0171733Y0265615D01*
X0170965Y0265615D01*
X0170198Y0264848D01*
X0170198Y0264081D01*
X0170198Y0264848D02*
X0169431Y0265615D01*
X0168663Y0265615D01*
X0167896Y0264848D01*
X0168663Y0261011D02*
X0167896Y0260244D01*
X0167896Y0257942D01*
X0172500Y0257942D01*
X0173000Y0254781D02*
X0173000Y0251712D01*
X0173000Y0253246D02*
X0168396Y0253246D01*
X0169931Y0251712D01*
X0169163Y0250177D02*
X0168396Y0249410D01*
X0168396Y0247108D01*
X0173000Y0247108D01*
X0173000Y0249410D01*
X0172233Y0250177D01*
X0169163Y0250177D01*
X0168396Y0245573D02*
X0168396Y0242504D01*
X0173000Y0242504D01*
X0173000Y0245573D01*
X0170698Y0244039D02*
X0170698Y0242504D01*
X0173000Y0240969D02*
X0173000Y0237900D01*
X0168396Y0237900D01*
X0165250Y0240150D02*
X0160646Y0240150D01*
X0160396Y0255338D02*
X0165000Y0255338D01*
X0193146Y0258942D02*
X0193146Y0261244D01*
X0193913Y0262011D01*
X0195448Y0262011D01*
X0196215Y0261244D01*
X0196215Y0258942D01*
X0196215Y0260477D02*
X0197750Y0262011D01*
X0197750Y0263546D02*
X0197750Y0266615D01*
X0197750Y0265081D02*
X0193146Y0265081D01*
X0194681Y0263546D01*
X0193146Y0258942D02*
X0197750Y0258942D01*
X0199646Y0258692D02*
X0199646Y0260994D01*
X0200413Y0261761D01*
X0201948Y0261761D01*
X0202715Y0260994D01*
X0202715Y0258692D01*
X0202715Y0260227D02*
X0204250Y0261761D01*
X0203483Y0263296D02*
X0204250Y0264063D01*
X0204250Y0265598D01*
X0203483Y0266365D01*
X0201948Y0266365D01*
X0201181Y0265598D01*
X0201181Y0264831D01*
X0201948Y0263296D01*
X0199646Y0263296D01*
X0199646Y0266365D01*
X0199646Y0258692D02*
X0204250Y0258692D01*
X0204500Y0255781D02*
X0204500Y0252712D01*
X0201431Y0255781D01*
X0200663Y0255781D01*
X0199896Y0255014D01*
X0199896Y0253479D01*
X0200663Y0252712D01*
X0200663Y0251177D02*
X0199896Y0250410D01*
X0199896Y0248108D01*
X0204500Y0248108D01*
X0204500Y0250410D01*
X0203733Y0251177D01*
X0200663Y0251177D01*
X0197500Y0250323D02*
X0197500Y0247254D01*
X0194431Y0250323D01*
X0193663Y0250323D01*
X0192896Y0249556D01*
X0192896Y0248021D01*
X0193663Y0247254D01*
X0193663Y0245719D02*
X0195198Y0245719D01*
X0195965Y0244952D01*
X0195965Y0242650D01*
X0195965Y0244185D02*
X0197500Y0245719D01*
X0199896Y0246573D02*
X0199896Y0243504D01*
X0204500Y0243504D01*
X0204500Y0246573D01*
X0202198Y0245039D02*
X0202198Y0243504D01*
X0204500Y0241969D02*
X0204500Y0238900D01*
X0199896Y0238900D01*
X0197500Y0242650D02*
X0192896Y0242650D01*
X0192896Y0244952D01*
X0193663Y0245719D01*
X0225646Y0244202D02*
X0225646Y0241900D01*
X0230250Y0241900D01*
X0228715Y0241900D02*
X0228715Y0244202D01*
X0227948Y0244969D01*
X0226413Y0244969D01*
X0225646Y0244202D01*
X0228715Y0243435D02*
X0230250Y0244969D01*
X0229483Y0246504D02*
X0230250Y0247271D01*
X0230250Y0248806D01*
X0229483Y0249573D01*
X0228715Y0249573D01*
X0227948Y0248806D01*
X0227948Y0246504D01*
X0229483Y0246504D01*
X0227948Y0246504D02*
X0226413Y0248039D01*
X0225646Y0249573D01*
X0233146Y0250410D02*
X0233146Y0248108D01*
X0237750Y0248108D01*
X0237750Y0250410D01*
X0236983Y0251177D01*
X0233913Y0251177D01*
X0233146Y0250410D01*
X0233913Y0252712D02*
X0233146Y0253479D01*
X0233146Y0255014D01*
X0233913Y0255781D01*
X0234681Y0255781D01*
X0235448Y0255014D01*
X0236215Y0255781D01*
X0236983Y0255781D01*
X0237750Y0255014D01*
X0237750Y0253479D01*
X0236983Y0252712D01*
X0235448Y0254246D02*
X0235448Y0255014D01*
X0235465Y0258942D02*
X0235465Y0261244D01*
X0234698Y0262011D01*
X0233163Y0262011D01*
X0232396Y0261244D01*
X0232396Y0258942D01*
X0237000Y0258942D01*
X0235465Y0260477D02*
X0237000Y0262011D01*
X0236233Y0263546D02*
X0235465Y0263546D01*
X0234698Y0264313D01*
X0234698Y0265848D01*
X0235465Y0266615D01*
X0236233Y0266615D01*
X0237000Y0265848D01*
X0237000Y0264313D01*
X0236233Y0263546D01*
X0234698Y0264313D02*
X0233931Y0263546D01*
X0233163Y0263546D01*
X0232396Y0264313D01*
X0232396Y0265848D01*
X0233163Y0266615D01*
X0233931Y0266615D01*
X0234698Y0265848D01*
X0229750Y0265848D02*
X0225146Y0265848D01*
X0227448Y0263546D01*
X0227448Y0266615D01*
X0227448Y0262011D02*
X0228215Y0261244D01*
X0228215Y0258942D01*
X0228215Y0260477D02*
X0229750Y0262011D01*
X0227448Y0262011D02*
X0225913Y0262011D01*
X0225146Y0261244D01*
X0225146Y0258942D01*
X0229750Y0258942D01*
X0233146Y0246573D02*
X0233146Y0243504D01*
X0237750Y0243504D01*
X0237750Y0246573D01*
X0235448Y0245039D02*
X0235448Y0243504D01*
X0237750Y0241969D02*
X0237750Y0238900D01*
X0233146Y0238900D01*
X0335146Y0234588D02*
X0339750Y0234588D01*
X0345396Y0234588D02*
X0350000Y0234588D01*
X0367646Y0221615D02*
X0368413Y0221615D01*
X0371483Y0218546D01*
X0372250Y0218546D01*
X0371483Y0217011D02*
X0372250Y0216244D01*
X0372250Y0214709D01*
X0371483Y0213942D01*
X0370715Y0213942D01*
X0369948Y0214709D01*
X0369948Y0216244D01*
X0370715Y0217011D01*
X0371483Y0217011D01*
X0369948Y0216244D02*
X0369181Y0217011D01*
X0368413Y0217011D01*
X0367646Y0216244D01*
X0367646Y0214709D01*
X0368413Y0213942D01*
X0369181Y0213942D01*
X0369948Y0214709D01*
X0369948Y0212407D02*
X0368413Y0212407D01*
X0367646Y0211640D01*
X0367646Y0209338D01*
X0372250Y0209338D01*
X0370715Y0209338D02*
X0370715Y0211640D01*
X0369948Y0212407D01*
X0370715Y0210873D02*
X0372250Y0212407D01*
X0376896Y0211400D02*
X0376896Y0213702D01*
X0377663Y0214469D01*
X0379198Y0214469D01*
X0379965Y0213702D01*
X0379965Y0211400D01*
X0379965Y0212935D02*
X0381500Y0214469D01*
X0380733Y0216004D02*
X0379965Y0216004D01*
X0379198Y0216771D01*
X0379198Y0218306D01*
X0379965Y0219073D01*
X0380733Y0219073D01*
X0381500Y0218306D01*
X0381500Y0216771D01*
X0380733Y0216004D01*
X0379198Y0216771D02*
X0378431Y0216004D01*
X0377663Y0216004D01*
X0376896Y0216771D01*
X0376896Y0218306D01*
X0377663Y0219073D01*
X0378431Y0219073D01*
X0379198Y0218306D01*
X0379198Y0220608D02*
X0379198Y0223677D01*
X0376896Y0222910D02*
X0379198Y0220608D01*
X0381500Y0222910D02*
X0376896Y0222910D01*
X0367646Y0221615D02*
X0367646Y0218546D01*
X0376896Y0211400D02*
X0381500Y0211400D01*
X0386646Y0211400D02*
X0386646Y0213702D01*
X0387413Y0214469D01*
X0388948Y0214469D01*
X0389715Y0213702D01*
X0389715Y0211400D01*
X0389715Y0212935D02*
X0391250Y0214469D01*
X0390483Y0216004D02*
X0389715Y0216004D01*
X0388948Y0216771D01*
X0388948Y0218306D01*
X0389715Y0219073D01*
X0390483Y0219073D01*
X0391250Y0218306D01*
X0391250Y0216771D01*
X0390483Y0216004D01*
X0388948Y0216771D02*
X0388181Y0216004D01*
X0387413Y0216004D01*
X0386646Y0216771D01*
X0386646Y0218306D01*
X0387413Y0219073D01*
X0388181Y0219073D01*
X0388948Y0218306D01*
X0387413Y0220608D02*
X0386646Y0221375D01*
X0386646Y0222910D01*
X0387413Y0223677D01*
X0388181Y0223677D01*
X0388948Y0222910D01*
X0389715Y0223677D01*
X0390483Y0223677D01*
X0391250Y0222910D01*
X0391250Y0221375D01*
X0390483Y0220608D01*
X0388948Y0222142D02*
X0388948Y0222910D01*
X0396146Y0221598D02*
X0396913Y0222365D01*
X0397681Y0222365D01*
X0398448Y0221598D01*
X0398448Y0220063D01*
X0397681Y0219296D01*
X0396913Y0219296D01*
X0396146Y0220063D01*
X0396146Y0221598D01*
X0398448Y0221598D02*
X0399215Y0222365D01*
X0399983Y0222365D01*
X0400750Y0221598D01*
X0400750Y0220063D01*
X0399983Y0219296D01*
X0399215Y0219296D01*
X0398448Y0220063D01*
X0397681Y0217761D02*
X0398448Y0216994D01*
X0398448Y0215459D01*
X0397681Y0214692D01*
X0396913Y0214692D01*
X0396146Y0215459D01*
X0396146Y0216994D01*
X0396913Y0217761D01*
X0397681Y0217761D01*
X0398448Y0216994D02*
X0399215Y0217761D01*
X0399983Y0217761D01*
X0400750Y0216994D01*
X0400750Y0215459D01*
X0399983Y0214692D01*
X0399215Y0214692D01*
X0398448Y0215459D01*
X0398448Y0213157D02*
X0399215Y0212390D01*
X0399215Y0210088D01*
X0399215Y0211623D02*
X0400750Y0213157D01*
X0398448Y0213157D02*
X0396913Y0213157D01*
X0396146Y0212390D01*
X0396146Y0210088D01*
X0400750Y0210088D01*
X0391250Y0211400D02*
X0386646Y0211400D01*
X0379500Y0234338D02*
X0374896Y0234338D01*
X0385146Y0245848D02*
X0385913Y0246615D01*
X0386681Y0246615D01*
X0389750Y0243546D01*
X0389750Y0246615D01*
X0395396Y0234338D02*
X0400000Y0234338D01*
X0408215Y0243546D02*
X0407448Y0244313D01*
X0408215Y0243546D02*
X0408983Y0243546D01*
X0409750Y0244313D01*
X0409750Y0245848D01*
X0408983Y0246615D01*
X0408215Y0246615D01*
X0407448Y0245848D01*
X0433896Y0259274D02*
X0439100Y0259274D01*
X0459146Y0262900D02*
X0459146Y0265202D01*
X0459913Y0265969D01*
X0461448Y0265969D01*
X0462215Y0265202D01*
X0462215Y0262900D01*
X0462215Y0264435D02*
X0463750Y0265969D01*
X0463750Y0267504D02*
X0462983Y0267504D01*
X0459913Y0270573D01*
X0459146Y0270573D01*
X0459146Y0267504D01*
X0459146Y0262900D02*
X0463750Y0262900D01*
X0469146Y0262900D02*
X0469146Y0265202D01*
X0469913Y0265969D01*
X0471448Y0265969D01*
X0472215Y0265202D01*
X0472215Y0262900D01*
X0472215Y0264435D02*
X0473750Y0265969D01*
X0472983Y0267504D02*
X0472215Y0267504D01*
X0471448Y0268271D01*
X0471448Y0269806D01*
X0472215Y0270573D01*
X0472983Y0270573D01*
X0473750Y0269806D01*
X0473750Y0268271D01*
X0472983Y0267504D01*
X0471448Y0268271D02*
X0470681Y0267504D01*
X0469913Y0267504D01*
X0469146Y0268271D01*
X0469146Y0269806D01*
X0469913Y0270573D01*
X0470681Y0270573D01*
X0471448Y0269806D01*
X0472983Y0272108D02*
X0469913Y0272108D01*
X0469146Y0272875D01*
X0469146Y0274410D01*
X0469913Y0275177D01*
X0472983Y0272108D01*
X0473750Y0272875D01*
X0473750Y0274410D01*
X0472983Y0275177D01*
X0469913Y0275177D01*
X0463750Y0274410D02*
X0462983Y0275177D01*
X0459913Y0275177D01*
X0459146Y0274410D01*
X0459146Y0272875D01*
X0459913Y0272108D01*
X0460681Y0272108D01*
X0461448Y0272875D01*
X0461448Y0275177D01*
X0463750Y0274410D02*
X0463750Y0272875D01*
X0462983Y0272108D01*
X0469146Y0262900D02*
X0473750Y0262900D01*
X0470800Y0282700D02*
X0488600Y0282700D01*
X0494650Y0288650D02*
X0496952Y0288650D01*
X0497719Y0289417D01*
X0497719Y0292487D01*
X0496952Y0293254D01*
X0494650Y0293254D01*
X0494650Y0288650D01*
X0499254Y0290952D02*
X0502323Y0290952D01*
X0501556Y0293254D02*
X0499254Y0290952D01*
X0501556Y0288650D02*
X0501556Y0293254D01*
X0488600Y0297700D02*
X0470800Y0297700D01*
X0469057Y0298882D02*
X0469057Y0301184D01*
X0468290Y0301952D01*
X0465220Y0301952D01*
X0464453Y0301184D01*
X0464453Y0298882D01*
X0469057Y0298882D01*
X0468290Y0303486D02*
X0469057Y0304254D01*
X0469057Y0305788D01*
X0468290Y0306555D01*
X0467522Y0306555D01*
X0466755Y0305788D01*
X0466755Y0305021D01*
X0466755Y0305788D02*
X0465988Y0306555D01*
X0465220Y0306555D01*
X0464453Y0305788D01*
X0464453Y0304254D01*
X0465220Y0303486D01*
X0473848Y0306155D02*
X0467155Y0312848D01*
X0467155Y0331745D01*
X0476210Y0331745D01*
X0483690Y0331745D02*
X0492745Y0331745D01*
X0492745Y0312848D01*
X0486052Y0306155D01*
X0483690Y0306155D01*
X0476210Y0306155D02*
X0473848Y0306155D01*
X0476210Y0307335D02*
X0475927Y0307430D01*
X0475646Y0307532D01*
X0475369Y0307641D01*
X0475093Y0307756D01*
X0474821Y0307878D01*
X0474552Y0308007D01*
X0474286Y0308142D01*
X0474024Y0308284D01*
X0473765Y0308432D01*
X0473509Y0308586D01*
X0473258Y0308747D01*
X0473010Y0308914D01*
X0472767Y0309086D01*
X0472528Y0309265D01*
X0472293Y0309449D01*
X0472063Y0309639D01*
X0471838Y0309835D01*
X0471618Y0310036D01*
X0471402Y0310242D01*
X0471192Y0310454D01*
X0470987Y0310670D01*
X0470787Y0310892D01*
X0470593Y0311119D01*
X0470404Y0311350D01*
X0470221Y0311585D01*
X0470044Y0311825D01*
X0469873Y0312070D01*
X0469708Y0312318D01*
X0469549Y0312571D01*
X0469396Y0312827D01*
X0469249Y0313087D01*
X0469109Y0313350D01*
X0468975Y0313617D01*
X0468848Y0313887D01*
X0468728Y0314160D01*
X0468614Y0314435D01*
X0468507Y0314714D01*
X0468407Y0314995D01*
X0468314Y0315278D01*
X0468227Y0315564D01*
X0468148Y0315852D01*
X0468076Y0316141D01*
X0468011Y0316432D01*
X0467953Y0316725D01*
X0467902Y0317019D01*
X0467858Y0317314D01*
X0467822Y0317610D01*
X0467793Y0317907D01*
X0467771Y0318205D01*
X0467756Y0318503D01*
X0467749Y0318801D01*
X0467749Y0319099D01*
X0467756Y0319397D01*
X0467771Y0319695D01*
X0467793Y0319993D01*
X0467822Y0320290D01*
X0467858Y0320586D01*
X0467902Y0320881D01*
X0467953Y0321175D01*
X0468011Y0321468D01*
X0468076Y0321759D01*
X0468148Y0322048D01*
X0468227Y0322336D01*
X0468314Y0322622D01*
X0468407Y0322905D01*
X0468507Y0323186D01*
X0468614Y0323465D01*
X0468728Y0323740D01*
X0468848Y0324013D01*
X0468975Y0324283D01*
X0469109Y0324550D01*
X0469249Y0324813D01*
X0469396Y0325073D01*
X0469549Y0325329D01*
X0469708Y0325582D01*
X0469873Y0325830D01*
X0470044Y0326075D01*
X0470221Y0326315D01*
X0470404Y0326550D01*
X0470593Y0326781D01*
X0470787Y0327008D01*
X0470987Y0327230D01*
X0471192Y0327446D01*
X0471402Y0327658D01*
X0471618Y0327864D01*
X0471838Y0328065D01*
X0472063Y0328261D01*
X0472293Y0328451D01*
X0472528Y0328635D01*
X0472767Y0328814D01*
X0473010Y0328986D01*
X0473258Y0329153D01*
X0473509Y0329314D01*
X0473765Y0329468D01*
X0474024Y0329616D01*
X0474286Y0329758D01*
X0474552Y0329893D01*
X0474821Y0330022D01*
X0475093Y0330144D01*
X0475369Y0330259D01*
X0475646Y0330368D01*
X0475927Y0330470D01*
X0476210Y0330565D01*
X0483690Y0330565D02*
X0483973Y0330470D01*
X0484254Y0330368D01*
X0484531Y0330259D01*
X0484807Y0330144D01*
X0485079Y0330022D01*
X0485348Y0329893D01*
X0485614Y0329758D01*
X0485876Y0329616D01*
X0486135Y0329468D01*
X0486391Y0329314D01*
X0486642Y0329153D01*
X0486890Y0328986D01*
X0487133Y0328814D01*
X0487372Y0328635D01*
X0487607Y0328451D01*
X0487837Y0328261D01*
X0488062Y0328065D01*
X0488282Y0327864D01*
X0488498Y0327658D01*
X0488708Y0327446D01*
X0488913Y0327230D01*
X0489113Y0327008D01*
X0489307Y0326781D01*
X0489496Y0326550D01*
X0489679Y0326315D01*
X0489856Y0326075D01*
X0490027Y0325830D01*
X0490192Y0325582D01*
X0490351Y0325329D01*
X0490504Y0325073D01*
X0490651Y0324813D01*
X0490791Y0324550D01*
X0490925Y0324283D01*
X0491052Y0324013D01*
X0491172Y0323740D01*
X0491286Y0323465D01*
X0491393Y0323186D01*
X0491493Y0322905D01*
X0491586Y0322622D01*
X0491673Y0322336D01*
X0491752Y0322048D01*
X0491824Y0321759D01*
X0491889Y0321468D01*
X0491947Y0321175D01*
X0491998Y0320881D01*
X0492042Y0320586D01*
X0492078Y0320290D01*
X0492107Y0319993D01*
X0492129Y0319695D01*
X0492144Y0319397D01*
X0492151Y0319099D01*
X0492151Y0318801D01*
X0492144Y0318503D01*
X0492129Y0318205D01*
X0492107Y0317907D01*
X0492078Y0317610D01*
X0492042Y0317314D01*
X0491998Y0317019D01*
X0491947Y0316725D01*
X0491889Y0316432D01*
X0491824Y0316141D01*
X0491752Y0315852D01*
X0491673Y0315564D01*
X0491586Y0315278D01*
X0491493Y0314995D01*
X0491393Y0314714D01*
X0491286Y0314435D01*
X0491172Y0314160D01*
X0491052Y0313887D01*
X0490925Y0313617D01*
X0490791Y0313350D01*
X0490651Y0313087D01*
X0490504Y0312827D01*
X0490351Y0312571D01*
X0490192Y0312318D01*
X0490027Y0312070D01*
X0489856Y0311825D01*
X0489679Y0311585D01*
X0489496Y0311350D01*
X0489307Y0311119D01*
X0489113Y0310892D01*
X0488913Y0310670D01*
X0488708Y0310454D01*
X0488498Y0310242D01*
X0488282Y0310036D01*
X0488062Y0309835D01*
X0487837Y0309639D01*
X0487607Y0309449D01*
X0487372Y0309265D01*
X0487133Y0309086D01*
X0486890Y0308914D01*
X0486642Y0308747D01*
X0486391Y0308586D01*
X0486135Y0308432D01*
X0485876Y0308284D01*
X0485614Y0308142D01*
X0485348Y0308007D01*
X0485079Y0307878D01*
X0484807Y0307756D01*
X0484531Y0307641D01*
X0484254Y0307532D01*
X0483973Y0307430D01*
X0483690Y0307335D01*
X0439100Y0293338D02*
X0439100Y0289868D01*
X0460663Y0225865D02*
X0459896Y0225098D01*
X0459896Y0223563D01*
X0460663Y0222796D01*
X0460663Y0225865D02*
X0461431Y0225865D01*
X0464500Y0222796D01*
X0464500Y0225865D01*
X0464500Y0221261D02*
X0464500Y0218192D01*
X0464500Y0219727D02*
X0459896Y0219727D01*
X0461431Y0218192D01*
X0460663Y0216657D02*
X0459896Y0215890D01*
X0459896Y0213588D01*
X0464500Y0213588D01*
X0464500Y0215890D01*
X0463733Y0216657D01*
X0460663Y0216657D01*
X0459896Y0212054D02*
X0459896Y0208984D01*
X0464500Y0208984D01*
X0464500Y0212054D01*
X0462198Y0210519D02*
X0462198Y0208984D01*
X0464500Y0207450D02*
X0464500Y0204380D01*
X0459896Y0204380D01*
X0470146Y0204630D02*
X0474750Y0204630D01*
X0474750Y0207700D01*
X0474750Y0209234D02*
X0474750Y0212304D01*
X0474750Y0213838D02*
X0474750Y0216140D01*
X0473983Y0216907D01*
X0470913Y0216907D01*
X0470146Y0216140D01*
X0470146Y0213838D01*
X0474750Y0213838D01*
X0472448Y0210769D02*
X0472448Y0209234D01*
X0470146Y0209234D02*
X0474750Y0209234D01*
X0470146Y0209234D02*
X0470146Y0212304D01*
X0471681Y0218442D02*
X0470146Y0219977D01*
X0474750Y0219977D01*
X0474750Y0221511D02*
X0474750Y0218442D01*
X0473983Y0223046D02*
X0474750Y0223813D01*
X0474750Y0225348D01*
X0473983Y0226115D01*
X0473215Y0226115D01*
X0472448Y0225348D01*
X0472448Y0224581D01*
X0472448Y0225348D02*
X0471681Y0226115D01*
X0470913Y0226115D01*
X0470146Y0225348D01*
X0470146Y0223813D01*
X0470913Y0223046D01*
X0075500Y0238650D02*
X0075500Y0241719D01*
X0075500Y0243254D02*
X0075500Y0246323D01*
X0075500Y0247858D02*
X0070896Y0247858D01*
X0070896Y0250160D01*
X0071663Y0250927D01*
X0074733Y0250927D01*
X0075500Y0250160D01*
X0075500Y0247858D01*
X0073198Y0244789D02*
X0073198Y0243254D01*
X0070896Y0243254D02*
X0075500Y0243254D01*
X0070896Y0243254D02*
X0070896Y0246323D01*
X0068000Y0246039D02*
X0063396Y0246039D01*
X0064931Y0244504D01*
X0065698Y0242969D02*
X0066465Y0242202D01*
X0066465Y0239900D01*
X0066465Y0241435D02*
X0068000Y0242969D01*
X0068000Y0244504D02*
X0068000Y0247573D01*
X0067233Y0249108D02*
X0068000Y0249875D01*
X0068000Y0251410D01*
X0067233Y0252177D01*
X0065698Y0252177D01*
X0064931Y0251410D01*
X0064931Y0250642D01*
X0065698Y0249108D01*
X0063396Y0249108D01*
X0063396Y0252177D01*
X0064146Y0255588D02*
X0064146Y0257890D01*
X0064913Y0258657D01*
X0066448Y0258657D01*
X0067215Y0257890D01*
X0067215Y0255588D01*
X0067215Y0257123D02*
X0068750Y0258657D01*
X0068750Y0260192D02*
X0068750Y0263261D01*
X0068750Y0261727D02*
X0064146Y0261727D01*
X0065681Y0260192D01*
X0064913Y0264796D02*
X0064146Y0265563D01*
X0064146Y0267098D01*
X0064913Y0267865D01*
X0065681Y0267865D01*
X0066448Y0267098D01*
X0067215Y0267865D01*
X0067983Y0267865D01*
X0068750Y0267098D01*
X0068750Y0265563D01*
X0067983Y0264796D01*
X0066448Y0266331D02*
X0066448Y0267098D01*
X0070896Y0268115D02*
X0071663Y0268115D01*
X0074733Y0265046D01*
X0075500Y0265046D01*
X0075500Y0263511D02*
X0075500Y0260442D01*
X0075500Y0258907D02*
X0073965Y0257373D01*
X0073965Y0258140D02*
X0073965Y0255838D01*
X0073965Y0255531D02*
X0073198Y0254764D01*
X0073198Y0252462D01*
X0074733Y0252462D01*
X0075500Y0253229D01*
X0075500Y0254764D01*
X0074733Y0255531D01*
X0073965Y0255531D01*
X0075500Y0255838D02*
X0070896Y0255838D01*
X0070896Y0258140D01*
X0071663Y0258907D01*
X0073198Y0258907D01*
X0073965Y0258140D01*
X0072431Y0260442D02*
X0070896Y0261977D01*
X0075500Y0261977D01*
X0070896Y0265046D02*
X0070896Y0268115D01*
X0070896Y0255531D02*
X0071663Y0253996D01*
X0073198Y0252462D01*
X0068750Y0255588D02*
X0064146Y0255588D01*
X0064163Y0242969D02*
X0063396Y0242202D01*
X0063396Y0239900D01*
X0068000Y0239900D01*
X0070896Y0238650D02*
X0075500Y0238650D01*
X0065698Y0242969D02*
X0064163Y0242969D01*
X0044250Y0243004D02*
X0044250Y0246073D01*
X0044250Y0247608D02*
X0039646Y0247608D01*
X0039646Y0249910D01*
X0040413Y0250677D01*
X0043483Y0250677D01*
X0044250Y0249910D01*
X0044250Y0247608D01*
X0041948Y0244539D02*
X0041948Y0243004D01*
X0039646Y0243004D02*
X0044250Y0243004D01*
X0044250Y0241469D02*
X0044250Y0238400D01*
X0039646Y0238400D01*
X0039646Y0243004D02*
X0039646Y0246073D01*
X0039646Y0252212D02*
X0041948Y0252212D01*
X0041181Y0253746D01*
X0041181Y0254514D01*
X0041948Y0255281D01*
X0043483Y0255281D01*
X0044250Y0254514D01*
X0044250Y0252979D01*
X0043483Y0252212D01*
X0039646Y0252212D02*
X0039646Y0255281D01*
X0038896Y0256338D02*
X0038896Y0258640D01*
X0039663Y0259407D01*
X0041198Y0259407D01*
X0041965Y0258640D01*
X0041965Y0256338D01*
X0041965Y0257873D02*
X0043500Y0259407D01*
X0043500Y0260942D02*
X0043500Y0264011D01*
X0043500Y0262477D02*
X0038896Y0262477D01*
X0040431Y0260942D01*
X0041198Y0265546D02*
X0041198Y0268615D01*
X0038896Y0267848D02*
X0041198Y0265546D01*
X0043500Y0267848D02*
X0038896Y0267848D01*
X0038896Y0256338D02*
X0043500Y0256338D01*
D12*
X0297200Y0232200D02*
X0441200Y0232200D01*
X0441200Y0332200D01*
X0297200Y0332200D01*
X0297200Y0282200D01*
X0297200Y0232200D01*
X0297200Y0282200D02*
X0300700Y0282200D01*
X0433450Y0281700D02*
X0440700Y0281700D01*
D13*
X0432200Y0279700D02*
X0429700Y0277200D01*
X0432200Y0274700D01*
X0432200Y0269700D01*
X0429700Y0267200D01*
X0424700Y0267200D01*
X0422200Y0269700D01*
X0419700Y0267200D01*
X0414700Y0267200D01*
X0412200Y0269700D01*
X0409700Y0267200D01*
X0404700Y0267200D01*
X0402200Y0269700D01*
X0399700Y0267200D01*
X0394700Y0267200D01*
X0392200Y0269700D01*
X0389700Y0267200D01*
X0384700Y0267200D01*
X0382200Y0269700D01*
X0379700Y0267200D01*
X0374700Y0267200D01*
X0372200Y0269700D01*
X0369700Y0267200D01*
X0364700Y0267200D01*
X0362200Y0269700D01*
X0359700Y0267200D01*
X0354700Y0267200D01*
X0352200Y0269700D01*
X0349700Y0267200D01*
X0344700Y0267200D01*
X0342200Y0269700D01*
X0339700Y0267200D01*
X0334700Y0267200D01*
X0332200Y0269700D01*
X0329700Y0267200D01*
X0324700Y0267200D01*
X0322200Y0269700D01*
X0319700Y0267200D01*
X0314700Y0267200D01*
X0312200Y0269700D01*
X0312200Y0274700D01*
X0314700Y0277200D01*
X0312200Y0279700D01*
X0312200Y0284700D01*
X0314700Y0287200D01*
X0312200Y0289700D01*
X0312200Y0294700D01*
X0314700Y0297200D01*
X0319700Y0297200D01*
X0322200Y0294700D01*
X0322200Y0289700D01*
X0319700Y0287200D01*
X0322200Y0284700D01*
X0322200Y0279700D01*
X0319700Y0277200D01*
X0322200Y0274700D01*
X0322200Y0269700D01*
X0322200Y0274700D01*
X0324700Y0277200D01*
X0322200Y0279700D01*
X0322200Y0284700D01*
X0324700Y0287200D01*
X0322200Y0289700D01*
X0322200Y0294700D01*
X0324700Y0297200D01*
X0329700Y0297200D01*
X0332200Y0294700D01*
X0332200Y0289700D01*
X0329700Y0287200D01*
X0332200Y0284700D01*
X0332200Y0279700D01*
X0329700Y0277200D01*
X0332200Y0274700D01*
X0332200Y0269700D01*
X0332200Y0274700D01*
X0334700Y0277200D01*
X0332200Y0279700D01*
X0332200Y0284700D01*
X0334700Y0287200D01*
X0332200Y0289700D01*
X0332200Y0294700D01*
X0334700Y0297200D01*
X0339700Y0297200D01*
X0342200Y0294700D01*
X0342200Y0289700D01*
X0339700Y0287200D01*
X0342200Y0284700D01*
X0342200Y0279700D01*
X0339700Y0277200D01*
X0342200Y0274700D01*
X0342200Y0269700D01*
X0342200Y0274700D01*
X0344700Y0277200D01*
X0342200Y0279700D01*
X0342200Y0284700D01*
X0344700Y0287200D01*
X0342200Y0289700D01*
X0342200Y0294700D01*
X0344700Y0297200D01*
X0349700Y0297200D01*
X0352200Y0294700D01*
X0352200Y0289700D01*
X0349700Y0287200D01*
X0352200Y0284700D01*
X0352200Y0279700D01*
X0349700Y0277200D01*
X0352200Y0274700D01*
X0352200Y0269700D01*
X0352200Y0274700D01*
X0354700Y0277200D01*
X0352200Y0279700D01*
X0352200Y0284700D01*
X0354700Y0287200D01*
X0352200Y0289700D01*
X0352200Y0294700D01*
X0354700Y0297200D01*
X0359700Y0297200D01*
X0362200Y0294700D01*
X0362200Y0289700D01*
X0359700Y0287200D01*
X0362200Y0284700D01*
X0362200Y0279700D01*
X0359700Y0277200D01*
X0362200Y0274700D01*
X0362200Y0269700D01*
X0362200Y0274700D01*
X0364700Y0277200D01*
X0362200Y0279700D01*
X0362200Y0284700D01*
X0364700Y0287200D01*
X0362200Y0289700D01*
X0362200Y0294700D01*
X0364700Y0297200D01*
X0369700Y0297200D01*
X0372200Y0294700D01*
X0372200Y0289700D01*
X0369700Y0287200D01*
X0372200Y0284700D01*
X0372200Y0279700D01*
X0369700Y0277200D01*
X0372200Y0274700D01*
X0372200Y0269700D01*
X0372200Y0274700D01*
X0374700Y0277200D01*
X0372200Y0279700D01*
X0372200Y0284700D01*
X0374700Y0287200D01*
X0372200Y0289700D01*
X0372200Y0294700D01*
X0374700Y0297200D01*
X0379700Y0297200D01*
X0382200Y0294700D01*
X0382200Y0289700D01*
X0379700Y0287200D01*
X0382200Y0284700D01*
X0382200Y0279700D01*
X0379700Y0277200D01*
X0382200Y0274700D01*
X0382200Y0269700D01*
X0382200Y0274700D01*
X0384700Y0277200D01*
X0382200Y0279700D01*
X0382200Y0284700D01*
X0384700Y0287200D01*
X0382200Y0289700D01*
X0382200Y0294700D01*
X0384700Y0297200D01*
X0389700Y0297200D01*
X0392200Y0294700D01*
X0392200Y0289700D01*
X0389700Y0287200D01*
X0392200Y0284700D01*
X0392200Y0279700D01*
X0389700Y0277200D01*
X0392200Y0274700D01*
X0392200Y0269700D01*
X0392200Y0274700D01*
X0394700Y0277200D01*
X0392200Y0279700D01*
X0392200Y0284700D01*
X0394700Y0287200D01*
X0392200Y0289700D01*
X0392200Y0294700D01*
X0394700Y0297200D01*
X0399700Y0297200D01*
X0402200Y0294700D01*
X0402200Y0289700D01*
X0399700Y0287200D01*
X0402200Y0284700D01*
X0402200Y0279700D01*
X0399700Y0277200D01*
X0402200Y0274700D01*
X0402200Y0269700D01*
X0402200Y0274700D01*
X0404700Y0277200D01*
X0402200Y0279700D01*
X0402200Y0284700D01*
X0404700Y0287200D01*
X0402200Y0289700D01*
X0402200Y0294700D01*
X0404700Y0297200D01*
X0409700Y0297200D01*
X0412200Y0294700D01*
X0412200Y0289700D01*
X0409700Y0287200D01*
X0412200Y0284700D01*
X0412200Y0279700D01*
X0409700Y0277200D01*
X0412200Y0274700D01*
X0412200Y0269700D01*
X0412200Y0274700D01*
X0414700Y0277200D01*
X0412200Y0279700D01*
X0412200Y0284700D01*
X0414700Y0287200D01*
X0412200Y0289700D01*
X0412200Y0294700D01*
X0414700Y0297200D01*
X0419700Y0297200D01*
X0422200Y0294700D01*
X0422200Y0289700D01*
X0419700Y0287200D01*
X0422200Y0284700D01*
X0422200Y0279700D01*
X0419700Y0277200D01*
X0422200Y0274700D01*
X0422200Y0269700D01*
X0422200Y0274700D01*
X0424700Y0277200D01*
X0422200Y0279700D01*
X0422200Y0284700D01*
X0424700Y0287200D01*
X0422200Y0289700D01*
X0422200Y0294700D01*
X0424700Y0297200D01*
X0429700Y0297200D01*
X0432200Y0294700D01*
X0432200Y0289700D01*
X0429700Y0287200D01*
X0432200Y0284700D01*
X0432200Y0279700D01*
X0429700Y0277200D02*
X0424700Y0277200D01*
X0419700Y0277200D02*
X0414700Y0277200D01*
X0409700Y0277200D02*
X0404700Y0277200D01*
X0399700Y0277200D02*
X0394700Y0277200D01*
X0389700Y0277200D02*
X0384700Y0277200D01*
X0379700Y0277200D02*
X0374700Y0277200D01*
X0369700Y0277200D02*
X0364700Y0277200D01*
X0359700Y0277200D02*
X0354700Y0277200D01*
X0349700Y0277200D02*
X0344700Y0277200D01*
X0339700Y0277200D02*
X0334700Y0277200D01*
X0329700Y0277200D02*
X0324700Y0277200D01*
X0319700Y0277200D02*
X0314700Y0277200D01*
X0312200Y0279700D02*
X0309700Y0277200D01*
X0312200Y0274700D01*
X0312200Y0269700D01*
X0309700Y0267200D01*
X0304700Y0267200D01*
X0302200Y0269700D01*
X0302200Y0274700D01*
X0304700Y0277200D01*
X0302200Y0279700D01*
X0302200Y0284700D01*
X0304700Y0287200D01*
X0302200Y0289700D01*
X0302200Y0294700D01*
X0304700Y0297200D01*
X0309700Y0297200D01*
X0312200Y0294700D01*
X0312200Y0289700D01*
X0309700Y0287200D01*
X0312200Y0284700D01*
X0312200Y0279700D01*
X0309700Y0277200D02*
X0304700Y0277200D01*
X0304700Y0287200D02*
X0309700Y0287200D01*
X0314700Y0287200D02*
X0319700Y0287200D01*
X0324700Y0287200D02*
X0329700Y0287200D01*
X0334700Y0287200D02*
X0339700Y0287200D01*
X0344700Y0287200D02*
X0349700Y0287200D01*
X0354700Y0287200D02*
X0359700Y0287200D01*
X0364700Y0287200D02*
X0369700Y0287200D01*
X0374700Y0287200D02*
X0379700Y0287200D01*
X0384700Y0287200D02*
X0389700Y0287200D01*
X0394700Y0287200D02*
X0399700Y0287200D01*
X0404700Y0287200D02*
X0409700Y0287200D01*
X0414700Y0287200D02*
X0419700Y0287200D01*
X0424700Y0287200D02*
X0429700Y0287200D01*
X0452082Y0293485D02*
X0452082Y0310415D01*
X0453145Y0310415D01*
X0461255Y0310415D02*
X0462318Y0310415D01*
X0462318Y0293485D01*
X0461255Y0293485D01*
X0453145Y0293485D02*
X0452082Y0293485D01*
X0450745Y0246411D02*
X0455015Y0246411D01*
X0457150Y0244276D01*
X0455015Y0242141D01*
X0450745Y0242141D01*
X0451812Y0239966D02*
X0450745Y0238898D01*
X0450745Y0236763D01*
X0451812Y0235695D01*
X0451812Y0239966D02*
X0452880Y0239966D01*
X0457150Y0235695D01*
X0457150Y0239966D01*
X0457150Y0233520D02*
X0457150Y0229250D01*
X0457150Y0231385D02*
X0450745Y0231385D01*
X0452880Y0229250D01*
X0477245Y0231250D02*
X0480447Y0231250D01*
X0479380Y0233385D01*
X0479380Y0234453D01*
X0480447Y0235520D01*
X0482582Y0235520D01*
X0483650Y0234453D01*
X0483650Y0232318D01*
X0482582Y0231250D01*
X0477245Y0231250D02*
X0477245Y0235520D01*
X0477245Y0237695D02*
X0481515Y0237695D01*
X0483650Y0239831D01*
X0481515Y0241966D01*
X0477245Y0241966D01*
X0460696Y0192905D02*
X0460696Y0186500D01*
X0456426Y0192905D01*
X0456426Y0186500D01*
X0454264Y0186500D02*
X0452129Y0186500D01*
X0453196Y0186500D02*
X0453196Y0192905D01*
X0452129Y0192905D02*
X0454264Y0192905D01*
X0409700Y0122200D02*
X0404700Y0122200D01*
X0402200Y0119700D01*
X0399700Y0122200D01*
X0394700Y0122200D01*
X0392200Y0119700D01*
X0389700Y0122200D01*
X0384700Y0122200D01*
X0382200Y0119700D01*
X0379700Y0122200D01*
X0374700Y0122200D01*
X0372200Y0119700D01*
X0369700Y0122200D01*
X0364700Y0122200D01*
X0362200Y0119700D01*
X0359700Y0122200D01*
X0354700Y0122200D01*
X0352200Y0119700D01*
X0349700Y0122200D01*
X0344700Y0122200D01*
X0342200Y0119700D01*
X0342200Y0114700D01*
X0344700Y0112200D01*
X0349700Y0112200D01*
X0352200Y0114700D01*
X0354700Y0112200D01*
X0359700Y0112200D01*
X0362200Y0114700D01*
X0364700Y0112200D01*
X0369700Y0112200D01*
X0372200Y0114700D01*
X0374700Y0112200D01*
X0379700Y0112200D01*
X0382200Y0114700D01*
X0384700Y0112200D01*
X0389700Y0112200D01*
X0392200Y0114700D01*
X0394700Y0112200D01*
X0399700Y0112200D01*
X0402200Y0114700D01*
X0404700Y0112200D01*
X0409700Y0112200D01*
X0412200Y0114700D01*
X0412200Y0119700D01*
X0409700Y0122200D01*
X0448899Y0037905D02*
X0447832Y0036838D01*
X0447832Y0032568D01*
X0448899Y0031500D01*
X0451034Y0031500D01*
X0452102Y0032568D01*
X0452102Y0036838D01*
X0451034Y0037905D01*
X0448899Y0037905D01*
X0454277Y0037905D02*
X0454277Y0032568D01*
X0455345Y0031500D01*
X0457480Y0031500D01*
X0458548Y0032568D01*
X0458548Y0037905D01*
X0460723Y0037905D02*
X0464993Y0037905D01*
X0462858Y0037905D02*
X0462858Y0031500D01*
X0270950Y0355450D02*
X0265950Y0355450D01*
X0263450Y0357950D01*
X0263450Y0362950D01*
X0265950Y0365450D01*
X0270950Y0365450D01*
X0273450Y0362950D01*
X0273450Y0357950D01*
X0270950Y0355450D01*
X0263450Y0357950D02*
X0260950Y0355450D01*
X0255950Y0355450D01*
X0253450Y0357950D01*
X0253450Y0362950D01*
X0255950Y0365450D01*
X0260950Y0365450D01*
X0263450Y0362950D01*
X0263450Y0357950D01*
X0047650Y0232705D02*
X0044447Y0232705D01*
X0043380Y0231637D01*
X0044447Y0230570D01*
X0047650Y0230570D01*
X0047650Y0228434D02*
X0043380Y0228434D01*
X0043380Y0229502D01*
X0044447Y0230570D01*
X0044447Y0226259D02*
X0043380Y0225192D01*
X0043380Y0223056D01*
X0044447Y0221989D01*
X0046582Y0221989D01*
X0047650Y0223056D01*
X0047650Y0225192D01*
X0046582Y0226259D01*
X0044447Y0226259D01*
X0043380Y0219814D02*
X0043380Y0216611D01*
X0044447Y0215543D01*
X0046582Y0215543D01*
X0047650Y0216611D01*
X0047650Y0219814D01*
X0047650Y0213388D02*
X0047650Y0212321D01*
X0046582Y0212321D01*
X0046582Y0213388D01*
X0047650Y0213388D01*
X0046582Y0210145D02*
X0045515Y0209078D01*
X0045515Y0206943D01*
X0044447Y0205875D01*
X0043380Y0206943D01*
X0043380Y0210145D01*
X0046582Y0210145D02*
X0047650Y0209078D01*
X0047650Y0205875D01*
X0047650Y0203700D02*
X0044447Y0203700D01*
X0043380Y0202632D01*
X0044447Y0201565D01*
X0047650Y0201565D01*
X0047650Y0199430D02*
X0043380Y0199430D01*
X0043380Y0200497D01*
X0044447Y0201565D01*
X0044447Y0197255D02*
X0043380Y0196187D01*
X0043380Y0194052D01*
X0044447Y0192984D01*
X0046582Y0192984D01*
X0047650Y0194052D01*
X0047650Y0196187D01*
X0046582Y0197255D01*
X0044447Y0197255D01*
X0043380Y0190822D02*
X0043380Y0188687D01*
X0042312Y0189755D02*
X0046582Y0189755D01*
X0047650Y0190822D01*
X0046582Y0186512D02*
X0045515Y0185444D01*
X0045515Y0183309D01*
X0044447Y0182242D01*
X0043380Y0183309D01*
X0043380Y0186512D01*
X0046582Y0186512D02*
X0047650Y0185444D01*
X0047650Y0182242D01*
X0047650Y0180067D02*
X0043380Y0180067D01*
X0047650Y0180067D02*
X0047650Y0176864D01*
X0046582Y0175796D01*
X0043380Y0175796D01*
X0043380Y0173621D02*
X0043380Y0170418D01*
X0044447Y0169351D01*
X0046582Y0169351D01*
X0047650Y0170418D01*
X0047650Y0173621D01*
X0045515Y0167176D02*
X0045515Y0162905D01*
X0046582Y0162905D02*
X0044447Y0162905D01*
X0043380Y0163973D01*
X0043380Y0166108D01*
X0044447Y0167176D01*
X0045515Y0167176D01*
X0047650Y0166108D02*
X0047650Y0163973D01*
X0046582Y0162905D01*
X0047650Y0160730D02*
X0047650Y0157527D01*
X0046582Y0156460D01*
X0044447Y0156460D01*
X0043380Y0157527D01*
X0043380Y0160730D01*
X0041245Y0160730D02*
X0047650Y0160730D01*
X0047650Y0154298D02*
X0047650Y0152163D01*
X0047650Y0153230D02*
X0043380Y0153230D01*
X0043380Y0152163D01*
X0043380Y0149988D02*
X0043380Y0146785D01*
X0044447Y0145717D01*
X0045515Y0146785D01*
X0045515Y0148920D01*
X0046582Y0149988D01*
X0047650Y0148920D01*
X0047650Y0145717D01*
X0047650Y0143542D02*
X0047650Y0140339D01*
X0046582Y0139272D01*
X0045515Y0140339D01*
X0045515Y0143542D01*
X0044447Y0143542D02*
X0047650Y0143542D01*
X0044447Y0143542D02*
X0043380Y0142474D01*
X0043380Y0140339D01*
X0044447Y0137097D02*
X0045515Y0137097D01*
X0045515Y0132826D01*
X0046582Y0132826D02*
X0044447Y0132826D01*
X0043380Y0133894D01*
X0043380Y0136029D01*
X0044447Y0137097D01*
X0047650Y0136029D02*
X0047650Y0133894D01*
X0046582Y0132826D01*
X0046582Y0130651D02*
X0045515Y0129583D01*
X0045515Y0127448D01*
X0044447Y0126381D01*
X0043380Y0127448D01*
X0043380Y0130651D01*
X0046582Y0130651D02*
X0047650Y0129583D01*
X0047650Y0126381D01*
X0047650Y0124226D02*
X0047650Y0123158D01*
X0046582Y0123158D01*
X0046582Y0124226D01*
X0047650Y0124226D01*
X0045515Y0120983D02*
X0045515Y0116712D01*
X0046582Y0116712D02*
X0044447Y0116712D01*
X0043380Y0117780D01*
X0043380Y0119915D01*
X0044447Y0120983D01*
X0045515Y0120983D01*
X0047650Y0119915D02*
X0047650Y0117780D01*
X0046582Y0116712D01*
X0047650Y0114537D02*
X0047650Y0111335D01*
X0046582Y0110267D01*
X0044447Y0110267D01*
X0043380Y0111335D01*
X0043380Y0114537D01*
X0048718Y0114537D01*
X0049785Y0113470D01*
X0049785Y0112402D01*
X0047650Y0108092D02*
X0047650Y0104889D01*
X0046582Y0103821D01*
X0045515Y0104889D01*
X0045515Y0108092D01*
X0044447Y0108092D02*
X0047650Y0108092D01*
X0044447Y0108092D02*
X0043380Y0107024D01*
X0043380Y0104889D01*
X0043380Y0101653D02*
X0043380Y0100585D01*
X0045515Y0098450D01*
X0047650Y0098450D02*
X0043380Y0098450D01*
X0044447Y0096275D02*
X0047650Y0096275D01*
X0047650Y0093072D01*
X0046582Y0092005D01*
X0045515Y0093072D01*
X0045515Y0096275D01*
X0044447Y0096275D02*
X0043380Y0095207D01*
X0043380Y0093072D01*
X0043380Y0089830D02*
X0043380Y0086627D01*
X0044447Y0085559D01*
X0046582Y0085559D01*
X0047650Y0086627D01*
X0047650Y0089830D01*
X0048718Y0089830D02*
X0043380Y0089830D01*
X0048718Y0089830D02*
X0049785Y0088762D01*
X0049785Y0087694D01*
X0047650Y0083404D02*
X0047650Y0082336D01*
X0046582Y0082336D01*
X0046582Y0083404D01*
X0047650Y0083404D01*
X0046582Y0080161D02*
X0043380Y0080161D01*
X0046582Y0080161D02*
X0047650Y0079094D01*
X0046582Y0078026D01*
X0047650Y0076959D01*
X0046582Y0075891D01*
X0043380Y0075891D01*
X0043380Y0073716D02*
X0046582Y0073716D01*
X0047650Y0072648D01*
X0046582Y0071581D01*
X0047650Y0070513D01*
X0046582Y0069445D01*
X0043380Y0069445D01*
X0043380Y0067270D02*
X0046582Y0067270D01*
X0047650Y0066203D01*
X0046582Y0065135D01*
X0047650Y0064068D01*
X0046582Y0063000D01*
X0043380Y0063000D01*
X0041245Y0153230D02*
X0040177Y0153230D01*
D14*
X0051700Y0228950D02*
X0027700Y0228950D01*
X0027700Y0059450D01*
X0027950Y0059450D02*
X0028200Y0059450D01*
X0051700Y0059450D01*
X0051700Y0228950D01*
X0050172Y0344021D02*
X0050172Y0348745D01*
X0050172Y0352682D02*
X0050172Y0357407D01*
X0050172Y0361344D02*
X0050172Y0366068D01*
X0054109Y0366068D01*
X0058046Y0366068D02*
X0061983Y0366068D01*
X0065920Y0366068D02*
X0069857Y0366068D01*
X0073794Y0366068D02*
X0077731Y0366068D01*
X0081669Y0366068D02*
X0085606Y0366068D01*
X0089543Y0366068D02*
X0093480Y0366068D01*
X0097417Y0366068D02*
X0101354Y0366068D01*
X0105291Y0366068D02*
X0109228Y0366068D01*
X0109228Y0361344D01*
X0109228Y0357407D02*
X0109228Y0352682D01*
X0109228Y0348745D02*
X0109228Y0344021D01*
X0105291Y0344021D01*
X0101354Y0344021D02*
X0097417Y0344021D01*
X0093480Y0344021D02*
X0089543Y0344021D01*
X0085606Y0344021D02*
X0081669Y0344021D01*
X0077731Y0344021D02*
X0073794Y0344021D01*
X0069857Y0344021D02*
X0065920Y0344021D01*
X0061983Y0344021D02*
X0058046Y0344021D01*
X0054109Y0344021D02*
X0050172Y0344021D01*
X0036393Y0371974D02*
X0123007Y0371974D01*
X0123007Y0384572D01*
X0118283Y0384572D01*
X0118283Y0415674D01*
X0082062Y0415674D01*
X0082062Y0384572D01*
X0077338Y0384572D01*
X0077338Y0415674D01*
X0041117Y0415674D01*
X0041117Y0384572D01*
X0036393Y0384572D01*
X0036393Y0371974D01*
X0036393Y0384572D02*
X0036393Y0417761D01*
X0123007Y0417761D01*
X0123007Y0384572D01*
X0126021Y0384822D02*
X0130745Y0384822D01*
X0130745Y0415924D01*
X0190588Y0415924D01*
X0190588Y0384822D01*
X0195312Y0384822D01*
X0195312Y0415924D01*
X0255155Y0415924D01*
X0255155Y0384822D01*
X0259879Y0384822D01*
X0259879Y0418011D01*
X0126021Y0418011D01*
X0126021Y0384822D01*
X0126021Y0372224D01*
X0259879Y0372224D01*
X0259879Y0384822D01*
X0263054Y0384822D02*
X0267779Y0384822D01*
X0267779Y0415924D01*
X0345338Y0415924D01*
X0345338Y0384822D01*
X0350062Y0384822D01*
X0350062Y0415924D01*
X0427621Y0415924D01*
X0427621Y0384822D01*
X0432346Y0384822D01*
X0432346Y0418011D01*
X0263054Y0418011D01*
X0263054Y0384822D01*
X0263054Y0372224D01*
X0432346Y0372224D01*
X0432346Y0384822D01*
X0435954Y0384822D02*
X0440678Y0384822D01*
X0440678Y0415924D01*
X0465088Y0415924D01*
X0465088Y0384822D01*
X0469812Y0384822D01*
X0469812Y0415924D01*
X0494222Y0415924D01*
X0494222Y0384822D01*
X0498946Y0384822D01*
X0498946Y0418011D01*
X0435954Y0418011D01*
X0435954Y0384822D01*
X0435954Y0372224D01*
X0498946Y0372224D01*
X0498946Y0384822D01*
X0485167Y0366318D02*
X0485167Y0361594D01*
X0485167Y0357657D02*
X0485167Y0352932D01*
X0485167Y0348995D02*
X0485167Y0344271D01*
X0481230Y0344271D01*
X0477293Y0344271D02*
X0473356Y0344271D01*
X0469419Y0344271D02*
X0465481Y0344271D01*
X0461544Y0344271D02*
X0457607Y0344271D01*
X0453670Y0344271D02*
X0449733Y0344271D01*
X0449733Y0348995D01*
X0449733Y0352932D02*
X0449733Y0357657D01*
X0449733Y0361594D02*
X0449733Y0366318D01*
X0453670Y0366318D01*
X0457607Y0366318D02*
X0461544Y0366318D01*
X0465481Y0366318D02*
X0469419Y0366318D01*
X0473356Y0366318D02*
X0477293Y0366318D01*
X0481230Y0366318D02*
X0485167Y0366318D01*
X0448950Y0332676D02*
X0448950Y0329606D01*
X0448950Y0331141D02*
X0444346Y0331141D01*
X0445881Y0329606D01*
X0448950Y0327519D02*
X0448950Y0324450D01*
X0444346Y0324450D01*
X0418566Y0344271D02*
X0418566Y0348995D01*
X0418566Y0352932D02*
X0418566Y0357657D01*
X0418566Y0361594D02*
X0418566Y0366318D01*
X0414410Y0366318D01*
X0410473Y0366318D02*
X0406318Y0366318D01*
X0402381Y0366318D02*
X0398225Y0366318D01*
X0394288Y0366318D02*
X0390132Y0366318D01*
X0386195Y0366318D02*
X0382039Y0366318D01*
X0378102Y0366318D02*
X0373947Y0366318D01*
X0370010Y0366318D02*
X0365854Y0366318D01*
X0361917Y0366318D02*
X0357761Y0366318D01*
X0353824Y0366318D02*
X0349669Y0366318D01*
X0345731Y0366318D02*
X0341576Y0366318D01*
X0337639Y0366318D02*
X0333483Y0366318D01*
X0329546Y0366318D02*
X0325390Y0366318D01*
X0321453Y0366318D02*
X0317298Y0366318D01*
X0313361Y0366318D02*
X0309205Y0366318D01*
X0305268Y0366318D02*
X0301112Y0366318D01*
X0297175Y0366318D02*
X0293019Y0366318D01*
X0289082Y0366318D02*
X0284927Y0366318D01*
X0280990Y0366318D02*
X0276834Y0366318D01*
X0276834Y0361594D01*
X0276834Y0357657D02*
X0276834Y0352932D01*
X0276834Y0348995D02*
X0276834Y0344271D01*
X0280990Y0344271D01*
X0284927Y0344271D02*
X0289082Y0344271D01*
X0293019Y0344271D02*
X0297175Y0344271D01*
X0301112Y0344271D02*
X0305268Y0344271D01*
X0309205Y0344271D02*
X0313361Y0344271D01*
X0317298Y0344271D02*
X0321453Y0344271D01*
X0325390Y0344271D02*
X0329546Y0344271D01*
X0333483Y0344271D02*
X0337639Y0344271D01*
X0341576Y0344271D02*
X0345731Y0344271D01*
X0349669Y0344271D02*
X0353824Y0344271D01*
X0357761Y0344271D02*
X0361917Y0344271D01*
X0365854Y0344271D02*
X0370010Y0344271D01*
X0373947Y0344271D02*
X0378102Y0344271D01*
X0382039Y0344271D02*
X0386195Y0344271D01*
X0390132Y0344271D02*
X0394288Y0344271D01*
X0398225Y0344271D02*
X0402381Y0344271D01*
X0406318Y0344271D02*
X0410473Y0344271D01*
X0414410Y0344271D02*
X0418566Y0344271D01*
X0246100Y0344271D02*
X0246100Y0348995D01*
X0246100Y0352932D02*
X0246100Y0357657D01*
X0246100Y0361594D02*
X0246100Y0366318D01*
X0242163Y0366318D01*
X0238226Y0366318D02*
X0234289Y0366318D01*
X0230352Y0366318D02*
X0226415Y0366318D01*
X0222478Y0366318D02*
X0218541Y0366318D01*
X0214604Y0366318D02*
X0210667Y0366318D01*
X0206730Y0366318D02*
X0202793Y0366318D01*
X0198856Y0366318D02*
X0194919Y0366318D01*
X0190981Y0366318D02*
X0187044Y0366318D01*
X0183107Y0366318D02*
X0179170Y0366318D01*
X0175233Y0366318D02*
X0171296Y0366318D01*
X0167359Y0366318D02*
X0163422Y0366318D01*
X0159485Y0366318D02*
X0155548Y0366318D01*
X0151611Y0366318D02*
X0147674Y0366318D01*
X0143737Y0366318D02*
X0139800Y0366318D01*
X0139800Y0361594D01*
X0139800Y0357657D02*
X0139800Y0352932D01*
X0139800Y0348995D02*
X0139800Y0344271D01*
X0143737Y0344271D01*
X0147674Y0344271D02*
X0151611Y0344271D01*
X0155548Y0344271D02*
X0159485Y0344271D01*
X0163422Y0344271D02*
X0167359Y0344271D01*
X0171296Y0344271D02*
X0175233Y0344271D01*
X0179170Y0344271D02*
X0183107Y0344271D01*
X0187044Y0344271D02*
X0190981Y0344271D01*
X0194919Y0344271D02*
X0198856Y0344271D01*
X0202793Y0344271D02*
X0206730Y0344271D01*
X0210667Y0344271D02*
X0214604Y0344271D01*
X0218541Y0344271D02*
X0222478Y0344271D01*
X0226415Y0344271D02*
X0230352Y0344271D01*
X0234289Y0344271D02*
X0238226Y0344271D01*
X0242163Y0344271D02*
X0246100Y0344271D01*
X0429700Y0189700D02*
X0434700Y0189700D01*
X0479700Y0189700D02*
X0484700Y0189700D01*
X0482200Y0192200D02*
X0482200Y0187200D01*
X0482200Y0037200D02*
X0482200Y0032200D01*
X0484700Y0034700D02*
X0479700Y0034700D01*
X0434700Y0034700D02*
X0429700Y0034700D01*
X0148200Y0039950D02*
X0083450Y0039950D01*
X0083450Y0065700D01*
X0083700Y0065950D02*
X0148200Y0065950D01*
X0148200Y0039950D01*
D15*
X0344950Y0105950D02*
X0347953Y0105950D01*
X0346451Y0105950D02*
X0346451Y0110454D01*
X0344950Y0108953D01*
X0344702Y0123950D02*
X0343201Y0123950D01*
X0342450Y0124701D01*
X0343201Y0126202D02*
X0344702Y0126202D01*
X0345453Y0125451D01*
X0345453Y0124701D01*
X0344702Y0123950D01*
X0343201Y0126202D02*
X0342450Y0126953D01*
X0342450Y0127703D01*
X0343201Y0128454D01*
X0344702Y0128454D01*
X0345453Y0127703D01*
X0347054Y0128454D02*
X0347054Y0125451D01*
X0348555Y0123950D01*
X0350056Y0125451D01*
X0350056Y0128454D01*
X0351658Y0127703D02*
X0352408Y0128454D01*
X0353910Y0128454D01*
X0354660Y0127703D01*
X0354660Y0126953D01*
X0353910Y0126202D01*
X0354660Y0125451D01*
X0354660Y0124701D01*
X0353910Y0123950D01*
X0352408Y0123950D01*
X0351658Y0124701D01*
X0353159Y0126202D02*
X0353910Y0126202D01*
X0405950Y0124701D02*
X0405950Y0123950D01*
X0405950Y0124701D02*
X0408953Y0127703D01*
X0408953Y0128454D01*
X0405950Y0128454D01*
X0416200Y0197200D02*
X0498200Y0197200D01*
X0498200Y0027200D01*
X0416200Y0027200D01*
X0416200Y0197200D01*
D16*
X0275450Y0246594D03*
X0242200Y0246594D03*
X0209700Y0246594D03*
X0177950Y0246344D03*
X0144700Y0246344D03*
X0112450Y0246344D03*
X0080450Y0246344D03*
X0048200Y0246344D03*
D17*
X0040048Y0289700D02*
X0040050Y0313300D01*
X0040048Y0289700D02*
X0065852Y0289700D01*
X0065850Y0313300D01*
X0072300Y0313300D02*
X0072298Y0289700D01*
X0098102Y0289700D01*
X0098100Y0313300D01*
X0104300Y0313300D02*
X0104298Y0289700D01*
X0130102Y0289700D01*
X0130100Y0313300D01*
X0137050Y0313550D02*
X0137048Y0289950D01*
X0162852Y0289950D01*
X0162850Y0313550D01*
X0169300Y0313300D02*
X0169298Y0289700D01*
X0195102Y0289700D01*
X0195100Y0313300D01*
X0201800Y0313300D02*
X0201798Y0289700D01*
X0227602Y0289700D01*
X0227600Y0313300D01*
X0234300Y0313300D02*
X0234298Y0289700D01*
X0260102Y0289700D01*
X0260100Y0313300D01*
X0266800Y0313550D02*
X0266798Y0289950D01*
X0292602Y0289950D01*
X0292600Y0313550D01*
X0452700Y0317400D02*
X0461700Y0317400D01*
X0461700Y0337000D01*
X0452700Y0337000D01*
X0452700Y0317400D01*
X0476432Y0290200D02*
X0480460Y0294137D01*
X0480460Y0286263D01*
X0476432Y0290200D01*
X0401924Y0184483D02*
X0382476Y0184483D01*
X0382476Y0169917D01*
X0401924Y0169917D01*
X0401924Y0184483D01*
X0171983Y0123174D02*
X0171983Y0103726D01*
X0157417Y0103726D01*
X0157417Y0123174D01*
X0171983Y0123174D01*
D18*
X0182200Y0287800D03*
X0149950Y0288050D03*
X0117200Y0287800D03*
X0085200Y0287800D03*
X0052950Y0287800D03*
X0214700Y0287800D03*
X0247200Y0287800D03*
X0279700Y0288050D03*
D19*
X0385704Y0173066D03*
X0168834Y0106954D03*
D20*
X0207859Y0094812D03*
X0207859Y0090088D03*
X0207609Y0132088D03*
X0207609Y0136812D03*
D21*
X0207609Y0134450D03*
X0207859Y0092450D03*
X0362950Y0151859D03*
X0462200Y0236609D03*
X0471700Y0236609D03*
D22*
X0486077Y0334537D02*
X0487312Y0334537D01*
X0487929Y0335154D01*
X0489143Y0334537D02*
X0491612Y0334537D01*
X0492827Y0334537D02*
X0495295Y0334537D01*
X0494061Y0334537D02*
X0494061Y0338240D01*
X0492827Y0337006D01*
X0490378Y0338240D02*
X0490378Y0334537D01*
X0489143Y0337006D02*
X0490378Y0338240D01*
X0487929Y0337623D02*
X0487312Y0338240D01*
X0486077Y0338240D01*
X0485460Y0337623D01*
X0485460Y0335154D01*
X0486077Y0334537D01*
X0397678Y0028490D02*
X0398295Y0027873D01*
X0395827Y0025404D01*
X0396444Y0024787D01*
X0397678Y0024787D01*
X0398295Y0025404D01*
X0398295Y0027873D01*
X0397678Y0028490D02*
X0396444Y0028490D01*
X0395827Y0027873D01*
X0395827Y0025404D01*
X0394612Y0024787D02*
X0392143Y0024787D01*
X0393378Y0024787D02*
X0393378Y0028490D01*
X0392143Y0027256D01*
X0390929Y0027873D02*
X0390312Y0028490D01*
X0389077Y0028490D01*
X0388460Y0027873D01*
X0388460Y0025404D01*
X0389077Y0024787D01*
X0390312Y0024787D01*
X0390929Y0025404D01*
D23*
X0452771Y0296438D03*
X0461629Y0296438D03*
D24*
X0459838Y0236609D03*
X0464562Y0236609D03*
X0469338Y0236609D03*
X0474062Y0236609D03*
X0365312Y0151859D03*
X0360588Y0151859D03*
M02*
