%
M48
M72
T01C0.01969
T02C0.02362
T03C0.02756
T04C0.03150
T05C0.04000
T06C0.04016
T07C0.05906
T08C0.11811
T09C0.12598
%
T01
X86700Y75950
X85700Y97950
X97200Y107200
X97200Y112200
X97200Y117200
X86200Y126950
X85450Y148950
X82200Y182200
X82200Y187200
X82200Y192200
X82200Y197200
X82200Y202200
X82200Y207200
X97700Y216950
X98450Y232450
X103700Y232450
X147200Y209950
X167200Y202700
X166700Y197200
X180440Y208960
X201190Y197200
X221700Y183450
X247200Y172200
X253450Y176950
X261700Y160450
X242200Y162200
X242200Y157200
X242200Y152200
X242200Y147200
X242200Y142200
X253450Y121950
X242200Y102200
X242200Y97200
X242200Y92200
X242200Y87200
X242200Y82200
X242200Y77200
X254450Y67200
X281190Y86950
X295450Y95700
X302200Y82200
X302200Y77200
X302200Y72200
X302200Y67200
X313450Y37450
X342200Y102200
X342200Y132200
X357200Y137200
X342200Y152200
X353950Y159700
X356450Y156200
X353700Y164200
X376700Y164950
X375450Y172710
X378200Y188700
X372700Y190200
X366700Y187950
X346950Y190700
X342950Y202950
X346200Y205950
X332200Y222200
X332200Y227200
X347200Y232200
X357200Y232200
X404700Y212950
X404700Y193950
X393950Y193950
X391450Y180700
X399450Y153450
X381450Y148700
X392200Y137200
X402200Y127200
X287950Y162200
X285450Y165950
X286950Y170200
X284700Y173950
X286450Y178200
X286450Y182950
X286200Y187450
X284450Y159200
X280940Y142200
X199200Y124700
X177200Y127200
X172200Y127200
X167200Y127200
X140950Y124950
X122950Y124700
X174450Y100200
X178950Y95450
X199450Y102450
X182200Y57200
X177200Y57200
X172200Y57200
X167200Y57200
X162200Y57200
X157200Y57200
X152200Y172200
X147200Y172200
X142200Y172200
X137200Y172200
X147200Y192200
X194200Y176950
X184200Y232950
X179450Y235450
X173450Y237200
X172700Y249200
X187450Y254200
X182200Y277200
X182200Y282200
X149950Y282700
X149950Y278450
X117200Y277200
X117200Y281700
X85200Y281700
X85200Y277450
X65950Y332450
X70950Y335200
X75450Y338450
X112200Y357200
X117200Y357200
X122200Y357200
X127200Y357200
X132200Y357200
X79200Y379700
X192200Y334200
X249950Y377450
X261450Y344450
X264700Y340450
X300200Y333200
X303450Y328700
X279950Y282450
X279950Y277700
X260950Y259450
X280950Y254450
X289450Y228700
X294950Y228950
X247450Y277700
X247200Y282450
X214700Y282450
X214950Y277700
X219950Y254200
X427200Y362200
X432200Y362200
X437200Y362200
X442200Y362200
X491200Y264700
X483450Y257950
T02
X517200Y257200
X517200Y267200
X517200Y277200
X517200Y287200
X517200Y297200
X517200Y307200
X517200Y317200
X517200Y327200
X517200Y247200
X517200Y237200
X517200Y227200
X517200Y217200
X517200Y207200
X517200Y197200
X517200Y187200
X517200Y177200
X517200Y167200
X517200Y157200
X517200Y147200
X517200Y137200
X517200Y127200
X517200Y117200
X517200Y107200
X517200Y97200
X517200Y87200
X517200Y77200
X517200Y67200
X477450Y105950
X422950Y105700
X397700Y105700
X391200Y66700
X102200Y210950
X17200Y207200
X17200Y197200
X17200Y187200
X17200Y177200
X17200Y167200
X17200Y157200
X17200Y147200
X17200Y137200
X17200Y127200
X17200Y117200
X17200Y107200
X17200Y97200
X17200Y87200
X17200Y77200
X17200Y67200
X17200Y217200
X17200Y227200
X17200Y237200
X17200Y247200
X17200Y257200
X17200Y267200
X17200Y277200
X17200Y287200
X17200Y297200
X17200Y307200
X17200Y317200
X17200Y327200
T03
X492450Y305450
T04
X407200Y97200
X407200Y87200
X407200Y77200
X407200Y67200
X407200Y57200
X407200Y47200
X407200Y37200
X407200Y27200
X357200Y27200
X357200Y37200
X357200Y47200
X357200Y57200
X357200Y67200
X357200Y77200
X357200Y87200
X357200Y97200
T05
X357200Y117200
X347200Y117200
X332200Y122200
X332200Y132200
X332200Y142200
X322200Y142200
X322200Y132200
X322200Y122200
X322200Y112200
X322200Y102200
X332200Y102200
X332200Y112200
X332200Y92200
X332200Y82200
X332200Y72200
X322200Y72200
X322200Y82200
X322200Y92200
X322200Y62200
X322200Y52200
X322200Y42200
X332200Y42200
X332200Y52200
X332200Y62200
X332200Y32200
X322200Y32200
X292200Y32200
X282200Y32200
X272200Y32200
X262200Y32200
X252200Y32200
X242200Y32200
X232200Y32200
X222200Y32200
X202200Y32200
X192200Y32200
X182200Y32200
X172200Y32200
X162200Y32200
X152200Y32200
X142200Y32200
X132200Y32200
X116200Y32200
X106200Y32200
X96200Y32200
X86200Y32200
X76200Y32200
X66200Y32200
X56200Y32200
X46200Y32200
X82200Y222200
X92200Y222200
X102200Y222200
X112200Y222200
X122200Y222200
X132200Y222200
X152200Y222200
X162200Y222200
X172200Y222200
X182200Y222200
X192200Y222200
X202200Y222200
X212200Y222200
X222200Y222200
X242200Y222200
X252200Y222200
X262200Y222200
X272200Y222200
X282200Y222200
X292200Y222200
X302200Y222200
X312200Y222200
X322200Y202200
X332200Y202200
X332200Y192200
X332200Y182200
X332200Y172200
X322200Y172200
X322200Y182200
X322200Y192200
X322200Y162200
X322200Y152200
X332200Y152200
X332200Y162200
X367200Y117200
X377200Y117200
X387200Y117200
X397200Y117200
X407200Y117200
X407200Y272200
X397200Y272200
X387200Y272200
X377200Y272200
X367200Y272200
X357200Y272200
X347200Y272200
X337200Y272200
X327200Y272200
X317200Y272200
X307200Y272200
X307200Y282200
X307200Y292200
X317200Y292200
X317200Y282200
X327200Y282200
X327200Y292200
X337200Y292200
X347200Y292200
X347200Y282200
X337200Y282200
X357200Y282200
X357200Y292200
X367200Y292200
X367200Y282200
X377200Y282200
X377200Y292200
X387200Y292200
X387200Y282200
X397200Y282200
X397200Y292200
X407200Y292200
X407200Y282200
X417200Y282200
X427200Y282200
X427200Y292200
X417200Y292200
X417200Y272200
X427200Y272200
X268450Y360450
X258450Y360450
T06
X240194Y361200
X228383Y361200
X216572Y361200
X204761Y361200
X192950Y361200
X192950Y349389
X204761Y349389
X216572Y349389
X228383Y349389
X240194Y349389
X282739Y349389
X282739Y361200
X294550Y361200
X306361Y361200
X318172Y361200
X329983Y361200
X341794Y361200
X341794Y349389
X329983Y349389
X318172Y349389
X306361Y349389
X294550Y349389
X353606Y349389
X365417Y349389
X377228Y349389
X389039Y349389
X400850Y349389
X412661Y349389
X412661Y361200
X400850Y361200
X389039Y361200
X377228Y361200
X365417Y361200
X353606Y361200
X455639Y361200
X467450Y361200
X479261Y361200
X479261Y349389
X467450Y349389
X455639Y349389
X181139Y349389
X169328Y349389
X157517Y349389
X145706Y349389
X145706Y361200
X157517Y361200
X169328Y361200
X181139Y361200
X103322Y360950
X91511Y360950
X79700Y360950
X67889Y360950
X56078Y360950
X56078Y349139
X67889Y349139
X79700Y349139
X91511Y349139
X103322Y349139
T07
X423200Y190200
X491200Y190200
X491200Y34200
X423200Y34200
T08
X404157Y394783
X467450Y394783
X291243Y394783
X231690Y394783
X154210Y394783
X94818Y394533
X64582Y394533
T09
X22200Y27200
X22200Y352200
X512200Y352200
X512200Y27200
M30
