G75*
%MOIN*%
%OFA0B0*%
%FSLAX25Y25*%
%IPPOS*%
%LPD*%
%AMOC8*
5,1,8,0,0,1.08239X$1,22.5*
%
%ADD10R,0.05906X0.05118*%
%ADD11R,0.04724X0.04724*%
%ADD12R,0.21260X0.24409*%
%ADD13R,0.03937X0.06299*%
%ADD14R,0.05906X0.01772*%
%ADD15R,0.05118X0.05906*%
%ADD16R,0.12598X0.07087*%
%ADD17R,0.05512X0.05512*%
%ADD18R,0.05512X0.11811*%
%ADD19R,0.06299X0.05118*%
%ADD20R,0.06693X0.09843*%
%ADD21R,0.09449X0.09449*%
%ADD22R,0.01772X0.05906*%
D10*
X0109700Y0108960D03*
X0109700Y0116440D03*
X0124700Y0116440D03*
X0124700Y0108960D03*
X0140200Y0108960D03*
X0140200Y0116440D03*
X0147200Y0134960D03*
X0147200Y0142440D03*
X0147200Y0090940D03*
X0147200Y0083460D03*
X0155200Y0241710D03*
X0155200Y0249190D03*
X0155200Y0259210D03*
X0155200Y0266690D03*
X0144700Y0266690D03*
X0144700Y0259210D03*
X0122700Y0259210D03*
X0112450Y0259210D03*
X0112450Y0266690D03*
X0122700Y0266690D03*
X0122700Y0249190D03*
X0122700Y0241710D03*
X0091450Y0241710D03*
X0091450Y0249190D03*
X0091450Y0259210D03*
X0091450Y0266690D03*
X0080450Y0266690D03*
X0080450Y0259210D03*
X0058450Y0259210D03*
X0048200Y0259210D03*
X0048200Y0266690D03*
X0058450Y0266690D03*
X0058450Y0249190D03*
X0058450Y0241710D03*
X0177950Y0259210D03*
X0177950Y0266690D03*
X0187450Y0266690D03*
X0187450Y0259210D03*
X0187450Y0249440D03*
X0187450Y0241960D03*
X0209700Y0259210D03*
X0209700Y0266690D03*
X0219950Y0266690D03*
X0219950Y0259210D03*
X0219950Y0249440D03*
X0219950Y0241960D03*
X0242200Y0259210D03*
X0242200Y0266690D03*
X0252700Y0266940D03*
X0252700Y0259460D03*
X0252700Y0249440D03*
X0252700Y0241960D03*
X0275450Y0259460D03*
X0275450Y0266940D03*
X0285700Y0266940D03*
X0285700Y0259460D03*
X0285700Y0249440D03*
X0285700Y0241960D03*
X0307200Y0253210D03*
X0307200Y0260690D03*
X0317200Y0260940D03*
X0317200Y0253460D03*
X0327200Y0253460D03*
X0327200Y0260940D03*
X0337200Y0260940D03*
X0347200Y0260940D03*
X0347200Y0253460D03*
X0337200Y0253460D03*
X0357200Y0253460D03*
X0357200Y0260940D03*
X0367200Y0260940D03*
X0367200Y0253460D03*
X0377200Y0253460D03*
X0377200Y0260940D03*
X0387200Y0260940D03*
X0387200Y0253460D03*
X0397200Y0253460D03*
X0397200Y0260940D03*
X0407200Y0260940D03*
X0407200Y0253460D03*
X0417200Y0253460D03*
X0427200Y0253460D03*
X0427200Y0260940D03*
X0417200Y0260940D03*
X0462200Y0257190D03*
X0462200Y0249710D03*
X0471700Y0249960D03*
X0471700Y0257440D03*
X0427200Y0303460D03*
X0417200Y0303460D03*
X0417200Y0310940D03*
X0427200Y0310940D03*
X0407200Y0310940D03*
X0407200Y0303460D03*
X0397200Y0303460D03*
X0397200Y0310940D03*
X0387200Y0310940D03*
X0387200Y0303460D03*
X0377200Y0303460D03*
X0377200Y0310940D03*
X0367200Y0310940D03*
X0367200Y0303460D03*
X0357200Y0303460D03*
X0357200Y0310940D03*
X0347200Y0310940D03*
X0337200Y0310940D03*
X0337200Y0303460D03*
X0347200Y0303460D03*
X0327200Y0303460D03*
X0327200Y0310940D03*
X0317200Y0310940D03*
X0317200Y0303460D03*
X0307200Y0303460D03*
X0307200Y0310940D03*
X0369950Y0206440D03*
X0369950Y0198960D03*
X0379700Y0198960D03*
X0389200Y0198960D03*
X0389200Y0206440D03*
X0379700Y0206440D03*
X0398950Y0206440D03*
X0398950Y0198960D03*
X0409200Y0180440D03*
X0409200Y0172960D03*
X0390950Y0156690D03*
X0390950Y0149210D03*
X0381450Y0149210D03*
X0381450Y0156690D03*
X0371700Y0156690D03*
X0371700Y0149210D03*
X0375450Y0172710D03*
X0375450Y0180190D03*
X0365700Y0180190D03*
X0365700Y0172710D03*
X0355700Y0172710D03*
X0355700Y0180190D03*
D11*
X0362950Y0156584D03*
X0362950Y0148316D03*
X0462200Y0233066D03*
X0462200Y0241334D03*
X0471700Y0241334D03*
X0471700Y0233066D03*
X0275450Y0242066D03*
X0275450Y0250334D03*
X0242200Y0250334D03*
X0242200Y0242066D03*
X0209700Y0242066D03*
X0209700Y0250334D03*
X0177950Y0250084D03*
X0177950Y0241816D03*
X0144700Y0241816D03*
X0144700Y0250084D03*
X0112450Y0250084D03*
X0112450Y0241816D03*
X0080450Y0241816D03*
X0080450Y0250084D03*
X0048200Y0250084D03*
X0048200Y0241816D03*
X0204066Y0134450D03*
X0212334Y0134450D03*
X0212584Y0092450D03*
X0204316Y0092450D03*
D12*
X0214700Y0308043D03*
X0182200Y0308043D03*
X0149950Y0308293D03*
X0117200Y0308043D03*
X0085200Y0308043D03*
X0052950Y0308043D03*
X0247200Y0308043D03*
X0279700Y0308293D03*
D13*
X0270724Y0279552D03*
X0256176Y0279302D03*
X0238224Y0279302D03*
X0223676Y0279302D03*
X0205724Y0279302D03*
X0191176Y0279302D03*
X0173224Y0279302D03*
X0158926Y0279552D03*
X0140974Y0279552D03*
X0126176Y0279302D03*
X0108224Y0279302D03*
X0094176Y0279302D03*
X0076224Y0279302D03*
X0061926Y0279302D03*
X0043974Y0279302D03*
X0288676Y0279552D03*
D14*
X0175291Y0122200D03*
X0175291Y0119700D03*
X0175291Y0117200D03*
X0175291Y0114700D03*
X0175291Y0112200D03*
X0175291Y0109700D03*
X0175291Y0107200D03*
X0175291Y0104700D03*
X0154109Y0104700D03*
X0154109Y0107200D03*
X0154109Y0109700D03*
X0154109Y0112200D03*
X0154109Y0114700D03*
X0154109Y0117200D03*
X0154109Y0119700D03*
X0154109Y0122200D03*
D15*
X0136940Y0133700D03*
X0129460Y0133700D03*
X0119440Y0133700D03*
X0111960Y0133700D03*
X0111710Y0143700D03*
X0119190Y0143700D03*
X0129460Y0143700D03*
X0136940Y0143700D03*
X0186710Y0134450D03*
X0194190Y0134450D03*
X0194190Y0124700D03*
X0186710Y0124700D03*
X0204460Y0124700D03*
X0211940Y0124700D03*
X0211940Y0102450D03*
X0204460Y0102450D03*
X0194190Y0102450D03*
X0186710Y0102450D03*
X0186710Y0092450D03*
X0194190Y0092450D03*
X0136940Y0091950D03*
X0129460Y0091950D03*
X0129460Y0081950D03*
X0136940Y0081950D03*
X0119440Y0081950D03*
X0111960Y0081950D03*
X0111960Y0091950D03*
X0119440Y0091950D03*
X0152960Y0192450D03*
X0160440Y0192450D03*
X0172960Y0192450D03*
X0180440Y0192450D03*
X0180440Y0202450D03*
X0172960Y0202450D03*
X0160440Y0202450D03*
X0152960Y0202450D03*
X0193710Y0202200D03*
X0201190Y0202200D03*
X0200690Y0191950D03*
X0193210Y0191950D03*
X0213960Y0192200D03*
X0221440Y0192200D03*
X0221440Y0202200D03*
X0213960Y0202200D03*
X0248460Y0202200D03*
X0255940Y0202200D03*
X0255940Y0192200D03*
X0248460Y0192200D03*
X0268460Y0192200D03*
X0275940Y0192200D03*
X0275940Y0202200D03*
X0268460Y0202200D03*
X0273460Y0147200D03*
X0280940Y0147200D03*
X0280940Y0137200D03*
X0273460Y0137200D03*
X0260940Y0137200D03*
X0253460Y0137200D03*
X0253460Y0147200D03*
X0260940Y0147200D03*
X0262690Y0092450D03*
X0255210Y0092450D03*
X0255210Y0081700D03*
X0262690Y0081700D03*
X0273710Y0081700D03*
X0281190Y0081700D03*
X0281190Y0092450D03*
X0273710Y0092450D03*
X0376210Y0066700D03*
X0383690Y0066700D03*
X0386960Y0088700D03*
X0394440Y0088700D03*
D16*
X0096700Y0075926D03*
X0096700Y0097974D03*
X0096950Y0126926D03*
X0096950Y0148974D03*
X0355700Y0199176D03*
X0355700Y0221224D03*
D17*
X0274680Y0177200D03*
X0274680Y0167200D03*
X0259720Y0167200D03*
X0259720Y0177200D03*
X0215430Y0177200D03*
X0215430Y0167950D03*
X0200470Y0167950D03*
X0200470Y0177200D03*
X0174180Y0177450D03*
X0174180Y0167450D03*
X0159220Y0167450D03*
X0159220Y0177450D03*
X0259720Y0122200D03*
X0259720Y0112200D03*
X0274680Y0112200D03*
X0274680Y0122200D03*
X0274680Y0067200D03*
X0274680Y0057200D03*
X0259720Y0057200D03*
X0259720Y0067200D03*
D18*
X0383700Y0053149D03*
X0383700Y0034251D03*
X0479950Y0309501D03*
X0479950Y0328399D03*
D19*
X0457200Y0333200D03*
X0457200Y0321200D03*
D20*
X0457200Y0309824D03*
X0457200Y0294076D03*
D21*
X0471039Y0290200D03*
X0488361Y0290200D03*
D22*
X0400950Y0187791D03*
X0398450Y0187791D03*
X0395950Y0187791D03*
X0393450Y0187791D03*
X0390950Y0187791D03*
X0388450Y0187791D03*
X0385950Y0187791D03*
X0383450Y0187791D03*
X0383450Y0166609D03*
X0385950Y0166609D03*
X0388450Y0166609D03*
X0390950Y0166609D03*
X0393450Y0166609D03*
X0395950Y0166609D03*
X0398450Y0166609D03*
X0400950Y0166609D03*
M02*
